<?xml version="1.0" encoding="UTF-8"?>
<!DOCTYPE svg PUBLIC "-//W3C//DTD SVG 1.1//EN" "http://www.w3.org/Graphics/SVG/1.1/DTD/svg11.dtd">
<!-- Creator: CorelDRAW -->
<svg xmlns="http://www.w3.org/2000/svg" xml:space="preserve" width="162.23mm" height="40.4443mm" version="1.1" style="shape-rendering:geometricPrecision; text-rendering:geometricPrecision; image-rendering:optimizeQuality; fill-rule:evenodd; clip-rule:evenodd"
viewBox="0 0 672.99 167.78"
 xmlns:xlink="http://www.w3.org/1999/xlink"
 xmlns:xodm="http://www.corel.com/coreldraw/odm/2003">
 <defs>
  <style type="text/css">
   <![CDATA[
    .fil1 {fill:#D5838F}
    .fil2 {fill:#85AECB}
    .fil0 {fill:#528297;fill-rule:nonzero}
   ]]>
  </style>
 </defs>
 <g id="Camada_x0020_1">
  <metadata id="CorelCorpID_0Corel-Layer"/>
  <g id="_2783173041840">
   <path class="fil0" d="M470.71 30.99l-0.11 -0.07 -0.32 -0.17 -0.34 -0.16 -0.35 -0.15 -0.37 -0.13 -0.36 -0.11 -0.36 -0.09 -0.35 -0.06 -0.35 -0.04 -0.34 -0.02 -0.34 0 -0.33 0.03 -0.33 0.05 -0.32 0.07 -0.32 0.09 -0.31 0.11 -0.31 0.14 -0.31 0.16 -0.3 0.18 -0.3 0.2 -0.25 0.19 -0.24 0.21 -0.24 0.22 -0.23 0.23 -0.23 0.24 -0.22 0.26 -0.21 0.27 -0.21 0.28 -0.2 0.3 -0.19 0.31 -0.19 0.32 -0.18 0.34 -0.18 0.35 -0.17 0.36 -0.16 0.37 -0.16 0.39 -0.14 0.38 -0.13 0.38 -0.11 0.37 -0.1 0.37 -0.09 0.36 -0.07 0.36 -0.06 0.35 -0.05 0.35 -0.03 0.33 -0.02 0.33 -0.01 0.32 0.01 0.32 0.02 0.31 0.03 0.31 0.04 0.3 0.06 0.3 0.08 0.33 0.1 0.32 0.12 0.31 0.13 0.29 0.15 0.28 0.03 0.06c0.32,0.2 0.68,0.37 1.07,0.52 0.97,0.38 1.9,0.51 2.77,0.41 0.87,-0.1 1.7,-0.44 2.5,-1.02l0.01 -0.01c0.69,-0.49 1.31,-1.11 1.86,-1.87 0.55,-0.76 1.02,-1.65 1.42,-2.68 0.4,-1.05 0.66,-2.03 0.77,-2.96 0.11,-0.9 0.08,-1.75 -0.09,-2.54l-0.01 -0.03c-0.12,-0.57 -0.32,-1.08 -0.59,-1.54zm8.14 6l-0.05 0.61 -0.07 0.62 -0.1 0.63 -0.13 0.64 -0.16 0.64 -0.19 0.65 -0.22 0.66 -0.24 0.66 -0.26 0.64 -0.28 0.62 -0.29 0.6 -0.31 0.57 -0.33 0.55 -0.34 0.52 -0.36 0.5 -0.38 0.47 -0.39 0.45 -0.41 0.43 -0.43 0.4 -0.44 0.38 -0.46 0.36 -0.47 0.33 -0.49 0.31 -0.51 0.28 -0.02 0.01 -0.54 0.27 -0.55 0.24 -0.55 0.2 -0.56 0.17 -0.57 0.14 -0.57 0.1 -0.58 0.07 -0.59 0.04 -0.59 0 -0.6 -0.03 -0.6 -0.06 -0.61 -0.1 -0.62 -0.13 -0.62 -0.16 -0.63 -0.2 -0.63 -0.23 -0.63 -0.26 -0.6 -0.28 -0.57 -0.3 -0.55 -0.32 -0.52 -0.34 -0.49 -0.36 -0.47 -0.38 -0.44 -0.4 -1.71 -1.71c-0.14,-0.14 -0.28,-0.28 -0.42,-0.43 -0.95,-1.03 -1.67,-2.23 -2.16,-3.6l-0.02 -0.05c-1.06,-3 -0.92,-6.26 0.44,-9.78 0.68,-1.77 1.53,-3.28 2.55,-4.52l0.03 -0.04c1.02,-1.24 2.19,-2.22 3.53,-2.94l0.03 -0.01c1.43,-0.76 2.94,-1.17 4.51,-1.22 1.58,-0.05 3.22,0.25 4.93,0.91 1.73,0.67 3.17,1.56 4.32,2.66 0.15,0.14 0.29,0.29 0.43,0.43l1.71 1.71 0.4 0.46 0.37 0.48 0.34 0.5 0.31 0.52 0.28 0.54 0.26 0.56 0.23 0.58 0.01 0.04 0.18 0.56 0.15 0.57 0.12 0.57 0.09 0.58 0.07 0.59 0.04 0.6 0.01 0.6 -0.02 0.61zm-29.27 -13.89l-0.04 0.12 -0.06 0.11 -0.07 0.09 -0.08 0.07 -0.09 0.05 -0.1 0.03 -0.1 0.01 -0.1 -0.02 -6.7 -1.85 -5.18 18.71 -0.04 0.12 -0.06 0.11 -0.07 0.09 -0.08 0.07 -0.09 0.05 -0.1 0.03 -0.1 0.01 -0.1 -0.02 -4.19 -1.16 -0.11 -0.05 -0.1 -0.07 -1.71 -1.71c-0.18,-0.16 -0.28,-0.46 -0.23,-0.75l4.83 -17.47 -4.08 -1.13 -0.11 -0.04 -0.1 -0.07 -1.71 -1.71c-0.18,-0.16 -0.28,-0.46 -0.23,-0.75l1.02 -3.71c0.1,-0.35 0.38,-0.54 0.65,-0.47l18.1 5.01c0.08,0.02 0.15,0.06 0.21,0.12l0.03 0.03 0.01 0.01 1.67 1.67 0.08 0.09 0.07 0.11 0.05 0.12 0.03 0.14 0.01 0.14 -0.01 0.15 -1.03 3.71zm-39.63 -3.94l-1.37 2.19 1.83 0.35 -0.47 -2.54zm9.72 17.11l-0.03 0.01 -0.03 0.01 -0.03 0 -0.03 0 -0.03 0 -0.03 -0 -0.03 -0 -0.03 -0 -4.78 -0.92 -0.09 -0.03 -0.08 -0.04 -0.08 -0.06 -1.71 -1.71c-0.12,-0.11 -0.2,-0.28 -0.23,-0.47l-0.82 -4.42 -6.89 -1.32 -3.25 5.14 -0.05 0.07 -0.06 0.06 -0.06 0.05 -0.06 0.04 -0.07 0.03 -0.07 0.02 -0.07 0 -0.07 -0.01 -4.58 -0.84 -0.11 -0.03 -0.1 -0.06 -0.09 -0.08 -1.64 -1.64c-0.02,-0.02 -0.05,-0.04 -0.07,-0.07 -0.13,-0.16 -0.21,-0.39 -0.18,-0.64 0.02,-0.14 0.06,-0.27 0.13,-0.38l14.14 -21.52c0.13,-0.2 0.32,-0.28 0.51,-0.25l4.07 0.78c0.09,0.02 0.17,0.06 0.24,0.12l0.01 0.01 0.01 0.01 0.01 0.01 0.01 0.01 0.01 0.01 1.67 1.67 0.07 0.07 0.06 0.08 0.05 0.09 0.04 0.1 0.02 0.11 4.81 25.12 0.02 0.15 -0.01 0.14 -0.03 0.14 -0.05 0.13 -0.06 0.11 -0.08 0.1 -0.09 0.07 -0.11 0.05zm-30.15 -6.15l-0.03 0.14 -0.04 0.13 -0.06 0.11 -0.08 0.09 -0.09 0.07 -0.1 0.05 -0.1 0.03 -0.11 0 -14.11 -1.56 -0.11 -0.03 -0.1 -0.05 -0.09 -0.08 -1.69 -1.69 -0.01 -0.01 -0.01 -0.01c-0.14,-0.15 -0.22,-0.38 -0.21,-0.63l2.62 -23.69c0.04,-0.39 0.31,-0.66 0.6,-0.63l4.32 0.48c0.12,0.01 0.22,0.07 0.31,0.16l1.71 1.71 0.08 0.1 0.06 0.12 0.04 0.13 0.02 0.14 0 0.15 -1.96 17.69 7.31 0.81c0.12,0.01 0.22,0.07 0.31,0.16l1.71 1.71 0.08 0.1 0.06 0.12 0.04 0.13 0.02 0.14 0 0.15 -0.42 3.78zm-25.47 -1.98l-0.01 -0 -14.15 -0.64 -0.11 -0.02 -0.1 -0.05 -0.09 -0.07 -1.71 -1.71c-0.15,-0.14 -0.24,-0.36 -0.23,-0.62l1.08 -23.79c0.02,-0.4 0.28,-0.71 0.6,-0.69l13.85 0.63c0.12,0 0.22,0.06 0.31,0.14l0.01 0.01 0.01 0.01 0.01 0.01 1.68 1.68 0.08 0.09 0.07 0.11 0.05 0.13 0.03 0.14 0.01 0.15 -0.17 3.77 -0.02 0.15 -0.04 0.13 -0.06 0.12 -0.07 0.1 -0.09 0.08 -0.1 0.06 -0.11 0.03 -0.11 0.01 -8.96 -0.41 -0.12 2.75 5.59 0.25c0.12,0 0.22,0.06 0.31,0.14l0.01 0.01 0.01 0.01 0.01 0.01 1.68 1.68 0.08 0.09 0.07 0.11 0.05 0.13 0.03 0.14 0.01 0.15 -0.16 3.63 -0.02 0.15 -0.04 0.13 -0.06 0.12 -0.07 0.1 -0.09 0.08 -0.1 0.06 -0.11 0.03 -0.11 0.01 -7.39 -0.34 -0.17 3.72 7.47 0.34c0.12,0 0.22,0.06 0.31,0.14l0.01 0.01 0.01 0.01 0.01 0.01 1.68 1.68 0.08 0.09 0.07 0.11 0.05 0.13 0.03 0.14 0.01 0.15 -0.17 3.77 -0.02 0.15 -0.04 0.13 -0.06 0.12 -0.07 0.1 -0.09 0.08 -0.1 0.06 -0.11 0.03 -0.11 0.01zm-25.47 -3.2l-0 0.12 -0.02 0.11 -0.03 0.1 -0.04 0.09 -0.05 0.09 -0.06 0.08 -0.07 0.06 -0.08 0.05 -0.49 0.24 -0.49 0.23 -0.49 0.21 -0.5 0.2 -0.5 0.18 -0.5 0.17 -0.5 0.15 -0.5 0.14 -0.51 0.12 -0.51 0.11 -0.51 0.09 -0.51 0.08 -0.51 0.06 -0.52 0.05 -0.52 0.03 -0.52 0.02 -0.72 0 -0.7 -0.03 -0.68 -0.05 -0.67 -0.08 -0.65 -0.11 -0.64 -0.14 -0.62 -0.16 -0.61 -0.19 -0.6 -0.22 -0.58 -0.25 -0.56 -0.27 -0.55 -0.3 -0.53 -0.33 -0.52 -0.36 -0.5 -0.38 -0.48 -0.41 -0.47 -0.44 -1.71 -1.71c-1.06,-1.05 -1.88,-2.27 -2.47,-3.65 -0.67,-1.58 -1.02,-3.36 -1.06,-5.35 -0.04,-2.07 0.23,-3.93 0.81,-5.56 0.58,-1.65 1.48,-3.06 2.68,-4.25 1.16,-1.13 2.55,-1.99 4.15,-2.57 1.58,-0.57 3.39,-0.88 5.41,-0.92 1.13,-0.02 2.32,0.09 3.55,0.34 1.24,0.25 2.52,0.63 3.85,1.15 0.07,0.03 0.14,0.08 0.2,0.14l1.71 1.71 0.08 0.1 0.06 0.12 0.04 0.13 0.02 0.14 0 0.14 -0.02 0.15 -0 0.02 -0 0.02 -0.01 0.02 -0.01 0.02 -0.01 0.02 -0.01 0.02 -0.01 0.02 -0.01 0.02 -1.38 3.61 -0.05 0.11 -0.07 0.1 -0.08 0.08 -0.09 0.06 -0.09 0.04 -0.1 0.02 -0.1 -0 -0.1 -0.03 -0.41 -0.16 -0.41 -0.15 -0.4 -0.14 -0.4 -0.13 -0.39 -0.12 -0.39 -0.11 -0.38 -0.1 -0.38 -0.09 -0.37 -0.07 -0.37 -0.06 -0.36 -0.05 -0.36 -0.04 -0.35 -0.03 -0.35 -0.02 -0.34 -0.01 -0.34 0 -0.42 0.02 -0.41 0.03 -0.4 0.05 -0.38 0.06 -0.37 0.08 -0.36 0.1 -0.35 0.11 -0.34 0.13 -0.32 0.14 -0.3 0.16 -0.29 0.17 -0.28 0.19 -0.27 0.2 -0.26 0.22 -0.25 0.23 -0.24 0.25 -0.22 0.26 -0.2 0.27 -0.19 0.28 -0.17 0.29 -0.16 0.3 -0.15 0.31 -0.13 0.31 -0.12 0.32 -0.1 0.34 -0.09 0.35 -0.07 0.36 -0.06 0.37 -0.04 0.38 -0.03 0.39 -0.01 0.4 0 0.41 0.02 0.45 0.03 0.44 0.04 0.43 0.06 0.42 0.07 0.4 0.09 0.39 0.1 0.38 0.11 0.37 0.13 0.35 0.14 0.34 0.15 0.33 0.17 0.32 0.18 0.31 0.15 0.23c0.37,0.25 0.76,0.46 1.19,0.62 0.96,0.38 2.06,0.56 3.3,0.54 1.26,-0.02 2.32,-0.18 3.17,-0.45 -0.02,-0.2 -0.03,-0.4 -0.04,-0.61l-0.14 -7.3c-0.01,-0.4 0.24,-0.74 0.55,-0.75l4.32 -0.08c0.12,-0 0.22,0.04 0.31,0.12 0.02,0.02 0.05,0.04 0.07,0.07l1.64 1.64 0.08 0.09 0.07 0.11 0.05 0.12 0.03 0.13 0.01 0.15 0.21 10.99zm-39.64 -17.93l0 -0 0 -0 -0.01 0zm-5.19 20.73l0 -0 0 -0 -0.01 0zm6.8 -18.99l-0.03 0.01 -6.8 0.75 2.12 19.15 0 0.15 -0.02 0.14 -0.04 0.13 -0.06 0.12 -0.07 0.1 -0.09 0.08 -0.1 0.06 -0.11 0.04 -4.35 0.48 -0.11 -0 -0.11 -0.03 -0.1 -0.06 -0.09 -0.08 -1.68 -1.67 -0 -0 -0.01 -0.01 -0.01 -0.01 -0.01 -0.01c-0.11,-0.12 -0.19,-0.29 -0.2,-0.49l-1.92 -17.32 -4.92 0.55 -0.11 -0 -0.11 -0.03 -0.1 -0.06 -0.09 -0.08 -1.68 -1.67 -0 -0 -0.01 -0.01 -0.01 -0.01 -0.01 -0.01c-0.11,-0.12 -0.19,-0.29 -0.2,-0.49l-0.41 -3.7c-0.04,-0.4 0.17,-0.77 0.48,-0.83l18.7 -2.07c0.15,-0.02 0.3,0.05 0.41,0.17l1.71 1.71 0.08 0.1 0.06 0.12 0.04 0.13 0.02 0.14 0.41 3.7 0 0.15 -0.02 0.14 -0.04 0.13 -0.06 0.12 -0.07 0.1 -0.09 0.08 -0.1 0.06 -0.11 0.03zm-28.23 3.52l-0.05 0.01 -8.75 1.67 0.45 2.35 5.98 -1.15c0.15,-0.03 0.29,0.02 0.41,0.13l0.04 0.04 1.67 1.67 0.08 0.09 0.07 0.11 0.05 0.12 0.03 0.14 0.68 3.53 0.02 0.15 -0.01 0.14 -0.03 0.14 -0.05 0.13 -0.06 0.11 -0.08 0.1 -0.09 0.07 -0.11 0.05 -7.26 1.39 1.84 9.6 0.02 0.15 -0.01 0.14 -0.03 0.14 -0.05 0.13 -0.06 0.11 -0.08 0.09 -0.09 0.07 -0.11 0.05 -4.32 0.83 -0.11 0.01 -0.11 -0.02 -0.1 -0.05 -0.09 -0.07 -1.71 -1.71c-0.11,-0.1 -0.2,-0.26 -0.23,-0.45l-4.47 -23.34c-0.07,-0.39 0.11,-0.79 0.41,-0.88l13.68 -2.62c0.15,-0.03 0.29,0.02 0.41,0.13l0.04 0.04 1.67 1.67 0.08 0.09 0.07 0.11 0.05 0.12 0.03 0.14 0.7 3.66 0.02 0.15 -0.01 0.14 -0.03 0.14 -0.05 0.13 -0.06 0.11 -0.08 0.1 -0.09 0.07 -0.11 0.05zm-39.49 19.6l0.18 0.3 0.19 0.28 0.14 0.19c0.57,0.39 1.18,0.66 1.82,0.8 0.86,0.19 1.79,0.15 2.79,-0.13 0.99,-0.28 1.81,-0.71 2.44,-1.31 0.61,-0.57 1.06,-1.31 1.34,-2.19l0 -0.01c0.26,-0.78 0.38,-1.62 0.37,-2.52 -0.01,-0.92 -0.16,-1.91 -0.46,-2.96 -0.3,-1.08 -0.68,-2.03 -1.15,-2.85 -0.16,-0.28 -0.33,-0.55 -0.51,-0.8l-0.27 -0.17 -0.29 -0.17 -0.3 -0.14 -0.31 -0.12 -0.31 -0.1 -0.32 -0.08 -0.33 -0.06 -0.34 -0.04 -0.34 -0.02 -0.35 0.01 -0.36 0.03 -0.36 0.05 -0.37 0.07 -0.38 0.09 -0.37 0.11 -0.35 0.13 -0.33 0.14 -0.32 0.16 -0.3 0.17 -0.28 0.19 -0.27 0.2 -0.25 0.22 -0.22 0.22 -0.21 0.24 -0.19 0.25 -0.18 0.27 -0.16 0.28 -0.14 0.29 -0.13 0.31 -0.11 0.32 -0.08 0.29 -0.07 0.3 -0.06 0.31 -0.05 0.31 -0.03 0.32 -0.02 0.32 -0.01 0.33 0 0.34 0.02 0.35 0.03 0.36 0.04 0.37 0.05 0.37 0.07 0.38 0.08 0.39 0.09 0.39 0.11 0.4 0.11 0.39 0.12 0.38 0.13 0.37 0.14 0.36 0.15 0.34 0.15 0.33 0.16 0.32 0.17 0.31zm13.96 -12.33l0.33 0.52 0.31 0.54 0.29 0.56 0.27 0.58 0.25 0.61 0.24 0.63 0.22 0.65 0.2 0.67 0.18 0.68 0.15 0.67 0.12 0.66 0.09 0.65 0.06 0.64 0.04 0.63 0.01 0.62 -0.02 0.61 -0.05 0.61 -0.08 0.6 -0.1 0.59 -0.13 0.58 -0.16 0.57 -0.19 0.56 -0.22 0.55 -0.24 0.54 -0.01 0.02 -0.28 0.55 -0.31 0.53 -0.33 0.5 -0.36 0.48 -0.38 0.46 -0.41 0.43 -0.43 0.41 -0.46 0.39 -0.48 0.36 -0.5 0.33 -0.53 0.31 -0.55 0.29 -0.57 0.26 -0.6 0.24 -0.62 0.22 -0.65 0.19 -0.65 0.17 -0.64 0.13 -0.63 0.1 -0.62 0.07 -0.62 0.04 -0.61 0 -0.6 -0.03 -0.59 -0.06 -0.58 -0.09 -0.57 -0.13 -0.56 -0.16 -0.55 -0.19 -0.54 -0.22 -0.53 -0.26 -0.52 -0.29 -0.51 -0.32 -0.03 -0.02 -0.47 -0.33 -0.46 -0.36 -0.44 -0.38 -1.71 -1.71c-0.71,-0.65 -1.35,-1.39 -1.91,-2.22 -0.9,-1.34 -1.61,-2.92 -2.11,-4.72 -0.51,-1.84 -0.73,-3.57 -0.66,-5.2 0.07,-1.66 0.44,-3.2 1.11,-4.63l0 -0.01c0.71,-1.51 1.71,-2.77 2.97,-3.77 1.24,-0.99 2.75,-1.73 4.53,-2.22 1.78,-0.49 3.45,-0.64 5.02,-0.43 1.58,0.2 3.06,0.76 4.42,1.67 0.48,0.32 0.93,0.68 1.36,1.07 0.14,0.13 0.28,0.27 0.42,0.4 0.08,0.08 0.16,0.17 0.24,0.25l1.06 1.05 0.42 0.4 0.4 0.43 0.38 0.45 0.36 0.47 0.34 0.5zm-31.66 14.6l1.4 1.4 0.31 0.31 0.29 0.33 0.27 0.35 0.25 0.37 0.23 0.38 0.21 0.41 0.2 0.42 0.18 0.44 0.15 0.45 0.12 0.45 0.1 0.45 0.07 0.44 0.04 0.44 0.01 0.44 -0.02 0.44 -0.04 0.43 -0.07 0.43 -0.1 0.42 -0.13 0.42 -0.15 0.41 -0.18 0.41 -0.21 0.4 -0.24 0.4 -0.26 0.39 -0.24 0.33 -0.26 0.32 -0.27 0.31 -0.28 0.3 -0.3 0.29 -0.31 0.28 -0.32 0.26 -0.33 0.25 -0.34 0.24 -0.35 0.23 -0.37 0.22 -0.38 0.21 -0.39 0.2 -0.41 0.19 -0.42 0.18 -0.43 0.17 -0.4 0.14 -0.41 0.14 -0.41 0.13 -0.42 0.12 -0.42 0.11 -0.43 0.1 -0.43 0.09 -0.44 0.08 -0.44 0.07 -0.44 0.06 -0.45 0.05 -0.45 0.04 -0.45 0.03 -0.46 0.03 -0.46 0.02 -0.47 0.01 -0.11 -0.01 -0.1 -0.04 -0.09 -0.06 -1.71 -1.71c-0.14,-0.12 -0.25,-0.32 -0.26,-0.55l-0.26 -3.8c-0.03,-0.4 0.2,-0.76 0.51,-0.79l0.09 -0c1.14,-0.03 2.18,-0.12 3.12,-0.27 0.93,-0.15 1.76,-0.35 2.47,-0.62l0.03 -0.01c0.48,-0.18 0.9,-0.39 1.27,-0.62 0.36,-0.23 0.66,-0.49 0.91,-0.78l0.03 -0.03c0.26,-0.29 0.41,-0.59 0.47,-0.87 0.03,-0.14 0.03,-0.29 0.01,-0.45l-0.09 -0.03 -0.28 -0.08 -0.3 -0.07 -0.32 -0.06 -0.34 -0.05 -0.36 -0.04 -0.66 -0.06 -0.62 -0.06 -0.58 -0.06 -0.54 -0.05 -0.5 -0.05 -0.46 -0.05 -0.42 -0.04 -0.37 -0.04 -0.35 -0.04 -0.32 -0.04 -0.28 -0.03 -0.24 -0.03 -0.2 -0.03 -0.16 -0.03 -0.12 -0.02 -0.09 -0.02 -0.44 -0.14 -0.42 -0.16 -0.4 -0.18 -0.39 -0.19 -0.37 -0.22 -0.35 -0.23 -0.33 -0.25 -0.32 -0.27 -1.71 -1.71c-0.84,-0.77 -1.48,-1.75 -1.92,-2.94 -0.43,-1.16 -0.57,-2.28 -0.44,-3.37 0.13,-1.08 0.55,-2.11 1.23,-3.07l0 -0c0.58,-0.8 1.3,-1.5 2.16,-2.11 0.84,-0.6 1.82,-1.1 2.92,-1.51 0.89,-0.33 1.89,-0.59 2.99,-0.77 1.09,-0.18 2.27,-0.29 3.55,-0.32 0.12,-0 0.23,0.04 0.32,0.12 0.02,0.02 0.05,0.04 0.07,0.07l1.64 1.64 0.08 0.09 0.07 0.11 0.05 0.12 0.03 0.14 0.01 0.15 -0.01 3.8 -0.01 0.14 -0.03 0.13 -0.05 0.12 -0.07 0.11 -0.08 0.09 -0.09 0.07 -0.1 0.04 -0.11 0.02 -0.39 0.02 -0.38 0.02 -0.37 0.03 -0.36 0.03 -0.35 0.03 -0.34 0.04 -0.32 0.04 -0.31 0.04 -0.29 0.05 -0.28 0.05 -0.27 0.05 -0.26 0.06 -0.24 0.06 -0.23 0.07 -0.22 0.07 -0.21 0.07 -0.39 0.15 -0.35 0.16 -0.32 0.16 -0.29 0.17 -0.25 0.18 -0.22 0.18 -0.19 0.19 -0.15 0.19 -0.09 0.15 -0.07 0.16 -0.05 0.16 -0.02 0.17 -0 0.05c0.44,0.11 0.96,0.19 1.55,0.24 1.63,0.12 2.92,0.22 3.88,0.32 1,0.1 1.69,0.21 2.06,0.3l0.05 0.02c1.18,0.36 2.19,0.93 3.01,1.7 0.11,0.1 0.21,0.2 0.31,0.31l0 0zm66.75 20.42c-0.15,-0.13 -0.25,-0.36 -0.25,-0.61l0 -2.96c0,-0.4 0.25,-0.73 0.56,-0.73l109.59 0c0.12,0 0.23,0.05 0.31,0.13 0.02,0.02 0.04,0.04 0.06,0.06l1.65 1.65 0.08 0.09 0.07 0.11 0.05 0.12 0.03 0.14 0.01 0.15 0 2.96 -0.01 0.15 -0.03 0.14 -0.05 0.12 -0.07 0.11 -0.08 0.09 -0.1 0.07 -0.11 0.04 -0.11 0.01 -109.59 0 -0.11 -0.01 -0.11 -0.04 -0.1 -0.07 -1.71 -1.71z"/>
   <path class="fil1" d="M216.24 37.16c0.79,2.13 0.51,4.14 -0.82,6.01 -1.19,1.67 -2.9,2.93 -5.14,3.75 -2.11,0.78 -4.39,1.18 -6.83,1.19l-0.25 -3.8c2.38,-0.06 4.3,-0.36 5.78,-0.91 1.04,-0.38 1.85,-0.91 2.43,-1.56 0.71,-0.81 0.9,-1.69 0.54,-2.65 -0.43,-1.15 -1.68,-1.83 -3.75,-2.03 -3.58,-0.33 -5.53,-0.54 -5.83,-0.63 -2.24,-0.63 -3.75,-2.03 -4.55,-4.18 -0.76,-2.05 -0.52,-3.92 0.7,-5.63 1.08,-1.49 2.69,-2.63 4.82,-3.41 1.74,-0.64 3.87,-1 6.39,-1.06l-0.01 3.79c-2.17,0.08 -3.82,0.33 -4.95,0.75 -2.35,0.87 -3.22,2.13 -2.61,3.78 0.35,0.96 1.56,1.51 3.62,1.67 3.2,0.23 5.15,0.43 5.86,0.62 2.25,0.68 3.78,2.11 4.6,4.31zm30.4 -14.31c0.95,3.44 0.79,6.5 -0.49,9.16 -1.34,2.82 -3.7,4.71 -7.1,5.65 -3.4,0.94 -6.38,0.55 -8.95,-1.17 -2.48,-1.65 -4.19,-4.19 -5.15,-7.63 -0.97,-3.49 -0.83,-6.56 0.41,-9.21 1.34,-2.82 3.71,-4.71 7.13,-5.66 3.44,-0.95 6.46,-0.56 9.06,1.17 2.43,1.64 4.12,4.2 5.09,7.69zm-4.49 1.24c-0.64,-2.3 -1.64,-4.06 -3.01,-5.27 -1.59,-1.41 -3.47,-1.82 -5.64,-1.22 -2.17,0.6 -3.57,1.92 -4.21,3.95 -0.53,1.73 -0.48,3.75 0.16,6.06 0.62,2.26 1.62,3.99 2.99,5.2 1.62,1.41 3.49,1.81 5.61,1.23 2.15,-0.59 3.54,-1.91 4.18,-3.94 0.57,-1.75 0.55,-3.75 -0.08,-6.01zm28.32 -14.24l-9.36 1.79 1.1 5.74 7.82 -1.5 0.68 3.55 -7.82 1.5 1.99 10.39 -4.27 0.82 -4.47 -23.37 13.63 -2.61 0.71 3.69zm28.29 -3.53l-7.4 0.82 2.21 19.91 -4.32 0.48 -2.21 -19.92 -6.95 0.77 -0.41 -3.73 18.67 -2.07 0.41 3.73zm37.55 16.92c-2.55,1.3 -5.18,1.98 -7.89,2.03 -3.76,0.07 -6.85,-0.97 -9.28,-3.14 -2.43,-2.17 -3.68,-5.12 -3.76,-8.85 -0.08,-3.92 1.01,-6.99 3.26,-9.21 2.21,-2.15 5.28,-3.27 9.23,-3.34 2.2,-0.04 4.61,0.44 7.23,1.46l-1.39 3.65c-2.24,-0.91 -4.29,-1.34 -6.15,-1.31 -2.39,0.05 -4.25,0.82 -5.59,2.32 -1.34,1.5 -1.99,3.45 -1.94,5.87 0.05,2.64 0.75,4.75 2.11,6.33 1.47,1.66 3.5,2.47 6.1,2.42 1.58,-0.03 2.85,-0.25 3.81,-0.67 -0.08,-0.39 -0.12,-0.77 -0.13,-1.15l-0.14 -7.3 4.31 -0.08 0.21 10.99zm26.07 2.45l-14.18 -0.64 1.08 -23.77 13.87 0.63 -0.17 3.75 -9.52 -0.43 -0.26 5.84 7.96 0.36 -0.16 3.62 -7.96 -0.36 -0.31 6.81 9.83 0.45 -0.17 3.75zm24.88 2.61l-14.11 -1.56 2.62 -23.65 4.32 0.48 -2.21 19.91 9.78 1.08 -0.41 3.73zm30.57 5.54l-4.78 -0.92 -1.19 -6.39 -9.02 -1.73 -3.45 5.47 -4.58 -0.84 14.14 -21.52 4.07 0.78 4.82 25.15zm-6.66 -11.26l-1.56 -8.48 -4.55 7.31 6.12 1.17zm36.18 -1.45l-7.17 -1.99 -5.35 19.31 -4.19 -1.16 5.35 -19.31 -6.74 -1.87 1 -3.62 18.1 5.01 -1 3.62zm28.13 18.92c-1.28,3.33 -3.24,5.69 -5.86,7.06 -2.76,1.47 -5.78,1.57 -9.07,0.31 -3.29,-1.27 -5.45,-3.36 -6.49,-6.27 -1.01,-2.8 -0.87,-5.87 0.42,-9.2 1.3,-3.38 3.24,-5.76 5.82,-7.15 2.76,-1.47 5.79,-1.57 9.1,-0.29 3.33,1.29 5.52,3.4 6.58,6.34 0.97,2.76 0.81,5.83 -0.49,9.21zm-4.35 -1.68c0.86,-2.23 1.1,-4.24 0.72,-6.02 -0.44,-2.08 -1.71,-3.53 -3.81,-4.34 -2.1,-0.81 -4.01,-0.59 -5.74,0.66 -1.46,1.08 -2.62,2.73 -3.48,4.96 -0.84,2.18 -1.07,4.17 -0.69,5.96 0.46,2.09 1.72,3.53 3.77,4.33 2.08,0.8 3.98,0.58 5.7,-0.67 1.5,-1.06 2.68,-2.68 3.52,-4.87zm-79.34 12.63l0 2.96 -109.59 0 0 -2.96 109.59 0z"/>
   <path class="fil0" d="M572.35 78.69l4.89 4.89 0.12 0.13 0.11 0.15 0.09 0.16 0.08 0.17 0.07 0.19 0.05 0.2 24.1 79.07 0.01 0.07 0.01 0.07 0.01 0.06 0.01 0.06 0.01 0.06 0 0.06 0 0.06 0 0.06 -0.01 0.21 -0.03 0.2 -0.04 0.19 -0.06 0.18 -0.08 0.17 -0.09 0.16 -0.11 0.15 -0.12 0.14 -0.12 0.11 -0.13 0.1 -0.14 0.09 -0.15 0.08 -0.16 0.07 -0.16 0.06 -0.17 0.05 -0.18 0.04 -0.08 0.01 -0.08 0.01 -0.08 0.01 -0.08 0.01 -0.08 0.01 -0.08 0 -0.08 0 -0.08 0 -13.03 0 -0.19 -0.01 -0.19 -0.02 -0.18 -0.03 -0.18 -0.05 -0.17 -0.06 -0.16 -0.07 -0.16 -0.08 -0.15 -0.09 -0.15 -0.11 -0.14 -0.12 -4.89 -4.89c-0.26,-0.26 -0.46,-0.58 -0.57,-0.95 -0.87,-2.49 -1.8,-5.69 -2.62,-8.73l-15.04 0 -0.05 0 -0.05 0 -0.05 0 -0.04 0 -0.04 0 -0.04 0 -0.03 0 -0.03 0 -0.15 0.68 -0.17 0.75 -0.2 0.81 -0.22 0.86 -0.24 0.9 -0.25 0.93 -0.26 0.95 -0.27 0.95 -0.28 0.95 -0.28 0.94 -0.28 0.92 -0.28 0.89 -0.27 0.85 -0.26 0.8 -0.25 0.74 -0.23 0.67 -0.06 0.18 -0.08 0.17 -0.09 0.16 -0.1 0.15 -0.11 0.14 -0.13 0.13 -0.14 0.12 -0.15 0.11 -0.15 0.09 -0.16 0.08 -0.16 0.07 -0.17 0.06 -0.18 0.05 -0.18 0.03 -0.19 0.02 -0.19 0.01 -13.03 0 -0.08 -0 -0.08 -0 -0.08 -0 -0.08 -0.01 -0.08 -0.01 -0.08 -0.01 -0.08 -0.01 -0.08 -0.01 -0.18 -0.04 -0.17 -0.05 -0.16 -0.06 -0.16 -0.07 -0.15 -0.08 -0.14 -0.09 -0.13 -0.1 -0.12 -0.11 -4.84 -4.84 -0.01 -0.01 -0.01 -0.01 -0.01 -0.01c-0.34,-0.35 -0.54,-0.81 -0.54,-1.38 0,-0.14 0.02,-0.31 0.05,-0.49l24.1 -79.07c0.12,-0.55 0.41,-0.95 0.8,-1.23 0.41,-0.29 0.91,-0.41 1.43,-0.41l9.29 0c0.53,0 1.02,0.13 1.43,0.41 0.1,0.07 0.19,0.15 0.28,0.23zm-3.33 43.01l-2.09 8.85 3.71 0c0.2,0 0.33,-0.04 0.41,-0.09l0.02 -0.03 -2.06 -8.72zm-158.87 28.24l0.17 0.17 -4.89 -4.89 -0.01 -0.01 -0.01 -0.01 -0.06 -0.07 -0.09 -0.09c-0.19,-0.17 -0.42,-0.31 -0.7,-0.45 -3.52,-1.8 -7.22,-3.57 -10.66,-5.48 -0.5,-0.28 -1,-0.56 -1.64,-0.56 -0.43,0 -0.86,0.15 -1.23,0.48 -0.27,0.24 -0.51,0.58 -0.7,1.03 -1.03,2.47 -2.27,4.19 -3.61,5.31 -1.44,1.2 -3.03,1.7 -4.65,1.7l-6.32 0c-1.01,0 -1.98,-0.19 -2.89,-0.54 -0.33,-0.86 -0.51,-1.81 -0.54,-2.88l0 -38.19c0.12,-4.64 3.68,-8.19 8.31,-8.31l6.32 0c1.04,0.04 1.84,0.18 2.6,0.48 0.28,0.54 0.54,1.09 0.77,1.64 0.18,0.45 0.42,0.79 0.7,1.03l4.89 4.89 0.14 0.12 0.15 0.1 0.15 0.08 0.15 0.07 0.16 0.05 0.16 0.04 0.16 0.02 0.16 0.01 0.23 -0.01 0.22 -0.04 0.21 -0.06 0.2 -0.07 0.2 -0.09 0.19 -0.09 0.19 -0.1 0.19 -0.1 0.16 -0.12 0.34 -0.2 0.5 -0.27 0.63 -0.34 0.74 -0.38 0.82 -0.42 0.88 -0.45 0.92 -0.46 0.93 -0.47 0.91 -0.46 0.88 -0.44 0.81 -0.4 0.73 -0.36 0.61 -0.31 0.48 -0.24 0.32 -0.16 0.13 -0.07 0.13 -0.07 0.12 -0.07 0.11 -0.08 0.11 -0.08 0.1 -0.08 0.09 -0.09 0.09 -0.09 0.1 -0.13 0.09 -0.13 0.08 -0.13 0.06 -0.14 0.05 -0.14 0.03 -0.15 0.02 -0.16 0.01 -0.16 -0.05 -0.4 -0.14 -0.48 -0.22 -0.54 -0.29 -0.6 -0.34 -0.64 -0.38 -0.67 -0.41 -0.69 -0.42 -0.71 -0.34 -0.56 -0.38 -0.59 -0.4 -0.58 -0.41 -0.57 -0.42 -0.55 -0.44 -0.54 -0.45 -0.53 -0.47 -0.51 -0.48 -0.5 -0.5 -0.49 -3.99 -3.99c-0.13,-0.14 -0.26,-0.28 -0.4,-0.41 -0.16,-0.16 -0.33,-0.33 -0.5,-0.49 -1.19,-1.12 -2.51,-2.12 -4.01,-2.97 -3.42,-1.94 -7.7,-3.08 -13.24,-3.08l-6.32 0c-7.54,0 -13.72,2.41 -18.05,6.53 -4.44,4.22 -6.92,10.23 -6.92,17.28l0 38.19c0,7.05 2.48,13.06 6.92,17.28 0.27,0.26 0.55,0.51 0.83,0.75l4.89 4.89 0.43 0.36 0.44 0.35 0.45 0.34 0.47 0.33 0.47 0.32 0.49 0.31 0.49 0.3 0.51 0.28 0.52 0.27 0.52 0.26 0.53 0.25 0.54 0.24 0.55 0.23 0.56 0.22 0.57 0.2 0.58 0.19 0.59 0.18 0.6 0.17 0.61 0.15 0.62 0.14 0.63 0.13 0.64 0.12 0.64 0.1 0.65 0.09 0.66 0.08 0.67 0.06 0.68 0.05 0.69 0.04 0.69 0.02 0.7 0.01 6.32 0 1.02 -0.01 0.99 -0.04 0.97 -0.07 0.94 -0.09 0.91 -0.12 0.88 -0.14 0.86 -0.16 0.83 -0.19 0.81 -0.21 0.78 -0.23 0.76 -0.25 0.74 -0.27 0.72 -0.29 0.69 -0.32 0.67 -0.33 0.65 -0.35 0.63 -0.37 0.61 -0.39 0.59 -0.41 0.57 -0.43 0.55 -0.44 0.54 -0.46 0.52 -0.47 0.5 -0.49 0.48 -0.5 0.47 -0.51 0.45 -0.53 0.44 -0.54 0.42 -0.55 0.41 -0.57 0.4 -0.58 0.38 -0.59 0.34 -0.56 0.42 -0.7 0.41 -0.69 0.38 -0.67 0.34 -0.64 0.29 -0.6 0.22 -0.54 0.14 -0.48 0.05 -0.41 -0.01 -0.16 -0.02 -0.16 -0.03 -0.15 -0.05 -0.15 -0.06 -0.14 -0.08 -0.14 -0.09 -0.13 -0.1 -0.13 -0.08 -0.09 -0.08 -0.08zm48.85 -26.97l-0.01 -0.08c0,0.02 0,0.05 0.01,0.08zm16.58 38.86l0.04 0.13 0.04 0.13 0.04 0.13 0.04 0.12 0.04 0.12 0.04 0.12 0.04 0.12 0.04 0.11 0.07 0.19 0.07 0.18 0.06 0.18 0.05 0.17 0.04 0.16 0.03 0.16 0.02 0.15 0.01 0.15 -0.01 0.23 -0.03 0.22 -0.05 0.21 -0.07 0.2 -0.1 0.19 -0.12 0.18 -0.14 0.16 -0.17 0.15 -0.15 0.11 -0.16 0.09 -0.18 0.08 -0.19 0.07 -0.2 0.05 -0.22 0.04 -0.23 0.02 -0.24 0.01 -13.29 0 -0.18 -0.01 -0.18 -0.02 -0.18 -0.04 -0.17 -0.05 -0.17 -0.07 -0.16 -0.08 -0.15 -0.09 -0.15 -0.1 -0.13 -0.11 -4.89 -4.89c-0.3,-0.28 -0.54,-0.64 -0.64,-1.05l-9.67 -27.93 -8.36 0 -0.06 0 -0.06 0 -0.05 0 -0.04 0 -0.03 0 -0.02 0 -0.02 0 -0.01 0 -0 0.01 -0 0.02 -0 0.02 -0 0.03 -0 0.04 -0 0.05 -0 0.06 -0 0.06 0 31.87 -0.01 0.26 -0.03 0.25 -0.04 0.23 -0.06 0.22 -0.08 0.2 -0.1 0.19 -0.12 0.17 -0.14 0.16 -0.16 0.14 -0.17 0.12 -0.19 0.1 -0.2 0.08 -0.22 0.06 -0.23 0.05 -0.25 0.03 -0.26 0.01 -12.26 0 -0.26 -0.01 -0.25 -0.03 -0.23 -0.05 -0.22 -0.06 -0.2 -0.08 -0.19 -0.1 -0.17 -0.12 -0.16 -0.14 -4.89 -4.89c-0.4,-0.41 -0.59,-0.96 -0.59,-1.67l0 -78.7c0,-0.72 0.19,-1.27 0.6,-1.67 0.4,-0.41 0.95,-0.59 1.67,-0.59l29.03 0c7.37,0 13.44,2.3 17.76,6.39 0.14,0.13 0.28,0.27 0.41,0.4l4.89 4.89 0.4 0.41 0.39 0.43 0.38 0.44 0.37 0.45 0.36 0.46 0.35 0.47 0.33 0.48 0.32 0.49 0.31 0.5 0.3 0.51 0.28 0.52 0.27 0.53 0.26 0.54 0.25 0.55 0.24 0.56 0.22 0.57 0.21 0.58 0.2 0.59 0.18 0.6 0.17 0.61 0.16 0.61 0.14 0.62 0.13 0.63 0.12 0.64 0.1 0.65 0.09 0.66 0.08 0.67 0.06 0.67 0.05 0.68 0.04 0.69 0.02 0.7 0.01 0.71 0 1.29 -0.01 0.61 -0.04 0.61 -0.07 0.62 -0.1 0.62 -0.12 0.62 -0.15 0.62 -0.17 0.62 -0.19 0.62 -0.21 0.62 -0.24 0.62 -0.26 0.61 -0.27 0.61 -0.29 0.61 -0.31 0.6 -0.32 0.59 -0.34 0.59 -0.41 0.66 -0.42 0.65 -0.44 0.64 -0.45 0.63 -0.47 0.61 -0.48 0.59 -0.49 0.58 -0.5 0.56 -0.51 0.54 -0.51 0.52 -0.52 0.5 -0.52 0.47 -0.52 0.45 -0.52 0.42 -0.52 0.39 -0.51 0.37 -0.08 0.05 -0.01 0.17 0.01 0.08 0.02 0.11 0.04 0.14 0.05 0.17 0.07 0.19 0.08 0.22 0.09 0.25 0.1 0.27 0.36 0.96 0.36 0.97 0.36 0.98 0.37 0.99 0.37 1 0.37 1.01 0.37 1.01 0.37 1.02 0.37 1.02 0.37 1.03 0.37 1.03 0.37 1.04 0.37 1.04 0.37 1.04 0.36 1.04 0.36 1.05 0.36 1.05 0.36 1.05 0.36 1.05 0.35 1.04 0.35 1.04 0.35 1.04 0.34 1.04 0.34 1.03 0.34 1.03 0.33 1.02 0.33 1.02 0.32 1.01 0.32 1 0.31 1 0.31 0.99 0.3 0.98zm-22.82 -62.85l-0.07 -0.03 -0.38 -0.13 -0.39 -0.11 -0.4 -0.09 -0.4 -0.07 -0.41 -0.05 -0.41 -0.03 -0.42 -0.01 -14.19 0 -0.06 0 -0.06 0 -0.05 0 -0.04 0 -0.03 0 -0.02 0 -0.02 0 -0.01 0 -0 0.01 -0 0.02 -0 0.02 -0 0.03 -0 0.04 -0 0.05 -0 0.06 -0 0.06 0 12.59 9.62 0c2.25,0 4.33,-0.95 5.84,-2.47l0 -0c1.52,-1.51 2.47,-3.59 2.47,-5.84l0 -1.16c0,-1.01 -0.19,-1.98 -0.54,-2.88zm77.14 47.41l4.87 4.87 0.14 0.16 0.12 0.17 0.1 0.19 0.08 0.2 0.06 0.22 0.05 0.23 0.03 0.25 0.01 0.26 0 10.97 -0.01 0.26 -0.03 0.25 -0.05 0.23 -0.06 0.22 -0.08 0.2 -0.1 0.19 -0.12 0.17 -0.14 0.16 -0.16 0.14 -0.17 0.12 -0.19 0.1 -0.2 0.08 -0.22 0.06 -0.23 0.05 -0.25 0.03 -0.26 0.01 -45.54 0 -0.26 -0.01 -0.25 -0.03 -0.23 -0.05 -0.22 -0.06 -0.2 -0.08 -0.19 -0.1 -0.17 -0.12 -0.16 -0.14 -4.89 -4.89c-0.41,-0.4 -0.6,-0.95 -0.6,-1.67l0 -78.7c0,-0.72 0.19,-1.27 0.59,-1.67 0.41,-0.41 0.96,-0.59 1.68,-0.59l45.54 0c0.72,0 1.27,0.19 1.68,0.59l0.02 0.02 4.87 4.87 0.14 0.16 0.12 0.17 0.1 0.19 0.08 0.2 0.06 0.22 0.05 0.23 0.03 0.25 0.01 0.26 0 10.97 -0.01 0.26 -0.03 0.25 -0.05 0.23 -0.06 0.22 -0.08 0.2 -0.1 0.19 -0.12 0.17 -0.14 0.16 -0.16 0.14 -0.17 0.12 -0.19 0.1 -0.2 0.08 -0.22 0.06 -0.23 0.04 -0.25 0.03 -0.26 0.01 -30.7 0 -0.06 0 -0.06 0 -0.05 0 -0.04 0 -0.03 0 -0.02 0 -0.02 0 -0.01 0 -0 0.01 -0 0.02 -0 0.02 -0 0.03 -0 0.04 -0 0.05 -0 0.06 -0 0.06 0 12.59 20.58 0c0.72,0 1.27,0.19 1.67,0.59l0.02 0.02 4.87 4.87 0.14 0.16 0.12 0.17 0.1 0.19 0.08 0.2 0.06 0.22 0.04 0.23 0.03 0.25 0.01 0.26 0 10.97 -0.01 0.26 -0.03 0.25 -0.05 0.23 -0.06 0.22 -0.08 0.2 -0.1 0.19 -0.12 0.17 -0.14 0.16 -0.16 0.14 -0.17 0.12 -0.19 0.1 -0.2 0.08 -0.22 0.06 -0.23 0.04 -0.25 0.03 -0.26 0.01 -25.16 0 -0.06 0 -0.06 0 -0.05 0 -0.04 0 -0.03 0 -0.02 0 -0.02 0 -0.01 0 -0 0.01 -0 0.02 -0 0.02 -0 0.03 -0 0.04 -0 0.05 -0 0.06 -0 0.06 0 13.75 26.13 0c0.72,0 1.27,0.19 1.68,0.59l0.02 0.02zm137.62 -67.75l4.89 4.89 0.14 0.16 0.12 0.17 0.1 0.19 0.08 0.2 0.06 0.22 0.05 0.23 0.03 0.25 0.01 0.26 0 78.7 -0.01 0.26 -0.03 0.25 -0.05 0.23 -0.06 0.22 -0.08 0.2 -0.1 0.19 -0.12 0.17 -0.14 0.16 -0.16 0.14 -0.17 0.12 -0.19 0.1 -0.2 0.08 -0.22 0.06 -0.23 0.05 -0.25 0.03 -0.26 0.01 -12.13 0 -0.26 -0.01 -0.25 -0.03 -0.23 -0.05 -0.22 -0.06 -0.2 -0.08 -0.19 -0.1 -0.17 -0.12 -0.16 -0.14 -4.89 -4.89c-0.41,-0.4 -0.59,-0.95 -0.59,-1.67l0 -19.73 -6.43 14.48 -0.08 0.15 -0.09 0.14 -0.09 0.13 -0.1 0.12 -0.1 0.12 -0.11 0.11 -0.12 0.1 -0.12 0.09 -0.14 0.08 -0.14 0.07 -0.15 0.06 -0.15 0.05 -0.15 0.04 -0.16 0.03 -0.16 0.02 -0.17 0.01 -6.58 0 -0.17 -0.01 -0.16 -0.02 -0.16 -0.03 -0.16 -0.04 -0.15 -0.05 -0.15 -0.06 -0.14 -0.07 -0.14 -0.08 -0.12 -0.09 -0.12 -0.1 -0.11 -0.11 -4.83 -4.83 -0.01 -0.01 -0.01 -0.01 -0.01 -0.01 -0.01 -0.01c-0.18,-0.18 -0.34,-0.41 -0.46,-0.66l-6.42 -14.47 0 29.5 -0.01 0.26 -0.03 0.25 -0.05 0.23 -0.06 0.22 -0.08 0.2 -0.1 0.19 -0.12 0.17 -0.14 0.16 -0.16 0.14 -0.17 0.12 -0.19 0.1 -0.2 0.08 -0.22 0.06 -0.23 0.05 -0.25 0.03 -0.26 0.01 -12.26 0 -0.26 -0.01 -0.25 -0.03 -0.23 -0.05 -0.22 -0.06 -0.2 -0.08 -0.19 -0.1 -0.17 -0.12 -0.16 -0.14 -4.89 -4.89c-0.41,-0.4 -0.6,-0.95 -0.6,-1.67l0 -78.7c0,-0.72 0.19,-1.26 0.59,-1.67l0 -0c0.41,-0.4 0.95,-0.59 1.67,-0.59l10.84 0c0.46,0 0.86,0.12 1.22,0.36 0.13,0.09 0.24,0.18 0.35,0.29l4.89 4.89 0.1 0.12 0.1 0.12 0.09 0.13 0.09 0.14 0.08 0.15 14.76 35.27 16.8 -40.16c0.2,-0.41 0.48,-0.73 0.82,-0.96 0.36,-0.24 0.77,-0.36 1.22,-0.36l10.84 0c0.72,0 1.27,0.19 1.67,0.59zm-495.25 43.06l-2.09 8.85 3.71 0c0.2,0 0.33,-0.04 0.41,-0.09l0.02 -0.03 -2.06 -8.72zm-40.72 -43.06l4.89 4.89 0.14 0.16 0.12 0.17 0.1 0.19 0.08 0.2 0.06 0.22 0.05 0.23 0.03 0.25 0.01 0.26 0 78.7 -0.01 0.26 -0.03 0.25 -0.05 0.23 -0.06 0.22 -0.08 0.2 -0.1 0.19 -0.12 0.17 -0.14 0.16 -0.16 0.14 -0.17 0.12 -0.19 0.1 -0.2 0.08 -0.22 0.06 -0.23 0.05 -0.25 0.03 -0.26 0.01 -12.13 0 -0.26 -0.01 -0.25 -0.03 -0.23 -0.05 -0.22 -0.06 -0.2 -0.08 -0.19 -0.1 -0.17 -0.12 -0.16 -0.14 -4.89 -4.89c-0.41,-0.4 -0.59,-0.95 -0.59,-1.67l0 -19.73 -6.43 14.48 -0.08 0.15 -0.09 0.14 -0.09 0.13 -0.1 0.12 -0.1 0.12 -0.11 0.11 -0.12 0.1 -0.12 0.09 -0.14 0.08 -0.14 0.07 -0.15 0.06 -0.15 0.05 -0.15 0.04 -0.16 0.03 -0.16 0.02 -0.17 0.01 -6.58 0 -0.17 -0.01 -0.16 -0.02 -0.16 -0.03 -0.15 -0.04 -0.15 -0.05 -0.15 -0.06 -0.14 -0.07 -0.14 -0.08 -0 -0 -0 -0 -0.12 -0.09 -0.12 -0.1 -0.11 -0.11 -4.83 -4.83 -0.01 -0.01 -0.01 -0.01 -0.01 -0.01 -0.01 -0.01c-0.18,-0.18 -0.33,-0.4 -0.46,-0.66l-6.43 -14.48 0 29.51 -0.01 0.26 -0.03 0.25 -0.05 0.23 -0.06 0.22 -0.08 0.2 -0.1 0.19 -0.12 0.17 -0.14 0.16 -0.16 0.14 -0.17 0.12 -0.19 0.1 -0.2 0.08 -0.22 0.06 -0.23 0.05 -0.25 0.03 -0.26 0.01 -12.26 0 -0.26 -0.01 -0.25 -0.03 -0.23 -0.05 -0.22 -0.06 -0.2 -0.08 -0.19 -0.1 -0.17 -0.12 -0.16 -0.14 -4.89 -4.89c-0.41,-0.4 -0.6,-0.95 -0.6,-1.67l0 -78.7c0,-0.72 0.19,-1.26 0.59,-1.67l0 -0c0.41,-0.4 0.95,-0.59 1.67,-0.59l10.84 0c0.46,0 0.86,0.12 1.22,0.36 0.13,0.09 0.24,0.18 0.35,0.29l4.89 4.89 0.1 0.12 0.1 0.12 0.09 0.13 0.09 0.14 0.08 0.15 14.76 35.27 16.8 -40.16c0.2,-0.41 0.48,-0.73 0.82,-0.96 0.36,-0.24 0.77,-0.36 1.22,-0.36l10.84 0c0.72,0 1.27,0.19 1.67,0.59zm113.78 20.34l-0.07 -0.03 -0.38 -0.13 -0.39 -0.11 -0.4 -0.09 -0.4 -0.07 -0.41 -0.05 -0.41 -0.03 -0.42 -0.01 -14.19 0 -0.06 0 -0.06 0 -0.05 0 -0.04 0 -0.03 0 -0.02 0 -0.02 0 -0.01 0 -0 0.01 -0 0.02 -0 0.02 -0 0.03 -0 0.04 -0 0.05 -0 0.06 -0 0.06 0 12.59 9.62 0c2.25,0 4.33,-0.95 5.84,-2.47l0 -0c1.52,-1.51 2.47,-3.59 2.47,-5.84l0 -1.16c0,-1.01 -0.19,-1.98 -0.54,-2.88zm6.24 23.99l-0.01 -0.08c0,0.02 0,0.05 0.01,0.08zm0.03 0.11l-0.03 -0.11c0.01,0.03 0.01,0.07 0.03,0.11zm16.56 38.74l0.04 0.13 0.04 0.13 0.04 0.13 0.04 0.12 0.04 0.12 0.04 0.12 0.04 0.12 0.04 0.11 0.07 0.19 0.07 0.18 0.06 0.18 0.05 0.17 0.04 0.16 0.03 0.16 0.02 0.15 0.01 0.15 -0.01 0.23 -0.03 0.22 -0.05 0.21 -0.07 0.2 -0.1 0.19 -0.12 0.18 -0.14 0.16 -0.17 0.15 -0.15 0.11 -0.16 0.09 -0.18 0.08 -0.19 0.07 -0.2 0.05 -0.22 0.04 -0.23 0.02 -0.24 0.01 -13.29 0 -0.18 -0.01 -0.18 -0.02 -0.18 -0.04 -0.17 -0.05 -0.17 -0.07 -0.16 -0.08 -0.15 -0.09 -0.15 -0.1 -0.13 -0.11 -0.12 -0.12 -4.76 -4.76 -0.02 -0.02c-0.04,-0.03 -0.07,-0.07 -0.11,-0.11 -0.24,-0.26 -0.43,-0.58 -0.52,-0.93l-9.67 -27.93 -8.36 0 -0.06 0 -0.06 0 -0.05 0 -0.04 0 -0.03 0 -0.02 0 -0.02 0 -0.01 0 -0 0.01 -0 0.02 -0 0.02 -0 0.03 -0 0.04 -0 0.05 -0 0.06 -0 0.06 0 31.87 -0.01 0.26 -0.03 0.25 -0.04 0.23 -0.06 0.22 -0.08 0.2 -0.1 0.19 -0.12 0.17 -0.14 0.16 -0.16 0.14 -0.17 0.12 -0.19 0.1 -0.2 0.08 -0.22 0.06 -0.23 0.05 -0.25 0.03 -0.26 0.01 -12.26 0 -0.26 -0.01 -0.25 -0.03 -0.23 -0.05 -0.22 -0.06 -0.2 -0.08 -0.19 -0.1 -0.17 -0.12 -0.16 -0.14 -4.89 -4.89c-0.4,-0.41 -0.59,-0.96 -0.59,-1.67l0 -78.7c0,-0.72 0.19,-1.27 0.6,-1.67 0.4,-0.41 0.95,-0.59 1.67,-0.59l29.03 0c7.61,0 13.83,2.45 18.18,6.79 0.27,0.27 0.54,0.55 0.79,0.84l4.89 4.89 0.38 0.44 0.37 0.45 0.36 0.46 0.35 0.47 0.33 0.48 0.32 0.49 0.31 0.5 0.3 0.51 0.28 0.52 0.27 0.53 0.26 0.54 0.25 0.55 0.24 0.56 0.22 0.57 0.21 0.58 0.2 0.59 0.18 0.6 0.17 0.61 0.16 0.61 0.14 0.62 0.13 0.63 0.12 0.64 0.1 0.65 0.09 0.66 0.08 0.67 0.06 0.67 0.05 0.68 0.04 0.69 0.02 0.7 0.01 0.71 0 1.29 -0.01 0.61 -0.04 0.61 -0.07 0.62 -0.1 0.62 -0.12 0.62 -0.15 0.62 -0.17 0.62 -0.19 0.62 -0.21 0.62 -0.24 0.62 -0.26 0.61 -0.27 0.61 -0.29 0.61 -0.31 0.6 -0.32 0.59 -0.34 0.59 -0.41 0.66 -0.42 0.65 -0.44 0.64 -0.45 0.63 -0.47 0.61 -0.48 0.59 -0.49 0.58 -0.5 0.56 -0.51 0.54 -0.51 0.52 -0.52 0.5 -0.52 0.47 -0.52 0.45 -0.52 0.42 -0.52 0.39 -0.51 0.37 -0.08 0.05 -0.01 0.17 0.01 0.08 0.03 0.11 0.04 0.14 0.05 0.17 0.07 0.19 0.08 0.22 0.09 0.25 0.1 0.27 0.36 0.96 0.36 0.97 0.36 0.98 0.37 0.99 0.37 1 0.37 1.01 0.37 1.01 0.37 1.02 0.37 1.02 0.37 1.03 0.37 1.03 0.37 1.04 0.37 1.04 0.37 1.04 0.36 1.04 0.36 1.05 0.36 1.05 0.36 1.05 0.36 1.05 0.35 1.05 0.35 1.04 0.35 1.04 0.34 1.04 0.34 1.03 0.34 1.03 0.33 1.02 0.33 1.02 0.32 1.01 0.32 1 0.31 1 0.31 0.99 0.3 0.98zm50.74 -83.03l4.89 4.89 0.12 0.17 0.1 0.19 0.08 0.2 0.06 0.22 0.05 0.23 0.03 0.25 0.01 0.26 0 10.97 -0.01 0.26 -0.03 0.25 -0.05 0.23 -0.06 0.22 -0.08 0.2 -0.1 0.19 -0.12 0.17 -0.14 0.16 -0.16 0.14 -0.17 0.12 -0.19 0.1 -0.2 0.08 -0.22 0.06 -0.23 0.04 -0.25 0.03 -0.26 0.01 -14.06 0 -0.06 0 -0.06 0 -0.05 0 -0.04 0 -0.03 0 -0.02 0 -0.02 0 -0.01 0 -0 0.01 -0 0.02 -0 0.02 -0 0.03 -0 0.04 -0 0.05 -0 0.06 -0 0.06 0 65.15 -0.01 0.26 -0.03 0.25 -0.04 0.23 -0.06 0.22 -0.08 0.2 -0.1 0.19 -0.12 0.17 -0.14 0.16 -0.16 0.14 -0.17 0.12 -0.19 0.1 -0.2 0.08 -0.22 0.06 -0.23 0.05 -0.25 0.03 -0.26 0.01 -12.13 0 -0.26 -0.01 -0.25 -0.03 -0.23 -0.05 -0.22 -0.06 -0.2 -0.08 -0.19 -0.1 -0.17 -0.12 -0.16 -0.14 -4.89 -4.89c-0.4,-0.4 -0.59,-0.95 -0.59,-1.67l0 -60.58 -9.49 0 -0.26 -0.01 -0.25 -0.03 -0.23 -0.04 -0.22 -0.06 -0.2 -0.08 -0.19 -0.1 -0.17 -0.12 -0.16 -0.14 -4.89 -4.89c-0.4,-0.41 -0.59,-0.96 -0.59,-1.67l0 -10.97c0,-0.72 0.19,-1.27 0.59,-1.67 0.4,-0.41 0.95,-0.59 1.67,-0.59l45.41 0c0.72,0 1.27,0.19 1.67,0.59 0.05,0.05 0.1,0.1 0.14,0.16zm-271.85 41.85l4.3 4.3 0.75 0.76 0.37 0.4 0.36 0.41 0.36 0.42 0.35 0.42 0.34 0.43 0.33 0.44 0.32 0.45 0.31 0.46 0.3 0.47 0.29 0.48 0.28 0.49 0.27 0.5 0.26 0.51 0.25 0.52 0.24 0.53 0.23 0.55 0.22 0.56 0.2 0.57 0.19 0.58 0.18 0.59 0.17 0.61 0.15 0.62 0.14 0.63 0.13 0.64 0.11 0.66 0.1 0.67 0.08 0.68 0.07 0.7 0.05 0.71 0.04 0.72 0.02 0.74 0.01 0.75 -0.03 1.21 -0.08 1.18 -0.13 1.15 -0.17 1.11 -0.22 1.08 -0.27 1.05 -0.31 1.02 -0.35 0.99 -0.4 0.96 -0.44 0.93 -0.48 0.9 -0.51 0.86 -0.55 0.83 -0.58 0.8 -0.62 0.77 -0.65 0.74 -0.68 0.7 -0.7 0.67 -0.73 0.64 -0.76 0.61 -0.78 0.58 -0.81 0.55 -0.83 0.52 -0.85 0.49 -0.87 0.46 -0.89 0.43 -0.91 0.4 -0.93 0.37 -0.94 0.34 -0.95 0.31 -0.97 0.28 -0.98 0.25 -0.49 0.11 -0.49 0.11 -0.49 0.1 -0.5 0.09 -0.5 0.08 -0.5 0.08 -0.5 0.07 -0.5 0.06 -0.5 0.06 -0.5 0.05 -0.51 0.04 -0.51 0.03 -0.51 0.03 -0.51 0.02 -0.51 0.01 -0.51 0 -0.51 -0 -0.51 -0.01 -0.51 -0.02 -0.51 -0.02 -0.51 -0.03 -0.5 -0.04 -0.5 -0.04 -0.5 -0.05 -0.5 -0.06 -0.5 -0.07 -0.5 -0.07 -0.5 -0.08 -0.49 -0.09 -0.49 -0.09 -0.49 -0.1 -0.49 -0.11 -0.62 -0.15 -0.61 -0.16 -0.61 -0.17 -0.6 -0.18 -0.6 -0.19 -0.59 -0.21 -0.59 -0.22 -0.58 -0.23 -0.57 -0.24 -0.57 -0.25 -0.56 -0.26 -0.55 -0.27 -0.54 -0.28 -0.53 -0.3 -0.53 -0.31 -0.52 -0.32 -0.51 -0.33 -0.5 -0.34 -0.49 -0.35 -0.48 -0.36 -0.47 -0.37 -0.46 -0.39 -0.44 -0.4 -4.89 -4.89c-1.32,-1.21 -2.47,-2.56 -3.43,-4.07l-0.33 -0.55c-1.14,-1.89 -2.28,-3.77 -2.28,-4.75 0,-0.45 0.15,-0.82 0.44,-1.15 0.21,-0.24 0.5,-0.44 0.87,-0.62 3.53,-1.81 7.19,-3.58 10.66,-5.48 0.13,-0.07 0.27,-0.15 0.43,-0.23 0.38,-0.19 0.77,-0.33 1.21,-0.33 0.43,0 0.86,0.15 1.23,0.48 0.03,0.03 0.07,0.06 0.1,0.09l0.01 0.01 0.01 0.01 4.86 4.86 0.1 0.1 0.09 0.11 0.09 0.12 0.09 0.13 0.08 0.14 0.08 0.15 0.07 0.16 0.3 0.67 0.19 0.35c0.67,0.35 1.37,0.63 2.09,0.84 1.97,0.59 4.06,0.68 6.03,0.34 1.95,-0.34 3.76,-1.1 5.19,-2.23 1.85,-1.46 3.06,-3.57 3.06,-6.17 0,-1.2 -0.24,-2.26 -0.66,-3.21l-0.75 -0.44 -1.02 -0.55 -1.06 -0.54 -1.09 -0.53 -1.12 -0.52 -1.14 -0.52 -0.22 -0.1 -0.22 -0.1 -0.22 -0.1 -0.22 -0.1 -0.22 -0.1 -0.22 -0.1 -0.22 -0.1 -0.22 -0.1 -0.98 -0.47 -0.98 -0.47 -0.98 -0.48 -0.98 -0.49 -0.98 -0.5 -0.97 -0.51 -0.96 -0.52 -0.95 -0.54 -0.94 -0.56 -0.93 -0.58 -0.91 -0.6 -0.89 -0.62 -0.87 -0.64 -0.85 -0.67 -0.82 -0.7 -0.79 -0.73 -4.89 -4.89c-4.14,-3.96 -6.98,-9.25 -6.98,-17.12 0,-6.6 2.24,-11.86 5.8,-15.76 3.32,-3.64 7.78,-6.08 12.61,-7.31 4.81,-1.22 10,-1.25 14.82,-0.08 4.57,1.11 8.81,3.31 12.08,6.59l4.89 4.89 0.8 0.84 0.76 0.89 0.71 0.93 0.66 0.98 0.33 0.54 0.43 0.71 0.41 0.7 0.39 0.67 0.34 0.64 0.29 0.6 0.22 0.55 0.14 0.48 0.05 0.41 -0.01 0.16 -0.02 0.16 -0.03 0.15 -0.05 0.15 -0.06 0.14 -0.08 0.13 -0.09 0.13 -0.1 0.13 -0.08 0.09 -0.09 0.09 -0.1 0.08 -0.11 0.08 -0.11 0.08 -0.12 0.07 -0.13 0.07 -0.14 0.07 -0.66 0.34 -0.67 0.34 -0.67 0.34 -0.67 0.34 -0.67 0.34 -0.67 0.34 -0.67 0.34 -0.67 0.34 -0.67 0.34 -0.67 0.34 -0.67 0.34 -0.67 0.35 -0.66 0.35 -0.66 0.35 -0.65 0.35 -0.65 0.36 -0.19 0.1 -0.19 0.1 -0.19 0.09 -0.2 0.09 -0.2 0.07 -0.21 0.06 -0.22 0.04 -0.23 0.01 -0.16 -0.01 -0.16 -0.02 -0.16 -0.04 -0.16 -0.05 -0.15 -0.07 -0.15 -0.08 -0.15 -0.1 -0.14 -0.12 -0.1 -0.09 -4.86 -4.86 -0.01 -0.01 -0.01 -0.01c-0.23,-0.23 -0.44,-0.54 -0.6,-0.94 -0.19,-0.44 -0.38,-0.86 -0.6,-1.26l-0.13 -0.06 -0.49 -0.21 -0.49 -0.18 -0.61 -0.18 -0.61 -0.14 -0.62 -0.1 -0.62 -0.06 -0.62 -0.02 -0.61 0.02 -0.61 0.06 -0.6 0.09 -0.59 0.13 -0.57 0.16 -0.56 0.2 -0.55 0.23 -0.53 0.27 -0.51 0.3 -0.49 0.33 -0.46 0.36 -0.32 0.28 -0.31 0.3 -0.29 0.31 -0.27 0.33 -0.26 0.34 -0.24 0.36 -0.22 0.37 -0.2 0.39 -0.18 0.4 -0.16 0.42 -0.14 0.43 -0.11 0.44 -0.09 0.45 -0.07 0.47 -0.04 0.48 -0.01 0.49 0.06 0.88 0.17 0.82 0.12 0.33c1.62,0.9 3.51,1.71 5.49,2.57 1.21,0.52 2.46,1.06 3.68,1.63 4.68,2.16 9.5,4.66 13.34,8.39 0.2,0.19 0.39,0.38 0.58,0.58zm136.15 39.97c-0.26,-0.26 -0.45,-0.58 -0.57,-0.95 -0.87,-2.49 -1.8,-5.69 -2.62,-8.73l-15.04 0 -0.05 0 -0.05 0 -0.05 0 -0.04 0 -0.04 0 -0.04 0 -0.03 0 -0.03 0 -0.15 0.68 -0.17 0.75 -0.2 0.81 -0.22 0.86 -0.24 0.9 -0.25 0.93 -0.26 0.95 -0.27 0.95 -0.28 0.95 -0.28 0.94 -0.28 0.92 -0.28 0.89 -0.27 0.85 -0.26 0.8 -0.25 0.74 -0.23 0.67 -0.06 0.18 -0.08 0.17 -0.09 0.16 -0.1 0.15 -0.11 0.14 -0.12 0.13 -0.14 0.12 -0.15 0.11 -0.15 0.09 -0.16 0.08 -0.16 0.07 -0.17 0.06 -0.18 0.05 -0.18 0.03 -0.19 0.02 -0.19 0.01 -13.03 0 -0.08 -0 -0.08 -0 -0.08 -0 -0.08 -0.01 -0.08 -0.01 -0.08 -0.01 -0.08 -0.01 -0.08 -0.01 -0.18 -0.04 -0.17 -0.05 -0.16 -0.06 -0.16 -0.07 -0.15 -0.08 -0.14 -0.09 -0.13 -0.1 -0.12 -0.11 -4.84 -4.84 -0.01 -0.01 -0.01 -0.01 -0.01 -0.01c-0.34,-0.35 -0.54,-0.81 -0.54,-1.38 0,-0.14 0.02,-0.31 0.05,-0.49l24.1 -79.07c0.12,-0.55 0.41,-0.95 0.8,-1.23 0.41,-0.29 0.91,-0.41 1.43,-0.41l9.29 0c0.53,0 1.02,0.13 1.43,0.41 0.1,0.07 0.19,0.15 0.28,0.23l4.89 4.89 0.12 0.13 0.11 0.15 0.1 0.16 0.08 0.17 0.07 0.19 0.05 0.2 24.1 79.07 0.01 0.07 0.01 0.07 0.01 0.06 0.01 0.06 0.01 0.06 0 0.06 0 0.06 0 0.06 -0.01 0.21 -0.03 0.2 -0.04 0.19 -0.06 0.18 -0.08 0.17 -0.09 0.16 -0.11 0.15 -0.12 0.14 -0.12 0.11 -0.13 0.1 -0.14 0.09 -0.15 0.08 -0.16 0.07 -0.16 0.06 -0.17 0.05 -0.18 0.04 -0.08 0.01 -0.08 0.01 -0.08 0.01 -0.08 0.01 -0.08 0.01 -0.08 0 -0.08 0 -0.08 0 -13.03 0 -0.19 -0.01 -0.19 -0.02 -0.18 -0.03 -0.18 -0.05 -0.17 -0.06 -0.16 -0.07 -0.16 -0.08 -0.15 -0.09 -0.15 -0.11 -0.14 -0.12 -4.89 -4.89z"/>
   <path class="fil2" d="M199.27 158.93l-24.09 -79c-0.13,-0.65 -0.64,-0.9 -1.29,-0.9l-9.29 0c-0.65,0 -1.16,0.26 -1.29,0.9l-24.09 79c-0.18,0.98 0.44,1.37 1.38,1.37l13.03 0c0.64,0 1.13,-0.35 1.29,-0.9l3.87 -13.55c0.13,-0.64 0.64,-0.77 1.29,-0.77l18.32 0c0.65,0 1.16,0.13 1.29,0.77l3.87 13.55c0.16,0.55 0.65,0.9 1.29,0.9l13.03 0c0.94,0 1.56,-0.39 1.38,-1.37zm-29.76 -53.2l5.81 24.64c0,0.64 -0.52,1.16 -1.42,1.16l-9.29 0c-0.9,0 -1.42,-0.52 -1.42,-1.16l5.81 -24.64 0.52 0zm-38.34 53.28l0 -78.7c0,-0.9 -0.39,-1.29 -1.29,-1.29l-10.84 0c-0.52,0 -0.9,0.26 -1.16,0.78l-19.09 45.65 -19.09 -45.65c-0.26,-0.52 -0.65,-0.78 -1.16,-0.78l-10.84 0c-0.9,0 -1.29,0.39 -1.29,1.29l0 78.7c0,0.9 0.39,1.29 1.29,1.29l12.26 0c0.9,0 1.29,-0.39 1.29,-1.29l0 -40.23 13.16 29.65c0.26,0.51 0.64,0.77 1.16,0.77l6.58 0c0.52,0 0.9,-0.26 1.16,-0.77l13.16 -29.66 0 40.24c0,0.9 0.39,1.29 1.29,1.29l12.13 0c0.9,0 1.29,-0.39 1.29,-1.29zm115.68 -55.99c0,5.03 -4.26,9.29 -9.29,9.29l-14.19 0c-0.9,0 -1.29,-0.39 -1.29,-1.29l0 -17.16c0,-0.9 0.39,-1.29 1.29,-1.29l14.19 0c5.03,0 9.29,4.26 9.29,9.29l0 1.16zm16.13 56.25c0,-0.39 -0.39,-1.16 -0.64,-2.06l-11.09 -32.25c-0.39,-1.03 -0.65,-1.68 -0.65,-2.06 0,-0.52 0.13,-0.77 0.52,-1.03 4.9,-3.35 10.45,-10.97 10.45,-17.55l0 -1.29c0,-14.58 -9.29,-24 -24,-24l-29.03 0c-0.9,0 -1.29,0.39 -1.29,1.29l0 78.7c0,0.9 0.39,1.29 1.29,1.29l12.26 0c0.9,0 1.29,-0.39 1.29,-1.29l0 -31.87c0,-0.9 0.39,-1.29 1.29,-1.29l11.48 0c0.52,0 0.9,0.26 1.03,0.77l11.35 32.77c0.13,0.52 0.65,0.9 1.16,0.9l13.29 0c0.9,0 1.29,-0.39 1.29,-1.03zm55.4 -67.99l0 -10.97c0,-0.9 -0.39,-1.29 -1.29,-1.29l-45.41 0c-0.9,0 -1.29,0.39 -1.29,1.29l0 10.97c0,0.9 0.39,1.29 1.29,1.29l14.06 0c0.9,0 1.29,0.39 1.29,1.29l0 65.15c0,0.9 0.39,1.29 1.29,1.29l12.13 0c0.9,0 1.29,-0.39 1.29,-1.29l0 -65.15c0,-0.9 0.39,-1.29 1.29,-1.29l14.06 0c0.9,0 1.29,-0.39 1.29,-1.29zm-265.4 47.48c0,-15.61 -10.45,-21.67 -20.26,-26.19 -7.48,-3.48 -14.96,-5.42 -14.96,-12 0,-10.22 15.38,-13.93 20.51,-1.68 0.26,0.65 0.65,0.9 1.03,0.9 0.52,0 1.03,-0.39 1.55,-0.65l10.32 -5.29c0.52,-0.26 0.77,-0.51 0.77,-0.9 0,-0.77 -1.29,-2.84 -2.45,-4.77 -11.24,-17.61 -46.44,-13.29 -46.44,12.39 0,15.22 11.22,20.51 21.42,25.42 6.97,3.22 13.8,5.81 13.8,12.77 0,10.81 -18.49,13.9 -23.61,1.68 -0.26,-0.65 -0.64,-0.9 -1.03,-0.9 -0.52,0 -1.03,0.39 -1.55,0.65l-10.32 5.29c-0.52,0.26 -0.77,0.52 -0.77,0.9 0,0.77 1.29,2.84 2.45,4.77 11,17.23 49.54,14.3 49.54,-12.39zm543.05 20.17l-24.09 -79c-0.13,-0.65 -0.64,-0.9 -1.29,-0.9l-9.29 0c-0.65,0 -1.16,0.26 -1.29,0.9l-24.09 79c-0.18,0.98 0.44,1.37 1.38,1.37l13.03 0c0.65,0 1.13,-0.35 1.29,-0.9l3.87 -13.55c0.13,-0.64 0.64,-0.77 1.29,-0.77l18.32 0c0.65,0 1.16,0.13 1.29,0.77l3.87 13.55c0.16,0.55 0.65,0.9 1.29,0.9l13.03 0c0.94,0 1.56,-0.39 1.38,-1.37zm-29.76 -53.2l5.81 24.64c0,0.64 -0.52,1.16 -1.42,1.16l-9.29 0c-0.9,0 -1.42,-0.52 -1.42,-1.16l5.81 -24.64 0.52 0zm-161.36 40.64c0,-0.39 -0.26,-0.65 -0.77,-0.9l-10.32 -5.29c-0.52,-0.26 -1.03,-0.65 -1.55,-0.65 -0.39,0 -0.77,0.26 -1.03,0.9 -2.32,5.55 -5.68,7.61 -9.16,7.61l-6.32 0c-5.03,0 -9.29,-4.26 -9.29,-9.29l0 -38.19c0,-5.03 4.26,-9.29 9.29,-9.29l6.32 0c3.48,0 6.84,2.07 9.16,7.61 0.26,0.65 0.65,0.9 1.03,0.9 0.52,0 1.03,-0.39 1.55,-0.65l10.32 -5.29c0.52,-0.26 0.77,-0.51 0.77,-0.9 0,-0.77 -1.29,-2.84 -2.45,-4.77 -3.87,-6.06 -9.68,-10.45 -20.38,-10.45l-6.32 0c-14.71,0 -24,9.42 -24,22.83l0 38.19c0,13.42 9.29,22.83 24,22.83l6.32 0c10.71,0 16.51,-4.39 20.38,-10.45 1.16,-1.94 2.45,-4 2.45,-4.77zm65.5 12.9c0,-0.39 -0.39,-1.16 -0.64,-2.06l-11.09 -32.25c-0.39,-1.03 -0.65,-1.68 -0.65,-2.06 0,-0.52 0.13,-0.77 0.52,-1.03 4.9,-3.35 10.45,-10.97 10.45,-17.55l0 -1.29c0,-14.58 -9.29,-24 -24,-24l-29.03 0c-0.9,0 -1.29,0.39 -1.29,1.29l0 78.7c0,0.9 0.39,1.29 1.29,1.29l12.26 0c0.9,0 1.29,-0.39 1.29,-1.29l0 -31.87c0,-0.9 0.39,-1.29 1.29,-1.29l11.48 0c0.52,0 0.9,0.26 1.03,0.77l11.35 32.77c0.13,0.52 0.65,0.9 1.16,0.9l13.29 0c0.9,0 1.29,-0.39 1.29,-1.03zm-16.13 -56.25c0,5.03 -4.26,9.29 -9.29,9.29l-14.19 0c-0.9,0 -1.29,-0.39 -1.29,-1.29l0 -17.16c0,-0.9 0.39,-1.29 1.29,-1.29l14.19 0c5.03,0 9.29,4.26 9.29,9.29l0 1.16zm75.22 55.99l0 -10.97c0,-0.9 -0.39,-1.29 -1.29,-1.29l-30.7 0c-0.9,0 -1.29,-0.39 -1.29,-1.29l0 -18.32c0,-0.9 0.39,-1.29 1.29,-1.29l25.16 0c0.9,0 1.29,-0.39 1.29,-1.29l0 -10.97c0,-0.9 -0.39,-1.29 -1.29,-1.29l-25.16 0c-0.9,0 -1.29,-0.39 -1.29,-1.29l0 -17.16c0,-0.9 0.39,-1.29 1.29,-1.29l30.7 0c0.9,0 1.29,-0.39 1.29,-1.29l0 -10.97c0,-0.9 -0.39,-1.29 -1.29,-1.29l-45.54 0c-0.9,0 -1.29,0.39 -1.29,1.29l0 78.7c0,0.9 0.39,1.29 1.29,1.29l45.54 0c0.9,0 1.29,-0.39 1.29,-1.29zm137.64 0l0 -78.7c0,-0.9 -0.39,-1.29 -1.29,-1.29l-10.84 0c-0.52,0 -0.9,0.26 -1.16,0.78l-19.09 45.65 -19.09 -45.65c-0.26,-0.52 -0.65,-0.78 -1.16,-0.78l-10.84 0c-0.9,0 -1.29,0.39 -1.29,1.29l0 78.7c0,0.9 0.39,1.29 1.29,1.29l12.26 0c0.9,0 1.29,-0.39 1.29,-1.29l0 -40.23 13.16 29.65c0.26,0.51 0.64,0.77 1.16,0.77l6.58 0c0.52,0 0.9,-0.26 1.16,-0.77l13.16 -29.66 0 40.24c0,0.9 0.39,1.29 1.29,1.29l12.13 0c0.9,0 1.29,-0.39 1.29,-1.29z"/>
  </g>
 </g>
</svg>
