<?xml version="1.0" encoding="UTF-8"?>
<!DOCTYPE svg PUBLIC "-//W3C//DTD SVG 1.1//EN" "http://www.w3.org/Graphics/SVG/1.1/DTD/svg11.dtd">
<!-- Creator: CorelDRAW -->
<svg xmlns="http://www.w3.org/2000/svg" xml:space="preserve" width="117.605mm" height="28.4569mm" version="1.1" style="shape-rendering:geometricPrecision; text-rendering:geometricPrecision; image-rendering:optimizeQuality; fill-rule:evenodd; clip-rule:evenodd"
viewBox="0 0 327.86 79.33"
 xmlns:xlink="http://www.w3.org/1999/xlink"
 xmlns:xodm="http://www.corel.com/coreldraw/odm/2003">
 <defs>
  <style type="text/css">
   <![CDATA[
    .fil0 {fill:#FEFEFE}
   ]]>
  </style>
 </defs>
 <g id="Camada_x0020_1">
  <metadata id="CorelCorpID_0Corel-Layer"/>
  <g id="_2783171968144">
   <path class="fil0" d="M105.95 17.93c0.39,1.05 0.25,2.04 -0.4,2.96 -0.58,0.82 -1.43,1.44 -2.53,1.85 -1.04,0.38 -2.16,0.58 -3.36,0.58l-0.13 -1.87c1.17,-0.03 2.12,-0.18 2.85,-0.45 0.51,-0.19 0.91,-0.45 1.19,-0.77 0.35,-0.4 0.44,-0.83 0.27,-1.3 -0.21,-0.57 -0.82,-0.9 -1.85,-1 -1.76,-0.16 -2.72,-0.27 -2.87,-0.31 -1.1,-0.31 -1.85,-1 -2.24,-2.06 -0.37,-1.01 -0.26,-1.93 0.34,-2.77 0.53,-0.73 1.32,-1.29 2.37,-1.68 0.86,-0.32 1.91,-0.49 3.15,-0.52l-0.01 1.86c-1.07,0.04 -1.88,0.16 -2.44,0.37 -1.16,0.43 -1.58,1.05 -1.28,1.86 0.17,0.47 0.77,0.74 1.78,0.82 1.57,0.11 2.54,0.21 2.89,0.3 1.11,0.33 1.86,1.04 2.26,2.12zm14.96 -7.04c0.47,1.69 0.39,3.2 -0.24,4.51 -0.66,1.39 -1.82,2.32 -3.49,2.78 -1.67,0.46 -3.14,0.27 -4.4,-0.57 -1.22,-0.81 -2.06,-2.06 -2.53,-3.76 -0.48,-1.72 -0.41,-3.23 0.2,-4.53 0.66,-1.39 1.83,-2.32 3.51,-2.78 1.69,-0.47 3.18,-0.28 4.46,0.58 1.19,0.81 2.03,2.07 2.5,3.78zm-2.21 0.61c-0.31,-1.13 -0.81,-2 -1.48,-2.59 -0.78,-0.69 -1.71,-0.89 -2.78,-0.6 -1.07,0.3 -1.76,0.94 -2.07,1.94 -0.26,0.85 -0.23,1.85 0.08,2.98 0.31,1.11 0.8,1.96 1.47,2.56 0.8,0.69 1.72,0.89 2.76,0.6 1.06,-0.29 1.74,-0.94 2.06,-1.94 0.28,-0.86 0.27,-1.85 -0.04,-2.96zm13.94 -7.01l-4.61 0.88 0.54 2.83 3.85 -0.74 0.34 1.75 -3.85 0.74 0.98 5.11 -2.1 0.4 -2.2 -11.5 6.71 -1.28 0.35 1.82zm13.92 -1.74l-3.64 0.4 1.09 9.8 -2.13 0.24 -1.09 -9.8 -3.42 0.38 -0.2 -1.84 9.19 -1.02 0.2 1.84zm18.48 8.33c-1.26,0.64 -2.55,0.97 -3.88,1 -1.85,0.04 -3.37,-0.48 -4.57,-1.55 -1.2,-1.07 -1.81,-2.52 -1.85,-4.36 -0.04,-1.93 0.5,-3.44 1.61,-4.53 1.09,-1.06 2.6,-1.61 4.54,-1.65 1.08,-0.02 2.27,0.22 3.56,0.72l-0.68 1.79c-1.1,-0.45 -2.11,-0.66 -3.03,-0.64 -1.18,0.02 -2.09,0.4 -2.75,1.14 -0.66,0.74 -0.98,1.7 -0.95,2.89 0.03,1.3 0.37,2.34 1.04,3.11 0.72,0.82 1.72,1.22 3,1.19 0.78,-0.02 1.4,-0.12 1.88,-0.33 -0.04,-0.19 -0.06,-0.38 -0.06,-0.56l-0.07 -3.59 2.12 -0.04 0.1 5.41zm12.83 1.21l-6.98 -0.32 0.53 -11.7 6.82 0.31 -0.08 1.85 -4.69 -0.21 -0.13 2.87 3.92 0.18 -0.08 1.78 -3.92 -0.18 -0.15 3.35 4.84 0.22 -0.08 1.85zm12.24 1.28l-6.94 -0.77 1.29 -11.64 2.13 0.24 -1.09 9.8 4.82 0.53 -0.2 1.84zm15.05 2.73l-2.35 -0.45 -0.58 -3.14 -4.44 -0.85 -1.7 2.69 -2.26 -0.41 6.96 -10.59 2 0.38 2.37 12.38zm-3.28 -5.54l-0.77 -4.17 -2.24 3.6 3.01 0.58zm17.81 -0.71l-3.53 -0.98 -2.63 9.5 -2.06 -0.57 2.63 -9.5 -3.32 -0.92 0.49 -1.78 8.91 2.47 -0.49 1.78zm13.85 9.31c-0.63,1.64 -1.59,2.8 -2.88,3.48 -1.36,0.72 -2.84,0.78 -4.46,0.15 -1.62,-0.62 -2.68,-1.65 -3.2,-3.09 -0.5,-1.38 -0.43,-2.89 0.2,-4.53 0.64,-1.66 1.59,-2.83 2.86,-3.52 1.36,-0.72 2.85,-0.77 4.48,-0.14 1.64,0.63 2.72,1.67 3.24,3.12 0.48,1.36 0.4,2.87 -0.24,4.53zm-2.14 -0.83c0.42,-1.1 0.54,-2.08 0.35,-2.96 -0.22,-1.03 -0.84,-1.74 -1.87,-2.14 -1.03,-0.4 -1.97,-0.29 -2.82,0.32 -0.72,0.53 -1.29,1.34 -1.71,2.44 -0.41,1.08 -0.53,2.05 -0.34,2.93 0.23,1.03 0.85,1.74 1.86,2.13 1.02,0.39 1.96,0.28 2.81,-0.33 0.74,-0.52 1.32,-1.32 1.73,-2.4zm-39.05 6.21l0 1.46 -53.94 0 0 -1.46 53.94 0z"/>
   <path class="fil0" d="M97.59 77.86l-11.85 -38.88c-0.06,-0.32 -0.32,-0.45 -0.63,-0.45l-4.57 0c-0.32,0 -0.57,0.13 -0.64,0.45l-11.85 38.88c-0.09,0.48 0.22,0.68 0.68,0.68l6.41 0c0.32,0 0.55,-0.17 0.63,-0.44l1.91 -6.67c0.06,-0.32 0.32,-0.38 0.63,-0.38l9.02 0c0.32,0 0.57,0.06 0.63,0.38l1.9 6.67c0.08,0.27 0.32,0.44 0.64,0.44l6.41 0c0.46,0 0.77,-0.19 0.68,-0.68zm-14.65 -26.18l2.86 12.13c0,0.32 -0.25,0.57 -0.7,0.57l-4.57 0c-0.44,0 -0.7,-0.25 -0.7,-0.57l2.86 -12.13 0.25 0zm-18.87 26.22l0 -38.73c0,-0.44 -0.19,-0.64 -0.63,-0.64l-5.33 0c-0.25,0 -0.44,0.13 -0.57,0.38l-9.4 22.47 -9.4 -22.47c-0.13,-0.25 -0.32,-0.38 -0.57,-0.38l-5.33 0c-0.44,0 -0.64,0.19 -0.64,0.64l0 38.73c0,0.44 0.19,0.63 0.64,0.63l6.03 0c0.44,0 0.63,-0.19 0.63,-0.63l0 -19.8 6.48 14.59c0.13,0.25 0.32,0.38 0.57,0.38l3.24 0c0.25,0 0.44,-0.13 0.57,-0.38l6.48 -14.6 0 19.81c0,0.44 0.19,0.63 0.63,0.63l5.97 0c0.44,0 0.63,-0.19 0.63,-0.63zm56.93 -27.56c0,2.48 -2.1,4.57 -4.57,4.57l-6.98 0c-0.44,0 -0.64,-0.19 -0.64,-0.63l0 -8.45c0,-0.44 0.19,-0.63 0.64,-0.63l6.98 0c2.48,0 4.57,2.1 4.57,4.57l0 0.57zm7.94 27.68c0,-0.19 -0.19,-0.57 -0.32,-1.02l-5.46 -15.87c-0.19,-0.51 -0.32,-0.83 -0.32,-1.02 0,-0.25 0.06,-0.38 0.25,-0.51 2.41,-1.65 5.14,-5.4 5.14,-8.64l0 -0.64c0,-7.17 -4.57,-11.81 -11.81,-11.81l-14.29 0c-0.44,0 -0.64,0.19 -0.64,0.63l0 38.73c0,0.44 0.19,0.63 0.64,0.63l6.03 0c0.44,0 0.63,-0.19 0.63,-0.63l0 -15.68c0,-0.44 0.19,-0.64 0.64,-0.64l5.65 0c0.25,0 0.44,0.13 0.51,0.38l5.59 16.13c0.06,0.25 0.32,0.44 0.57,0.44l6.54 0c0.44,0 0.64,-0.19 0.64,-0.51zm27.27 -33.46l0 -5.4c0,-0.44 -0.19,-0.63 -0.64,-0.63l-22.35 0c-0.44,0 -0.63,0.19 -0.63,0.63l0 5.4c0,0.44 0.19,0.64 0.63,0.64l6.92 0c0.44,0 0.64,0.19 0.64,0.63l0 32.07c0,0.44 0.19,0.63 0.63,0.63l5.97 0c0.44,0 0.63,-0.19 0.63,-0.63l0 -32.07c0,-0.44 0.19,-0.63 0.64,-0.63l6.92 0c0.44,0 0.64,-0.19 0.64,-0.64zm-130.62 23.37c0,-7.68 -5.14,-10.67 -9.97,-12.89 -3.68,-1.71 -7.37,-2.67 -7.37,-5.91 0,-5.03 7.57,-6.86 10.1,-0.83 0.13,0.32 0.32,0.44 0.51,0.44 0.25,0 0.51,-0.19 0.76,-0.32l5.08 -2.6c0.25,-0.13 0.38,-0.25 0.38,-0.44 0,-0.38 -0.64,-1.4 -1.21,-2.35 -5.53,-8.67 -22.86,-6.54 -22.86,6.1 0,7.49 5.52,10.1 10.54,12.51 3.43,1.59 6.79,2.86 6.79,6.29 0,5.32 -9.1,6.84 -11.62,0.83 -0.13,-0.32 -0.32,-0.44 -0.51,-0.44 -0.25,0 -0.51,0.19 -0.76,0.32l-5.08 2.6c-0.25,0.13 -0.38,0.25 -0.38,0.44 0,0.38 0.63,1.4 1.21,2.35 5.41,8.48 24.38,7.04 24.38,-6.1zm267.27 9.93l-11.85 -38.88c-0.06,-0.32 -0.32,-0.45 -0.64,-0.45l-4.57 0c-0.32,0 -0.57,0.13 -0.63,0.45l-11.85 38.88c-0.09,0.48 0.22,0.68 0.68,0.68l6.41 0c0.32,0 0.55,-0.17 0.63,-0.44l1.91 -6.67c0.06,-0.32 0.32,-0.38 0.63,-0.38l9.02 0c0.32,0 0.57,0.06 0.63,0.38l1.91 6.67c0.08,0.27 0.32,0.44 0.63,0.44l6.41 0c0.46,0 0.77,-0.19 0.68,-0.68zm-14.65 -26.18l2.86 12.13c0,0.32 -0.25,0.57 -0.7,0.57l-4.57 0c-0.44,0 -0.7,-0.25 -0.7,-0.57l2.86 -12.13 0.25 0zm-79.42 20c0,-0.19 -0.13,-0.32 -0.38,-0.44l-5.08 -2.6c-0.25,-0.13 -0.51,-0.32 -0.76,-0.32 -0.19,0 -0.38,0.13 -0.51,0.44 -1.14,2.73 -2.79,3.75 -4.51,3.75l-3.11 0c-2.48,0 -4.57,-2.1 -4.57,-4.57l0 -18.79c0,-2.48 2.1,-4.57 4.57,-4.57l3.11 0c1.71,0 3.37,1.02 4.51,3.75 0.13,0.32 0.32,0.44 0.51,0.44 0.25,0 0.51,-0.19 0.76,-0.32l5.08 -2.6c0.25,-0.13 0.38,-0.25 0.38,-0.44 0,-0.38 -0.63,-1.4 -1.21,-2.35 -1.9,-2.98 -4.76,-5.14 -10.03,-5.14l-3.11 0c-7.24,0 -11.81,4.64 -11.81,11.24l0 18.79c0,6.6 4.57,11.24 11.81,11.24l3.11 0c5.27,0 8.13,-2.16 10.03,-5.14 0.57,-0.95 1.21,-1.97 1.21,-2.35zm32.24 6.35c0,-0.19 -0.19,-0.57 -0.32,-1.02l-5.46 -15.87c-0.19,-0.51 -0.32,-0.83 -0.32,-1.02 0,-0.25 0.06,-0.38 0.25,-0.51 2.41,-1.65 5.14,-5.4 5.14,-8.64l0 -0.64c0,-7.17 -4.57,-11.81 -11.81,-11.81l-14.29 0c-0.44,0 -0.64,0.19 -0.64,0.63l0 38.73c0,0.44 0.19,0.63 0.64,0.63l6.03 0c0.44,0 0.64,-0.19 0.64,-0.63l0 -15.68c0,-0.44 0.19,-0.64 0.63,-0.64l5.65 0c0.25,0 0.44,0.13 0.51,0.38l5.59 16.13c0.06,0.25 0.32,0.44 0.57,0.44l6.54 0c0.44,0 0.63,-0.19 0.63,-0.51zm-7.94 -27.68c0,2.48 -2.1,4.57 -4.57,4.57l-6.98 0c-0.44,0 -0.63,-0.19 -0.63,-0.63l0 -8.45c0,-0.44 0.19,-0.63 0.63,-0.63l6.98 0c2.48,0 4.57,2.1 4.57,4.57l0 0.57zm37.02 27.56l0 -5.4c0,-0.44 -0.19,-0.64 -0.64,-0.64l-15.11 0c-0.44,0 -0.64,-0.19 -0.64,-0.63l0 -9.02c0,-0.44 0.19,-0.64 0.64,-0.64l12.38 0c0.44,0 0.64,-0.19 0.64,-0.63l0 -5.4c0,-0.44 -0.19,-0.64 -0.64,-0.64l-12.38 0c-0.44,0 -0.64,-0.19 -0.64,-0.63l0 -8.45c0,-0.44 0.19,-0.63 0.64,-0.63l15.11 0c0.44,0 0.64,-0.19 0.64,-0.64l0 -5.4c0,-0.44 -0.19,-0.63 -0.64,-0.63l-22.41 0c-0.44,0 -0.64,0.19 -0.64,0.63l0 38.73c0,0.44 0.19,0.63 0.64,0.63l22.41 0c0.44,0 0.64,-0.19 0.64,-0.63zm67.74 0l0 -38.73c0,-0.44 -0.19,-0.64 -0.63,-0.64l-5.33 0c-0.25,0 -0.44,0.13 -0.57,0.38l-9.4 22.47 -9.4 -22.47c-0.13,-0.25 -0.32,-0.38 -0.57,-0.38l-5.33 0c-0.44,0 -0.64,0.19 -0.64,0.64l0 38.73c0,0.44 0.19,0.63 0.64,0.63l6.03 0c0.44,0 0.64,-0.19 0.64,-0.63l0 -19.8 6.48 14.59c0.13,0.25 0.32,0.38 0.57,0.38l3.24 0c0.25,0 0.44,-0.13 0.57,-0.38l6.48 -14.6 0 19.81c0,0.44 0.19,0.63 0.63,0.63l5.97 0c0.44,0 0.63,-0.19 0.63,-0.63z"/>
  </g>
 </g>
</svg>
