<?xml version="1.0" encoding="UTF-8"?>
<!DOCTYPE svg PUBLIC "-//W3C//DTD SVG 1.1//EN" "http://www.w3.org/Graphics/SVG/1.1/DTD/svg11.dtd">
<!-- Creator: CorelDRAW -->
<svg xmlns="http://www.w3.org/2000/svg" xml:space="preserve" width="131.678mm" height="42.0658mm" version="1.1" style="shape-rendering:geometricPrecision; text-rendering:geometricPrecision; image-rendering:optimizeQuality; fill-rule:evenodd; clip-rule:evenodd"
viewBox="0 0 411.81 131.56"
 xmlns:xlink="http://www.w3.org/1999/xlink"
 xmlns:xodm="http://www.corel.com/coreldraw/odm/2003">
 <defs>
  <style type="text/css">
   <![CDATA[
    .fil1 {fill:#528297}
    .fil3 {fill:#D5838F;fill-rule:nonzero}
    .fil0 {fill:#8BB4CA;fill-rule:nonzero}
    .fil2 {fill:#528297;fill-rule:nonzero}
   ]]>
  </style>
 </defs>
 <g id="Camada_x0020_1">
  <metadata id="CorelCorpID_0Corel-Layer"/>
  <g id="_2748498696672">
   <path class="fil0" d="M23.83 54.96l-6.81 0 0 57.87 5.11 0 0 -52.76 6.81 0c0.53,0 1.03,0.07 1.52,0.18 -0.69,-3.02 -3.4,-5.29 -6.63,-5.29zm361.24 57.76c-0.11,-0.02 -0.21,-0.04 -0.32,-0.06 -0.11,-0.49 -0.17,-1 -0.17,-1.52l0 -9.23 0 -1.7 -0.05 0 0 -0.05 -0.05 0 0 -0.05 -0.05 0 0 -0.05 -0.05 0 0 -0.05 -0.05 0 0 -0.05 -0.05 0 0 -0.05 -0.05 0 0 -0.05 -0.05 0 0 -0.05 -0.05 0 0 -0.05 -0.05 0 0 -0.05 -0.05 0 0 -0.05 -0.05 0 0 -0.05 -0.05 0 0 -0.05 -0.05 0 0 -0.05 -0.05 0 0 -0.05 -0.05 0 0 -0.05 -0.05 0 0 -0.05 -0.05 0 0 -0.05 -0.05 0 0 -0.05 -0.05 0 0 -0.05 -0.05 0 0 -0.05 -0.05 0 0 -0.05 -0.05 0 0 -0.05 -0.05 0 0 -0.05 -0.05 0 0 -0.05 -0.05 0 0 -0.05 -0.05 0 0 -0.05 -0.05 0 0 -0.05 -0.05 0 0 -0.05 -0.05 0 0 -0.05 -0.05 0 0 -0.05 -0.05 0 0 -0.05 -0.05 0 0 -0.05 -0.05 0 0 -0.05 -0.05 0 0 -0.05 -0.05 0 0 -0.05 -0.05 0 0 -0.05 -0.05 0 0 -0.05 -0.05 0 0 -0.05 -0.05 0 0 -0.05 -0.05 0 0 -0.05 -0.05 0 0 -0.05 -0.05 0 0 -0.05 -0.05 0 0 -0.05 -0.05 0 0 -0.05 -0.05 0 0 -0.05 -0.05 0 0 -0.05 -0.05 0 0 -0.05 -0.05 0 0 -0.05 -0.05 0 0 -0.05 -0.05 0 0 -0.05 -0.05 0 0 -0.05 -0.05 0 0 -0.05 -0.05 0 0 -0.05 -0.05 0 0 -0.05 -0.05 0 0 -0.05 -0.05 0 0 -0.05 -0.05 0 0 -0.05 -0.05 0 0 -0.05 -0.05 0 0 -0.05 -0.05 0 0 -0.05 -0.05 0 0 -0.05 -0.05 0 0 -0.05 -0.05 0 0 -0.05 -0.05 0 0 -0.05 -0.05 0 0 -0.05 -0.05 0 0 -0.05 -0.05 0 0 -0.05 -0.05 0 0 -0.05 -0.05 0 0 -0.05 -0.05 0 0 -0.05 -0.05 0 0 -0.05 -0.05 0 0 -0.05 -0.05 0 0 -0.05 -0.05 0 0 -0.05 -0.05 0 0 -0.05 -0.05 0 0 -0.05 -0.05 0 0 -0.05 -0.05 0 0 -0.05 -0.05 0 0 -0.05 -0.05 0 0 -0.05 -0.05 0 0 -0.05 -0.05 0 0 -0.05 -0.05 0 0 -0.05 -0.05 0 0 -0.05 -0.05 0 0 -0.05 -0.05 0 0 -0.05 -0.05 0 0 -0.05 -0.05 0 0 -0.05 -0.05 0 0 -0.05 -0.05 0 0 -0.05 -0.05 0 0 -0.05 -0.05 0 0 -0.05 -0.05 0 0 -0.05 -0.05 0 0 -0.05 -0.05 0 0 -0.05 -0.05 0 0 -0.05 -0.05 0 0 -0.05 -0.05 0 0 -0.05 -0.05 0 0 -0.05 -0.05 0 0 -0.05 0 1.7 0 9.24c0,3.34 2.43,6.12 5.61,6.69zm20.72 -60.3c-0.02,-0.02 -0.03,-0.03 -0.05,-0.05 -0.02,-0.02 -0.03,-0.03 -0.05,-0.05 -0.02,-0.01 -0.03,-0.03 -0.05,-0.05 -0.02,-0.01 -0.03,-0.03 -0.05,-0.05 -0.02,-0.02 -0.04,-0.04 -0.05,-0.05 -0.02,-0.02 -0.03,-0.04 -0.05,-0.05 -0.02,-0.02 -0.03,-0.03 -0.05,-0.05 -0.02,-0.02 -0.03,-0.03 -0.05,-0.05 -0.02,-0.02 -0.03,-0.03 -0.05,-0.05 -0.02,-0.02 -0.03,-0.03 -0.05,-0.05 -0.02,-0.01 -0.04,-0.03 -0.05,-0.05 -0.02,-0.02 -0.03,-0.03 -0.05,-0.05 -0.02,-0.02 -0.03,-0.03 -0.05,-0.05 -0.02,-0.02 -0.03,-0.03 -0.05,-0.05 -0.02,-0.01 -0.03,-0.03 -0.05,-0.05 -0.02,-0.02 -0.04,-0.03 -0.05,-0.05 -0.02,-0.02 -0.04,-0.04 -0.05,-0.05 -0.02,-0.02 -0.04,-0.04 -0.05,-0.05 -0.02,-0.02 -0.03,-0.03 -0.05,-0.05 -0.02,-0.02 -0.03,-0.03 -0.05,-0.05 -0.01,-0.02 -0.03,-0.03 -0.05,-0.05 -0.01,-0.02 -0.03,-0.03 -0.05,-0.05 -0.02,-0.02 -0.03,-0.04 -0.05,-0.05 -0.02,-0.02 -0.03,-0.03 -0.05,-0.05 -0.02,-0.02 -0.03,-0.03 -0.05,-0.05 -0.02,-0.02 -0.03,-0.03 -0.05,-0.05 -0.02,-0.02 -0.03,-0.03 -0.05,-0.05 -0.02,-0.01 -0.03,-0.03 -0.05,-0.05 -0.02,-0.02 -0.04,-0.04 -0.05,-0.05 -0.02,-0.02 -0.03,-0.04 -0.05,-0.05 -0.02,-0.02 -0.03,-0.03 -0.05,-0.05 -0.02,-0.02 -0.03,-0.03 -0.05,-0.05 -0.01,-0.02 -0.03,-0.03 -0.05,-0.05 -0.02,-0.02 -0.03,-0.03 -0.05,-0.05 -0.02,-0.02 -0.04,-0.04 -0.05,-0.05 -0.02,-0.02 -0.04,-0.04 -0.05,-0.05 -0.02,-0.02 -0.03,-0.03 -0.05,-0.05 -0.02,-0.02 -0.03,-0.03 -0.05,-0.05 -0.01,-0.02 -0.03,-0.03 -0.05,-0.05 -0.02,-0.02 -0.03,-0.03 -0.05,-0.05 -0.02,-0.01 -0.04,-0.03 -0.05,-0.05 -0.02,-0.02 -0.03,-0.04 -0.05,-0.05 -0.02,-0.02 -0.03,-0.03 -0.05,-0.05 -0.02,-0.02 -0.03,-0.03 -0.05,-0.05 -0.02,-0.01 -0.03,-0.03 -0.05,-0.05 -0.02,-0.02 -0.03,-0.03 -0.05,-0.05 -0.02,-0.02 -0.04,-0.03 -0.05,-0.05 -0.02,-0.02 -0.03,-0.03 -0.05,-0.05 -0.02,-0.02 -0.03,-0.03 -0.05,-0.05 -0.02,-0.02 -0.03,-0.03 -0.05,-0.05 -0.02,-0.02 -0.03,-0.03 -0.05,-0.05 -0.02,-0.01 -0.03,-0.03 -0.05,-0.05 -0.02,-0.02 -0.04,-0.04 -0.05,-0.05 -0.02,-0.02 -0.04,-0.04 -0.05,-0.05 -0.02,-0.02 -0.03,-0.03 -0.05,-0.05 -0.02,-0.02 -0.03,-0.03 -0.05,-0.05 -0.02,-0.02 -0.03,-0.03 -0.05,-0.05 -0.02,-0.01 -0.03,-0.03 -0.05,-0.05 -0.02,-0.02 -0.03,-0.03 -0.05,-0.05 -0.02,-0.02 -0.04,-0.04 -0.05,-0.05 -0.02,-0.02 -0.03,-0.03 -0.05,-0.05 -0.02,-0.02 -0.03,-0.03 -0.05,-0.05 -0.02,-0.02 -0.03,-0.03 -0.05,-0.05 -0.02,-0.02 -0.03,-0.03 -0.05,-0.05 -0.01,-0.02 -0.03,-0.03 -0.05,-0.05 -0.02,-0.02 -0.04,-0.04 -0.05,-0.05 -0.02,-0.02 -0.03,-0.03 -0.05,-0.05 -0.02,-0.02 -0.03,-0.03 -0.05,-0.05 -0.02,-0.02 -0.03,-0.03 -0.05,-0.05 -0.01,-0.02 -0.03,-0.03 -0.05,-0.05 -0.02,-0.02 -0.04,-0.04 -0.05,-0.05 -0.02,-0.02 -0.04,-0.04 -0.05,-0.05 -0.02,-0.02 -0.03,-0.03 -0.05,-0.05 -0.02,-0.02 -0.03,-0.03 -0.05,-0.05 -0.02,-0.02 -0.03,-0.03 -0.05,-0.05 -0.02,-0.02 -0.03,-0.03 -0.05,-0.05 -0.02,-0.02 -0.03,-0.03 -0.05,-0.05 -0.02,-0.02 -0.04,-0.04 -0.05,-0.05 -0.02,-0.02 -0.03,-0.03 -0.05,-0.05 -0.02,-0.02 -0.03,-0.03 -0.05,-0.05 -0.02,-0.02 -0.03,-0.03 -0.05,-0.05 -0.01,-0.02 -0.03,-0.03 -0.05,-0.05 -0.02,-0.02 -0.03,-0.03 -0.05,-0.05 -0.02,-0.02 -0.04,-0.04 -0.05,-0.05 -0.02,-0.02 -0.03,-0.03 -0.05,-0.05 -0.02,-0.02 -0.03,-0.03 -0.05,-0.05 -0.02,-0.02 -0.03,-0.03 -0.05,-0.05 -0.02,-0.01 -0.03,-0.03 -0.05,-0.05 -0.02,-0.02 -0.03,-0.03 -0.05,-0.05 -0.02,-0.02 -0.04,-0.04 -0.05,-0.05 -0.02,-0.02 -0.04,-0.04 -0.05,-0.05 -0.02,-0.02 -0.03,-0.03 -0.05,-0.05 -0.02,-0.02 -0.03,-0.03 -0.05,-0.05 -0.02,-0.02 -0.03,-0.03 -0.05,-0.05 -0.01,-0.02 -0.03,-0.03 -0.05,-0.05 -0.02,-0.02 -0.04,-0.04 -0.05,-0.05 -0.02,-0.02 -0.03,-0.03 -0.05,-0.05 -0.02,-0.02 -0.03,-0.03 -0.05,-0.05 -0.02,-0.02 -0.03,-0.03 -0.05,-0.05 -0.02,-0.02 -0.03,-0.03 -0.05,-0.05 3.69,3.7 5.97,8.79 5.97,14.41l0 9.23 0 1.7 -1.7 0 -10.21 0 -1.65 0 0 0.05 0.05 0 0 0.05 0.05 0 0 0.05 0.05 0 0 0.05 0.05 0 0 0.05 0.05 0 0 0.05 0.05 0 0 0.05 0.05 0 0 0.05 0.05 0 0 0.05 0.05 0 0 0.05 0.05 0 0 0.05 0.05 0 0 0.05 0.05 0 0 0.05 0.05 0 0 0.05 0.05 0 0 0.05 0.05 0 0 0.05 0.05 0 0 0.05 0.05 0 0 0.05 0.05 0 0 0.05 0.05 0 0 0.05 0.05 0 0 0.05 0.05 0 0 0.05 0.05 0 0 0.05 0.05 0 0 0.05 0.05 0 0 0.05 0.05 0 0 0.05 0.05 0 0 0.05 0.05 0 0 0.05 0.05 0 0 0.05 0.05 0 0 0.05 0.05 0 0 0.05 0.05 0 0 0.05 0.05 0 0 0.05 0.05 0 0 0.05 0.05 0 0 0.05 0.05 0 0 0.05 0.05 0 0 0.05 0.05 0 0 0.05 0.05 0 0 0.05 0.05 0 0 0.05 0.05 0 0 0.05 0.05 0 0 0.05 0.05 0 0 0.05 0.05 0 0 0.05 0.05 0 0 0.05 0.05 0 0 0.05 0.05 0 0 0.05 0.05 0 0 0.05 0.05 0 0 0.05 0.05 0 0 0.05 0.05 0 0 0.05 0.05 0 0 0.05 0.05 0 0 0.05 0.05 0 0 0.05 0.05 0 0 0.05 0.05 0 0 0.05 0.05 0 0 0.05 0.05 0 0 0.05 0.05 0 0 0.05 0.05 0 0 0.05 0.05 0 0 0.05 0.05 0 0 0.05 0.05 0 0 0.05 0.05 0 0 0.05 0.05 0 0 0.05 0.05 0 0 0.05 0.05 0 0 0.05 0.05 0 0 0.05 0.05 0 0 0.05 0.05 0 0 0.05 0.05 0 0 0.05 0.05 0 0 0.05 0.05 0 0 0.05 0.05 0 0 0.05 0.05 0 0 0.05 0.05 0 0 0.05 0.05 0 0 0.05 0.05 0 0 0.05 0.05 0 0 0.05 0.05 0 0 0.05 0.05 0 0 0.05 0.05 0 0 0.05 0.05 0 0 0.05 0.05 0 0 0.05 0.05 0 0 0.05 0.05 0 0 0.05 0.05 0 0 0.05 0.05 0 0 0.05 0.05 0 0 0.05 0.05 0 0 0.05 0.05 0 0 0.05 0.05 0 0 0.05 0.05 0 0 0.05 0.05 0 0 0.05 0.05 0 0 0.05 0.05 0 0 0.05 0.05 0 0 0.05 0.05 0 0 0.05 0.05 0 0 0.05 0.05 0 0 0.05 0.05 0 0 0.05 1.7 0 10.21 0 1.7 0 0 -1.7 0 -9.24c0,-5.64 -2.3,-10.76 -6.02,-14.46zm-19.66 20.13c-1,-1.22 -1.55,-2.76 -1.55,-4.33l0 -1.34c0,-3.75 3.06,-6.81 6.81,-6.81 0.53,0 1.03,0.06 1.52,0.18 -0.69,-3.02 -3.4,-5.29 -6.63,-5.29 -3.75,0 -6.81,3.05 -6.81,6.81l0 1.34c0,1.58 0.55,3.11 1.55,4.33l21.02 25.52c3,3.65 4.66,8.26 4.66,12.98l0 0.08c0,11.26 -9.16,20.43 -20.43,20.43 -5.62,0 -10.71,-2.28 -14.41,-5.96 0.02,0.02 0.03,0.03 0.05,0.05 0.02,0.02 0.03,0.04 0.05,0.05 0.02,0.02 0.03,0.03 0.05,0.05 0.02,0.02 0.04,0.03 0.05,0.05 0.02,0.02 0.03,0.03 0.05,0.05 0.02,0.02 0.03,0.03 0.05,0.05 0.02,0.02 0.03,0.03 0.05,0.05 0.02,0.02 0.03,0.03 0.05,0.05 0.02,0.02 0.04,0.03 0.05,0.05 0.02,0.02 0.04,0.03 0.05,0.05 0.02,0.02 0.03,0.03 0.05,0.05 0.02,0.02 0.03,0.03 0.05,0.05 0.02,0.02 0.03,0.04 0.05,0.05 0.02,0.02 0.03,0.03 0.05,0.05l0.05 0.05c0.02,0.02 0.03,0.03 0.05,0.05 0.02,0.02 0.04,0.03 0.05,0.05 0.02,0.02 0.03,0.03 0.05,0.05 0.02,0.02 0.03,0.04 0.05,0.05 0.02,0.02 0.03,0.04 0.05,0.05 0.01,0.02 0.03,0.03 0.05,0.05 0.02,0.02 0.03,0.03 0.05,0.05 0.02,0.02 0.03,0.03 0.05,0.05 0.02,0.02 0.03,0.03 0.05,0.05 0.02,0.02 0.03,0.03 0.05,0.05 0.02,0.02 0.03,0.04 0.05,0.05 0.01,0.02 0.03,0.03 0.05,0.05 0.02,0.02 0.04,0.03 0.05,0.05 0.02,0.02 0.04,0.03 0.05,0.05 0.02,0.02 0.03,0.03 0.05,0.05 0.02,0.02 0.03,0.03 0.05,0.05 0.02,0.02 0.03,0.04 0.05,0.05 0.02,0.02 0.03,0.03 0.05,0.05 0.02,0.02 0.04,0.03 0.05,0.05 0.02,0.02 0.03,0.03 0.05,0.05 0.02,0.01 0.03,0.03 0.05,0.05 0.02,0.01 0.03,0.03 0.05,0.05 0.02,0.02 0.03,0.04 0.05,0.05 0.02,0.02 0.03,0.03 0.05,0.05 0.02,0.02 0.03,0.03 0.05,0.05 0.02,0.02 0.04,0.03 0.05,0.05 0.02,0.02 0.03,0.03 0.05,0.05 0.02,0.02 0.03,0.03 0.05,0.05 0.01,0.02 0.03,0.03 0.05,0.05 0.01,0.02 0.03,0.03 0.05,0.05 0.02,0.02 0.04,0.03 0.05,0.05 0.02,0.02 0.04,0.03 0.05,0.05 0.02,0.02 0.03,0.03 0.05,0.05 0.02,0.02 0.03,0.04 0.05,0.05 0.02,0.02 0.03,0.04 0.05,0.05 0.01,0.02 0.03,0.04 0.05,0.05 0.02,0.02 0.04,0.03 0.05,0.05 0.02,0.02 0.04,0.03 0.05,0.05 0.02,0.02 0.03,0.03 0.05,0.05 0.02,0.02 0.03,0.03 0.05,0.05 0.02,0.02 0.03,0.04 0.05,0.05 0.02,0.02 0.03,0.03 0.05,0.05l0.05 0.05c0.02,0.02 0.03,0.03 0.05,0.05 0.02,0.02 0.03,0.03 0.05,0.05 0.02,0.02 0.03,0.03 0.05,0.05 0.02,0.01 0.03,0.03 0.05,0.05 0.02,0.02 0.03,0.03 0.05,0.05 0.02,0.02 0.04,0.03 0.05,0.05 0.02,0.02 0.04,0.03 0.05,0.05 0.02,0.02 0.03,0.03 0.05,0.05 0.02,0.02 0.03,0.03 0.05,0.05 0.02,0.02 0.03,0.04 0.05,0.05 0.02,0.02 0.03,0.04 0.05,0.05 0.02,0.02 0.03,0.03 0.05,0.05 0.02,0.02 0.04,0.03 0.05,0.05 0.02,0.01 0.03,0.03 0.05,0.05 0.02,0.02 0.03,0.03 0.05,0.05 0.02,0.02 0.03,0.03 0.05,0.05 0.02,0.02 0.03,0.04 0.05,0.05 0.02,0.02 0.03,0.03 0.05,0.05 0.02,0.02 0.04,0.03 0.05,0.05 0.02,0.02 0.03,0.03 0.05,0.05 0.02,0.01 0.03,0.03 0.05,0.05 0.02,0.02 0.03,0.03 0.05,0.05 0.01,0.02 0.03,0.03 0.05,0.05 0.02,0.02 0.04,0.03 0.05,0.05 0.02,0.02 0.04,0.03 0.05,0.05 0.02,0.02 0.03,0.03 0.05,0.05 0.02,0.02 0.03,0.03 0.05,0.05 0.02,0.02 0.03,0.04 0.05,0.05 0.02,0.02 0.03,0.04 0.05,0.05 0.02,0.02 0.03,0.03 0.05,0.05 0.02,0.02 0.03,0.03 0.05,0.05 0.02,0.02 0.04,0.03 0.05,0.05 0.02,0.02 0.03,0.03 0.05,0.05 0.02,0.02 0.03,0.04 0.05,0.05 0.02,0.02 0.03,0.04 0.05,0.05 0.01,0.02 0.03,0.03 0.05,0.05 0.02,0.02 0.03,0.03 0.05,0.05 0.02,0.02 0.03,0.03 0.05,0.05 0.02,0.02 0.03,0.03 0.05,0.05 0.02,0.02 0.03,0.03 0.05,0.05 0.02,0.02 0.03,0.03 0.05,0.05 0.02,0.02 0.03,0.03 0.05,0.05 3.7,3.71 8.81,6.02 14.46,6.02 11.26,0 20.43,-9.16 20.43,-20.43l0 -0.08c0,-4.73 -1.65,-9.34 -4.66,-12.99l-21.02 -25.52zm-130.89 -26.09l0 -0.05 -0.05 0 0 -0.05 -0.05 0 0 -0.05 -0.05 0 0 -0.05 -0.05 0 0 -0.05 -0.05 0 0 -0.05 -0.05 0 0 -0.05 -0.05 0 0 -0.05 -0.05 0 0 -0.05 -0.05 0 0 -0.05 -0.05 0 0 -0.05 -0.05 0 0 -0.05 -0.05 0 0 -0.05 -0.05 0 0 -0.05 -0.05 0 0 -0.05 -0.05 0 0 -0.05 -0.05 0 0 -0.05 -0.05 0 0 -0.05 -0.05 0 0 -0.05 -0.05 0 0 -0.05 -0.05 0 0 -0.05 -0.05 0 0 -0.05 -0.05 0 0 -0.05 -0.05 0 0 -0.05 -0.05 0 0 -0.05 -0.05 0 0 -0.05 -0.05 0 0 -0.05 -0.05 0 0 -0.05 -0.05 0 0 -0.05 -0.05 0 0 -0.05 -0.05 0 0 -0.05 -0.05 0 0 -0.05 -0.05 0 0 -0.05 -0.05 0 0 -0.05 -0.05 0 0 -0.05 -0.05 0 0 -0.05 -0.05 0 0 -0.05 -0.05 0 0 -0.05 -0.05 0 0 -0.05 -0.05 0 0 -0.05 -0.05 0 0 -0.05 -0.05 0 0 -0.05 -0.05 0 0 -0.05 -0.05 0 0 -0.05 -0.05 0 0 -0.05 -0.05 0 0 -0.05 -0.05 0 0 -0.05 -0.05 0 0 -0.05 -0.05 0 0 -0.05 -0.05 0 0 -0.05 -0.05 0 0 -0.05 -0.05 0 0 -0.05 -0.05 0 0 -0.05 -0.05 0 0 -0.05 -0.05 0 0 -0.05 -0.05 0 0 -0.05 -0.05 0 0 -0.05 -0.05 0 0 -0.05 -0.05 0 0 -0.05 -0.05 0 0 -0.05 -0.05 0 0 -0.05 -0.05 0 0 -0.05 -0.05 0 0 -0.05 -0.05 0 0 -0.05 -0.05 0 0 -0.05 -0.05 0 0 -0.05 -0.05 0 0 -0.05 -0.05 0 0 -0.05 -0.05 0 0 -0.05 -0.05 0 0 -0.05 -0.05 0 0 -0.05 -0.05 0 0 -0.05 -0.05 0 0 -0.05 -0.05 0 0 -0.05 -0.05 0 0 -0.05 -0.05 0 0 -0.05 -0.05 0 0 -0.05 -0.05 0 0 -0.05 -0.05 0 0 -0.05 -0.05 0 0 -0.05 -0.05 0 0 -0.05 -0.05 0 0 -0.05 -0.05 0 0 -0.05 -0.05 0 0 -0.05 -0.05 0 0 -0.05 -0.05 0 0 -0.05 -0.05 0 0 -0.05 -0.05 0 0 -0.05 -0.05 0 0 -0.05 -0.05 0 0 -0.05 -0.05 0 0 -0.05 -0.05 0 0 -0.05 -0.05 0 0 -0.05 -0.05 0 0 -0.05 -0.05 0 0 -0.05 -0.05 0 0 -0.05 -0.05 0 0 -0.05 -0.05 0 0 -0.05 -0.05 0 0 -0.05 -0.05 0 0 -0.05 -0.05 0 0 -0.05 -0 0 0 13.62 -22.13 0 0 22.13 5.11 0 0 -17.02 22.13 0 0 -13.62 -0.05 0zm0 71.44l-0.05 0 0 -0.05 -0.05 0 0 -0.05 -0.05 0 0 -0.05 -0.05 0 0 -0.05 -0.05 0 0 -0.05 -0.05 0 0 -0.05 -0.05 0 0 -0.05 -0.05 0 0 -0.05 -0.05 0 0 -0.05 -0.05 0 0 -0.05 -0.05 0 0 -0.05 -0.05 0 0 -0.05 -0.05 0 0 -0.05 -0.05 0 0 -0.05 -0.05 0 0 -0.05 -0.05 0 0 -0.05 -0.05 0 0 -0.05 -0.05 0 0 -0.05 -0.05 0 0 -0.05 -0.05 0 0 -0.05 -0.05 0 0 -0.05 -0.05 0 0 -0.05 -0.05 0 0 -0.05 -0.05 0 0 -0.05 -0.05 0 0 -0.05 -0.05 0 0 -0.05 -0.05 0 0 -0.05 -0.05 0 0 -0.05 -0.05 0 0 -0.05 -0.05 0 0 -0.05 -0.05 0 0 -0.05 -0.05 0 0 -0.05 -0.05 0 0 -0.05 -0.05 0 0 -0.05 -0.05 0 0 -0.05 -0.05 0 0 -0.05 -0.05 0 0 -0.05 -0.05 0 0 -0.05 -0.05 0 0 -0.05 -0.05 0 0 -0.05 -0.05 0 0 -0.05 -0.05 0 0 -0.05 -0.05 0 0 -0.05 -0.05 0 0 -0.05 -0.05 0 0 -0.05 -0.05 0 0 -0.05 -0.05 0 0 -0.05 -0.05 0 0 -0.05 -0.05 0 0 -0.05 -0.05 0 0 -0.05 -0.05 0 0 -0.05 -0.05 0 0 -0.05 -0.05 0 0 -0.05 -0.05 0 0 -0.05 -0.05 0 0 -0.05 -0.05 0 0 -0.05 -0.05 0 0 -0.05 -0.05 0 0 -0.05 -0.05 0 0 -0.05 -0.05 0 0 -0.05 -0.05 0 0 -0.05 -0.05 0 0 -0.05 -0.05 0 0 -0.05 -0.05 0 0 -0.05 -0.05 0 0 -0.05 -0.05 0 0 -0.05 -0.05 0 0 -0.05 -0.05 0 0 -0.05 -0.05 0 0 -0.05 -0.05 0 0 -0.05 -0.05 0 0 -0.05 -0.05 0 0 -0.05 -0.05 0 0 -0.05 -0.05 0 0 -0.05 -0.05 0 0 -0.05 -0.05 0 0 -0.05 -0.05 0 0 -0.05 -0.05 0 0 -0.05 -0.05 0 0 -0.05 -0.05 0 0 -0.05 -0.05 0 0 -0.05 -0.05 0 0 -0.05 -0.05 0 0 -0.05 -0.05 0 0 -0.05 -0.05 0 0 -0.05 -0.05 0 0 -0.05 -0.05 0 0 -0.05 -0.05 0 0 -0.05 -0.05 0 0 -0.05 -0.05 0 0 -0.05 -0.05 0 0 -0.05 -0.05 0 0 -0.05 -0.05 0 0 -0.05 -0.05 0 0 -0.05 -0.05 0 0 -0.05 -0.05 0 0 -0.05 -0.05 0 0 -0.05 -0.05 0 0 -0.05 -0.05 0 0 -0.05 -0.05 0 0 -0.05 -0 0 0 1.7 0 10.21 0 1.7 -1.7 0 -32.34 0 -1.65 0 0 0.05 0.05 0 0 0.05 0.05 0 0 0.05 0.05 0 0 0.05 0.05 0 0 0.05 0.05 0 0 0.05 0.05 0 0 0.05 0.05 0 0 0.05 0.05 0 0 0.05 0.05 0 0 0.05 0.05 0 0 0.05 0.05 0 0 0.05 0.05 0 0 0.05 0.05 0 0 0.05 0.05 0 0 0.05 0.05 0 0 0.05 0.05 0 0 0.05 0.05 0 0 0.05 0.05 0 0 0.05 0.05 0 0 0.05 0.05 0 0 0.05 0.05 0 0 0.05 0.05 0 0 0.05 0.05 0 0 0.05 0.05 0 0 0.05 0.05 0 0 0.05 0.05 0 0 0.05 0.05 0 0 0.05 0.05 0 0 0.05 0.05 0 0 0.05 0.05 0 0 0.05 0.05 0 0 0.05 0.05 0 0 0.05 0.05 0 0 0.05 0.05 0 0 0.05 0.05 0 0 0.05 0.05 0 0 0.05 0.05 0 0 0.05 0.05 0 0 0.05 0.05 0 0 0.05 0.05 0 0 0.05 0.05 0 0 0.05 0.05 0 0 0.05 0.05 0 0 0.05 0.05 0 0 0.05 0.05 0 0 0.05 0.05 0 0 0.05 0.05 0 0 0.05 0.05 0 0 0.05 0.05 0 0 0.05 0.05 0 0 0.05 0.05 0 0 0.05 0.05 0 0 0.05 0.05 0 0 0.05 0.05 0 0 0.05 0.05 0 0 0.05 0.05 0 0 0.05 0.05 0 0 0.05 0.05 0 0 0.05 0.05 0 0 0.05 0.05 0 0 0.05 0.05 0 0 0.05 0.05 0 0 0.05 0.05 0 0 0.05 0.05 0 0 0.05 0.05 0 0 0.05 0.05 0 0 0.05 0.05 0 0 0.05 0.05 0 0 0.05 0.05 0 0 0.05 0.05 0 0 0.05 0.05 0 0 0.05 0.05 0 0 0.05 0.05 0 0 0.05 0.05 0 0 0.05 0.05 0 0 0.05 0.05 0 0 0.05 0.05 0 0 0.05 0.05 0 0 0.05 0.05 0 0 0.05 0.05 0 0 0.05 0.05 0 0 0.05 0.05 0 0 0.05 0.05 0 0 0.05 0.05 0 0 0.05 0.05 0 0 0.05 0.05 0 0 0.05 0.05 0 0 0.05 0.05 0 0 0.05 0.05 0 0 0.05 0.05 0 0 0.05 0.05 0 0 0.05 0.05 0 0 0.05 0.05 0 0 0.05 0.05 0 0 0.05 0.05 0 0 0.05 0.05 0 0 0.05 0.05 0 0 0.05 0.05 0 0 0.05 0.05 0 0 0.05 0.05 0 0 0.05 1.7 0 32.34 0 1.7 0 0 -1.7 0 -10.21 0 -1.7 -0.05 0 0 -0.05zm-22.08 -22.08l14.98 0 0 -13.62 -0.05 0 0 -0.05 -0.05 0 0 -0.05 -0.05 0 0 -0.05 -0.05 0 0 -0.05 -0.05 0 0 -0.05 -0.05 0 0 -0.05 -0.05 0 0 -0.05 -0.05 0 0 -0.05 -0.05 0 0 -0.05 -0.05 0 0 -0.05 -0.05 0 0 -0.05 -0.05 0 0 -0.05 -0.05 0 0 -0.05 -0.05 0 0 -0.05 -0.05 0 0 -0.05 -0.05 0 0 -0.05 -0.05 0 0 -0.05 -0.05 0 0 -0.05 -0.05 0 0 -0.05 -0.05 0 0 -0.05 -0.05 0 0 -0.05 -0.05 0 0 -0.05 -0.05 0 0 -0.05 -0.05 0 0 -0.05 -0.05 0 0 -0.05 -0.05 0 0 -0.05 -0.05 0 0 -0.05 -0.05 0 0 -0.05 -0.05 0 0 -0.05 -0.05 0 0 -0.05 -0.05 0 0 -0.05 -0.05 0 0 -0.05 -0.05 0 0 -0.05 -0.05 0 0 -0.05 -0.05 0 0 -0.05 -0.05 0 0 -0.05 -0.05 0 0 -0.05 -0.05 0 0 -0.05 -0.05 0 0 -0.05 -0.05 0 0 -0.05 -0.05 0 0 -0.05 -0.05 0 0 -0.05 -0.05 0 0 -0.05 -0.05 0 0 -0.05 -0.05 0 0 -0.05 -0.05 0 0 -0.05 -0.05 0 0 -0.05 -0.05 0 0 -0.05 -0.05 0 0 -0.05 -0.05 0 0 -0.05 -0.05 0 0 -0.05 -0.05 0 0 -0.05 -0.05 0 0 -0.05 -0.05 0 0 -0.05 -0.05 0 0 -0.05 -0.05 0 0 -0.05 -0.05 0 0 -0.05 -0.05 0 0 -0.05 -0.05 0 0 -0.05 -0.05 0 0 -0.05 -0.05 0 0 -0.05 -0.05 0 0 -0.05 -0.05 0 0 -0.05 -0.05 0 0 -0.05 -0.05 0 0 -0.05 -0.05 0 0 -0.05 -0.05 0 0 -0.05 -0.05 0 0 -0.05 -0.05 0 0 -0.05 -0.05 0 0 -0.05 -0.05 0 0 -0.05 -0.05 0 0 -0.05 -0.05 0 0 -0.05 -0.05 0 0 -0.05 -0.05 0 0 -0.05 -0.05 0 0 -0.05 -0.05 0 0 -0.05 -0.05 0 0 -0.05 -0.05 0 0 -0.05 -0.05 0 0 -0.05 -0.05 0 0 -0.05 -0.05 0 0 -0.05 -0.05 0 0 -0.05 -0.05 0 0 -0.05 -0.05 0 0 -0.05 -0.05 0 0 -0.05 -0.05 0 0 -0.05 -0.05 0 0 -0.05 -0.05 0 0 -0.05 -0.05 0 0 -0.05 -0.05 0 0 -0.05 -0.05 0 0 -0.05 -0.05 0 0 -0.05 -0.05 0 0 -0.05 -0.05 0 0 -0.05 -0.05 0 0 -0.05 -0.05 0 0 -0.05 -0.05 0 0 -0.05 -0.05 0 0 -0.05 -0.05 0 0 -0.05 -0.05 0 0 -0.05 0 0 0 13.62 -14.98 0 0 22.13 5.11 0 0 -17.02zm-55.02 16.9c-0.11,-0.02 -0.21,-0.04 -0.32,-0.06 -0.11,-0.49 -0.18,-1 -0.18,-1.52l0 -9.23 0 -1.7 -0.05 0 0 -0.05 -0.05 0 0 -0.05 -0.05 0 0 -0.05 -0.05 0 0 -0.05 -0.05 0 0 -0.05 -0.05 0 0 -0.05 -0.05 0 0 -0.05 -0.05 0 0 -0.05 -0.05 0 0 -0.05 -0.05 0 0 -0.05 -0.05 0 0 -0.05 -0.05 0 0 -0.05 -0.05 0 0 -0.05 -0.05 0 0 -0.05 -0.05 0 0 -0.05 -0.05 0 0 -0.05 -0.05 0 0 -0.05 -0.05 0 0 -0.05 -0.05 0 0 -0.05 -0.05 0 0 -0.05 -0.05 0 0 -0.05 -0.05 0 0 -0.05 -0.05 0 0 -0.05 -0.05 0 0 -0.05 -0.05 0 0 -0.05 -0.05 0 0 -0.05 -0.05 0 0 -0.05 -0.05 0 0 -0.05 -0.05 0 0 -0.05 -0.05 0 0 -0.05 -0.05 0 0 -0.05 -0.05 0 0 -0.05 -0.05 0 0 -0.05 -0.05 0 0 -0.05 -0.05 0 0 -0.05 -0.05 0 0 -0.05 -0.05 0 0 -0.05 -0.05 0 0 -0.05 -0.05 0 0 -0.05 -0.05 0 0 -0.05 -0.05 0 0 -0.05 -0.05 0 0 -0.05 -0.05 0 0 -0.05 -0.05 0 0 -0.05 -0.05 0 0 -0.05 -0.05 0 0 -0.05 -0.05 0 0 -0.05 -0.05 0 0 -0.05 -0.05 0 0 -0.05 -0.05 0 0 -0.05 -0.05 0 0 -0.05 -0.05 0 0 -0.05 -0.05 0 0 -0.05 -0.05 0 0 -0.05 -0.05 0 0 -0.05 -0.05 0 0 -0.05 -0.05 0 0 -0.05 -0.05 0 0 -0.05 -0.05 0 0 -0.05 -0.05 0 0 -0.05 -0.05 0 0 -0.05 -0.05 0 0 -0.05 -0.05 0 0 -0.05 -0.05 0 0 -0.05 -0.05 0 0 -0.05 -0.05 0 0 -0.05 -0.05 0 0 -0.05 -0.05 0 0 -0.05 -0.05 0 0 -0.05 -0.05 0 0 -0.05 -0.05 0 0 -0.05 -0.05 0 0 -0.05 -0.05 0 0 -0.05 -0.05 0 0 -0.05 -0.05 0 0 -0.05 -0.05 0 0 -0.05 -0.05 0 0 -0.05 -0.05 0 0 -0.05 -0.05 0 0 -0.05 -0.05 0 0 -0.05 -0.05 0 0 -0.05 -0.05 0 0 -0.05 -0.05 0 0 -0.05 -0.05 0 0 -0.05 -0.05 0 0 -0.05 -0.05 0 0 -0.05 -0.05 0 0 -0.05 -0.05 0 0 -0.05 -0.05 0 0 -0.05 -0.05 0 0 -0.05 -0.05 0 0 -0.05 -0.05 0 0 -0.05 -0.05 0 0 -0.05 -0.05 0 0 -0.05 -0.05 0 0 -0.05 -0.05 0 0 -0.05 -0.05 0 0 -0.05 -0.05 0 0 -0.05 -0.05 0 0 -0.05 -0.05 0 0 -0.05 -0.05 0 0 -0.05 0 1.7 0 9.24c0,3.34 2.43,6.12 5.61,6.69zm20.72 -60.3c-0.02,-0.02 -0.03,-0.03 -0.05,-0.05 -0.02,-0.02 -0.03,-0.03 -0.05,-0.05 -0.02,-0.01 -0.03,-0.03 -0.05,-0.05 -0.02,-0.01 -0.03,-0.03 -0.05,-0.05 -0.02,-0.02 -0.04,-0.04 -0.05,-0.05 -0.02,-0.02 -0.03,-0.04 -0.05,-0.05 -0.02,-0.02 -0.03,-0.03 -0.05,-0.05 -0.02,-0.02 -0.03,-0.03 -0.05,-0.05 -0.02,-0.02 -0.03,-0.03 -0.05,-0.05 -0.01,-0.02 -0.03,-0.03 -0.05,-0.05 -0.02,-0.01 -0.04,-0.03 -0.05,-0.05 -0.02,-0.02 -0.03,-0.03 -0.05,-0.05 -0.02,-0.02 -0.03,-0.03 -0.05,-0.05 -0.02,-0.02 -0.03,-0.03 -0.05,-0.05 -0.02,-0.01 -0.03,-0.03 -0.05,-0.05 -0.02,-0.02 -0.04,-0.03 -0.05,-0.05 -0.02,-0.02 -0.03,-0.04 -0.05,-0.05 -0.02,-0.02 -0.04,-0.04 -0.05,-0.05 -0.02,-0.02 -0.03,-0.03 -0.05,-0.05 -0.02,-0.02 -0.03,-0.03 -0.05,-0.05 -0.02,-0.02 -0.03,-0.03 -0.05,-0.05 -0.01,-0.02 -0.03,-0.03 -0.05,-0.05 -0.02,-0.02 -0.04,-0.04 -0.05,-0.05 -0.02,-0.02 -0.03,-0.03 -0.05,-0.05 -0.02,-0.02 -0.03,-0.03 -0.05,-0.05 -0.02,-0.02 -0.03,-0.03 -0.05,-0.05 -0.01,-0.02 -0.03,-0.03 -0.05,-0.05 -0.02,-0.01 -0.03,-0.03 -0.05,-0.05 -0.02,-0.02 -0.04,-0.04 -0.05,-0.05 -0.02,-0.02 -0.03,-0.04 -0.05,-0.05 -0.02,-0.02 -0.03,-0.03 -0.05,-0.05 -0.02,-0.02 -0.03,-0.03 -0.05,-0.05 -0.02,-0.02 -0.03,-0.03 -0.05,-0.05 -0.02,-0.02 -0.03,-0.03 -0.05,-0.05 -0.02,-0.02 -0.04,-0.04 -0.05,-0.05 -0.02,-0.02 -0.03,-0.04 -0.05,-0.05 -0.02,-0.02 -0.03,-0.03 -0.05,-0.05 -0.02,-0.02 -0.03,-0.03 -0.05,-0.05 -0.01,-0.02 -0.03,-0.03 -0.05,-0.05 -0.02,-0.02 -0.03,-0.03 -0.05,-0.05 -0.02,-0.01 -0.04,-0.03 -0.05,-0.05 -0.02,-0.02 -0.03,-0.04 -0.05,-0.05 -0.02,-0.02 -0.03,-0.03 -0.05,-0.05 -0.02,-0.02 -0.03,-0.03 -0.05,-0.05 -0.02,-0.01 -0.03,-0.03 -0.05,-0.05 -0.02,-0.02 -0.03,-0.03 -0.05,-0.05 -0.02,-0.02 -0.04,-0.03 -0.05,-0.05 -0.02,-0.02 -0.03,-0.03 -0.05,-0.05 -0.02,-0.02 -0.03,-0.03 -0.05,-0.05 -0.02,-0.02 -0.03,-0.03 -0.05,-0.05 -0.02,-0.02 -0.03,-0.03 -0.05,-0.05 -0.01,-0.01 -0.03,-0.03 -0.05,-0.05 -0.02,-0.02 -0.03,-0.04 -0.05,-0.05 -0.02,-0.02 -0.04,-0.04 -0.05,-0.05 -0.02,-0.02 -0.03,-0.03 -0.05,-0.05 -0.02,-0.02 -0.03,-0.03 -0.05,-0.05 -0.02,-0.02 -0.03,-0.03 -0.05,-0.05 -0.02,-0.01 -0.03,-0.03 -0.05,-0.05 -0.01,-0.02 -0.03,-0.03 -0.05,-0.05 -0.02,-0.02 -0.04,-0.04 -0.05,-0.05 -0.02,-0.02 -0.03,-0.03 -0.05,-0.05 -0.02,-0.02 -0.03,-0.03 -0.05,-0.05 -0.02,-0.02 -0.03,-0.03 -0.05,-0.05 -0.02,-0.02 -0.03,-0.03 -0.05,-0.05 -0.01,-0.02 -0.03,-0.03 -0.05,-0.05 -0.02,-0.02 -0.04,-0.04 -0.05,-0.05 -0.02,-0.02 -0.03,-0.03 -0.05,-0.05 -0.02,-0.02 -0.03,-0.03 -0.05,-0.05 -0.02,-0.02 -0.03,-0.03 -0.05,-0.05 -0.02,-0.02 -0.03,-0.03 -0.05,-0.05 -0.02,-0.02 -0.04,-0.04 -0.05,-0.05 -0.02,-0.02 -0.04,-0.04 -0.05,-0.05 -0.02,-0.02 -0.03,-0.03 -0.05,-0.05 -0.02,-0.02 -0.03,-0.03 -0.05,-0.05 -0.01,-0.02 -0.03,-0.03 -0.05,-0.05 -0.01,-0.02 -0.03,-0.03 -0.05,-0.05 -0.02,-0.02 -0.03,-0.03 -0.05,-0.05 -0.02,-0.02 -0.04,-0.04 -0.05,-0.05 -0.02,-0.02 -0.03,-0.03 -0.05,-0.05 -0.02,-0.02 -0.03,-0.03 -0.05,-0.05 -0.02,-0.02 -0.03,-0.03 -0.05,-0.05 -0.01,-0.02 -0.03,-0.03 -0.05,-0.05 -0.02,-0.02 -0.03,-0.03 -0.05,-0.05 -0.02,-0.02 -0.03,-0.04 -0.05,-0.05 -0.02,-0.02 -0.03,-0.03 -0.05,-0.05 -0.02,-0.02 -0.03,-0.03 -0.05,-0.05 -0.02,-0.02 -0.03,-0.03 -0.05,-0.05 -0.02,-0.01 -0.03,-0.03 -0.05,-0.05 -0.02,-0.02 -0.03,-0.03 -0.05,-0.05 -0.02,-0.02 -0.04,-0.04 -0.05,-0.05 -0.02,-0.02 -0.04,-0.04 -0.05,-0.05 -0.02,-0.02 -0.03,-0.03 -0.05,-0.05 -0.02,-0.02 -0.03,-0.03 -0.05,-0.05 -0.02,-0.02 -0.03,-0.03 -0.05,-0.05 -0.02,-0.02 -0.03,-0.03 -0.05,-0.05 -0.02,-0.02 -0.04,-0.04 -0.05,-0.05 -0.02,-0.02 -0.03,-0.03 -0.05,-0.05 -0.02,-0.02 -0.03,-0.03 -0.05,-0.05 -0.02,-0.02 -0.03,-0.03 -0.05,-0.05 -0.02,-0.02 -0.03,-0.03 -0.05,-0.05 3.69,3.7 5.97,8.79 5.97,14.41l0 9.23 0 1.7 -1.7 0 -10.21 0 -1.65 0 0 0.05 0.05 0 0 0.05 0.05 0 0 0.05 0.05 0 0 0.05 0.05 0 0 0.05 0.05 0 0 0.05 0.05 0 0 0.05 0.05 0 0 0.05 0.05 0 0 0.05 0.05 0 0 0.05 0.05 0 0 0.05 0.05 0 0 0.05 0.05 0 0 0.05 0.05 0 0 0.05 0.05 0 0 0.05 0.05 0 0 0.05 0.05 0 0 0.05 0.05 0 0 0.05 0.05 0 0 0.05 0.05 0 0 0.05 0.05 0 0 0.05 0.05 0 0 0.05 0.05 0 0 0.05 0.05 0 0 0.05 0.05 0 0 0.05 0.05 0 0 0.05 0.05 0 0 0.05 0.05 0 0 0.05 0.05 0 0 0.05 0.05 0 0 0.05 0.05 0 0 0.05 0.05 0 0 0.05 0.05 0 0 0.05 0.05 0 0 0.05 0.05 0 0 0.05 0.05 0 0 0.05 0.05 0 0 0.05 0.05 0 0 0.05 0.05 0 0 0.05 0.05 0 0 0.05 0.05 0 0 0.05 0.05 0 0 0.05 0.05 0 0 0.05 0.05 0 0 0.05 0.05 0 0 0.05 0.05 0 0 0.05 0.05 0 0 0.05 0.05 0 0 0.05 0.05 0 0 0.05 0.05 0 0 0.05 0.05 0 0 0.05 0.05 0 0 0.05 0.05 0 0 0.05 0.05 0 0 0.05 0.05 0 0 0.05 0.05 0 0 0.05 0.05 0 0 0.05 0.05 0 0 0.05 0.05 0 0 0.05 0.05 0 0 0.05 0.05 0 0 0.05 0.05 0 0 0.05 0.05 0 0 0.05 0.05 0 0 0.05 0.05 0 0 0.05 0.05 0 0 0.05 0.05 0 0 0.05 0.05 0 0 0.05 0.05 0 0 0.05 0.05 0 0 0.05 0.05 0 0 0.05 0.05 0 0 0.05 0.05 0 0 0.05 0.05 0 0 0.05 0.05 0 0 0.05 0.05 0 0 0.05 0.05 0 0 0.05 0.05 0 0 0.05 0.05 0 0 0.05 0.05 0 0 0.05 0.05 0 0 0.05 0.05 0 0 0.05 0.05 0 0 0.05 0.05 0 0 0.05 0.05 0 0 0.05 0.05 0 0 0.05 0.05 0 0 0.05 0.05 0 0 0.05 0.05 0 0 0.05 0.05 0 0 0.05 0.05 0 0 0.05 0.05 0 0 0.05 0.05 0 0 0.05 0.05 0 0 0.05 0.05 0 0 0.05 0.05 0 0 0.05 0.05 0 0 0.05 0.05 0 0 0.05 0.05 0 0 0.05 0.05 0 0 0.05 0.05 0 0 0.05 1.7 0 10.21 0 1.7 0 0 -1.7 0 -9.24c0,-5.64 -2.3,-10.76 -6.02,-14.46zm-19.66 20.13c-1,-1.22 -1.55,-2.76 -1.55,-4.33l0 -1.34c0,-3.75 3.06,-6.81 6.81,-6.81 0.53,0 1.03,0.06 1.52,0.18 -0.69,-3.02 -3.4,-5.29 -6.63,-5.29 -3.75,0 -6.81,3.05 -6.81,6.81l0 1.34c0,1.58 0.55,3.11 1.55,4.33l21.02 25.52c3,3.65 4.66,8.26 4.66,12.98l0 0.08c0,11.26 -9.16,20.43 -20.43,20.43 -5.62,0 -10.71,-2.28 -14.41,-5.96 0.02,0.02 0.03,0.03 0.05,0.05 0.01,0.02 0.03,0.04 0.05,0.05 0.02,0.02 0.03,0.03 0.05,0.05 0.02,0.02 0.04,0.03 0.05,0.05 0.02,0.02 0.03,0.03 0.05,0.05 0.02,0.02 0.03,0.03 0.05,0.05 0.02,0.02 0.03,0.03 0.05,0.05 0.02,0.02 0.03,0.03 0.05,0.05 0.02,0.02 0.04,0.03 0.05,0.05 0.02,0.02 0.04,0.03 0.05,0.05 0.02,0.02 0.03,0.03 0.05,0.05 0.02,0.02 0.03,0.03 0.05,0.05 0.02,0.02 0.03,0.04 0.05,0.05 0.01,0.02 0.03,0.03 0.05,0.05l0.05 0.05c0.02,0.02 0.03,0.03 0.05,0.05 0.02,0.02 0.04,0.03 0.05,0.05 0.02,0.02 0.03,0.03 0.05,0.05 0.02,0.02 0.03,0.04 0.05,0.05 0.02,0.02 0.03,0.04 0.05,0.05 0.02,0.02 0.03,0.03 0.05,0.05 0.02,0.02 0.04,0.03 0.05,0.05 0.02,0.02 0.03,0.03 0.05,0.05 0.02,0.02 0.03,0.03 0.05,0.05 0.02,0.02 0.03,0.03 0.05,0.05 0.02,0.02 0.03,0.04 0.05,0.05 0.01,0.02 0.03,0.03 0.05,0.05 0.02,0.02 0.04,0.03 0.05,0.05 0.02,0.02 0.03,0.03 0.05,0.05 0.02,0.02 0.03,0.03 0.05,0.05 0.02,0.02 0.03,0.03 0.05,0.05 0.02,0.02 0.03,0.04 0.05,0.05 0.02,0.02 0.03,0.03 0.05,0.05 0.02,0.02 0.04,0.03 0.05,0.05 0.02,0.02 0.04,0.03 0.05,0.05 0.02,0.01 0.03,0.03 0.05,0.05 0.02,0.01 0.03,0.03 0.05,0.05 0.01,0.02 0.03,0.04 0.05,0.05 0.01,0.02 0.03,0.03 0.05,0.05 0.02,0.02 0.03,0.03 0.05,0.05 0.02,0.02 0.04,0.03 0.05,0.05 0.02,0.02 0.03,0.03 0.05,0.05 0.02,0.02 0.03,0.03 0.05,0.05 0.01,0.02 0.03,0.03 0.05,0.05 0.02,0.02 0.03,0.03 0.05,0.05 0.02,0.02 0.03,0.03 0.05,0.05 0.02,0.02 0.04,0.03 0.05,0.05 0.02,0.02 0.03,0.03 0.05,0.05 0.02,0.02 0.03,0.04 0.05,0.05 0.02,0.02 0.03,0.04 0.05,0.05 0.01,0.02 0.03,0.04 0.05,0.05 0.02,0.02 0.04,0.03 0.05,0.05 0.02,0.02 0.04,0.03 0.05,0.05 0.02,0.02 0.03,0.03 0.05,0.05 0.02,0.02 0.03,0.03 0.05,0.05 0.02,0.02 0.03,0.04 0.05,0.05 0.02,0.02 0.03,0.03 0.05,0.05l0.05 0.05c0.02,0.02 0.03,0.03 0.05,0.05 0.02,0.02 0.03,0.03 0.05,0.05 0.02,0.02 0.03,0.03 0.05,0.05 0.02,0.01 0.03,0.03 0.05,0.05 0.02,0.02 0.03,0.03 0.05,0.05 0.02,0.02 0.04,0.03 0.05,0.05 0.02,0.02 0.04,0.03 0.05,0.05 0.02,0.02 0.03,0.03 0.05,0.05 0.02,0.02 0.03,0.03 0.05,0.05 0.02,0.02 0.03,0.04 0.05,0.05 0.02,0.02 0.03,0.04 0.05,0.05 0.02,0.02 0.03,0.03 0.05,0.05 0.02,0.02 0.04,0.03 0.05,0.05 0.02,0.01 0.03,0.03 0.05,0.05 0.02,0.02 0.03,0.03 0.05,0.05 0.01,0.02 0.03,0.03 0.05,0.05 0.02,0.02 0.03,0.04 0.05,0.05 0.02,0.02 0.03,0.03 0.05,0.05 0.02,0.02 0.04,0.03 0.05,0.05 0.02,0.02 0.03,0.03 0.05,0.05 0.02,0.01 0.03,0.03 0.05,0.05 0.02,0.02 0.03,0.03 0.05,0.05 0.01,0.02 0.03,0.03 0.05,0.05 0.02,0.02 0.04,0.03 0.05,0.05 0.02,0.02 0.04,0.03 0.05,0.05 0.02,0.02 0.03,0.03 0.05,0.05 0.02,0.02 0.03,0.03 0.05,0.05 0.02,0.02 0.03,0.04 0.05,0.05 0.02,0.02 0.03,0.04 0.05,0.05 0.01,0.02 0.03,0.03 0.05,0.05 0.02,0.02 0.04,0.03 0.05,0.05 0.02,0.02 0.04,0.03 0.05,0.05 0.02,0.02 0.03,0.03 0.05,0.05 0.02,0.02 0.03,0.04 0.05,0.05 0.02,0.02 0.03,0.04 0.05,0.05 0.01,0.02 0.03,0.03 0.05,0.05 0.02,0.02 0.03,0.03 0.05,0.05 0.02,0.02 0.03,0.03 0.05,0.05 0.02,0.02 0.03,0.03 0.05,0.05 0.02,0.02 0.03,0.03 0.05,0.05 0.02,0.02 0.03,0.03 0.05,0.05 0.02,0.02 0.03,0.03 0.05,0.05 3.7,3.71 8.81,6.02 14.46,6.02 11.27,0 20.43,-9.16 20.43,-20.43l0 -0.08c0,-4.73 -1.65,-9.34 -4.66,-12.99l-21.02 -25.52zm148.63 -17.58l-11.92 0 -1.65 0 0 0.05 0.05 0 0 0.05 0.05 0 0 0.05 0.05 0 0 0.05 0.05 0 0 0.05 0.05 0 0 0.05 0.05 0 0 0.05 0.05 0 0 0.05 0.05 0 0 0.05 0.05 0 0 0.05 0.05 0 0 0.05 0.05 0 0 0.05 0.05 0 0 0.05 0.05 0 0 0.05 0.05 0 0 0.05 0.05 0 0 0.05 0.05 0 0 0.05 0.05 0 0 0.05 0.05 0 0 0.05 0.05 0 0 0.05 0.05 0 0 0.05 0.05 0 0 0.05 0.05 0 0 0.05 0.05 0 0 0.05 0.05 0 0 0.05 0.05 0 0 0.05 0.05 0 0 0.05 0.05 0 0 0.05 0.05 0 0 0.05 0.05 0 0 0.05 0.05 0 0 0.05 0.05 0 0 0.05 0.05 0 0 0.05 0.05 0 0 0.05 0.05 0 0 0.05 0.05 0 0 0.05 0.05 0 0 0.05 0.05 0 0 0.05 0.05 0 0 0.05 0.05 0 0 0.05 0.05 0 0 0.05 0.05 0 0 0.05 0.05 0 0 0.05 0.05 0 0 0.05 0.05 0 0 0.05 0.05 0 0 0.05 0.05 0 0 0.05 0.05 0 0 0.05 0.05 0 0 0.05 0.05 0 0 0.05 0.05 0 0 0.05 0.05 0 0 0.05 0.05 0 0 0.05 0.05 0 0 0.05 0.05 0 0 0.05 0.05 0 0 0.05 0.05 0 0 0.05 0.05 0 0 0.05 0.05 0 0 0.05 0.05 0 0 0.05 0.05 0 0 0.05 0.05 0 0 0.05 0.05 0 0 0.05 0.05 0 0 0.05 0.05 0 0 0.05 0.05 0 0 0.05 0.05 0 0 0.05 0.05 0 0 0.05 0.05 0 0 0.05 0.05 0 0 0.05 0.05 0 0 0.05 0.05 0 0 0.05 0.05 0 0 0.05 0.05 0 0 0.05 0.05 0 0 0.05 0.05 0 0 0.05 0.05 0 0 0.05 0.05 0 0 0.05 0.05 0 0 0.05 0.05 0 0 0.05 0.05 0 0 0.05 0.05 0 0 0.05 0.05 0 0 0.05 0.05 0 0 0.05 0.05 0 0 0.05 0.05 0 0 0.05 0.05 0 0 0.05 0.05 0 0 0.05 0.05 0 0 0.05 0.05 0 0 0.05 0.05 0 0 0.05 0.05 0 0 0.05 0.05 0 0 0.05 0.05 0 0 0.05 0.05 0 0 0.05 0.05 0 0 0.05 0.05 0 0 0.05 0.05 0 0 0.05 0.05 0 0 0.05 0.05 0 0 0.05 0.05 0 0 0.05 1.71 0 6.8 0 0 -5.11zm32.29 -8.51l0 -0.05 -0.05 0 0 -0.05 -0.05 0 0 -0.05 -0.05 0 0 -0.05 -0.05 0 0 -0.05 -0.05 0 0 -0.05 -0.05 0 0 -0.05 -0.05 0 0 -0.05 -0.05 0 0 -0.05 -0.05 0 0 -0.05 -0.05 0 0 -0.05 -0.05 0 0 -0.05 -0.05 0 0 -0.05 -0.05 0 0 -0.05 -0.05 0 0 -0.05 -0.05 0 0 -0.05 -0.05 0 0 -0.05 -0.05 0 0 -0.05 -0.05 0 0 -0.05 -0.05 0 0 -0.05 -0.05 0 0 -0.05 -0.05 0 0 -0.05 -0.05 0 0 -0.05 -0.05 0 0 -0.05 -0.05 0 0 -0.05 -0.05 0 0 -0.05 -0.05 0 0 -0.05 -0.05 0 0 -0.05 -0.05 0 0 -0.05 -0.05 0 0 -0.05 -0.05 0 0 -0.05 -0.05 0 0 -0.05 -0.05 0 0 -0.05 -0.05 0 0 -0.05 -0.05 0 0 -0.05 -0.05 0 0 -0.05 -0.05 0 0 -0.05 -0.05 0 0 -0.05 -0.05 0 0 -0.05 -0.05 0 0 -0.05 -0.05 0 0 -0.05 -0.05 0 0 -0.05 -0.05 0 0 -0.05 -0.05 0 0 -0.05 -0.05 0 0 -0.05 -0.05 0 0 -0.05 -0.05 0 0 -0.05 -0.05 0 0 -0.05 -0.05 0 0 -0.05 -0.05 0 0 -0.05 -0.05 0 0 -0.05 -0.05 0 0 -0.05 -0.05 0 0 -0.05 -0.05 0 0 -0.05 -0.05 0 0 -0.05 -0.05 0 0 -0.05 -0.05 0 0 -0.05 -0.05 0 0 -0.05 -0.05 0 0 -0.05 -0.05 0 0 -0.05 -0.05 0 0 -0.05 -0.05 0 0 -0.05 -0.05 0 0 -0.05 -0.05 0 0 -0.05 -0.05 0 0 -0.05 -0.05 0 0 -0.05 -0.05 0 0 -0.05 -0.05 0 0 -0.05 -0.05 0 0 -0.05 -0.05 0 0 -0.05 -0.05 0 0 -0.05 -0.05 0 0 -0.05 -0.05 0 0 -0.05 -0.05 0 0 -0.05 -0.05 0 0 -0.05 -0.05 0 0 -0.05 -0.05 0 0 -0.05 -0.05 0 0 -0.05 -0.05 0 0 -0.05 -0.05 0 0 -0.05 -0.05 0 0 -0.05 -0.05 0 0 -0.05 -0.05 0 0 -0.05 -0.05 0 0 -0.05 -0.05 0 0 -0.05 -0.05 0 0 -0.05 -0.05 0 0 -0.05 -0.05 0 0 -0.05 -0.05 0 0 -0.05 -0.05 0 0 -0.05 -0.05 0 0 -0.05 -0.05 0 0 -0.05 -0.05 0 0 -0.05 -0.05 0 0 -0.05 -0.05 0 0 -0.05 -0.05 0 0 -0.05 -0.05 0 0 -0.05 -0.05 0 0 -0.05 -0.05 0 0 -0.05 -0.05 0 0 -0.05 -0.05 0 0 -0.05 0 1.7 0 10.21 0 1.7 -1.7 0 -2.55 0 -9.36 0 0 69.79 0 1.7 -1.7 0 -10.21 0 -1.65 0 0 0.05 0.05 0 0 0.05 0.05 0 0 0.05 0.05 0 0 0.05 0.05 0 0 0.05 0.05 0 0 0.05 0.05 0 0 0.05 0.05 0 0 0.05 0.05 0 0 0.05 0.05 0 0 0.05 0.05 0 0 0.05 0.05 0 0 0.05 0.05 0 0 0.05 0.05 0 0 0.05 0.05 0 0 0.05 0.05 0 0 0.05 0.05 0 0 0.05 0.05 0 0 0.05 0.05 0 0 0.05 0.05 0 0 0.05 0.05 0 0 0.05 0.05 0 0 0.05 0.05 0 0 0.05 0.05 0 0 0.05 0.05 0 0 0.05 0.05 0 0 0.05 0.05 0 0 0.05 0.05 0 0 0.05 0.05 0 0 0.05 0.05 0 0 0.05 0.05 0 0 0.05 0.05 0 0 0.05 0.05 0 0 0.05 0.05 0 0 0.05 0.05 0 0 0.05 0.05 0 0 0.05 0.05 0 0 0.05 0.05 0 0 0.05 0.05 0 0 0.05 0.05 0 0 0.05 0.05 0 0 0.05 0.05 0 0 0.05 0.05 0 0 0.05 0.05 0 0 0.05 0.05 0 0 0.05 0.05 0 0 0.05 0.05 0 0 0.05 0.05 0 0 0.05 0.05 0 0 0.05 0.05 0 0 0.05 0.05 0 0 0.05 0.05 0 0 0.05 0.05 0 0 0.05 0.05 0 0 0.05 0.05 0 0 0.05 0.05 0 0 0.05 0.05 0 0 0.05 0.05 0 0 0.05 0.05 0 0 0.05 0.05 0 0 0.05 0.05 0 0 0.05 0.05 0 0 0.05 0.05 0 0 0.05 0.05 0 0 0.05 0.05 0 0 0.05 0.05 0 0 0.05 0.05 0 0 0.05 0.05 0 0 0.05 0.05 0 0 0.05 0.05 0 0 0.05 0.05 0 0 0.05 0.05 0 0 0.05 0.05 0 0 0.05 0.05 0 0 0.05 0.05 0 0 0.05 0.05 0 0 0.05 0.05 0 0 0.05 0.05 0 0 0.05 0.05 0 0 0.05 0.05 0 0 0.05 0.05 0 0 0.05 0.05 0 0 0.05 0.05 0 0 0.05 0.05 0 0 0.05 0.05 0 0 0.05 0.05 0 0 0.05 0.05 0 0 0.05 0.05 0 0 0.05 0.05 0 0 0.05 0.05 0 0 0.05 0.05 0 0 0.05 0.05 0 0 0.05 0.05 0 0 0.05 0.05 0 0 0.05 0.05 0 0 0.05 0.05 0 0 0.05 0.05 0 0 0.05 0.05 0 0 0.05 0.05 0 0 0.05 0.05 0 0 0.05 0.05 0 0 0.05 1.7 0 10.21 0 1.7 0 0 -1.7 0 -69.79 9.36 0 2.55 0 1.7 0 0 -1.7 0 -10.22 0 -1.7 -0.05 0zm-74.85 8.51l-6.81 0 0 18.73 0 8.51 5.11 0 0 -3.4 0 -18.72 6.81 0c0.53,0 1.03,0.06 1.52,0.18 -0.69,-3.02 -3.4,-5.29 -6.63,-5.29zm25.53 11.92c0,-5.64 -2.3,-10.76 -6.02,-14.46 -0.02,-0.02 -0.03,-0.03 -0.05,-0.05 -0.02,-0.02 -0.04,-0.03 -0.05,-0.05 -0.02,-0.01 -0.03,-0.03 -0.05,-0.05 -0.02,-0.01 -0.03,-0.03 -0.05,-0.05 -0.01,-0.02 -0.03,-0.04 -0.05,-0.05 -0.01,-0.02 -0.03,-0.04 -0.05,-0.05 -0.02,-0.02 -0.03,-0.03 -0.05,-0.05 -0.02,-0.02 -0.03,-0.03 -0.05,-0.05 -0.02,-0.02 -0.03,-0.03 -0.05,-0.05 -0.02,-0.02 -0.03,-0.03 -0.05,-0.05 -0.02,-0.02 -0.03,-0.04 -0.05,-0.05 -0.01,-0.02 -0.03,-0.03 -0.05,-0.05 -0.02,-0.02 -0.04,-0.03 -0.05,-0.05 -0.02,-0.02 -0.04,-0.03 -0.05,-0.05 -0.02,-0.01 -0.03,-0.03 -0.05,-0.05 -0.02,-0.02 -0.03,-0.04 -0.05,-0.05 -0.02,-0.02 -0.03,-0.04 -0.05,-0.05 -0.02,-0.02 -0.03,-0.04 -0.05,-0.05 -0.02,-0.02 -0.03,-0.03 -0.05,-0.05 -0.02,-0.02 -0.03,-0.03 -0.05,-0.05 -0.02,-0.02 -0.04,-0.03 -0.05,-0.05 -0.02,-0.02 -0.03,-0.03 -0.05,-0.05 -0.02,-0.02 -0.03,-0.04 -0.05,-0.05 -0.02,-0.02 -0.03,-0.03 -0.05,-0.05 -0.02,-0.02 -0.03,-0.03 -0.05,-0.05 -0.02,-0.02 -0.03,-0.03 -0.05,-0.05 -0.02,-0.02 -0.03,-0.03 -0.05,-0.05 -0.02,-0.01 -0.03,-0.03 -0.05,-0.05 -0.02,-0.02 -0.03,-0.04 -0.05,-0.05 -0.02,-0.02 -0.03,-0.03 -0.05,-0.05 -0.02,-0.02 -0.03,-0.03 -0.05,-0.05 -0.02,-0.02 -0.04,-0.03 -0.05,-0.05 -0.02,-0.02 -0.03,-0.03 -0.05,-0.05 -0.02,-0.02 -0.03,-0.03 -0.05,-0.05 -0.02,-0.02 -0.03,-0.04 -0.05,-0.05 -0.02,-0.02 -0.03,-0.04 -0.05,-0.05 -0.02,-0.02 -0.03,-0.03 -0.05,-0.05 -0.02,-0.02 -0.04,-0.03 -0.05,-0.05 -0.02,-0.02 -0.04,-0.03 -0.05,-0.05 -0.02,-0.02 -0.03,-0.03 -0.05,-0.05 -0.02,-0.01 -0.03,-0.03 -0.05,-0.05 -0.01,-0.02 -0.03,-0.04 -0.05,-0.05 -0.01,-0.02 -0.03,-0.03 -0.05,-0.05 -0.02,-0.02 -0.03,-0.03 -0.05,-0.05 -0.02,-0.01 -0.03,-0.03 -0.05,-0.05 -0.02,-0.02 -0.03,-0.04 -0.05,-0.05 -0.02,-0.02 -0.03,-0.03 -0.05,-0.05 -0.02,-0.02 -0.03,-0.03 -0.05,-0.05 -0.02,-0.02 -0.03,-0.03 -0.05,-0.05 -0.02,-0.02 -0.03,-0.03 -0.05,-0.05 -0.02,-0.02 -0.04,-0.03 -0.05,-0.05 -0.02,-0.01 -0.03,-0.03 -0.05,-0.05 -0.02,-0.02 -0.03,-0.04 -0.05,-0.05 -0.02,-0.02 -0.03,-0.04 -0.05,-0.05 -0.01,-0.02 -0.03,-0.03 -0.05,-0.05 -0.02,-0.02 -0.04,-0.03 -0.05,-0.05 -0.02,-0.02 -0.04,-0.03 -0.05,-0.05 -0.02,-0.01 -0.03,-0.03 -0.05,-0.05 -0.02,-0.02 -0.03,-0.03 -0.05,-0.05 -0.02,-0.02 -0.03,-0.04 -0.05,-0.05 -0.02,-0.02 -0.03,-0.04 -0.05,-0.05 -0.02,-0.02 -0.03,-0.03 -0.05,-0.05 -0.02,-0.02 -0.03,-0.03 -0.05,-0.05 -0.02,-0.02 -0.03,-0.03 -0.05,-0.05 -0.02,-0.02 -0.03,-0.04 -0.05,-0.05 -0.02,-0.02 -0.03,-0.04 -0.05,-0.05 -0.02,-0.02 -0.03,-0.03 -0.05,-0.05 -0.02,-0.02 -0.04,-0.03 -0.05,-0.05 -0.02,-0.02 -0.04,-0.03 -0.05,-0.05 -0.02,-0.02 -0.03,-0.03 -0.05,-0.05 -0.02,-0.02 -0.03,-0.04 -0.05,-0.05 -0.02,-0.02 -0.03,-0.04 -0.05,-0.05 -0.02,-0.02 -0.03,-0.03 -0.05,-0.05 -0.02,-0.02 -0.03,-0.03 -0.05,-0.05 -0.02,-0.02 -0.04,-0.03 -0.05,-0.05 -0.02,-0.02 -0.03,-0.03 -0.05,-0.05 -0.02,-0.02 -0.03,-0.03 -0.05,-0.05 -0.02,-0.02 -0.03,-0.04 -0.05,-0.05 -0.02,-0.02 -0.03,-0.03 -0.05,-0.05 -0.02,-0.02 -0.03,-0.03 -0.05,-0.05 -0.02,-0.02 -0.04,-0.03 -0.05,-0.05 -0.02,-0.02 -0.03,-0.03 -0.05,-0.05 -0.02,-0.02 -0.03,-0.03 -0.05,-0.05 -0.02,-0.02 -0.03,-0.04 -0.05,-0.05 -0.02,-0.02 -0.03,-0.03 -0.05,-0.05 -0.02,-0.02 -0.04,-0.03 -0.05,-0.05 -0.02,-0.02 -0.04,-0.03 -0.05,-0.05 -0.02,-0.01 -0.03,-0.03 -0.05,-0.05 -0.02,-0.02 -0.03,-0.03 -0.05,-0.05 -0.02,-0.02 -0.03,-0.04 -0.05,-0.05 -0.01,-0.02 -0.03,-0.04 -0.05,-0.05 -0.01,-0.02 -0.03,-0.03 -0.05,-0.05 -0.02,-0.02 -0.04,-0.03 -0.05,-0.05 -0.02,-0.02 -0.04,-0.03 -0.05,-0.05 -0.02,-0.02 -0.03,-0.03 -0.05,-0.05 -0.02,-0.02 -0.03,-0.04 -0.05,-0.05 -0.02,-0.02 -0.03,-0.03 -0.05,-0.05 -0.02,-0.02 -0.03,-0.03 -0.05,-0.05 -0.02,-0.02 -0.03,-0.03 -0.05,-0.05 -0.02,-0.02 -0.03,-0.03 -0.05,-0.05 3.68,3.7 5.97,8.79 5.97,14.41l0 13.62c0,5.1 -1.84,9.87 -5.21,13.62 3.37,3.75 5.21,8.52 5.21,13.62l0 21.95 0 1.7 -1.7 0 -10.21 0 -1.65 0 0 0.05 0.05 0 0 0.05 0.05 0 0 0.05 0.05 0 0 0.05 0.05 0 0 0.05 0.05 0 0 0.05 0.05 0 0 0.05 0.05 0 0 0.05 0.05 0 0 0.05 0.05 0 0 0.05 0.05 0 0 0.05 0.05 0 0 0.05 0.05 0 0 0.05 0.05 0 0 0.05 0.05 0 0 0.05 0.05 0 0 0.05 0.05 0 0 0.05 0.05 0 0 0.05 0.05 0 0 0.05 0.05 0 0 0.05 0.05 0 0 0.05 0.05 0 0 0.05 0.05 0 0 0.05 0.05 0 0 0.05 0.05 0 0 0.05 0.05 0 0 0.05 0.05 0 0 0.05 0.05 0 0 0.05 0.05 0 0 0.05 0.05 0 0 0.05 0.05 0 0 0.05 0.05 0 0 0.05 0.05 0 0 0.05 0.05 0 0 0.05 0.05 0 0 0.05 0.05 0 0 0.05 0.05 0 0 0.05 0.05 0 0 0.05 0.05 0 0 0.05 0.05 0 0 0.05 0.05 0 0 0.05 0.05 0 0 0.05 0.05 0 0 0.05 0.05 0 0 0.05 0.05 0 0 0.05 0.05 0 0 0.05 0.05 0 0 0.05 0.05 0 0 0.05 0.05 0 0 0.05 0.05 0 0 0.05 0.05 0 0 0.05 0.05 0 0 0.05 0.05 0 0 0.05 0.05 0 0 0.05 0.05 0 0 0.05 0.05 0 0 0.05 0.05 0 0 0.05 0.05 0 0 0.05 0.05 0 0 0.05 0.05 0 0 0.05 0.05 0 0 0.05 0.05 0 0 0.05 0.05 0 0 0.05 0.05 0 0 0.05 0.05 0 0 0.05 0.05 0 0 0.05 0.05 0 0 0.05 0.05 0 0 0.05 0.05 0 0 0.05 0.05 0 0 0.05 0.05 0 0 0.05 0.05 0 0 0.05 0.05 0 0 0.05 0.05 0 0 0.05 0.05 0 0 0.05 0.05 0 0 0.05 0.05 0 0 0.05 0.05 0 0 0.05 0.05 0 0 0.05 0.05 0 0 0.05 0.05 0 0 0.05 0.05 0 0 0.05 0.05 0 0 0.05 0.05 0 0 0.05 0.05 0 0 0.05 0.05 0 0 0.05 0.05 0 0 0.05 0.05 0 0 0.05 0.05 0 0 0.05 0.05 0 0 0.05 0.05 0 0 0.05 0.05 0 0 0.05 0.05 0 0 0.05 0.05 0 0 0.05 0.05 0 0 0.05 0.05 0 0 0.05 0.05 0 0 0.05 0.05 0 0 0.05 0.05 0 0 0.05 0.05 0 0 0.05 0.05 0 0 0.05 1.7 0 10.22 0 1.7 0 0 -1.71 0 -21.95c0,-5.1 -1.84,-9.87 -5.21,-13.62 3.37,-3.75 5.21,-8.52 5.21,-13.62l0 -13.62zm-25.53 28.93l-6.81 0 0 28.94 0 1.7 -1.7 0 -10.21 0 -1.65 0 0 0.05 0.05 0 0 0.05 0.05 0 0 0.05 0.05 0 0 0.05 0.05 0 0 0.05 0.05 0 0 0.05 0.05 0 0 0.05 0.05 0 0 0.05 0.05 0 0 0.05 0.05 0 0 0.05 0.05 0 0 0.05 0.05 0 0 0.05 0.05 0 0 0.05 0.05 0 0 0.05 0.05 0 0 0.05 0.05 0 0 0.05 0.05 0 0 0.05 0.05 0 0 0.05 0.05 0 0 0.05 0.05 0 0 0.05 0.05 0 0 0.05 0.05 0 0 0.05 0.05 0 0 0.05 0.05 0 0 0.05 0.05 0 0 0.05 0.05 0 0 0.05 0.05 0 0 0.05 0.05 0 0 0.05 0.05 0 0 0.05 0.05 0 0 0.05 0.05 0 0 0.05 0.05 0 0 0.05 0.05 0 0 0.05 0.05 0 0 0.05 0.05 0 0 0.05 0.05 0 0 0.05 0.05 0 0 0.05 0.05 0 0 0.05 0.05 0 0 0.05 0.05 0 0 0.05 0.05 0 0 0.05 0.05 0 0 0.05 0.05 0 0 0.05 0.05 0 0 0.05 0.05 0 0 0.05 0.05 0 0 0.05 0.05 0 0 0.05 0.05 0 0 0.05 0.05 0 0 0.05 0.05 0 0 0.05 0.05 0 0 0.05 0.05 0 0 0.05 0.05 0 0 0.05 0.05 0 0 0.05 0.05 0 0 0.05 0.05 0 0 0.05 0.05 0 0 0.05 0.05 0 0 0.05 0.05 0 0 0.05 0.05 0 0 0.05 0.05 0 0 0.05 0.05 0 0 0.05 0.05 0 0 0.05 0.05 0 0 0.05 0.05 0 0 0.05 0.05 0 0 0.05 0.05 0 0 0.05 0.05 0 0 0.05 0.05 0 0 0.05 0.05 0 0 0.05 0.05 0 0 0.05 0.05 0 0 0.05 0.05 0 0 0.05 0.05 0 0 0.05 0.05 0 0 0.05 0.05 0 0 0.05 0.05 0 0 0.05 0.05 0 0 0.05 0.05 0 0 0.05 0.05 0 0 0.05 0.05 0 0 0.05 0.05 0 0 0.05 0.05 0 0 0.05 0.05 0 0 0.05 0.05 0 0 0.05 0.05 0 0 0.05 0.05 0 0 0.05 0.05 0 0 0.05 0.05 0 0 0.05 0.05 0 0 0.05 0.05 0 0 0.05 0.05 0 0 0.05 0.05 0 0 0.05 0.05 0 0 0.05 0.05 0 0 0.05 0.05 0 0 0.05 0.05 0 0 0.05 0.05 0 0 0.05 0.05 0 0 0.05 0.05 0 0 0.05 0.05 0 0 0.05 1.7 0 10.21 0 1.7 0 0 -1.7 0 -28.94 6.81 0c0.53,0 1.03,0.07 1.52,0.18 -0.69,-3.02 -3.4,-5.29 -6.63,-5.29zm-158.72 16.91c-0.11,-0.02 -0.21,-0.04 -0.32,-0.06 -0.11,-0.49 -0.18,-1 -0.18,-1.52l0 -9.23 0 -1.7 -0.05 0 0 -0.05 -0.05 0 0 -0.05 -0.05 0 0 -0.05 -0.05 0 0 -0.05 -0.05 0 0 -0.05 -0.05 0 0 -0.05 -0.05 0 0 -0.05 -0.05 0 0 -0.05 -0.05 0 0 -0.05 -0.05 0 0 -0.05 -0.05 0 0 -0.05 -0.05 0 0 -0.05 -0.05 0 0 -0.05 -0.05 0 0 -0.05 -0.05 0 0 -0.05 -0.05 0 0 -0.05 -0.05 0 0 -0.05 -0.05 0 0 -0.05 -0.05 0 0 -0.05 -0.05 0 0 -0.05 -0.05 0 0 -0.05 -0.05 0 0 -0.05 -0.05 0 0 -0.05 -0.05 0 0 -0.05 -0.05 0 0 -0.05 -0.05 0 0 -0.05 -0.05 0 0 -0.05 -0.05 0 0 -0.05 -0.05 0 0 -0.05 -0.05 0 0 -0.05 -0.05 0 0 -0.05 -0.05 0 0 -0.05 -0.05 0 0 -0.05 -0.05 0 0 -0.05 -0.05 0 0 -0.05 -0.05 0 0 -0.05 -0.05 0 0 -0.05 -0.05 0 0 -0.05 -0.05 0 0 -0.05 -0.05 0 0 -0.05 -0.05 0 0 -0.05 -0.05 0 0 -0.05 -0.05 0 0 -0.05 -0.05 0 0 -0.05 -0.05 0 0 -0.05 -0.05 0 0 -0.05 -0.05 0 0 -0.05 -0.05 0 0 -0.05 -0.05 0 0 -0.05 -0.05 0 0 -0.05 -0.05 0 0 -0.05 -0.05 0 0 -0.05 -0.05 0 0 -0.05 -0.05 0 0 -0.05 -0.05 0 0 -0.05 -0.05 0 0 -0.05 -0.05 0 0 -0.05 -0.05 0 0 -0.05 -0.05 0 0 -0.05 -0.05 0 0 -0.05 -0.05 0 0 -0.05 -0.05 0 0 -0.05 -0.05 0 0 -0.05 -0.05 0 0 -0.05 -0.05 0 0 -0.05 -0.05 0 0 -0.05 -0.05 0 0 -0.05 -0.05 0 0 -0.05 -0.05 0 0 -0.05 -0.05 0 0 -0.05 -0.05 0 0 -0.05 -0.05 0 0 -0.05 -0.05 0 0 -0.05 -0.05 0 0 -0.05 -0.05 0 0 -0.05 -0.05 0 0 -0.05 -0.05 0 0 -0.05 -0.05 0 0 -0.05 -0.05 0 0 -0.05 -0.05 0 0 -0.05 -0.05 0 0 -0.05 -0.05 0 0 -0.05 -0.05 0 0 -0.05 -0.05 0 0 -0.05 -0.05 0 0 -0.05 -0.05 0 0 -0.05 -0.05 0 0 -0.05 -0.05 0 0 -0.05 -0.05 0 0 -0.05 -0.05 0 0 -0.05 -0.05 0 0 -0.05 -0.05 0 0 -0.05 -0.05 0 0 -0.05 -0.05 0 0 -0.05 -0.05 0 0 -0.05 -0.05 0 0 -0.05 -0.05 0 0 -0.05 -0.05 0 0 -0.05 -0.05 0 0 -0.05 -0.05 0 0 -0.05 -0.05 0 0 -0.05 0 1.7 0 9.24c0,3.34 2.43,6.12 5.6,6.69zm20.72 -60.3c-0.02,-0.02 -0.03,-0.03 -0.05,-0.05 -0.02,-0.02 -0.03,-0.03 -0.05,-0.05 -0.01,-0.01 -0.03,-0.03 -0.05,-0.05 -0.02,-0.01 -0.03,-0.03 -0.05,-0.05 -0.02,-0.02 -0.04,-0.04 -0.05,-0.05 -0.02,-0.02 -0.03,-0.04 -0.05,-0.05 -0.02,-0.02 -0.03,-0.03 -0.05,-0.05 -0.02,-0.02 -0.03,-0.03 -0.05,-0.05 -0.02,-0.02 -0.03,-0.03 -0.05,-0.05 -0.02,-0.02 -0.03,-0.03 -0.05,-0.05 -0.02,-0.01 -0.04,-0.03 -0.05,-0.05 -0.02,-0.02 -0.03,-0.03 -0.05,-0.05 -0.02,-0.02 -0.03,-0.03 -0.05,-0.05 -0.02,-0.02 -0.03,-0.03 -0.05,-0.05 -0.02,-0.01 -0.03,-0.03 -0.05,-0.05 -0.02,-0.02 -0.04,-0.03 -0.05,-0.05 -0.02,-0.02 -0.03,-0.04 -0.05,-0.05 -0.02,-0.02 -0.04,-0.04 -0.05,-0.05 -0.02,-0.02 -0.03,-0.03 -0.05,-0.05 -0.01,-0.02 -0.03,-0.03 -0.05,-0.05 -0.02,-0.02 -0.03,-0.03 -0.05,-0.05 -0.02,-0.02 -0.03,-0.03 -0.05,-0.05 -0.02,-0.02 -0.04,-0.04 -0.05,-0.05 -0.02,-0.02 -0.03,-0.03 -0.05,-0.05 -0.02,-0.02 -0.03,-0.03 -0.05,-0.05 -0.02,-0.02 -0.03,-0.03 -0.05,-0.05 -0.02,-0.02 -0.03,-0.03 -0.05,-0.05 -0.02,-0.01 -0.03,-0.03 -0.05,-0.05 -0.02,-0.02 -0.04,-0.04 -0.05,-0.05 -0.02,-0.02 -0.03,-0.04 -0.05,-0.05 -0.02,-0.02 -0.03,-0.03 -0.05,-0.05 -0.02,-0.02 -0.03,-0.03 -0.05,-0.05 -0.02,-0.02 -0.03,-0.03 -0.05,-0.05 -0.02,-0.02 -0.03,-0.03 -0.05,-0.05 -0.02,-0.02 -0.04,-0.04 -0.05,-0.05 -0.02,-0.02 -0.04,-0.04 -0.05,-0.05 -0.02,-0.02 -0.03,-0.03 -0.05,-0.05 -0.02,-0.02 -0.03,-0.03 -0.05,-0.05 -0.01,-0.02 -0.03,-0.03 -0.05,-0.05 -0.01,-0.02 -0.03,-0.03 -0.05,-0.05 -0.02,-0.01 -0.04,-0.03 -0.05,-0.05 -0.02,-0.02 -0.03,-0.04 -0.05,-0.05 -0.02,-0.02 -0.03,-0.03 -0.05,-0.05 -0.02,-0.02 -0.03,-0.03 -0.05,-0.05 -0.02,-0.01 -0.03,-0.03 -0.05,-0.05 -0.02,-0.02 -0.03,-0.03 -0.05,-0.05 -0.02,-0.02 -0.04,-0.03 -0.05,-0.05 -0.02,-0.02 -0.03,-0.03 -0.05,-0.05 -0.02,-0.02 -0.03,-0.03 -0.05,-0.05 -0.02,-0.02 -0.03,-0.03 -0.05,-0.05 -0.02,-0.02 -0.03,-0.03 -0.05,-0.05 -0.01,-0.01 -0.03,-0.03 -0.05,-0.05 -0.02,-0.02 -0.04,-0.04 -0.05,-0.05 -0.02,-0.02 -0.04,-0.04 -0.05,-0.05 -0.02,-0.02 -0.03,-0.03 -0.05,-0.05 -0.02,-0.02 -0.03,-0.03 -0.05,-0.05 -0.02,-0.02 -0.03,-0.03 -0.05,-0.05 -0.02,-0.01 -0.03,-0.03 -0.05,-0.05 -0.02,-0.02 -0.03,-0.03 -0.05,-0.05 -0.02,-0.02 -0.04,-0.04 -0.05,-0.05 -0.02,-0.02 -0.03,-0.03 -0.05,-0.05 -0.02,-0.02 -0.03,-0.03 -0.05,-0.05 -0.02,-0.02 -0.03,-0.03 -0.05,-0.05 -0.02,-0.02 -0.03,-0.03 -0.05,-0.05 -0.01,-0.02 -0.03,-0.03 -0.05,-0.05 -0.02,-0.02 -0.04,-0.04 -0.05,-0.05 -0.02,-0.02 -0.03,-0.03 -0.05,-0.05 -0.02,-0.02 -0.03,-0.03 -0.05,-0.05 -0.02,-0.02 -0.03,-0.03 -0.05,-0.05 -0.02,-0.02 -0.03,-0.03 -0.05,-0.05 -0.02,-0.02 -0.04,-0.04 -0.05,-0.05 -0.02,-0.02 -0.04,-0.04 -0.05,-0.05 -0.02,-0.02 -0.03,-0.03 -0.05,-0.05 -0.02,-0.02 -0.03,-0.03 -0.05,-0.05 -0.02,-0.02 -0.03,-0.03 -0.05,-0.05 -0.02,-0.02 -0.03,-0.03 -0.05,-0.05 -0.02,-0.02 -0.03,-0.03 -0.05,-0.05 -0.02,-0.02 -0.04,-0.04 -0.05,-0.05 -0.02,-0.02 -0.03,-0.03 -0.05,-0.05 -0.02,-0.02 -0.03,-0.03 -0.05,-0.05 -0.02,-0.02 -0.03,-0.03 -0.05,-0.05 -0.01,-0.02 -0.03,-0.03 -0.05,-0.05 -0.02,-0.02 -0.03,-0.03 -0.05,-0.05 -0.02,-0.02 -0.03,-0.04 -0.05,-0.05 -0.02,-0.02 -0.03,-0.03 -0.05,-0.05 -0.02,-0.02 -0.03,-0.03 -0.05,-0.05 -0.02,-0.02 -0.03,-0.03 -0.05,-0.05 -0.01,-0.01 -0.03,-0.03 -0.05,-0.05 -0.01,-0.02 -0.03,-0.03 -0.05,-0.05 -0.02,-0.02 -0.04,-0.04 -0.05,-0.05 -0.02,-0.02 -0.04,-0.04 -0.05,-0.05 -0.02,-0.02 -0.03,-0.03 -0.05,-0.05 -0.02,-0.02 -0.03,-0.03 -0.05,-0.05 -0.02,-0.02 -0.03,-0.03 -0.05,-0.05 -0.01,-0.02 -0.03,-0.03 -0.05,-0.05 -0.02,-0.02 -0.04,-0.04 -0.05,-0.05 -0.02,-0.02 -0.03,-0.03 -0.05,-0.05 -0.02,-0.02 -0.03,-0.03 -0.05,-0.05 -0.02,-0.02 -0.03,-0.03 -0.05,-0.05 -0.02,-0.02 -0.03,-0.03 -0.05,-0.05 3.68,3.7 5.97,8.79 5.97,14.41l0 9.23 0 1.7 -1.7 0 -10.21 0 -1.65 0 0 0.05 0.05 0 0 0.05 0.05 0 0 0.05 0.05 0 0 0.05 0.05 0 0 0.05 0.05 0 0 0.05 0.05 0 0 0.05 0.05 0 0 0.05 0.05 0 0 0.05 0.05 0 0 0.05 0.05 0 0 0.05 0.05 0 0 0.05 0.05 0 0 0.05 0.05 0 0 0.05 0.05 0 0 0.05 0.05 0 0 0.05 0.05 0 0 0.05 0.05 0 0 0.05 0.05 0 0 0.05 0.05 0 0 0.05 0.05 0 0 0.05 0.05 0 0 0.05 0.05 0 0 0.05 0.05 0 0 0.05 0.05 0 0 0.05 0.05 0 0 0.05 0.05 0 0 0.05 0.05 0 0 0.05 0.05 0 0 0.05 0.05 0 0 0.05 0.05 0 0 0.05 0.05 0 0 0.05 0.05 0 0 0.05 0.05 0 0 0.05 0.05 0 0 0.05 0.05 0 0 0.05 0.05 0 0 0.05 0.05 0 0 0.05 0.05 0 0 0.05 0.05 0 0 0.05 0.05 0 0 0.05 0.05 0 0 0.05 0.05 0 0 0.05 0.05 0 0 0.05 0.05 0 0 0.05 0.05 0 0 0.05 0.05 0 0 0.05 0.05 0 0 0.05 0.05 0 0 0.05 0.05 0 0 0.05 0.05 0 0 0.05 0.05 0 0 0.05 0.05 0 0 0.05 0.05 0 0 0.05 0.05 0 0 0.05 0.05 0 0 0.05 0.05 0 0 0.05 0.05 0 0 0.05 0.05 0 0 0.05 0.05 0 0 0.05 0.05 0 0 0.05 0.05 0 0 0.05 0.05 0 0 0.05 0.05 0 0 0.05 0.05 0 0 0.05 0.05 0 0 0.05 0.05 0 0 0.05 0.05 0 0 0.05 0.05 0 0 0.05 0.05 0 0 0.05 0.05 0 0 0.05 0.05 0 0 0.05 0.05 0 0 0.05 0.05 0 0 0.05 0.05 0 0 0.05 0.05 0 0 0.05 0.05 0 0 0.05 0.05 0 0 0.05 0.05 0 0 0.05 0.05 0 0 0.05 0.05 0 0 0.05 0.05 0 0 0.05 0.05 0 0 0.05 0.05 0 0 0.05 0.05 0 0 0.05 0.05 0 0 0.05 0.05 0 0 0.05 0.05 0 0 0.05 0.05 0 0 0.05 0.05 0 0 0.05 0.05 0 0 0.05 0.05 0 0 0.05 0.05 0 0 0.05 0.05 0 0 0.05 0.05 0 0 0.05 0.05 0 0 0.05 0.05 0 0 0.05 0.05 0 0 0.05 0.05 0 0 0.05 0.05 0 0 0.05 0.05 0 0 0.05 1.7 0 10.21 0 1.7 0 0 -1.7 0 -9.24c0,-5.64 -2.3,-10.76 -6.02,-14.46zm-19.66 20.13c-1,-1.22 -1.55,-2.76 -1.55,-4.33l0 -1.34c0,-3.75 3.06,-6.81 6.81,-6.81 0.53,0 1.03,0.06 1.52,0.18 -0.69,-3.02 -3.4,-5.29 -6.63,-5.29 -3.76,0 -6.81,3.05 -6.81,6.81l0 1.34c0,1.58 0.55,3.11 1.55,4.33l21.02 25.52c3,3.65 4.66,8.26 4.66,12.98l0 0.08c0,11.26 -9.16,20.43 -20.43,20.43 -5.62,0 -10.71,-2.28 -14.41,-5.96 0.02,0.02 0.03,0.03 0.05,0.05 0.02,0.02 0.03,0.04 0.05,0.05 0.02,0.02 0.03,0.03 0.05,0.05 0.02,0.02 0.04,0.03 0.05,0.05 0.02,0.02 0.03,0.03 0.05,0.05 0.02,0.02 0.03,0.03 0.05,0.05 0.02,0.02 0.03,0.03 0.05,0.05 0.02,0.02 0.03,0.03 0.05,0.05 0.02,0.02 0.04,0.03 0.05,0.05 0.02,0.02 0.04,0.03 0.05,0.05 0.02,0.02 0.03,0.03 0.05,0.05 0.02,0.02 0.03,0.03 0.05,0.05 0.02,0.02 0.03,0.04 0.05,0.05 0.01,0.02 0.03,0.03 0.05,0.05l0.05 0.05c0.02,0.02 0.03,0.03 0.05,0.05 0.02,0.02 0.04,0.03 0.05,0.05 0.02,0.02 0.03,0.03 0.05,0.05 0.02,0.02 0.03,0.04 0.05,0.05 0.02,0.02 0.03,0.04 0.05,0.05 0.01,0.02 0.03,0.03 0.05,0.05 0.02,0.02 0.04,0.03 0.05,0.05 0.02,0.02 0.03,0.03 0.05,0.05 0.02,0.02 0.03,0.03 0.05,0.05 0.02,0.02 0.03,0.03 0.05,0.05 0.01,0.02 0.03,0.04 0.05,0.05 0.02,0.02 0.03,0.03 0.05,0.05 0.02,0.02 0.04,0.03 0.05,0.05 0.02,0.02 0.04,0.03 0.05,0.05 0.02,0.02 0.03,0.03 0.05,0.05 0.02,0.02 0.03,0.03 0.05,0.05 0.02,0.02 0.03,0.04 0.05,0.05 0.02,0.02 0.03,0.03 0.05,0.05 0.02,0.02 0.04,0.03 0.05,0.05 0.02,0.02 0.03,0.03 0.05,0.05 0.02,0.01 0.03,0.03 0.05,0.05 0.02,0.01 0.03,0.03 0.05,0.05 0.02,0.02 0.03,0.04 0.05,0.05 0.02,0.02 0.03,0.03 0.05,0.05 0.02,0.02 0.03,0.03 0.05,0.05 0.02,0.02 0.04,0.03 0.05,0.05 0.02,0.02 0.03,0.03 0.05,0.05 0.02,0.02 0.03,0.03 0.05,0.05 0.02,0.02 0.03,0.03 0.05,0.05 0.02,0.02 0.03,0.03 0.05,0.05 0.02,0.02 0.03,0.03 0.05,0.05 0.02,0.02 0.04,0.03 0.05,0.05 0.02,0.02 0.03,0.03 0.05,0.05 0.02,0.02 0.03,0.04 0.05,0.05 0.02,0.02 0.03,0.04 0.05,0.05 0.01,0.02 0.03,0.04 0.05,0.05 0.02,0.02 0.04,0.03 0.05,0.05 0.02,0.02 0.04,0.03 0.05,0.05 0.02,0.02 0.03,0.03 0.05,0.05 0.02,0.02 0.03,0.03 0.05,0.05 0.02,0.02 0.03,0.04 0.05,0.05 0.02,0.02 0.03,0.03 0.05,0.05l0.05 0.05c0.02,0.02 0.04,0.03 0.05,0.05 0.02,0.02 0.03,0.03 0.05,0.05 0.02,0.02 0.03,0.03 0.05,0.05 0.02,0.01 0.03,0.03 0.05,0.05 0.02,0.02 0.03,0.03 0.05,0.05 0.02,0.02 0.04,0.03 0.05,0.05 0.02,0.02 0.04,0.03 0.05,0.05 0.02,0.02 0.03,0.03 0.05,0.05 0.02,0.02 0.03,0.03 0.05,0.05 0.02,0.02 0.03,0.04 0.05,0.05 0.02,0.02 0.03,0.04 0.05,0.05 0.02,0.02 0.03,0.03 0.05,0.05 0.02,0.02 0.04,0.03 0.05,0.05 0.02,0.01 0.03,0.03 0.05,0.05 0.02,0.02 0.03,0.03 0.05,0.05 0.02,0.02 0.03,0.03 0.05,0.05 0.01,0.02 0.03,0.04 0.05,0.05 0.02,0.02 0.03,0.03 0.05,0.05 0.02,0.02 0.04,0.03 0.05,0.05 0.02,0.02 0.03,0.03 0.05,0.05 0.02,0.01 0.03,0.03 0.05,0.05 0.02,0.02 0.03,0.03 0.05,0.05 0.01,0.02 0.03,0.03 0.05,0.05 0.02,0.02 0.04,0.03 0.05,0.05 0.02,0.02 0.04,0.03 0.05,0.05 0.02,0.02 0.03,0.03 0.05,0.05 0.02,0.02 0.03,0.03 0.05,0.05 0.02,0.02 0.03,0.04 0.05,0.05 0.02,0.02 0.03,0.04 0.05,0.05 0.02,0.02 0.03,0.03 0.05,0.05 0.02,0.02 0.03,0.03 0.05,0.05 0.02,0.02 0.04,0.03 0.05,0.05 0.02,0.02 0.03,0.03 0.05,0.05 0.02,0.02 0.03,0.04 0.05,0.05 0.02,0.02 0.03,0.04 0.05,0.05 0.02,0.02 0.03,0.03 0.05,0.05 0.01,0.02 0.03,0.03 0.05,0.05 0.02,0.02 0.03,0.03 0.05,0.05 0.02,0.02 0.03,0.03 0.05,0.05 0.02,0.02 0.03,0.03 0.05,0.05 0.02,0.02 0.03,0.03 0.05,0.05 0.02,0.02 0.03,0.03 0.05,0.05 3.7,3.71 8.81,6.02 14.46,6.02 11.26,0 20.43,-9.16 20.43,-20.43l0 -0.08c0,-4.73 -1.65,-9.34 -4.66,-12.99l-21.02 -25.52zm-27.51 -26.09l0 -0.05 -0.05 0 0 -0.05 -0.05 0 0 -0.05 -0.05 0 0 -0.05 -0.05 0 0 -0.05 -0.05 0 0 -0.05 -0.05 0 0 -0.05 -0.05 0 0 -0.05 -0.05 0 0 -0.05 -0.05 0 0 -0.05 -0.05 0 0 -0.05 -0.05 0 0 -0.05 -0.05 0 0 -0.05 -0.05 0 0 -0.05 -0.05 0 0 -0.05 -0.05 0 0 -0.05 -0.05 0 0 -0.05 -0.05 0 0 -0.05 -0.05 0 0 -0.05 -0.05 0 0 -0.05 -0.05 0 0 -0.05 -0.05 0 0 -0.05 -0.05 0 0 -0.05 -0.05 0 0 -0.05 -0.05 0 0 -0.05 -0.05 0 0 -0.05 -0.05 0 0 -0.05 -0.05 0 0 -0.05 -0.05 0 0 -0.05 -0.05 0 0 -0.05 -0.05 0 0 -0.05 -0.05 0 0 -0.05 -0.05 0 0 -0.05 -0.05 0 0 -0.05 -0.05 0 0 -0.05 -0.05 0 0 -0.05 -0.05 0 0 -0.05 -0.05 0 0 -0.05 -0.05 0 0 -0.05 -0.05 0 0 -0.05 -0.05 0 0 -0.05 -0.05 0 0 -0.05 -0.05 0 0 -0.05 -0.05 0 0 -0.05 -0.05 0 0 -0.05 -0.05 0 0 -0.05 -0.05 0 0 -0.05 -0.05 0 0 -0.05 -0.05 0 0 -0.05 -0.05 0 0 -0.05 -0.05 0 0 -0.05 -0.05 0 0 -0.05 -0.05 0 0 -0.05 -0.05 0 0 -0.05 -0.05 0 0 -0.05 -0.05 0 0 -0.05 -0.05 0 0 -0.05 -0.05 0 0 -0.05 -0.05 0 0 -0.05 -0.05 0 0 -0.05 -0.05 0 0 -0.05 -0.05 0 0 -0.05 -0.05 0 0 -0.05 -0.05 0 0 -0.05 -0.05 0 0 -0.05 -0.05 0 0 -0.05 -0.05 0 0 -0.05 -0.05 0 0 -0.05 -0.05 0 0 -0.05 -0.05 0 0 -0.05 -0.05 0 0 -0.05 -0.05 0 0 -0.05 -0.05 0 0 -0.05 -0.05 0 0 -0.05 -0.05 0 0 -0.05 -0.05 0 0 -0.05 -0.05 0 0 -0.05 -0.05 0 0 -0.05 -0.05 0 0 -0.05 -0.05 0 0 -0.05 -0.05 0 0 -0.05 -0.05 0 0 -0.05 -0.05 0 0 -0.05 -0.05 0 0 -0.05 -0.05 0 0 -0.05 -0.05 0 0 -0.05 -0.05 0 0 -0.05 -0.05 0 0 -0.05 -0.05 0 0 -0.05 -0.05 0 0 -0.05 -0.05 0 0 -0.05 -0.05 0 0 -0.05 -0.05 0 0 -0.05 -0.05 0 0 -0.05 -0.05 0 0 -0.05 -0.05 0 0 -0.05 -0.05 0 0 -0.05 -0.05 0 0 -0.05 -0.05 0 0 -0.05 -0.05 0 0 -0.05 -0.05 0 0 -0.05 -0 0 0 13.62 -22.13 0 0 22.13 5.11 0 0 -17.02 22.13 0 0 -13.62 -0.05 0zm0 71.44l-0.05 0 0 -0.05 -0.05 0 0 -0.05 -0.05 0 0 -0.05 -0.05 0 0 -0.05 -0.05 0 0 -0.05 -0.05 0 0 -0.05 -0.05 0 0 -0.05 -0.05 0 0 -0.05 -0.05 0 0 -0.05 -0.05 0 0 -0.05 -0.05 0 0 -0.05 -0.05 0 0 -0.05 -0.05 0 0 -0.05 -0.05 0 0 -0.05 -0.05 0 0 -0.05 -0.05 0 0 -0.05 -0.05 0 0 -0.05 -0.05 0 0 -0.05 -0.05 0 0 -0.05 -0.05 0 0 -0.05 -0.05 0 0 -0.05 -0.05 0 0 -0.05 -0.05 0 0 -0.05 -0.05 0 0 -0.05 -0.05 0 0 -0.05 -0.05 0 0 -0.05 -0.05 0 0 -0.05 -0.05 0 0 -0.05 -0.05 0 0 -0.05 -0.05 0 0 -0.05 -0.05 0 0 -0.05 -0.05 0 0 -0.05 -0.05 0 0 -0.05 -0.05 0 0 -0.05 -0.05 0 0 -0.05 -0.05 0 0 -0.05 -0.05 0 0 -0.05 -0.05 0 0 -0.05 -0.05 0 0 -0.05 -0.05 0 0 -0.05 -0.05 0 0 -0.05 -0.05 0 0 -0.05 -0.05 0 0 -0.05 -0.05 0 0 -0.05 -0.05 0 0 -0.05 -0.05 0 0 -0.05 -0.05 0 0 -0.05 -0.05 0 0 -0.05 -0.05 0 0 -0.05 -0.05 0 0 -0.05 -0.05 0 0 -0.05 -0.05 0 0 -0.05 -0.05 0 0 -0.05 -0.05 0 0 -0.05 -0.05 0 0 -0.05 -0.05 0 0 -0.05 -0.05 0 0 -0.05 -0.05 0 0 -0.05 -0.05 0 0 -0.05 -0.05 0 0 -0.05 -0.05 0 0 -0.05 -0.05 0 0 -0.05 -0.05 0 0 -0.05 -0.05 0 0 -0.05 -0.05 0 0 -0.05 -0.05 0 0 -0.05 -0.05 0 0 -0.05 -0.05 0 0 -0.05 -0.05 0 0 -0.05 -0.05 0 0 -0.05 -0.05 0 0 -0.05 -0.05 0 0 -0.05 -0.05 0 0 -0.05 -0.05 0 0 -0.05 -0.05 0 0 -0.05 -0.05 0 0 -0.05 -0.05 0 0 -0.05 -0.05 0 0 -0.05 -0.05 0 0 -0.05 -0.05 0 0 -0.05 -0.05 0 0 -0.05 -0.05 0 0 -0.05 -0.05 0 0 -0.05 -0.05 0 0 -0.05 -0.05 0 0 -0.05 -0.05 0 0 -0.05 -0.05 0 0 -0.05 -0.05 0 0 -0.05 -0.05 0 0 -0.05 -0.05 0 0 -0.05 -0.05 0 0 -0.05 -0.05 0 0 -0.05 -0.05 0 0 -0.05 -0.05 0 0 -0.05 -0.05 0 0 -0.05 -0.05 0 0 -0.05 -0.05 0 0 -0.05 -0.05 0 0 -0.05 -0.05 0 0 -0.05 -0.05 0 0 -0.05 -0 0 0 1.7 0 10.21 0 1.7 -1.7 0 -32.34 0 -1.65 0 0 0.05 0.05 0 0 0.05 0.05 0 0 0.05 0.05 0 0 0.05 0.05 0 0 0.05 0.05 0 0 0.05 0.05 0 0 0.05 0.05 0 0 0.05 0.05 0 0 0.05 0.05 0 0 0.05 0.05 0 0 0.05 0.05 0 0 0.05 0.05 0 0 0.05 0.05 0 0 0.05 0.05 0 0 0.05 0.05 0 0 0.05 0.05 0 0 0.05 0.05 0 0 0.05 0.05 0 0 0.05 0.05 0 0 0.05 0.05 0 0 0.05 0.05 0 0 0.05 0.05 0 0 0.05 0.05 0 0 0.05 0.05 0 0 0.05 0.05 0 0 0.05 0.05 0 0 0.05 0.05 0 0 0.05 0.05 0 0 0.05 0.05 0 0 0.05 0.05 0 0 0.05 0.05 0 0 0.05 0.05 0 0 0.05 0.05 0 0 0.05 0.05 0 0 0.05 0.05 0 0 0.05 0.05 0 0 0.05 0.05 0 0 0.05 0.05 0 0 0.05 0.05 0 0 0.05 0.05 0 0 0.05 0.05 0 0 0.05 0.05 0 0 0.05 0.05 0 0 0.05 0.05 0 0 0.05 0.05 0 0 0.05 0.05 0 0 0.05 0.05 0 0 0.05 0.05 0 0 0.05 0.05 0 0 0.05 0.05 0 0 0.05 0.05 0 0 0.05 0.05 0 0 0.05 0.05 0 0 0.05 0.05 0 0 0.05 0.05 0 0 0.05 0.05 0 0 0.05 0.05 0 0 0.05 0.05 0 0 0.05 0.05 0 0 0.05 0.05 0 0 0.05 0.05 0 0 0.05 0.05 0 0 0.05 0.05 0 0 0.05 0.05 0 0 0.05 0.05 0 0 0.05 0.05 0 0 0.05 0.05 0 0 0.05 0.05 0 0 0.05 0.05 0 0 0.05 0.05 0 0 0.05 0.05 0 0 0.05 0.05 0 0 0.05 0.05 0 0 0.05 0.05 0 0 0.05 0.05 0 0 0.05 0.05 0 0 0.05 0.05 0 0 0.05 0.05 0 0 0.05 0.05 0 0 0.05 0.05 0 0 0.05 0.05 0 0 0.05 0.05 0 0 0.05 0.05 0 0 0.05 0.05 0 0 0.05 0.05 0 0 0.05 0.05 0 0 0.05 0.05 0 0 0.05 0.05 0 0 0.05 0.05 0 0 0.05 0.05 0 0 0.05 0.05 0 0 0.05 0.05 0 0 0.05 0.05 0 0 0.05 0.05 0 0 0.05 0.05 0 0 0.05 0.05 0 0 0.05 0.05 0 0 0.05 0.05 0 0 0.05 0.05 0 0 0.05 0.05 0 0 0.05 1.7 0 32.34 0 1.7 0 0 -1.7 0 -10.21 0 -1.7 -0.05 0 0 -0.05zm-22.08 -22.08l14.98 0 0 -13.62 -0.05 0 0 -0.05 -0.05 0 0 -0.05 -0.05 0 0 -0.05 -0.05 0 0 -0.05 -0.05 0 0 -0.05 -0.05 0 0 -0.05 -0.05 0 0 -0.05 -0.05 0 0 -0.05 -0.05 0 0 -0.05 -0.05 0 0 -0.05 -0.05 0 0 -0.05 -0.05 0 0 -0.05 -0.05 0 0 -0.05 -0.05 0 0 -0.05 -0.05 0 0 -0.05 -0.05 0 0 -0.05 -0.05 0 0 -0.05 -0.05 0 0 -0.05 -0.05 0 0 -0.05 -0.05 0 0 -0.05 -0.05 0 0 -0.05 -0.05 0 0 -0.05 -0.05 0 0 -0.05 -0.05 0 0 -0.05 -0.05 0 0 -0.05 -0.05 0 0 -0.05 -0.05 0 0 -0.05 -0.05 0 0 -0.05 -0.05 0 0 -0.05 -0.05 0 0 -0.05 -0.05 0 0 -0.05 -0.05 0 0 -0.05 -0.05 0 0 -0.05 -0.05 0 0 -0.05 -0.05 0 0 -0.05 -0.05 0 0 -0.05 -0.05 0 0 -0.05 -0.05 0 0 -0.05 -0.05 0 0 -0.05 -0.05 0 0 -0.05 -0.05 0 0 -0.05 -0.05 0 0 -0.05 -0.05 0 0 -0.05 -0.05 0 0 -0.05 -0.05 0 0 -0.05 -0.05 0 0 -0.05 -0.05 0 0 -0.05 -0.05 0 0 -0.05 -0.05 0 0 -0.05 -0.05 0 0 -0.05 -0.05 0 0 -0.05 -0.05 0 0 -0.05 -0.05 0 0 -0.05 -0.05 0 0 -0.05 -0.05 0 0 -0.05 -0.05 0 0 -0.05 -0.05 0 0 -0.05 -0.05 0 0 -0.05 -0.05 0 0 -0.05 -0.05 0 0 -0.05 -0.05 0 0 -0.05 -0.05 0 0 -0.05 -0.05 0 0 -0.05 -0.05 0 0 -0.05 -0.05 0 0 -0.05 -0.05 0 0 -0.05 -0.05 0 0 -0.05 -0.05 0 0 -0.05 -0.05 0 0 -0.05 -0.05 0 0 -0.05 -0.05 0 0 -0.05 -0.05 0 0 -0.05 -0.05 0 0 -0.05 -0.05 0 0 -0.05 -0.05 0 0 -0.05 -0.05 0 0 -0.05 -0.05 0 0 -0.05 -0.05 0 0 -0.05 -0.05 0 0 -0.05 -0.05 0 0 -0.05 -0.05 0 0 -0.05 -0.05 0 0 -0.05 -0.05 0 0 -0.05 -0.05 0 0 -0.05 -0.05 0 0 -0.05 -0.05 0 0 -0.05 -0.05 0 0 -0.05 -0.05 0 0 -0.05 -0.05 0 0 -0.05 -0.05 0 0 -0.05 -0.05 0 0 -0.05 -0.05 0 0 -0.05 -0.05 0 0 -0.05 -0.05 0 0 -0.05 -0.05 0 0 -0.05 -0.05 0 0 -0.05 -0.05 0 0 -0.05 -0.05 0 0 -0.05 -0.05 0 0 -0.05 -0.05 0 0 -0.05 -0.05 0 0 -0.05 0 0 0 13.62 -14.98 0 0 22.13 5.11 0 0 -17.02zm-34.67 -43.4c-0.02,-0.02 -0.03,-0.03 -0.05,-0.05 -0.02,-0.02 -0.03,-0.03 -0.05,-0.05 -0.01,-0.01 -0.03,-0.03 -0.05,-0.05 -0.01,-0.01 -0.03,-0.03 -0.05,-0.05 -0.02,-0.02 -0.03,-0.04 -0.05,-0.05 -0.02,-0.02 -0.04,-0.04 -0.05,-0.05 -0.02,-0.02 -0.03,-0.03 -0.05,-0.05 -0.02,-0.02 -0.03,-0.03 -0.05,-0.05 -0.02,-0.02 -0.03,-0.03 -0.05,-0.05 -0.02,-0.02 -0.03,-0.03 -0.05,-0.05 -0.02,-0.02 -0.04,-0.04 -0.05,-0.05l-0.05 -0.05c-0.02,-0.02 -0.03,-0.03 -0.05,-0.05 -0.02,-0.02 -0.03,-0.03 -0.05,-0.05 -0.01,-0.01 -0.03,-0.03 -0.05,-0.05 -0.02,-0.02 -0.03,-0.03 -0.05,-0.05 -0.02,-0.02 -0.04,-0.04 -0.05,-0.05l-0.05 -0.05c-0.02,-0.02 -0.03,-0.03 -0.05,-0.05 -0.01,-0.02 -0.03,-0.03 -0.05,-0.05 -0.02,-0.02 -0.03,-0.03 -0.05,-0.05l-0.05 -0.05c-0.02,-0.02 -0.04,-0.04 -0.05,-0.05 -0.02,-0.02 -0.03,-0.03 -0.05,-0.05 -0.02,-0.02 -0.03,-0.03 -0.05,-0.05 -0.02,-0.02 -0.03,-0.03 -0.05,-0.05 -0.02,-0.02 -0.03,-0.03 -0.05,-0.05 -0.01,-0.01 -0.03,-0.03 -0.05,-0.05 -0.02,-0.02 -0.03,-0.04 -0.05,-0.05 -0.02,-0.02 -0.03,-0.04 -0.05,-0.05 -0.02,-0.02 -0.03,-0.03 -0.05,-0.05l-0.05 -0.05c-0.02,-0.02 -0.03,-0.03 -0.05,-0.05 -0.02,-0.02 -0.03,-0.03 -0.05,-0.05 -0.02,-0.02 -0.04,-0.04 -0.05,-0.05 -0.02,-0.02 -0.04,-0.04 -0.05,-0.05 -0.02,-0.02 -0.03,-0.03 -0.05,-0.05 -0.02,-0.02 -0.03,-0.03 -0.05,-0.05 -0.02,-0.02 -0.03,-0.03 -0.05,-0.05 -0.02,-0.02 -0.03,-0.03 -0.05,-0.05 -0.02,-0.01 -0.04,-0.03 -0.05,-0.05 -0.02,-0.02 -0.03,-0.04 -0.05,-0.05 -0.02,-0.02 -0.03,-0.03 -0.05,-0.05 -0.02,-0.02 -0.03,-0.03 -0.05,-0.05 -0.01,-0.01 -0.03,-0.03 -0.05,-0.05 -0.02,-0.02 -0.03,-0.03 -0.05,-0.05 -0.02,-0.02 -0.03,-0.03 -0.05,-0.05 -0.02,-0.02 -0.03,-0.03 -0.05,-0.05 -0.02,-0.02 -0.03,-0.03 -0.05,-0.05 -0.02,-0.02 -0.03,-0.03 -0.05,-0.05 -0.02,-0.02 -0.03,-0.03 -0.05,-0.05 -0.01,-0.01 -0.03,-0.03 -0.05,-0.05 -0.02,-0.02 -0.04,-0.04 -0.05,-0.05 -0.02,-0.02 -0.03,-0.04 -0.05,-0.05 -0.02,-0.02 -0.03,-0.03 -0.05,-0.05 -0.02,-0.02 -0.03,-0.03 -0.05,-0.05 -0.02,-0.02 -0.03,-0.03 -0.05,-0.05 -0.01,-0.01 -0.03,-0.03 -0.05,-0.05 -0.02,-0.02 -0.03,-0.04 -0.05,-0.05 -0.02,-0.02 -0.04,-0.04 -0.05,-0.05 -0.02,-0.02 -0.03,-0.04 -0.05,-0.05 -0.02,-0.02 -0.03,-0.03 -0.05,-0.05l-0.05 -0.05c-0.02,-0.02 -0.03,-0.03 -0.05,-0.05 -0.02,-0.02 -0.03,-0.03 -0.05,-0.05 -0.02,-0.02 -0.04,-0.04 -0.05,-0.05 -0.02,-0.02 -0.03,-0.03 -0.05,-0.05 -0.02,-0.02 -0.03,-0.03 -0.05,-0.05 -0.01,-0.02 -0.03,-0.03 -0.05,-0.05 -0.02,-0.02 -0.03,-0.03 -0.05,-0.05 -0.02,-0.02 -0.04,-0.04 -0.05,-0.05 -0.02,-0.02 -0.04,-0.04 -0.05,-0.05 -0.02,-0.02 -0.03,-0.03 -0.05,-0.05l-0.05 -0.05c-0.01,-0.02 -0.03,-0.03 -0.05,-0.05 -0.02,-0.02 -0.03,-0.03 -0.05,-0.05 -0.02,-0.02 -0.03,-0.03 -0.05,-0.05 -0.02,-0.02 -0.03,-0.04 -0.05,-0.05 -0.02,-0.02 -0.03,-0.04 -0.05,-0.05 -0.02,-0.02 -0.03,-0.03 -0.05,-0.05 -0.02,-0.02 -0.03,-0.03 -0.05,-0.05 -0.02,-0.02 -0.03,-0.03 -0.05,-0.05 -0.02,-0.02 -0.04,-0.03 -0.05,-0.05 -0.02,-0.02 -0.04,-0.04 -0.05,-0.05 -0.02,-0.02 -0.03,-0.03 -0.05,-0.05 -0.02,-0.02 -0.03,-0.03 -0.05,-0.05 -0.02,-0.02 -0.03,-0.03 -0.05,-0.05 -0.01,-0.01 -0.03,-0.03 -0.05,-0.05 -0.02,-0.02 -0.03,-0.03 -0.05,-0.05 -0.02,-0.02 -0.03,-0.04 -0.05,-0.05 -0.02,-0.02 -0.03,-0.04 -0.05,-0.05 -0.02,-0.02 -0.03,-0.03 -0.05,-0.05 -0.02,-0.02 -0.03,-0.03 -0.05,-0.05 -0.02,-0.02 -0.03,-0.03 -0.05,-0.05 -0.02,-0.02 -0.03,-0.03 -0.05,-0.05 -0.02,-0.02 -0.04,-0.04 -0.05,-0.05 -0.02,-0.02 -0.03,-0.03 -0.05,-0.05 -0.02,-0.02 -0.03,-0.03 -0.05,-0.05 -0.02,-0.02 -0.03,-0.03 -0.05,-0.05 -0.02,-0.02 -0.03,-0.03 -0.05,-0.05 3.69,3.7 5.97,8.79 5.97,14.41l0 44.26c0,11.26 -9.16,20.42 -20.43,20.42l-18.72 0 -1.65 0 0 0.05 0.05 0 0 0.05 0.05 0 0 0.05 0.05 0 0 0.05 0.05 0 0 0.05 0.05 0 0 0.05 0.05 0 0 0.05 0.05 0 0 0.05 0.05 0 0 0.05 0.05 0 0 0.05 0.05 0 0 0.05 0.05 0 0 0.05 0.05 0 0 0.05 0.05 0 0 0.05 0.05 0 0 0.05 0.05 0 0 0.05 0.05 0 0 0.05 0.05 0 0 0.05 0.05 0 0 0.05 0.05 0 0 0.05 0.05 0 0 0.05 0.05 0 0 0.05 0.05 0 0 0.05 0.05 0 0 0.05 0.05 0 0 0.05 0.05 0 0 0.05 0.05 0 0 0.05 0.05 0 0 0.05 0.05 0 0 0.05 0.05 0 0 0.05 0.05 0 0 0.05 0.05 0 0 0.05 0.05 0 0 0.05 0.05 0 0 0.05 0.05 0 0 0.05 0.05 0 0 0.05 0.05 0 0 0.05 0.05 0 0 0.05 0.05 0 0 0.05 0.05 0 0 0.05 0.05 0 0 0.05 0.05 0 0 0.05 0.05 0 0 0.05 0.05 0 0 0.05 0.05 0 0 0.05 0.05 0 0 0.05 0.05 0 0 0.05 0.05 0 0 0.05 0.05 0 0 0.05 0.05 0 0 0.05 0.05 0 0 0.05 0.05 0 0 0.05 0.05 0 0 0.05 0.05 0 0 0.05 0.05 0 0 0.05 0.05 0 0 0.05 0.05 0 0 0.05 0.05 0 0 0.05 0.05 0 0 0.05 0.05 0 0 0.05 0.05 0 0 0.05 0.05 0 0 0.05 0.05 0 0 0.05 0.05 0 0 0.05 0.05 0 0 0.05 0.05 0 0 0.05 0.05 0 0 0.05 0.05 0 0 0.05 0.05 0 0 0.05 0.05 0 0 0.05 0.05 0 0 0.05 0.05 0 0 0.05 0.05 0 0 0.05 0.05 0 0 0.05 0.05 0 0 0.05 0.05 0 0 0.05 0.05 0 0 0.05 0.05 0 0 0.05 0.05 0 0 0.05 0.05 0 0 0.05 0.05 0 0 0.05 0.05 0 0 0.05 0.05 0 0 0.05 0.05 0 0 0.05 0.05 0 0 0.05 0.05 0 0 0.05 0.05 0 0 0.05 0.05 0 0 0.05 0.05 0 0 0.05 0.05 0 0 0.05 0.05 0 0 0.05 0.05 0 0 0.05 0.05 0 0 0.05 0.05 0 0 0.05 0.05 0 0 0.05 0.05 0 0 0.05 0.05 0 0 0.05 0.05 0 0 0.05 0.05 0 0 0.05 0.05 0 0 0.05 0.05 0 0 0.05 1.7 0 18.73 0c11.26,0 20.42,-9.16 20.42,-20.43l0 -44.26c0,-5.64 -2.3,-10.76 -6.01,-14.46z"/>
   <rect class="fil1" x="281.77" y="10.47" width="121.53" height="2.22"/>
   <rect class="fil1" x="0" y="10.47" width="119.96" height="2.22"/>
   <path class="fil2" d="M137.94 23.32c6.13,0 9.63,-3.13 9.63,-7.76 0,-5.16 -4.4,-6.06 -7.16,-6.6 -4.36,-0.83 -5.53,-1.13 -5.53,-1.9 0,-0.67 0.97,-1.13 2.73,-1.13 2.33,0 5.06,1.03 6.46,1.8l2.63 -4.76c-1.4,-1.27 -4.76,-2.97 -8.8,-2.97 -5.93,0 -9.63,3.36 -9.63,7.83 0,4.5 3.73,5.86 7.16,6.53 2.83,0.53 5.3,0.77 5.3,1.87 0,0.63 -0.8,1.13 -2.63,1.13 -2.9,0 -6.13,-1.33 -7.76,-2.33l-2.46 5.3c1.73,1.3 5.66,3 10.06,3zm30.86 -0.13l5.93 -9.13 0 8.46 7.66 0 0 -21.89 -7.16 0 -6.43 10.76 -6.43 -10.76 -7.16 0 0 21.89 7.66 0 0 -8.46 5.93 9.13zm19.57 -0.67l8.46 0 1.07 -2.63 9.46 0 1.07 2.63 8.46 0 -9.79 -21.89 -8.93 0 -9.8 21.89zm11.96 -8.63l2.27 -5.7 0.07 0 2.27 5.7 -4.6 0zm42.46 9.26c3.37,0 5.8,-1.4 6.7,-2.47l-2.73 -5.03c-0.43,0.5 -1.63,1.17 -3.37,1.17 -1.2,0 -2.8,-0.3 -4,-1.57 4.03,0 7.86,-1.7 7.86,-6.66 0,-4.36 -2.93,-7.96 -8.3,-7.96l-15.43 0 0 21.89 7.66 0 0 -6.5c4.36,5.16 7.43,7.13 11.59,7.13zm-11.59 -12.49l0 -4 6.26 0c1.37,0 2.17,0.93 2.17,2 0,1.07 -0.8,2 -2.17,2l-6.26 0zm29.47 11.86l7.33 0 0 -15.23 7.43 0 0 -6.66 -22.19 0 0 6.66 7.43 0 0 15.23z"/>
   <path class="fil3" d="M20.43 37.94l-18.72 0 -1.7 0 0 1.7 0 81.7 0 1.7 1.7 0 18.72 0c11.26,0 20.43,-9.16 20.43,-20.43l0 -44.26c0,-11.26 -9.16,-20.43 -20.43,-20.43zm6.81 64.68c0,3.75 -3.05,6.81 -6.81,6.81l-6.81 0 0 -57.87 6.81 0c3.76,0 6.81,3.05 6.81,6.81l0 44.26zm-6.81 -57.4l-8.51 0 -4.64 0 0 70.55 4.64 0 8.51 0c7.25,0 13.15,-5.9 13.15,-13.15l0 -44.26c0,-7.25 -5.9,-13.15 -13.15,-13.15zm14.09 57.4c0,7.77 -6.32,14.09 -14.08,14.09l-13.96 0 -0.13 0 0 -0.13 0 -72.17 0 -0.13 0.13 0 13.96 0c7.77,0 14.08,6.32 14.08,14.09l0 44.26zm55.42 -64.68l-22.13 0 -10.21 0 -1.7 0 0 1.7 0 81.7 0 1.7 1.7 0 32.34 0 1.7 0 0 -1.7 0 -10.21 0 -1.7 -1.7 0 -20.42 0 0 -22.13 13.28 0 1.7 0 0 -1.7 0 -10.21 0 -1.7 -1.7 0 -13.28 0 0 -22.13 20.42 0 1.7 0 0 -1.7 0 -10.22 0 -1.7 -1.7 0zm-4.64 6.47l0 0.68 0 0.13 -0.13 0 -17.36 0 -4.64 0 0 34.81 4.64 0 10.21 0 0.13 0 0 0.13 0 0.68 0 0.13 -0.13 0 -10.21 0 -4.64 0 0 34.8 4.64 0 17.36 0 0.13 0 0 0.13 0 0.68 0 0.13 -0.13 0 -22.81 0 -0.13 0 0 -0.13 0 -72.17 0 -0.13 0.13 0 22.81 0 0.13 0 0 0.13zm39.06 -6.47c-11.26,0 -20.43,9.16 -20.43,20.43l0 0.08c0,4.73 1.66,9.35 4.67,13l21.01 25.46c1,1.22 1.56,2.75 1.56,4.33l0 1.38c0,3.75 -3.06,6.81 -6.81,6.81 -3.75,0 -6.81,-3.06 -6.81,-6.81l0 -9.24 0 -1.7 -1.7 0 -10.21 0 -1.7 0 0 1.7 0 9.24c0,11.26 9.16,20.43 20.43,20.43 11.26,0 20.43,-9.16 20.43,-20.43l0 -0.08c0,-4.73 -1.66,-9.34 -4.66,-12.99l-21.02 -25.52c-1,-1.21 -1.55,-2.75 -1.55,-4.33l0 -1.34c0,-3.75 3.06,-6.81 6.81,-6.81 3.75,0 6.81,3.05 6.81,6.81l0 9.23 0 1.7 1.7 0 10.21 0 1.71 0 0 -1.7 0 -9.23c0,-11.26 -9.16,-20.43 -20.43,-20.43zm14.09 24.89l0 0.13 -0.13 0 -0.68 0 -0.13 0 0 -0.13 0 -4.47c0,-7.25 -5.9,-13.15 -13.15,-13.15 -6.87,0 -12.63,5.36 -13.12,12.22 -0.03,0.36 -0.07,1.01 -0.07,1.32 -0,0 -0.02,0.27 0.04,1.2 0.3,3.25 1.36,5.83 3.25,7.89l21.02 25.52c1.96,2.38 2.95,5.43 2.95,9.08l0 0.08 0 0.02 0 0.08c0,0.07 0,0.14 -0,0.2l0 0.1 0 -0c-0.16,7.63 -6.42,13.78 -14.08,13.78 -7.77,0 -14.09,-6.32 -14.09,-14.09l0 -4.47 0 -0.13 0.13 0 0.68 0 0.13 0 0 0.13 0 4.47c0,7.25 5.9,13.15 13.15,13.15 7.25,0 13.15,-5.9 13.15,-13.15l0 -1.38c0,-0.18 -0.01,-0.36 -0.02,-0.54l-0 -0.06c-0.15,-2.52 -1.31,-5.21 -3.25,-7.56l-21.01 -25.46c-1.56,-1.89 -2.46,-4.26 -2.85,-7.46l-0.01 -0.14 0 0c-0.06,-0.53 -0.09,-1.06 -0.09,-1.58l0 -0.08c0,-7.77 6.32,-14.09 14.09,-14.09 7.77,0 14.09,6.32 14.09,14.09l0 4.47zm163.86 -4.47c0,-11.26 -9.16,-20.42 -20.43,-20.42l-18.72 0 -1.71 0 0 1.7 0 81.7 0 1.7 1.71 0 10.21 0 1.7 0 0 -1.7 0 -28.94 6.81 0c3.76,0 6.81,3.05 6.81,6.81l0 21.95 0 1.7 1.7 0 10.21 0 1.7 0 0 -1.7 0 -21.95c0,-5.1 -1.84,-9.87 -5.21,-13.62 3.37,-3.75 5.21,-8.52 5.21,-13.62l0 -13.62zm-13.62 13.62c0,3.75 -3.05,6.81 -6.81,6.81l-6.81 0 0 -8.51 0 -18.72 6.81 0c3.75,0 6.81,3.05 6.81,6.81l0 13.62zm7.21 -8.71l-0.03 0 0 8.61c0,3.56 -1.34,6.95 -3.76,9.55l-0.05 0.05 -0 -0c-1.88,2 -4.25,3.39 -6.88,4.03 2.86,0.71 5.48,2.34 7.4,4.62l0.01 -0.01 0.04 0.05c2.12,2.54 3.24,5.63 3.24,8.95l0.03 17.35 -0.81 0 0 -0.06 -0.03 -17.29c0,-3 -1.04,-5.93 -2.92,-8.27l-0.01 0.01 -0.04 -0.06c-2.53,-3.11 -6.26,-4.89 -10.24,-4.89l-13.21 0 0.03 30.74 -0.81 0 0 -0.06 -0.02 -54.79 0.02 0 0 -17.44 14.02 0c7.73,0 14.02,6.29 14.02,14.02l0 4.91zm-14.02 -18.12l-13.21 0 -0.03 39.94 13.21 0c3.66,0 7.19,-1.55 9.69,-4.25 2.27,-2.45 3.52,-5.63 3.52,-8.96l0.03 -13.52c0,-7.29 -5.93,-13.21 -13.21,-13.21zm68.09 -7.21l-37.45 0 -1.7 0 0 1.7 0 10.22 0 1.7 1.7 0 11.91 0 0 69.78 0 1.7 1.7 0 10.21 0 1.7 0 0 -1.7 0 -69.78 9.36 0 2.55 0 1.7 0 0 -1.7 0 -10.22 0 -1.7 -1.7 0zm-4.64 6.47l0 0.68 0 0.13 -0.13 0 -8.85 0 -4.64 0 0 71.36 0 0.13 -0.13 0 -0.68 0 -0.13 0 0 -0.13 0 -71.36 -4.64 0 -8.85 0 -0.13 0 0 -0.13 0 -0.68 0 -0.13 0.13 0 27.92 0 0.13 0 0 0.13zm-169.37 -6.47c-11.26,0 -20.43,9.16 -20.43,20.43l0 0.08c0,4.73 1.66,9.35 4.67,13l21.01 25.46c1,1.22 1.56,2.75 1.56,4.33l0 1.38c0,3.75 -3.05,6.81 -6.81,6.81 -3.76,0 -6.81,-3.06 -6.81,-6.81l0 -9.24 0 -1.7 -1.7 0 -10.21 0 -1.7 0 0 1.7 0 9.24c0,11.26 9.16,20.43 20.43,20.43 11.26,0 20.43,-9.16 20.43,-20.43l0 -0.08c0,-4.73 -1.66,-9.34 -4.66,-12.99l-21.02 -25.52c-1,-1.21 -1.55,-2.75 -1.55,-4.33l0 -1.34c0,-3.75 3.05,-6.81 6.81,-6.81 3.75,0 6.81,3.05 6.81,6.81l0 9.23 0 1.7 1.7 0 10.21 0 1.71 0 0 -1.7 0 -9.23c0,-11.26 -9.16,-20.43 -20.43,-20.43zm14.08 24.89l0 0.13 -0.13 0 -0.68 0 -0.13 0 0 -0.13 0 -4.47c0,-7.25 -5.9,-13.15 -13.15,-13.15 -6.87,0 -12.63,5.36 -13.12,12.22 -0.03,0.36 -0.07,1.01 -0.07,1.32 -0,0 -0.02,0.27 0.04,1.2 0.3,3.25 1.36,5.83 3.25,7.89l21.02 25.52c1.96,2.38 2.95,5.43 2.95,9.08l0 0.08 0 0.02 0 0.08c0,0.07 0,0.14 -0,0.2l0 0.1 0 -0c-0.16,7.63 -6.42,13.78 -14.08,13.78 -7.77,0 -14.09,-6.32 -14.09,-14.09l0 -4.47 0 -0.13 0.13 0 0.68 0 0.13 0 0 0.13 0 4.47c0,7.25 5.9,13.15 13.15,13.15 7.25,0 13.15,-5.9 13.15,-13.15l0 -1.38c0,-0.18 -0.01,-0.36 -0.02,-0.54l-0 -0.06c-0.15,-2.52 -1.31,-5.21 -3.25,-7.56l-21.01 -25.46c-1.56,-1.89 -2.47,-4.26 -2.85,-7.46l-0.01 -0.14 0 0c-0.06,-0.53 -0.09,-1.06 -0.09,-1.58l0 -0.08c0,-7.77 6.32,-14.09 14.09,-14.09 7.76,0 14.08,6.32 14.08,14.09l0 4.47zm55.05 -24.89l-22.13 0 -10.21 0 -1.7 0 0 1.7 0 81.7 0 1.7 1.7 0 32.34 0 1.7 0 0 -1.7 0 -10.21 0 -1.7 -1.7 0 -20.42 0 0 -22.13 13.28 0 1.7 0 0 -1.7 0 -10.21 0 -1.7 -1.7 0 -13.28 0 0 -22.13 20.42 0 1.7 0 0 -1.7 0 -10.22 0 -1.7 -1.7 0zm-4.64 6.47l0 0.68 0 0.13 -0.13 0 -17.36 0 -4.64 0 0 34.81 4.64 0 10.21 0 0.13 0 0 0.13 0 0.68 0 0.13 -0.13 0 -10.21 0 -4.64 0 0 34.8 4.64 0 17.36 0 0.13 0 0 0.13 0 0.68 0 0.13 -0.13 0 -22.81 0 -0.13 0 0 -0.13 0 -72.17 0 -0.13 0.13 0 22.81 0 0.13 0 0 0.13zm142.43 -6.47c-11.26,0 -20.43,9.16 -20.43,20.43l0 0.08c0,4.73 1.66,9.35 4.67,13l21.01 25.46c1.01,1.22 1.56,2.75 1.56,4.33l0 1.38c0,3.75 -3.06,6.81 -6.81,6.81 -3.75,0 -6.81,-3.06 -6.81,-6.81l0 -9.24 0 -1.7 -1.7 0 -10.21 0 -1.7 0 0 1.7 0 9.24c0,11.26 9.16,20.43 20.43,20.43 11.26,0 20.43,-9.16 20.43,-20.43l0 -0.08c0,-4.73 -1.66,-9.34 -4.66,-12.99l-21.02 -25.52c-1,-1.21 -1.55,-2.75 -1.55,-4.33l0 -1.34c0,-3.75 3.06,-6.81 6.81,-6.81 3.75,0 6.81,3.05 6.81,6.81l0 9.23 0 1.7 1.7 0 10.21 0 1.7 0 0 -1.7 0 -9.23c0,-11.26 -9.16,-20.43 -20.43,-20.43zm14.09 24.89l0 0.13 -0.13 0 -0.68 0 -0.13 0 0 -0.13 0 -4.47c0,-7.25 -5.9,-13.15 -13.15,-13.15 -6.87,0 -12.63,5.36 -13.11,12.22 -0.03,0.36 -0.07,1.01 -0.07,1.32 -0,0 -0.02,0.27 0.04,1.2 0.3,3.25 1.36,5.83 3.25,7.89l21.02 25.52c1.96,2.38 2.95,5.43 2.95,9.08l0 0.08 0 0.02 0 0.08c0,0.07 0,0.14 -0,0.2l0 0.1 0 -0c-0.16,7.63 -6.42,13.78 -14.08,13.78 -7.77,0 -14.09,-6.32 -14.09,-14.09l0 -4.47 0 -0.13 0.13 0 0.68 0 0.13 0 0 0.13 0 4.47c0,7.25 5.9,13.15 13.15,13.15 7.25,0 13.15,-5.9 13.15,-13.15l0 -1.38c0,-0.18 -0.01,-0.36 -0.01,-0.54l-0 -0.06c-0.15,-2.52 -1.31,-5.21 -3.25,-7.56l-21.01 -25.46c-1.56,-1.89 -2.47,-4.26 -2.85,-7.46l-0.01 -0.14 0 0c-0.06,-0.53 -0.09,-1.06 -0.09,-1.58l0 -0.08c0,-7.77 6.32,-14.09 14.09,-14.09 7.77,0 14.09,6.32 14.09,14.09l0 4.47z"/>
  </g>
 </g>
</svg>
