<?xml version="1.0" encoding="UTF-8"?>
<!DOCTYPE svg PUBLIC "-//W3C//DTD SVG 1.1//EN" "http://www.w3.org/Graphics/SVG/1.1/DTD/svg11.dtd">
<!-- Creator: CorelDRAW -->
<svg xmlns="http://www.w3.org/2000/svg" xml:space="preserve" width="99.4891mm" height="42.0657mm" version="1.1" style="shape-rendering:geometricPrecision; text-rendering:geometricPrecision; image-rendering:optimizeQuality; fill-rule:evenodd; clip-rule:evenodd"
viewBox="0 0 233.57 98.76"
 xmlns:xlink="http://www.w3.org/1999/xlink"
 xmlns:xodm="http://www.corel.com/coreldraw/odm/2003">
 <defs>
  <style type="text/css">
   <![CDATA[
    .fil0 {fill:#528297}
    .fil4 {fill:#FEFEFE;fill-rule:nonzero}
    .fil3 {fill:#D5838F;fill-rule:nonzero}
    .fil2 {fill:#8BB4CA;fill-rule:nonzero}
    .fil1 {fill:#528297;fill-rule:nonzero}
   ]]>
  </style>
 </defs>
 <g id="Camada_x0020_1">
  <metadata id="CorelCorpID_0Corel-Layer"/>
  <g id="_1675826147984">
   <g>
    <rect class="fil0" x="172.42" y="7.69" width="54.74" height="1.63"/>
    <rect class="fil0" x="-0" y="7.69" width="54.15" height="1.63"/>
    <path class="fil1" d="M66.79 17.13c4.5,0 7.07,-2.3 7.07,-5.7 0,-3.79 -3.23,-4.45 -5.26,-4.84 -3.21,-0.61 -4.06,-0.83 -4.06,-1.39 0,-0.49 0.71,-0.83 2.01,-0.83 1.71,0 3.72,0.76 4.75,1.32l1.93 -3.5c-1.03,-0.93 -3.5,-2.18 -6.46,-2.18 -4.36,0 -7.07,2.47 -7.07,5.75 0,3.3 2.74,4.31 5.26,4.8 2.08,0.39 3.89,0.56 3.89,1.37 0,0.47 -0.59,0.83 -1.93,0.83 -2.13,0 -4.5,-0.98 -5.7,-1.71l-1.81 3.89c1.27,0.95 4.16,2.2 7.39,2.2zm22.67 -0.1l4.36 -6.7 0 6.22 5.63 0 0 -16.08 -5.26 0 -4.72 7.9 -4.72 -7.9 -5.26 0 0 16.08 5.63 0 0 -6.22 4.36 6.7zm14.37 -0.49l6.21 0 0.78 -1.93 6.95 0 0.78 1.93 6.22 0 -7.19 -16.08 -6.56 0 -7.19 16.08zm8.78 -6.34l1.66 -4.18 0.05 0 1.66 4.18 -3.38 0zm31.18 6.8c2.47,0 4.26,-1.03 4.92,-1.81l-2.01 -3.69c-0.32,0.37 -1.2,0.86 -2.47,0.86 -0.88,0 -2.06,-0.22 -2.94,-1.15 2.96,0 5.77,-1.25 5.77,-4.89 0,-3.21 -2.15,-5.85 -6.09,-5.85l-11.33 0 0 16.08 5.63 0 0 -4.77c3.21,3.79 5.46,5.24 8.51,5.24zm-8.51 -9.18l0 -2.94 4.6 0c1,0 1.59,0.69 1.59,1.47 0,0.78 -0.59,1.47 -1.59,1.47l-4.6 0zm21.64 8.71l5.38 0 0 -11.18 5.46 0 0 -4.89 -16.3 0 0 4.89 5.46 0 0 11.18z"/>
   </g>
   <g>
    <path class="fil2" d="M17.03 84.58c-0.08,-0.02 -0.16,-0.03 -0.24,-0.05 -0.08,-0.37 -0.13,-0.75 -0.13,-1.15l0 -6.95 0 -1.28 -0.04 0 0 -0.04 -0.04 0 0 -0.04 -0.04 0 0 -0.04 -0.04 0 0 -0.04 -0.04 0 0 -0.04 -0.04 0 0 -0.04 -0.04 0 0 -0.04 -0.04 0 0 -0.04 -0.04 0 0 -0.04 -0.04 0 0 -0.04 -0.04 0 0 -0.04 -0.04 0 0 -0.04 -0.04 0 0 -0.04 -0.04 0 0 -0.04 -0.04 0 0 -0.04 -0.04 0 0 -0.04 -0.04 0 0 -0.04 -0.04 0 0 -0.04 -0.04 0 0 -0.04 -0.04 0 0 -0.04 -0.04 0 0 -0.04 -0.04 0 0 -0.04 -0.04 0 0 -0.04 -0.04 0 0 -0.04 -0.04 0 0 -0.04 -0.04 0 0 -0.04 -0.04 0 0 -0.04 -0.04 0 0 -0.04 -0.04 0 0 -0.04 -0.04 0 0 -0.04 -0.04 0 0 -0.04 -0.04 0 0 -0.04 -0.04 0 0 -0.04 -0.04 0 0 -0.04 -0.04 0 0 -0.04 -0.04 0 0 -0.04 -0.04 0 0 -0.04 -0.04 0 0 -0.04 -0.04 0 0 -0.04 -0.04 0 0 -0.04 -0.04 0 0 -0.04 -0.04 0 0 -0.04 -0.04 0 0 -0.04 -0.04 0 0 -0.04 -0.04 0 0 -0.04 -0.04 0 0 -0.04 -0.04 0 0 -0.04 -0.04 0 0 -0.04 -0.04 0 0 -0.04 -0.04 0 0 -0.04 -0.04 0 0 -0.04 -0.04 0 0 -0.04 -0.04 0 0 -0.04 -0.04 0 0 -0.04 -0.04 0 0 -0.04 -0.04 0 0 -0.04 -0.04 0 0 -0.04 -0.04 0 0 -0.04 -0.04 0 0 -0.04 -0.04 0 0 -0.04 -0.04 0 0 -0.04 -0.04 0 0 -0.04 -0.04 0 0 -0.04 -0.04 0 0 -0.04 -0.04 0 0 -0.04 -0.04 0 0 -0.04 -0.04 0 0 -0.04 -0.04 0 0 -0.04 -0.04 0 0 -0.04 -0.04 0 0 -0.04 -0.04 0 0 -0.04 -0.04 0 0 -0.04 -0.04 0 0 -0.04 -0.04 0 0 -0.04 -0.04 0 0 -0.04 -0.04 0 0 -0.04 -0.04 0 0 -0.04 -0.04 0 0 -0.04 -0.04 0 0 -0.04 -0.04 0 0 -0.04 -0.04 0 0 -0.04 -0.04 0 0 -0.04 -0.04 0 0 -0.04 -0.04 0 0 -0.04 -0.04 0 0 -0.04 -0.04 0 0 -0.04 -0.04 0 0 -0.04 -0.04 0 0 -0.04 -0.04 0 0 -0.04 -0.04 0 0 -0.04 -0.04 0 0 -0.04 -0.04 0 0 -0.04 -0.04 0 0 -0.04 -0.04 0 0 -0.04 -0.04 0 0 -0.04 -0.04 0 0 -0.04 -0.04 0 0 -0.04 -0.04 0 0 -0.04 -0.04 0 0 -0.04 -0.04 0 0 -0.04 -0.04 0 0 -0.04 0 1.28 0 6.95c0,2.52 1.83,4.61 4.22,5.04zm15.6 -45.39c-0.01,-0.01 -0.02,-0.02 -0.04,-0.04 -0.01,-0.01 -0.03,-0.02 -0.04,-0.04 -0.01,-0.01 -0.02,-0.03 -0.04,-0.04 -0.01,-0.01 -0.02,-0.03 -0.04,-0.04 -0.01,-0.01 -0.03,-0.03 -0.04,-0.04 -0.01,-0.01 -0.02,-0.03 -0.04,-0.04 -0.01,-0.01 -0.02,-0.03 -0.04,-0.04 -0.01,-0.01 -0.02,-0.03 -0.04,-0.04 -0.01,-0.01 -0.03,-0.02 -0.04,-0.04 -0.01,-0.01 -0.03,-0.03 -0.04,-0.04 -0.01,-0.01 -0.03,-0.03 -0.04,-0.04 -0.01,-0.01 -0.03,-0.02 -0.04,-0.04 -0.01,-0.01 -0.03,-0.02 -0.04,-0.04 -0.01,-0.01 -0.02,-0.03 -0.04,-0.04 -0.01,-0.01 -0.02,-0.02 -0.04,-0.04 -0.01,-0.01 -0.03,-0.02 -0.04,-0.04 -0.01,-0.01 -0.03,-0.03 -0.04,-0.04 -0.01,-0.01 -0.03,-0.03 -0.04,-0.04 -0.01,-0.01 -0.03,-0.02 -0.04,-0.04 -0.01,-0.01 -0.02,-0.02 -0.04,-0.04 -0.01,-0.01 -0.02,-0.03 -0.04,-0.04 -0.01,-0.01 -0.03,-0.02 -0.04,-0.04 -0.01,-0.01 -0.03,-0.03 -0.04,-0.04 -0.01,-0.01 -0.02,-0.02 -0.04,-0.04 -0.01,-0.01 -0.02,-0.03 -0.04,-0.04 -0.01,-0.01 -0.02,-0.02 -0.04,-0.04 -0.01,-0.01 -0.03,-0.02 -0.04,-0.04 -0.01,-0.01 -0.02,-0.03 -0.04,-0.04 -0.01,-0.01 -0.03,-0.03 -0.04,-0.04 -0.01,-0.01 -0.03,-0.03 -0.04,-0.04 -0.01,-0.01 -0.02,-0.03 -0.04,-0.04 -0.01,-0.01 -0.02,-0.03 -0.04,-0.04 -0.01,-0.01 -0.03,-0.02 -0.04,-0.04 -0.01,-0.01 -0.03,-0.02 -0.04,-0.04 -0.01,-0.01 -0.03,-0.03 -0.04,-0.04 -0.01,-0.01 -0.03,-0.03 -0.04,-0.04 -0.01,-0.01 -0.02,-0.02 -0.04,-0.04 -0.01,-0.01 -0.02,-0.03 -0.04,-0.04 -0.01,-0.01 -0.03,-0.02 -0.04,-0.04 -0.01,-0.01 -0.03,-0.02 -0.04,-0.04 -0.01,-0.01 -0.03,-0.02 -0.04,-0.04 -0.01,-0.01 -0.02,-0.03 -0.04,-0.04 -0.01,-0.01 -0.03,-0.02 -0.04,-0.04 -0.01,-0.01 -0.03,-0.02 -0.04,-0.04 -0.01,-0.01 -0.02,-0.02 -0.04,-0.04 -0.01,-0.01 -0.02,-0.03 -0.04,-0.04 -0.01,-0.01 -0.03,-0.02 -0.04,-0.04 -0.01,-0.01 -0.02,-0.02 -0.04,-0.04 -0.01,-0.01 -0.02,-0.03 -0.04,-0.04 -0.01,-0.01 -0.03,-0.02 -0.04,-0.04 -0.01,-0.01 -0.03,-0.03 -0.04,-0.04 -0.01,-0.01 -0.02,-0.03 -0.04,-0.04 -0.01,-0.01 -0.03,-0.03 -0.04,-0.04 -0.01,-0.01 -0.03,-0.03 -0.04,-0.04 -0.01,-0.01 -0.02,-0.03 -0.04,-0.04 -0.01,-0.01 -0.02,-0.03 -0.04,-0.04 -0.01,-0.01 -0.02,-0.03 -0.04,-0.04 -0.01,-0.01 -0.03,-0.02 -0.04,-0.04 -0.01,-0.01 -0.02,-0.02 -0.04,-0.04 -0.01,-0.01 -0.03,-0.03 -0.04,-0.04 -0.01,-0.01 -0.03,-0.02 -0.04,-0.04 -0.01,-0.01 -0.02,-0.02 -0.04,-0.04 -0.01,-0.01 -0.02,-0.03 -0.04,-0.04 -0.01,-0.01 -0.02,-0.02 -0.04,-0.04 -0.01,-0.01 -0.03,-0.02 -0.04,-0.04 -0.01,-0.01 -0.03,-0.03 -0.04,-0.04 -0.01,-0.01 -0.03,-0.02 -0.04,-0.04 -0.01,-0.01 -0.03,-0.03 -0.04,-0.04 -0.01,-0.01 -0.02,-0.03 -0.04,-0.04 -0.01,-0.01 -0.02,-0.03 -0.04,-0.04 -0.01,-0.01 -0.03,-0.03 -0.04,-0.04 -0.01,-0.01 -0.03,-0.03 -0.04,-0.04 -0.01,-0.01 -0.02,-0.02 -0.04,-0.04 -0.01,-0.01 -0.02,-0.03 -0.04,-0.04 -0.01,-0.01 -0.03,-0.02 -0.04,-0.04 -0.01,-0.01 -0.02,-0.02 -0.04,-0.04 -0.01,-0.01 -0.02,-0.03 -0.04,-0.04 -0.01,-0.01 -0.03,-0.03 -0.04,-0.04 -0.01,-0.01 -0.03,-0.02 -0.04,-0.04 -0.01,-0.01 -0.02,-0.03 -0.04,-0.04 -0.01,-0.01 -0.02,-0.03 -0.04,-0.04 -0.01,-0.01 -0.03,-0.02 -0.04,-0.04 -0.01,-0.01 -0.03,-0.03 -0.04,-0.04 -0.01,-0.01 -0.03,-0.03 -0.04,-0.04 -0.01,-0.01 -0.03,-0.03 -0.04,-0.04 -0.01,-0.01 -0.02,-0.02 -0.04,-0.04 -0.01,-0.01 -0.02,-0.02 -0.04,-0.04 -0.01,-0.01 -0.02,-0.02 -0.04,-0.04 -0.01,-0.01 -0.03,-0.02 -0.04,-0.04 -0.01,-0.01 -0.03,-0.03 -0.04,-0.04 -0.01,-0.01 -0.03,-0.03 -0.04,-0.04 -0.01,-0.01 -0.03,-0.02 -0.04,-0.04 -0.01,-0.01 -0.02,-0.02 -0.04,-0.04 -0.01,-0.01 -0.02,-0.03 -0.04,-0.04 -0.01,-0.01 -0.03,-0.03 -0.04,-0.04 -0.01,-0.01 -0.03,-0.03 -0.04,-0.04 -0.01,-0.01 -0.02,-0.03 -0.04,-0.04 -0.01,-0.01 -0.02,-0.03 -0.04,-0.04 -0.01,-0.01 -0.03,-0.02 -0.04,-0.04 -0.01,-0.01 -0.03,-0.02 -0.04,-0.04 2.77,2.78 4.49,6.62 4.49,10.85l0 6.95 0 1.28 -1.28 0 -7.69 0 -1.24 0 0 0.04 0.04 0 0 0.04 0.04 0 0 0.04 0.04 0 0 0.04 0.04 0 0 0.04 0.04 0 0 0.04 0.04 0 0 0.04 0.04 0 0 0.04 0.04 0 0 0.04 0.04 0 0 0.04 0.04 0 0 0.04 0.04 0 0 0.04 0.04 0 0 0.04 0.04 0 0 0.04 0.04 0 0 0.04 0.04 0 0 0.04 0.04 0 0 0.04 0.04 0 0 0.04 0.04 0 0 0.04 0.04 0 0 0.04 0.04 0 0 0.04 0.04 0 0 0.04 0.04 0 0 0.04 0.04 0 0 0.04 0.04 0 0 0.04 0.04 0 0 0.04 0.04 0 0 0.04 0.04 0 0 0.04 0.04 0 0 0.04 0.04 0 0 0.04 0.04 0 0 0.04 0.04 0 0 0.04 0.04 0 0 0.04 0.04 0 0 0.04 0.04 0 0 0.04 0.04 0 0 0.04 0.04 0 0 0.04 0.04 0 0 0.04 0.04 0 0 0.04 0.04 0 0 0.04 0.04 0 0 0.04 0.04 0 0 0.04 0.04 0 0 0.04 0.04 0 0 0.04 0.04 0 0 0.04 0.04 0 0 0.04 0.04 0 0 0.04 0.04 0 0 0.04 0.04 0 0 0.04 0.04 0 0 0.04 0.04 0 0 0.04 0.04 0 0 0.04 0.04 0 0 0.04 0.04 0 0 0.04 0.04 0 0 0.04 0.04 0 0 0.04 0.04 0 0 0.04 0.04 0 0 0.04 0.04 0 0 0.04 0.04 0 0 0.04 0.04 0 0 0.04 0.04 0 0 0.04 0.04 0 0 0.04 0.04 0 0 0.04 0.04 0 0 0.04 0.04 0 0 0.04 0.04 0 0 0.04 0.04 0 0 0.04 0.04 0 0 0.04 0.04 0 0 0.04 0.04 0 0 0.04 0.04 0 0 0.04 0.04 0 0 0.04 0.04 0 0 0.04 0.04 0 0 0.04 0.04 0 0 0.04 0.04 0 0 0.04 0.04 0 0 0.04 0.04 0 0 0.04 0.04 0 0 0.04 0.04 0 0 0.04 0.04 0 0 0.04 0.04 0 0 0.04 0.04 0 0 0.04 0.04 0 0 0.04 0.04 0 0 0.04 0.04 0 0 0.04 0.04 0 0 0.04 0.04 0 0 0.04 0.04 0 0 0.04 0.04 0 0 0.04 0.04 0 0 0.04 0.04 0 0 0.04 0.04 0 0 0.04 0.04 0 0 0.04 0.04 0 0 0.04 0.04 0 0 0.04 0.04 0 0 0.04 0.04 0 0 0.04 0.04 0 0 0.04 0.04 0 0 0.04 1.28 0 7.69 0 1.28 0 0 -1.28 0 -6.95c0,-4.25 -1.73,-8.1 -4.53,-10.89zm-14.8 15.15c-0.75,-0.92 -1.17,-2.07 -1.17,-3.26l0 -1.01c0,-2.83 2.3,-5.12 5.12,-5.12 0.4,0 0.78,0.05 1.15,0.13 -0.52,-2.27 -2.56,-3.98 -4.99,-3.98 -2.83,0 -5.12,2.3 -5.12,5.13l0 1.01c0,1.19 0.41,2.34 1.17,3.26l15.82 19.21c2.26,2.75 3.51,6.22 3.51,9.77l0 0.06c0,8.48 -6.9,15.38 -15.37,15.38 -4.23,0 -8.06,-1.72 -10.85,-4.49 0.01,0.01 0.03,0.02 0.04,0.04 0.01,0.01 0.02,0.03 0.04,0.04 0.01,0.01 0.02,0.03 0.04,0.04 0.01,0.01 0.03,0.02 0.04,0.04 0.01,0.01 0.02,0.02 0.04,0.04 0.01,0.01 0.02,0.03 0.04,0.04 0.01,0.01 0.02,0.03 0.04,0.04 0.01,0.01 0.03,0.02 0.04,0.04 0.01,0.01 0.03,0.02 0.04,0.04 0.01,0.01 0.03,0.03 0.04,0.04 0.01,0.01 0.03,0.02 0.04,0.04 0.01,0.01 0.02,0.03 0.04,0.04 0.01,0.01 0.02,0.03 0.04,0.04 0.01,0.01 0.02,0.03 0.04,0.04l0.04 0.04c0.01,0.01 0.03,0.03 0.04,0.04 0.01,0.01 0.03,0.03 0.04,0.04 0.01,0.01 0.03,0.02 0.04,0.04 0.01,0.01 0.03,0.03 0.04,0.04 0.01,0.01 0.02,0.03 0.04,0.04 0.01,0.01 0.02,0.02 0.04,0.04 0.01,0.01 0.03,0.02 0.04,0.04 0.01,0.01 0.02,0.03 0.04,0.04 0.01,0.01 0.02,0.03 0.04,0.04 0.01,0.01 0.03,0.03 0.04,0.04 0.01,0.01 0.03,0.03 0.04,0.04 0.01,0.01 0.02,0.03 0.04,0.04 0.01,0.01 0.03,0.03 0.04,0.04 0.01,0.01 0.03,0.03 0.04,0.04 0.01,0.01 0.03,0.02 0.04,0.04 0.01,0.01 0.02,0.03 0.04,0.04 0.01,0.01 0.02,0.03 0.04,0.04 0.01,0.01 0.03,0.03 0.04,0.04 0.01,0.01 0.03,0.03 0.04,0.04 0.01,0.01 0.03,0.03 0.04,0.04 0.01,0.01 0.03,0.02 0.04,0.04 0.01,0.01 0.02,0.02 0.04,0.04 0.01,0.01 0.02,0.03 0.04,0.04 0.01,0.01 0.03,0.02 0.04,0.04 0.01,0.01 0.03,0.02 0.04,0.04 0.01,0.01 0.03,0.03 0.04,0.04 0.01,0.01 0.03,0.03 0.04,0.04 0.01,0.01 0.02,0.02 0.04,0.04 0.01,0.01 0.02,0.03 0.04,0.04 0.01,0.01 0.02,0.03 0.04,0.04 0.01,0.01 0.03,0.03 0.04,0.04 0.01,0.01 0.03,0.02 0.04,0.04 0.01,0.01 0.03,0.03 0.04,0.04 0.01,0.01 0.02,0.03 0.04,0.04 0.01,0.01 0.03,0.03 0.04,0.04 0.01,0.01 0.02,0.03 0.04,0.04 0.01,0.01 0.03,0.03 0.04,0.04 0.01,0.01 0.03,0.02 0.04,0.04 0.01,0.01 0.02,0.02 0.04,0.04 0.01,0.01 0.02,0.03 0.04,0.04 0.01,0.01 0.03,0.03 0.04,0.04 0.01,0.01 0.03,0.03 0.04,0.04l0.04 0.04c0.01,0.01 0.03,0.03 0.04,0.04 0.01,0.01 0.03,0.02 0.04,0.04 0.01,0.01 0.03,0.02 0.04,0.04 0.01,0.01 0.02,0.03 0.04,0.04 0.01,0.01 0.02,0.03 0.04,0.04 0.01,0.01 0.03,0.02 0.04,0.04 0.01,0.01 0.03,0.02 0.04,0.04 0.01,0.01 0.02,0.03 0.04,0.04 0.01,0.01 0.03,0.02 0.04,0.04 0.01,0.01 0.02,0.03 0.04,0.04 0.01,0.01 0.02,0.03 0.04,0.04 0.01,0.01 0.02,0.02 0.04,0.04 0.01,0.01 0.03,0.02 0.04,0.04 0.01,0.01 0.02,0.03 0.04,0.04 0.01,0.01 0.02,0.03 0.04,0.04 0.01,0.01 0.03,0.03 0.04,0.04 0.01,0.01 0.02,0.03 0.04,0.04 0.01,0.01 0.02,0.03 0.04,0.04 0.01,0.01 0.03,0.03 0.04,0.04 0.01,0.01 0.03,0.02 0.04,0.04 0.01,0.01 0.02,0.02 0.04,0.04 0.01,0.01 0.02,0.03 0.04,0.04 0.01,0.01 0.02,0.02 0.04,0.04 0.01,0.01 0.03,0.02 0.04,0.04 0.01,0.01 0.03,0.03 0.04,0.04 0.01,0.01 0.03,0.02 0.04,0.04 0.01,0.01 0.03,0.03 0.04,0.04 0.01,0.01 0.02,0.03 0.04,0.04 0.01,0.01 0.03,0.03 0.04,0.04 0.01,0.01 0.03,0.02 0.04,0.04 0.01,0.01 0.03,0.03 0.04,0.04 0.01,0.01 0.03,0.03 0.04,0.04 0.01,0.01 0.03,0.03 0.04,0.04 0.01,0.01 0.02,0.03 0.04,0.04 0.01,0.01 0.02,0.03 0.04,0.04 0.01,0.01 0.03,0.03 0.04,0.04 0.01,0.01 0.03,0.02 0.04,0.04 0.01,0.01 0.02,0.02 0.04,0.04 0.01,0.01 0.02,0.03 0.04,0.04 0.01,0.01 0.03,0.03 0.04,0.04 0.01,0.01 0.03,0.02 0.04,0.04 0.01,0.01 0.02,0.03 0.04,0.04 2.78,2.8 6.63,4.53 10.88,4.53 8.48,0 15.37,-6.9 15.37,-15.38l0 -0.06c0,-3.56 -1.24,-7.03 -3.51,-9.78l-15.82 -19.21z"/>
    <path class="fil3" d="M15.37 28.28c-8.48,0 -15.37,6.9 -15.37,15.38l0 0.06c0,3.56 1.25,7.04 3.51,9.79l15.81 19.17c0.76,0.92 1.17,2.07 1.17,3.26l0 1.04c0,2.83 -2.3,5.13 -5.13,5.13 -2.83,0 -5.13,-2.3 -5.13,-5.13l0 -6.95 0 -1.28 -1.28 0 -7.69 0 -1.28 0 0 1.28 0 6.95c0,8.48 6.9,15.38 15.37,15.38 8.48,0 15.37,-6.9 15.37,-15.38l0 -0.06c0,-3.56 -1.25,-7.03 -3.51,-9.77l-15.82 -19.21c-0.75,-0.91 -1.17,-2.07 -1.17,-3.26l0 -1.01c0,-2.83 2.3,-5.13 5.13,-5.13 2.83,0 5.13,2.3 5.13,5.13l0 6.95 0 1.28 1.28 0 7.69 0 1.28 0 0 -1.28 0 -6.95c0,-8.48 -6.9,-15.38 -15.37,-15.38z"/>
    <path class="fil4" d="M25.98 47.02l0 0.1 -0.1 0 -0.51 0 -0.1 0 0 -0.1 0 -3.36c0,-5.46 -4.44,-9.9 -9.9,-9.9 -5.17,0 -9.51,4.04 -9.87,9.2 -0.02,0.27 -0.05,0.76 -0.05,0.99 -0,0 -0.01,0.2 0.03,0.9 0.22,2.45 1.02,4.39 2.45,5.94l15.82 19.21c1.47,1.79 2.22,4.09 2.22,6.83l0 0.06 0 0.01 0 0.06c0,0.05 0,0.1 -0,0.15l0 0.08 0 -0c-0.12,5.74 -4.83,10.37 -10.6,10.37 -5.85,0 -10.6,-4.76 -10.6,-10.6l0 -3.36 0 -0.1 0.1 0 0.51 0 0.1 0 0 0.1 0 3.36c0,5.46 4.44,9.9 9.9,9.9 5.46,0 9.9,-4.44 9.9,-9.9l0 -1.04c0,-0.14 -0.01,-0.27 -0.01,-0.4l-0 -0.04c-0.12,-1.9 -0.98,-3.92 -2.45,-5.69l-15.81 -19.17c-1.17,-1.42 -1.86,-3.21 -2.15,-5.61l-0.01 -0.11 0 0c-0.05,-0.4 -0.07,-0.8 -0.07,-1.19l0 -0.06c0,-5.85 4.76,-10.6 10.6,-10.6 5.85,0 10.6,4.75 10.6,10.6l0 3.36z"/>
   </g>
   <g>
    <path class="fil2" d="M63.43 68l-10.25 0 0 25.62 0 1.28 -1.28 0 -7.69 0 -1.24 0 0 0.04 0.04 0 0 0.04 0.04 0 0 0.04 0.04 0 0 0.04 0.04 0 0 0.04 0.04 0 0 0.04 0.04 0 0 0.04 0.04 0 0 0.04 0.04 0 0 0.04 0.04 0 0 0.04 0.04 0 0 0.04 0.04 0 0 0.04 0.04 0 0 0.04 0.04 0 0 0.04 0.04 0 0 0.04 0.04 0 0 0.04 0.04 0 0 0.04 0.04 0 0 0.04 0.04 0 0 0.04 0.04 0 0 0.04 0.04 0 0 0.04 0.04 0 0 0.04 0.04 0 0 0.04 0.04 0 0 0.04 0.04 0 0 0.04 0.04 0 0 0.04 0.04 0 0 0.04 0.04 0 0 0.04 0.04 0 0 0.04 0.04 0 0 0.04 0.04 0 0 0.04 0.04 0 0 0.04 0.04 0 0 0.04 0.04 0 0 0.04 0.04 0 0 0.04 0.04 0 0 0.04 0.04 0 0 0.04 0.04 0 0 0.04 0.04 0 0 0.04 0.04 0 0 0.04 0.04 0 0 0.04 0.04 0 0 0.04 0.04 0 0 0.04 0.04 0 0 0.04 0.04 0 0 0.04 0.04 0 0 0.04 0.04 0 0 0.04 0.04 0 0 0.04 0.04 0 0 0.04 0.04 0 0 0.04 0.04 0 0 0.04 0.04 0 0 0.04 0.04 0 0 0.04 0.04 0 0 0.04 0.04 0 0 0.04 0.04 0 0 0.04 0.04 0 0 0.04 0.04 0 0 0.04 0.04 0 0 0.04 0.04 0 0 0.04 0.04 0 0 0.04 0.04 0 0 0.04 0.04 0 0 0.04 0.04 0 0 0.04 0.04 0 0 0.04 0.04 0 0 0.04 0.04 0 0 0.04 0.04 0 0 0.04 0.04 0 0 0.04 0.04 0 0 0.04 0.04 0 0 0.04 0.04 0 0 0.04 0.04 0 0 0.04 0.04 0 0 0.04 0.04 0 0 0.04 0.04 0 0 0.04 0.04 0 0 0.04 0.04 0 0 0.04 0.04 0 0 0.04 0.04 0 0 0.04 0.04 0 0 0.04 0.04 0 0 0.04 0.04 0 0 0.04 0.04 0 0 0.04 0.04 0 0 0.04 0.04 0 0 0.04 0.04 0 0 0.04 0.04 0 0 0.04 0.04 0 0 0.04 0.04 0 0 0.04 0.04 0 0 0.04 0.04 0 0 0.04 0.04 0 0 0.04 0.04 0 0 0.04 0.04 0 0 0.04 0.04 0 0 0.04 0.04 0 0 0.04 0.04 0 0 0.04 0.04 0 0 0.04 0.04 0 0 0.04 0.04 0 0 0.04 1.28 0 7.69 0 1.28 0 0 -1.28 0 -25.62 6.4 0 0 -3.85zm14.06 -33.31l0 -0.04 -0.04 0 0 -0.04 -0.04 0 0 -0.04 -0.04 0 0 -0.04 -0.04 0 0 -0.04 -0.04 0 0 -0.04 -0.04 0 0 -0.04 -0.04 0 0 -0.04 -0.04 0 0 -0.04 -0.04 0 0 -0.04 -0.04 0 0 -0.04 -0.04 0 0 -0.04 -0.04 0 0 -0.04 -0.04 0 0 -0.04 -0.04 0 0 -0.04 -0.04 0 0 -0.04 -0.04 0 0 -0.04 -0.04 0 0 -0.04 -0.04 0 0 -0.04 -0.04 0 0 -0.04 -0.04 0 0 -0.04 -0.04 0 0 -0.04 -0.04 0 0 -0.04 -0.04 0 0 -0.04 -0.04 0 0 -0.04 -0.04 0 0 -0.04 -0.04 0 0 -0.04 -0.04 0 0 -0.04 -0.04 0 0 -0.04 -0.04 0 0 -0.04 -0.04 0 0 -0.04 -0.04 0 0 -0.04 -0.04 0 0 -0.04 -0.04 0 0 -0.04 -0.04 0 0 -0.04 -0.04 0 0 -0.04 -0.04 0 0 -0.04 -0.04 0 0 -0.04 -0.04 0 0 -0.04 -0.04 0 0 -0.04 -0.04 0 0 -0.04 -0.04 0 0 -0.04 -0.04 0 0 -0.04 -0.04 0 0 -0.04 -0.04 0 0 -0.04 -0.04 0 0 -0.04 -0.04 0 0 -0.04 -0.04 0 0 -0.04 -0.04 0 0 -0.04 -0.04 0 0 -0.04 -0.04 0 0 -0.04 -0.04 0 0 -0.04 -0.04 0 0 -0.04 -0.04 0 0 -0.04 -0.04 0 0 -0.04 -0.04 0 0 -0.04 -0.04 0 0 -0.04 -0.04 0 0 -0.04 -0.04 0 0 -0.04 -0.04 0 0 -0.04 -0.04 0 0 -0.04 -0.04 0 0 -0.04 -0.04 0 0 -0.04 -0.04 0 0 -0.04 -0.04 0 0 -0.04 -0.04 0 0 -0.04 -0.04 0 0 -0.04 -0.04 0 0 -0.04 -0.04 0 0 -0.04 -0.04 0 0 -0.04 -0.04 0 0 -0.04 -0.04 0 0 -0.04 -0.04 0 0 -0.04 -0.04 0 0 -0.04 -0.04 0 0 -0.04 -0.04 0 0 -0.04 -0.04 0 0 -0.04 -0.04 0 0 -0.04 -0.04 0 0 -0.04 -0.04 0 0 -0.04 -0.04 0 0 -0.04 -0.04 0 0 -0.04 -0.04 0 0 -0.04 -0.04 0 0 -0.04 -0.04 0 0 -0.04 -0.04 0 0 -0.04 -0.04 0 0 -0.04 -0.04 0 0 -0.04 -0.04 0 0 -0.04 -0.04 0 0 -0.04 -0.04 0 0 -0.04 -0.04 0 0 -0.04 -0.04 0 0 -0.04 -0.04 0 0 -0.04 -0.04 0 0 -0.04 -0.04 0 0 -0.04 -0.04 0 0 -0.04 -0.04 0 0 -0.04 -0.04 0 0 -0.04 -0.04 0 0 -0.04 -0.04 0 0 -0.04 0 64.06 -10.21 0 0 0.04 0.04 0 0 0.04 0.04 0 0 0.04 0.04 0 0 0.04 0.04 0 0 0.04 0.04 0 0 0.04 0.04 0 0 0.04 0.04 0 0 0.04 0.04 0 0 0.04 0.04 0 0 0.04 0.04 0 0 0.04 0.04 0 0 0.04 0.04 0 0 0.04 0.04 0 0 0.04 0.04 0 0 0.04 0.04 0 0 0.04 0.04 0 0 0.04 0.04 0 0 0.04 0.04 0 0 0.04 0.04 0 0 0.04 0.04 0 0 0.04 0.04 0 0 0.04 0.04 0 0 0.04 0.04 0 0 0.04 0.04 0 0 0.04 0.04 0 0 0.04 0.04 0 0 0.04 0.04 0 0 0.04 0.04 0 0 0.04 0.04 0 0 0.04 0.04 0 0 0.04 0.04 0 0 0.04 0.04 0 0 0.04 0.04 0 0 0.04 0.04 0 0 0.04 0.04 0 0 0.04 0.04 0 0 0.04 0.04 0 0 0.04 0.04 0 0 0.04 0.04 0 0 0.04 0.04 0 0 0.04 0.04 0 0 0.04 0.04 0 0 0.04 0.04 0 0 0.04 0.04 0 0 0.04 0.04 0 0 0.04 0.04 0 0 0.04 0.04 0 0 0.04 0.04 0 0 0.04 0.04 0 0 0.04 0.04 0 0 0.04 0.04 0 0 0.04 0.04 0 0 0.04 0.04 0 0 0.04 0.04 0 0 0.04 0.04 0 0 0.04 0.04 0 0 0.04 0.04 0 0 0.04 0.04 0 0 0.04 0.04 0 0 0.04 0.04 0 0 0.04 0.04 0 0 0.04 0.04 0 0 0.04 0.04 0 0 0.04 0.04 0 0 0.04 0.04 0 0 0.04 0.04 0 0 0.04 0.04 0 0 0.04 0.04 0 0 0.04 0.04 0 0 0.04 0.04 0 0 0.04 0.04 0 0 0.04 0.04 0 0 0.04 0.04 0 0 0.04 0.04 0 0 0.04 0.04 0 0 0.04 0.04 0 0 0.04 0.04 0 0 0.04 0.04 0 0 0.04 0.04 0 0 0.04 0.04 0 0 0.04 0.04 0 0 0.04 0.04 0 0 0.04 0.04 0 0 0.04 0.04 0 0 0.04 0.04 0 0 0.04 0.04 0 0 0.04 0.04 0 0 0.04 0.04 0 0 0.04 0.04 0 0 0.04 0.04 0 0 0.04 0.04 0 0 0.04 0.04 0 0 0.04 0.04 0 0 0.04 0.04 0 0 0.04 0.04 0 0 0.04 0.04 0 0 0.04 0.04 0 0 0.04 0.04 0 0 0.04 0.04 0 0 0.04 0.04 0 0 0.04 10.25 0 0 -64.06 -0.04 0zm-20.46 23.06l0 -23.06 -0.04 0 0 -0.04 -0.04 0 0 -0.04 -0.04 0 0 -0.04 -0.04 0 0 -0.04 -0.04 0 0 -0.04 -0.04 0 0 -0.04 -0.04 0 0 -0.04 -0.04 0 0 -0.04 -0.04 0 0 -0.04 -0.04 0 0 -0.04 -0.04 0 0 -0.04 -0.04 0 0 -0.04 -0.04 0 0 -0.04 -0.04 0 0 -0.04 -0.04 0 0 -0.04 -0.04 0 0 -0.04 -0.04 0 0 -0.04 -0.04 0 0 -0.04 -0.04 0 0 -0.04 -0.04 0 0 -0.04 -0.04 0 0 -0.04 -0.04 0 0 -0.04 -0.04 0 0 -0.04 -0.04 0 0 -0.04 -0.04 0 0 -0.04 -0.04 0 0 -0.04 -0.04 0 0 -0.04 -0.04 0 0 -0.04 -0.04 0 0 -0.04 -0.04 0 0 -0.04 -0.04 0 0 -0.04 -0.04 0 0 -0.04 -0.04 0 0 -0.04 -0.04 0 0 -0.04 -0.04 0 0 -0.04 -0.04 0 0 -0.04 -0.04 0 0 -0.04 -0.04 0 0 -0.04 -0.04 0 0 -0.04 -0.04 0 0 -0.04 -0.04 0 0 -0.04 -0.04 0 0 -0.04 -0.04 0 0 -0.04 -0.04 0 0 -0.04 -0.04 0 0 -0.04 -0.04 0 0 -0.04 -0.04 0 0 -0.04 -0.04 0 0 -0.04 -0.04 0 0 -0.04 -0.04 0 0 -0.04 -0.04 0 0 -0.04 -0.04 0 0 -0.04 -0.04 0 0 -0.04 -0.04 0 0 -0.04 -0.04 0 0 -0.04 -0.04 0 0 -0.04 -0.04 0 0 -0.04 -0.04 0 0 -0.04 -0.04 0 0 -0.04 -0.04 0 0 -0.04 -0.04 0 0 -0.04 -0.04 0 0 -0.04 -0.04 0 0 -0.04 -0.04 0 0 -0.04 -0.04 0 0 -0.04 -0.04 0 0 -0.04 -0.04 0 0 -0.04 -0.04 0 0 -0.04 -0.04 0 0 -0.04 -0.04 0 0 -0.04 -0.04 0 0 -0.04 -0.04 0 0 -0.04 -0.04 0 0 -0.04 -0.04 0 0 -0.04 -0.04 0 0 -0.04 -0.04 0 0 -0.04 -0.04 0 0 -0.04 -0.04 0 0 -0.04 -0.04 0 0 -0.04 -0.04 0 0 -0.04 -0.04 0 0 -0.04 -0.04 0 0 -0.04 -0.04 0 0 -0.04 -0.04 0 0 -0.04 -0.04 0 0 -0.04 -0.04 0 0 -0.04 -0.04 0 0 -0.04 -0.04 0 0 -0.04 -0.04 0 0 -0.04 -0.04 0 0 -0.04 -0.04 0 0 -0.04 -0.04 0 0 -0.04 -0.04 0 0 -0.04 -0.04 0 0 -0.04 -0.04 0 0 -0.04 -0.04 0 0 -0.04 -0.04 0 0 -0.04 -0.04 0 0 -0.04 -0.04 0 0 -0.04 -0.04 0 0 -0.04 -0.04 0 0 -0.04 0 26.91 3.85 0z"/>
    <polygon class="fil3" points="69.83,28.28 62.14,28.28 60.86,28.28 60.86,29.56 60.86,55.19 50.61,55.19 50.61,29.56 50.61,28.28 49.33,28.28 41.65,28.28 40.36,28.28 40.36,29.56 40.36,91.06 40.36,92.35 41.65,92.35 49.33,92.35 50.61,92.35 50.61,91.06 50.61,65.44 60.86,65.44 60.86,91.06 60.86,92.35 62.14,92.35 69.83,92.35 71.11,92.35 71.11,91.06 71.11,29.56 71.11,28.28 "/>
    <polygon class="fil4" points="66.34,33.15 66.34,87.48 66.34,87.57 66.24,87.57 65.73,87.57 65.63,87.57 65.63,87.48 65.63,60.67 62.14,60.67 49.33,60.67 45.84,60.67 45.84,87.48 45.84,87.57 45.74,87.57 45.23,87.57 45.14,87.57 45.14,87.48 45.14,33.15 45.14,33.06 45.23,33.06 45.74,33.06 45.84,33.06 45.84,33.15 45.84,59.96 49.33,59.96 62.14,59.96 65.63,59.96 65.63,33.15 65.63,33.06 65.73,33.06 66.24,33.06 66.34,33.06 "/>
   </g>
   <g>
    <g>
     <path class="fil2" d="M95.84 75.5l4.42 0 1.2 -8.02 -2.21 -14.74 -3.42 22.76zm-13.16 19.22l-0.03 0.19 0.03 -0.19zm21.53 -8.97l-9.91 0 -1.21 8.07 -0.16 1.09 -10.23 0 -0.01 0.04 0.04 0 -0.01 0.04 0.04 0 -0 0.04 0.04 0 -0.01 0.04 0.04 0 -0.01 0.04 0.04 0 -0.01 0.04 0.04 0 -0.01 0.04 0.04 0 -0.01 0.04 0.04 0 -0.01 0.04 0.04 0 -0.01 0.04 0.04 0 -0.01 0.04 0.04 0 -0.01 0.04 0.04 0 -0 0.04 0.04 0 -0.01 0.04 0.04 0 -0 0.04 0.04 0 -0.01 0.04 0.04 0 -0.01 0.04 0.05 0 -0.01 0.04 0.04 0 -0.01 0.04 0.04 0 -0.01 0.04 0.04 0 -0 0.04 0.04 0 -0.01 0.04 0.04 0 -0.01 0.04 0.04 0 -0.01 0.04 0.04 0 -0.01 0.04 0.04 0 -0 0.04 0.04 0 -0.01 0.04 0.04 0 -0.01 0.04 0.04 0 -0.01 0.04 0.04 0 -0.01 0.04 0.04 0 -0.01 0.04 0.04 0 -0.01 0.04 0.04 0 -0.01 0.04 0.04 0 -0.01 0.04 0.04 0 -0.01 0.04 0.04 0 -0.01 0.04 0.04 0 -0.01 0.04 0.04 0 -0.01 0.04 0.04 0 -0.01 0.04 0.04 0 -0.01 0.04 0.04 0 -0.01 0.04 0.04 0 -0.01 0.04 0.04 0 -0.01 0.04 0.04 0 -0.01 0.04 0.04 0 -0 0.04 0.04 0 -0.01 0.04 0.04 0 -0.01 0.04 0.05 0 -0.01 0.04 0.04 0 -0 0.04 0.04 0 -0.01 0.04 0.04 0 -0.01 0.04 0.04 0 -0 0.04 0.04 0 -0.01 0.04 0.04 0 -0.01 0.04 0.04 0 -0.01 0.04 0.04 0 -0.01 0.04 0.04 0 -0.01 0.04 0.04 0 -0.01 0.04 0.04 0 -0.01 0.04 0.04 0 -0.01 0.04 0.04 0 -0.01 0.04 0.04 0 -0.01 0.04 0.04 0 -0.01 0.04 0.04 0 -0.01 0.04 0.04 0 -0 0.04 0.04 0 -0.01 0.04 0.04 0 -0.01 0.04 0.04 0 -0 0.04 0.04 0 -0.01 0.04 0.04 0 -0.01 0.04 0.04 0 -0.01 0.04 0.04 0 -0.01 0.04 0.04 0 -0.01 0.04 0.04 0 -0.01 0.04 0.04 0 -0 0.04 0.04 0 -0.01 0.04 0.04 0 -0.01 0.04 0.04 0 -0.01 0.04 0.04 0 -0 0.04 0.04 0 -0.01 0.04 0.04 0 -0.01 0.04 0.04 0 -0.01 0.04 0.04 0 -0.01 0.04 0.04 0 -0.01 0.04 0.04 0 -0.01 0.04 0.04 0 -0.01 0.04 0.04 0 -0.01 0.04 0.04 0 -0 0.04 0.04 0 -0.01 0.04 0.04 0 -0.01 0.04 0.04 0 -0.01 0.04 0.04 0 -0.01 0.04 0.04 0 -0.01 0.04 0.04 0 -0 0.04 0.04 0 -0 0.04 0.04 0 -0.01 0.04 0.04 0 -0.01 0.04 0.04 0 -0 0.04 0.04 0 -0.01 0.04 0.04 0 -0.01 0.04 0.04 0 -0.01 0.04 1.49 0 7.69 0 1.1 0 0.17 -1.09 1.21 -8.07 6.64 0 -0.58 -3.85zm15.28 11.54l-9.23 -61.5 -0.16 -1.09 -0.03 0 -0 -0.04 -0.03 0 -0.01 -0.04 -0.03 0 -0.01 -0.04 -0.03 0 -0.01 -0.04 -0.03 0 -0.01 -0.04 -0.03 0 -0.01 -0.04 -0.03 0 -0.01 -0.04 -0.03 0 -0.01 -0.04 -0.03 0 -0.01 -0.04 -0.03 0 -0.01 -0.04 -0.03 0 -0 -0.04 -0.03 0 -0.01 -0.04 -0.03 0 -0.01 -0.04 -0.03 0 -0.01 -0.04 -0.03 0 -0 -0.04 -0.03 0 -0.01 -0.04 -0.03 0 -0.01 -0.04 -0.03 0 -0.01 -0.04 -0.03 0 -0.01 -0.04 -0.03 0 -0.01 -0.04 -0.03 0 -0.01 -0.04 -0.03 0 -0.01 -0.04 -0.03 0 -0.01 -0.04 -0.03 0 -0 -0.04 -0.03 0 -0.01 -0.04 -0.03 0 -0.01 -0.04 -0.03 0 -0.01 -0.04 -0.03 0 -0.01 -0.04 -0.03 0 -0.01 -0.04 -0.03 0 -0 -0.04 -0.03 0 -0 -0.04 -0.03 0 -0.01 -0.04 -0.03 0 -0.01 -0.04 -0.03 0 -0 -0.04 -0.03 0 -0.01 -0.04 -0.03 0 -0.01 -0.04 -0.03 0 -0.01 -0.04 -0.03 0 -0.01 -0.04 -0.03 0 -0.01 -0.04 -0.03 0 -0.01 -0.04 -0.03 0 -0.01 -0.04 -0.03 0 -0.01 -0.04 -0.03 0 -0.01 -0.04 -0.03 0 -0.01 -0.04 -0.03 0 -0.01 -0.04 -0.03 0 -0.01 -0.04 -0.03 0 -0 -0.04 -0.03 0 -0.01 -0.04 -0.03 0 -0.01 -0.04 -0.03 0 -0.01 -0.04 -0.03 0 -0.01 -0.04 -0.03 0 -0.01 -0.04 -0.03 0 -0.01 -0.04 -0.03 0 -0.01 -0.04 -0.03 0 -0.01 -0.04 -0.03 0 -0.01 -0.04 -0.03 0 -0.01 -0.04 -0.03 0 -0.01 -0.04 -0.03 0 -0.01 -0.04 -0.03 0 -0.01 -0.04 -0.03 0 -0.01 -0.04 -0.03 0 -0.01 -0.04 -0.03 0 -0.01 -0.04 -0.03 0 -0.01 -0.04 -0.03 0 -0.01 -0.04 -0.03 0 -0.01 -0.04 -0.03 0 -0 -0.04 -0.03 0 -0.01 -0.04 -0.03 0 -0.01 -0.04 -0.03 0 -0.01 -0.04 -0.03 0 -0.01 -0.04 -0.03 0 -0.01 -0.04 -0.03 0 -0 -0.04 -0.03 0 -0.01 -0.04 -0.03 0 -0.01 -0.04 -0.03 0 -0.01 -0.04 -0.03 0 -0 -0.04 -0.03 0 -0.01 -0.04 -0.03 0 -0 -0.04 -0.03 0 -0.01 -0.04 -0.03 0 -0.01 -0.04 -0.03 0 -0.01 -0.04 -0.03 0 -0.01 -0.04 -0.03 0 -0.01 -0.04 -0.03 0 -0.01 -0.04 -0.03 0 -0 -0.04 -0.03 0 -0.01 -0.04 -0.03 0 -0.01 -0.04 -0.03 0 -0.01 -0.04 -0.03 0 -0.01 -0.04 -0.03 0 -0.01 -0.04 -0.03 0 -0.01 -0.04 -0.03 0 -0.01 -0.04 -0.03 0 -0.01 -0.04 -0.03 0 -0.01 -0.04 -0.03 0 -0 -0.04 -0.03 0 -0.01 -0.04 -0.03 0 -0.01 -0.04 -0.03 0 -0.01 -0.04 -0.03 0 -0.01 -0.04 -0.03 0 0.16 1.05 9.23 61.5 0.22 1.47 -10.25 0 0.01 0.04 0.03 0 0.01 0.04 0.03 0 0.01 0.04 0.03 0 0.01 0.04 0.03 0 0.01 0.04 0.03 0 0 0.04 0.03 0 0.01 0.04 0.03 0 0.01 0.04 0.03 0 0.01 0.04 0.03 0 0.01 0.04 0.03 0 0.01 0.04 0.03 0 0 0.04 0.03 0 0.01 0.04 0.03 0 0.01 0.04 0.03 0 0.01 0.04 0.03 0 0.01 0.04 0.03 0 0.01 0.04 0.03 0 0.01 0.04 0.03 0 0.01 0.04 0.03 0 0.01 0.04 0.03 0 0.01 0.04 0.03 0 0.01 0.04 0.03 0 0.01 0.04 0.03 0 0.01 0.04 0.03 0 0.01 0.04 0.03 0 0 0.04 0.03 0 0.01 0.04 0.03 0 0.01 0.04 0.03 0 0.01 0.04 0.03 0 0.01 0.04 0.03 0 0.01 0.04 0.03 0 0.01 0.04 0.03 0 0.01 0.04 0.03 0 0.01 0.04 0.03 0 0.01 0.04 0.03 0 0 0.04 0.03 0 0.01 0.04 0.03 0 0.01 0.04 0.03 0 0.01 0.04 0.03 0 0.01 0.04 0.03 0 0.01 0.04 0.03 0 0.01 0.04 0.03 0 0.01 0.04 0.03 0 0.01 0.04 0.03 0 0 0.04 0.03 0 0.01 0.04 0.03 0 0.01 0.04 0.03 0 0.01 0.04 0.03 0 0.01 0.04 0.03 0 0.01 0.04 0.03 0 0.01 0.04 0.03 0 0.01 0.04 0.03 0 0.01 0.04 0.03 0 0.01 0.04 0.03 0 0 0.04 0.03 0 0 0.04 0.03 0 0.01 0.04 0.03 0 0.01 0.04 0.03 0 0.01 0.04 0.03 0 0.01 0.04 0.03 0 0 0.04 0.03 0 0.01 0.04 0.03 0 0.01 0.04 0.03 0 0.01 0.04 0.03 0 0.01 0.04 0.03 0 0.01 0.04 0.03 0 0.01 0.04 0.03 0 0.01 0.04 0.03 0 0.01 0.04 0.03 0 0.01 0.04 0.03 0 0.01 0.04 0.03 0 0.01 0.04 0.03 0 0.01 0.04 0.03 0 0.01 0.04 0.03 0 0 0.04 0.03 0 0.01 0.04 0.03 0 0.01 0.04 0.03 0 0.01 0.04 0.03 0 0.01 0.04 0.03 0 0.01 0.04 0.03 0 0.01 0.04 0.03 0 0.01 0.04 0.03 0 0.01 0.04 0.03 0 0.01 0.04 0.03 0 0 0.04 0.03 0 0.01 0.04 0.03 0 0.01 0.04 0.03 0 0 0.04 0.03 0 0.01 0.04 0.03 0 0.01 0.04 0.03 0 0.01 0.04 0.03 0 0.01 0.04 0.03 0 0.01 0.04 0.03 0 0.01 0.04 0.03 0 0.01 0.04 0.03 0 0.01 0.04 0.03 0 0.01 0.04 0.03 0 0.01 0.04 0.03 0 0.01 0.04 0.03 0 0.01 0.04 0.03 0 0.01 0.04 1.1 0 7.69 0 1.49 0 -0.22 -1.47z"/>
    </g>
    <path class="fil3" d="M113.08 90.87l-9.23 -61.5 -0.16 -1.09 -13.98 0 -0.16 1.09 -9.23 61.5 -0.22 1.47 10.28 0 0.16 -1.09 1.21 -8.07 9.91 0 1.21 8.07 0.16 1.09 10.28 0 -0.22 -1.47zm-19.8 -17.94l3.42 -22.75 3.42 22.75 -6.83 0z"/>
    <path class="fil4" d="M107.11 87.6l-0.93 -6.21 -0.46 -2.95 -17.94 -0.01 -1.5 9.17 -0.68 0 0.01 -0.06 8.18 -54.51 5.81 0 0.01 0.04 8.18 54.53 -0.68 0zm-12.73 -53.81l-6.54 43.88 17.73 0 -0.55 -3.97 -5.97 -39.91 -4.68 0z"/>
   </g>
   <g>
    <path class="fil2" d="M134.13 30.89l0 1.24 0 24.33 3.85 -9.22 0 -11.26 0 -1.28 -0.04 0 0 -0.04 -0.04 0 0 -0.04 -0.04 0 0 -0.04 -0.04 0 0 -0.04 -0.04 0 0 -0.04 -0.04 0 0 -0.04 -0.04 0 0 -0.04 -0.04 0 0 -0.04 -0.04 0 0 -0.04 -0.04 0 0 -0.04 -0.04 0 0 -0.04 -0.04 0 0 -0.04 -0.04 0 0 -0.04 -0.04 0 0 -0.04 -0.04 0 0 -0.04 -0.04 0 0 -0.04 -0.04 0 0 -0.04 -0.04 0 0 -0.04 -0.04 0 0 -0.04 -0.04 0 0 -0.04 -0.04 0 0 -0.04 -0.04 0 0 -0.04 -0.04 0 0 -0.04 -0.04 0 0 -0.04 -0.04 0 0 -0.04 -0.04 0 0 -0.04 -0.04 0 0 -0.04 -0.04 0 0 -0.04 -0.04 0 0 -0.04 -0.04 0 0 -0.04 -0.04 0 0 -0.04 -0.04 0 0 -0.04 -0.04 0 0 -0.04 -0.04 0 0 -0.04 -0.04 0 0 -0.04 -0.04 0 0 -0.04 -0.04 0 0 -0.04 -0.04 0 0 -0.04 -0.04 0 0 -0.04 -0.04 0 0 -0.04 -0.04 0 0 -0.04 -0.04 0 0 -0.04 -0.04 0 0 -0.04 -0.04 0 0 -0.04 -0.04 0 0 -0.04 -0.04 0 0 -0.04 -0.04 0 0 -0.04 -0.04 0 0 -0.04 -0.04 0 0 -0.04 -0.04 0 0 -0.04 -0.04 0 0 -0.04 -0.04 0 0 -0.04 -0.04 0 0 -0.04 -0.04 0 0 -0.04 -0.04 0 0 -0.04 -0.04 0 0 -0.04 -0.04 0 0 -0.04 -0.04 0 0 -0.04 -0.04 0 0 -0.04 -0.04 0 0 -0.04 -0.04 0 0 -0.04 -0.04 0 0 -0.04 -0.04 0 0 -0.04 -0.04 0 0 -0.04 -0.04 0 0 -0.04 -0.04 0 0 -0.04 -0.04 0 0 -0.04 -0.04 0 0 -0.04 -0.04 0 0 -0.04 -0.04 0 0 -0.04 -0.04 0 0 -0.04 -0.04 0 0 -0.04 -0.04 0 0 -0.04 -0.04 0 0 -0.04 -0.04 0 0 -0.04 -0.04 0 0 -0.04 -0.04 0 0 -0.04 -0.04 0 0 -0.04 -0.04 0 0 -0.04 -0.04 0 0 -0.04 -0.04 0 0 -0.04 -0.04 0 0 -0.04 -0.04 0 0 -0.04 -0.04 0 0 -0.04 -0.04 0 0 -0.04 -0.04 0 0 -0.04 -0.04 0 0 -0.04 -0.04 0 0 -0.04 -0.04 0 0 -0.04 -0.04 0 0 -0.04 -0.04 0 0 -0.04 -0.04 0 0 -0.04 -0.04 0 0 -0.04 -0.04 0 0 -0.04 -0.04 0 0 -0.04 -0.04 0 0 -0.04 -0.04 0 0 -0.04 -0.04 0 0 -0.04 -0.04 0 0 -0.04 -0.04 0 0 -0.04 -0.04 0zm11.63 35.84l12.61 -30.26 0.74 -1.77 -0.05 0 0.01 -0.04 -0.05 0 0.02 -0.04 -0.06 0 0.02 -0.04 -0.05 0 0.02 -0.04 -0.05 0 0.01 -0.04 -0.05 0 0.02 -0.04 -0.05 0 0.02 -0.04 -0.05 0 0.02 -0.04 -0.06 0 0.02 -0.04 -0.05 0 0.02 -0.04 -0.05 0 0.02 -0.04 -0.05 0 0.02 -0.04 -0.05 0 0.02 -0.04 -0.05 0 0.02 -0.04 -0.06 0 0.02 -0.04 -0.05 0 0.02 -0.04 -0.05 0 0.02 -0.04 -0.05 0 0.01 -0.04 -0.05 0 0.02 -0.04 -0.05 0 0.02 -0.04 -0.06 0 0.02 -0.04 -0.05 0 0.02 -0.04 -0.05 0 0.02 -0.04 -0.05 0 0.02 -0.04 -0.05 0 0.02 -0.04 -0.05 0 0.02 -0.04 -0.05 0 0.02 -0.04 -0.05 0 0.02 -0.04 -0.05 0 0.02 -0.04 -0.05 0 0.02 -0.04 -0.05 0 0.01 -0.04 -0.05 0 0.02 -0.04 -0.06 0 0.02 -0.04 -0.06 0 0.02 -0.04 -0.05 0 0.01 -0.04 -0.05 0 0.02 -0.04 -0.05 0 0.02 -0.04 -0.05 0 0.02 -0.04 -0.06 0 0.02 -0.04 -0.05 0 0.02 -0.04 -0.05 0 0.02 -0.04 -0.05 0 0.02 -0.04 -0.05 0 0.02 -0.04 -0.05 0 0.01 -0.04 -0.05 0 0.02 -0.04 -0.05 0 0.02 -0.04 -0.05 0 0.02 -0.04 -0.05 0 0.02 -0.04 -0.05 0 0.02 -0.04 -0.05 0 0.02 -0.04 -0.05 0 0.02 -0.04 -0.05 0 0.02 -0.04 -0.05 0 0.02 -0.04 -0.05 0 0.02 -0.04 -0.05 0 0.02 -0.04 -0.05 0 0.02 -0.04 -0.05 0 0.02 -0.04 -0.06 0 0.02 -0.04 -0.05 0 0.01 -0.04 -0.05 0 0.02 -0.04 -0.05 0 0.02 -0.04 -0.05 0 0.02 -0.04 -0.05 0 0.02 -0.04 -0.05 0 0.02 -0.04 -0.05 0 0.02 -0.04 -0.05 0 0.02 -0.04 -0.05 0 0.02 -0.04 -0.05 0 0.01 -0.04 -0.05 0 0.02 -0.04 -0.06 0 0.02 -0.04 -0.05 0 0.02 -0.04 -0.05 0 0.01 -0.04 -0.05 0 0.02 -0.04 -0.05 0 0.02 -0.04 -0.05 0 0.02 -0.04 -0.06 0 0.02 -0.04 -0.05 0 0.02 -0.04 -0.05 0 0.02 -0.04 -0.05 0 0.02 -0.04 -0.05 0 0.02 -0.04 -0.05 0 0.02 -0.04 -0.06 0 0.02 -0.04 -0.05 0 0.02 -0.04 -0.05 0 0.02 -0.04 -0.05 0 0.01 -0.04 -0.05 0 0.02 -0.04 -0.05 0 0.02 -0.04 -0.05 0 0.02 -0.04 -0.05 0 0.01 -0.04 -0.05 0 0.02 -0.04 -0.05 0 0.02 -0.04 -0.05 0 0.02 -0.04 -0.05 0 0.02 -0.04 -0.06 0 0.02 -0.04 -0.05 0 0.02 -0.04 -0.05 0 0.02 -0.04 -0.05 0 0.02 -0.04 -0.05 0 0.01 -0.04 -0.05 0 0.02 -0.04 -0.06 0 0.02 -0.04 -0.05 0 0 -0.01 -0.73 1.74 -12.61 30.26 12.61 30.26 0.74 1.78 -1.92 0 -7.69 0 -0.83 0 0.02 0.04 0.02 0 0.02 0.04 0.02 0 0.01 0.04 0.02 0 0.02 0.04 0.02 0 0.02 0.04 0.02 0 0.02 0.04 0.02 0 0.01 0.04 0.02 0 0.02 0.04 0.02 0 0.02 0.04 0.02 0 0.02 0.04 0.02 0 0.01 0.04 0.02 0 0.02 0.04 0.02 0 0.02 0.04 0.02 0 0.02 0.04 0.02 0 0.02 0.04 0.02 0 0.02 0.04 0.02 0 0.02 0.04 0.02 0 0.02 0.04 0.02 0 0.02 0.04 0.02 0 0.01 0.04 0.02 0 0.02 0.04 0.02 0 0.02 0.04 0.02 0 0.02 0.04 0.02 0 0.01 0.04 0.02 0 0.02 0.04 0.02 0 0.02 0.04 0.02 0 0.02 0.04 0.02 0 0.02 0.04 0.02 0 0.02 0.04 0.02 0 0.02 0.04 0.02 0 0.02 0.04 0.02 0 0.02 0.04 0.02 0 0.01 0.04 0.02 0 0.02 0.04 0.02 0 0.02 0.04 0.02 0 0.02 0.04 0.02 0 0.01 0.04 0.02 0 0.02 0.04 0.02 0 0.02 0.04 0.02 0 0.02 0.04 0.02 0 0.02 0.04 0.02 0 0.02 0.04 0.02 0 0.02 0.04 0.02 0 0.02 0.04 0.02 0 0.02 0.04 0.02 0 0.02 0.04 0.02 0 0.02 0.04 0.02 0 0.02 0.04 0.02 0 0.02 0.04 0.02 0 0.01 0.04 0.02 0 0.02 0.04 0.02 0 0.02 0.04 0.02 0 0.02 0.04 0.02 0 0.02 0.04 0.02 0 0.02 0.04 0.02 0 0.02 0.04 0.02 0 0.02 0.04 0.02 0 0.02 0.04 0.02 0 0.02 0.04 0.02 0 0.02 0.04 0.02 0 0.01 0.04 0.02 0 0.02 0.04 0.02 0 0.02 0.04 0.02 0 0.02 0.04 0.02 0 0.02 0.04 0.02 0 0.02 0.04 0.02 0 0.02 0.04 0.02 0 0.02 0.04 0.02 0 0.02 0.04 0.02 0 0.01 0.04 0.02 0 0.02 0.04 0.02 0 0.02 0.04 0.02 0 0.02 0.04 0.02 0 0.01 0.04 0.02 0 0.02 0.04 0.02 0 0.02 0.04 0.02 0 0.02 0.04 0.02 0 0.01 0.04 0.02 0 0.02 0.04 0.02 0 0.02 0.04 0.02 0 0.02 0.04 0.02 0 0.02 0.04 0.02 0 0.02 0.04 0.02 0 0.02 0.04 0.02 0 0.02 0.04 0.02 0 0.02 0.04 0.02 0 0.02 0.04 0.02 0 0.02 0.04 0.02 0 0.02 0.04 0.02 0 0.02 0.04 0.02 0 0.01 0.04 0.02 0 0.02 0.04 0.02 0 0.02 0.04 0.02 0 0.02 0.04 0.02 0 0.02 0.04 0.02 0 0.02 0.04 0.02 0 0.02 0.04 0.02 0 0.02 0.04 0.02 0 0.02 0.04 0.02 0 0.01 0.04 0.02 0 0.02 0.04 0.85 0 7.69 0 1.92 0 -0.74 -1.77 -12.61 -30.26zm-11.63 2.58l0 24.33 0 1.28 -1.28 0 -7.69 0 -1.24 0 0 0.04 0.04 0 0 0.04 0.04 0 0 0.04 0.04 0 0 0.04 0.04 0 0 0.04 0.04 0 0 0.04 0.04 0 0 0.04 0.04 0 0 0.04 0.04 0 0 0.04 0.04 0 0 0.04 0.04 0 0 0.04 0.04 0 0 0.04 0.04 0 0 0.04 0.04 0 0 0.04 0.04 0 0 0.04 0.04 0 0 0.04 0.04 0 0 0.04 0.04 0 0 0.04 0.04 0 0 0.04 0.04 0 0 0.04 0.04 0 0 0.04 0.04 0 0 0.04 0.04 0 0 0.04 0.04 0 0 0.04 0.04 0 0 0.04 0.04 0 0 0.04 0.04 0 0 0.04 0.04 0 0 0.04 0.04 0 0 0.04 0.04 0 0 0.04 0.04 0 0 0.04 0.04 0 0 0.04 0.04 0 0 0.04 0.04 0 0 0.04 0.04 0 0 0.04 0.04 0 0 0.04 0.04 0 0 0.04 0.04 0 0 0.04 0.04 0 0 0.04 0.04 0 0 0.04 0.04 0 0 0.04 0.04 0 0 0.04 0.04 0 0 0.04 0.04 0 0 0.04 0.04 0 0 0.04 0.04 0 0 0.04 0.04 0 0 0.04 0.04 0 0 0.04 0.04 0 0 0.04 0.04 0 0 0.04 0.04 0 0 0.04 0.04 0 0 0.04 0.04 0 0 0.04 0.04 0 0 0.04 0.04 0 0 0.04 0.04 0 0 0.04 0.04 0 0 0.04 0.04 0 0 0.04 0.04 0 0 0.04 0.04 0 0 0.04 0.04 0 0 0.04 0.04 0 0 0.04 0.04 0 0 0.04 0.04 0 0 0.04 0.04 0 0 0.04 0.04 0 0 0.04 0.04 0 0 0.04 0.04 0 0 0.04 0.04 0 0 0.04 0.04 0 0 0.04 0.04 0 0 0.04 0.04 0 0 0.04 0.04 0 0 0.04 0.04 0 0 0.04 0.04 0 0 0.04 0.04 0 0 0.04 0.04 0 0 0.04 0.04 0 0 0.04 0.04 0 0 0.04 0.04 0 0 0.04 0.04 0 0 0.04 0.04 0 0 0.04 0.04 0 0 0.04 0.04 0 0 0.04 0.04 0 0 0.04 0.04 0 0 0.04 0.04 0 0 0.04 0.04 0 0 0.04 0.04 0 0 0.04 0.04 0 0 0.04 0.04 0 0 0.04 0.04 0 0 0.04 0.04 0 0 0.04 0.04 0 0 0.04 0.04 0 0 0.04 0.04 0 0 0.04 0.04 0 0 0.04 0.04 0 0 0.04 0.04 0 0 0.04 0.04 0 0 0.04 0.04 0 0 0.04 1.28 0 7.69 0 1.28 0 0 -1.28 0 -18.95 -3.85 -9.22z"/>
    <polygon class="fil3" points="139.35,60.32 151.97,30.06 152.71,28.28 150.78,28.28 143.1,28.28 142.24,28.28 141.91,29.07 131.57,53.89 131.57,29.56 131.57,28.28 130.29,28.28 122.6,28.28 121.32,28.28 121.32,29.56 121.32,91.06 121.32,92.35 122.6,92.35 130.29,92.35 131.57,92.35 131.57,91.06 131.57,66.73 141.91,91.56 142.24,92.35 143.1,92.35 150.78,92.35 152.71,92.35 151.97,90.57 "/>
    <path class="fil4" d="M145.15 87.57l-11.35 -27.22 -0.02 -0.04 0.02 -0.04 11.35 -27.22 0.68 0 -11.34 27.26 11.34 27.26 -0.68 0zm-18.35 -54.42l0 54.33 0 0.1 -0.1 0 -0.51 0 -0.1 0 0 -0.1 0 -54.33 0 -0.1 0.1 0 0.51 0 0.1 0 0 0.1z"/>
   </g>
   <g>
    <path class="fil2" d="M194.33 34.69l0 -0.04 -0.04 0 0 -0.04 -0.04 0 0 -0.04 -0.04 0 0 -0.04 -0.04 0 0 -0.04 -0.04 0 0 -0.04 -0.04 0 0 -0.04 -0.04 0 0 -0.04 -0.04 0 0 -0.04 -0.04 0 0 -0.04 -0.04 0 0 -0.04 -0.04 0 0 -0.04 -0.04 0 0 -0.04 -0.04 0 0 -0.04 -0.04 0 0 -0.04 -0.04 0 0 -0.04 -0.04 0 0 -0.04 -0.04 0 0 -0.04 -0.04 0 0 -0.04 -0.04 0 0 -0.04 -0.04 0 0 -0.04 -0.04 0 0 -0.04 -0.04 0 0 -0.04 -0.04 0 0 -0.04 -0.04 0 0 -0.04 -0.04 0 0 -0.04 -0.04 0 0 -0.04 -0.04 0 0 -0.04 -0.04 0 0 -0.04 -0.04 0 0 -0.04 -0.04 0 0 -0.04 -0.04 0 0 -0.04 -0.04 0 0 -0.04 -0.04 0 0 -0.04 -0.04 0 0 -0.04 -0.04 0 0 -0.04 -0.04 0 0 -0.04 -0.04 0 0 -0.04 -0.04 0 0 -0.04 -0.04 0 0 -0.04 -0.04 0 0 -0.04 -0.04 0 0 -0.04 -0.04 0 0 -0.04 -0.04 0 0 -0.04 -0.04 0 0 -0.04 -0.04 0 0 -0.04 -0.04 0 0 -0.04 -0.04 0 0 -0.04 -0.04 0 0 -0.04 -0.04 0 0 -0.04 -0.04 0 0 -0.04 -0.04 0 0 -0.04 -0.04 0 0 -0.04 -0.04 0 0 -0.04 -0.04 0 0 -0.04 -0.04 0 0 -0.04 -0.04 0 0 -0.04 -0.04 0 0 -0.04 -0.04 0 0 -0.04 -0.04 0 0 -0.04 -0.04 0 0 -0.04 -0.04 0 0 -0.04 -0.04 0 0 -0.04 -0.04 0 0 -0.04 -0.04 0 0 -0.04 -0.04 0 0 -0.04 -0.04 0 0 -0.04 -0.04 0 0 -0.04 -0.04 0 0 -0.04 -0.04 0 0 -0.04 -0.04 0 0 -0.04 -0.04 0 0 -0.04 -0.04 0 0 -0.04 -0.04 0 0 -0.04 -0.04 0 0 -0.04 -0.04 0 0 -0.04 -0.04 0 0 -0.04 -0.04 0 0 -0.04 -0.04 0 0 -0.04 -0.04 0 0 -0.04 -0.04 0 0 -0.04 -0.04 0 0 -0.04 -0.04 0 0 -0.04 -0.04 0 0 -0.04 -0.04 0 0 -0.04 -0.04 0 0 -0.04 -0.04 0 0 -0.04 -0.04 0 0 -0.04 -0.04 0 0 -0.04 -0.04 0 0 -0.04 -0.04 0 0 -0.04 -0.04 0 0 -0.04 -0.04 0 0 -0.04 -0.04 0 0 -0.04 -0.04 0 0 -0.04 -0.04 0 0 -0.04 -0.04 0 0 -0.04 -0.04 0 0 -0.04 -0.04 0 0 -0.04 -0.04 0 0 -0.04 -0.04 0 0 -0.04 -0 0 0 10.25 -16.65 0 0 16.66 3.85 0 0 -12.81 16.66 0 0 -10.25 -0.04 0zm0 53.77l-0.04 0 0 -0.04 -0.04 0 0 -0.04 -0.04 0 0 -0.04 -0.04 0 0 -0.04 -0.04 0 0 -0.04 -0.04 0 0 -0.04 -0.04 0 0 -0.04 -0.04 0 0 -0.04 -0.04 0 0 -0.04 -0.04 0 0 -0.04 -0.04 0 0 -0.04 -0.04 0 0 -0.04 -0.04 0 0 -0.04 -0.04 0 0 -0.04 -0.04 0 0 -0.04 -0.04 0 0 -0.04 -0.04 0 0 -0.04 -0.04 0 0 -0.04 -0.04 0 0 -0.04 -0.04 0 0 -0.04 -0.04 0 0 -0.04 -0.04 0 0 -0.04 -0.04 0 0 -0.04 -0.04 0 0 -0.04 -0.04 0 0 -0.04 -0.04 0 0 -0.04 -0.04 0 0 -0.04 -0.04 0 0 -0.04 -0.04 0 0 -0.04 -0.04 0 0 -0.04 -0.04 0 0 -0.04 -0.04 0 0 -0.04 -0.04 0 0 -0.04 -0.04 0 0 -0.04 -0.04 0 0 -0.04 -0.04 0 0 -0.04 -0.04 0 0 -0.04 -0.04 0 0 -0.04 -0.04 0 0 -0.04 -0.04 0 0 -0.04 -0.04 0 0 -0.04 -0.04 0 0 -0.04 -0.04 0 0 -0.04 -0.04 0 0 -0.04 -0.04 0 0 -0.04 -0.04 0 0 -0.04 -0.04 0 0 -0.04 -0.04 0 0 -0.04 -0.04 0 0 -0.04 -0.04 0 0 -0.04 -0.04 0 0 -0.04 -0.04 0 0 -0.04 -0.04 0 0 -0.04 -0.04 0 0 -0.04 -0.04 0 0 -0.04 -0.04 0 0 -0.04 -0.04 0 0 -0.04 -0.04 0 0 -0.04 -0.04 0 0 -0.04 -0.04 0 0 -0.04 -0.04 0 0 -0.04 -0.04 0 0 -0.04 -0.04 0 0 -0.04 -0.04 0 0 -0.04 -0.04 0 0 -0.04 -0.04 0 0 -0.04 -0.04 0 0 -0.04 -0.04 0 0 -0.04 -0.04 0 0 -0.04 -0.04 0 0 -0.04 -0.04 0 0 -0.04 -0.04 0 0 -0.04 -0.04 0 0 -0.04 -0.04 0 0 -0.04 -0.04 0 0 -0.04 -0.04 0 0 -0.04 -0.04 0 0 -0.04 -0.04 0 0 -0.04 -0.04 0 0 -0.04 -0.04 0 0 -0.04 -0.04 0 0 -0.04 -0.04 0 0 -0.04 -0.04 0 0 -0.04 -0.04 0 0 -0.04 -0.04 0 0 -0.04 -0.04 0 0 -0.04 -0.04 0 0 -0.04 -0.04 0 0 -0.04 -0.04 0 0 -0.04 -0.04 0 0 -0.04 -0.04 0 0 -0.04 -0.04 0 0 -0.04 -0.04 0 0 -0.04 -0.04 0 0 -0.04 -0.04 0 0 -0.04 -0.04 0 0 -0.04 -0.04 0 0 -0.04 -0.04 0 0 -0.04 -0.04 0 0 -0.04 -0.04 0 0 -0.04 -0 0 0 1.28 0 7.69 0 1.28 -1.28 0 -24.34 0 -1.24 0 0 0.04 0.04 0 0 0.04 0.04 0 0 0.04 0.04 0 0 0.04 0.04 0 0 0.04 0.04 0 0 0.04 0.04 0 0 0.04 0.04 0 0 0.04 0.04 0 0 0.04 0.04 0 0 0.04 0.04 0 0 0.04 0.04 0 0 0.04 0.04 0 0 0.04 0.04 0 0 0.04 0.04 0 0 0.04 0.04 0 0 0.04 0.04 0 0 0.04 0.04 0 0 0.04 0.04 0 0 0.04 0.04 0 0 0.04 0.04 0 0 0.04 0.04 0 0 0.04 0.04 0 0 0.04 0.04 0 0 0.04 0.04 0 0 0.04 0.04 0 0 0.04 0.04 0 0 0.04 0.04 0 0 0.04 0.04 0 0 0.04 0.04 0 0 0.04 0.04 0 0 0.04 0.04 0 0 0.04 0.04 0 0 0.04 0.04 0 0 0.04 0.04 0 0 0.04 0.04 0 0 0.04 0.04 0 0 0.04 0.04 0 0 0.04 0.04 0 0 0.04 0.04 0 0 0.04 0.04 0 0 0.04 0.04 0 0 0.04 0.04 0 0 0.04 0.04 0 0 0.04 0.04 0 0 0.04 0.04 0 0 0.04 0.04 0 0 0.04 0.04 0 0 0.04 0.04 0 0 0.04 0.04 0 0 0.04 0.04 0 0 0.04 0.04 0 0 0.04 0.04 0 0 0.04 0.04 0 0 0.04 0.04 0 0 0.04 0.04 0 0 0.04 0.04 0 0 0.04 0.04 0 0 0.04 0.04 0 0 0.04 0.04 0 0 0.04 0.04 0 0 0.04 0.04 0 0 0.04 0.04 0 0 0.04 0.04 0 0 0.04 0.04 0 0 0.04 0.04 0 0 0.04 0.04 0 0 0.04 0.04 0 0 0.04 0.04 0 0 0.04 0.04 0 0 0.04 0.04 0 0 0.04 0.04 0 0 0.04 0.04 0 0 0.04 0.04 0 0 0.04 0.04 0 0 0.04 0.04 0 0 0.04 0.04 0 0 0.04 0.04 0 0 0.04 0.04 0 0 0.04 0.04 0 0 0.04 0.04 0 0 0.04 0.04 0 0 0.04 0.04 0 0 0.04 0.04 0 0 0.04 0.04 0 0 0.04 0.04 0 0 0.04 0.04 0 0 0.04 0.04 0 0 0.04 0.04 0 0 0.04 0.04 0 0 0.04 0.04 0 0 0.04 0.04 0 0 0.04 0.04 0 0 0.04 0.04 0 0 0.04 0.04 0 0 0.04 0.04 0 0 0.04 0.04 0 0 0.04 0.04 0 0 0.04 0.04 0 0 0.04 0.04 0 0 0.04 0.04 0 0 0.04 1.28 0 24.34 0 1.28 0 0 -1.28 0 -7.69 0 -1.28 -0.04 0 0 -0.04zm-16.62 -16.62l11.28 0 0 -10.25 -0.04 0 0 -0.04 -0.04 0 0 -0.04 -0.04 0 0 -0.04 -0.04 0 0 -0.04 -0.04 0 0 -0.04 -0.04 0 0 -0.04 -0.04 0 0 -0.04 -0.04 0 0 -0.04 -0.04 0 0 -0.04 -0.04 0 0 -0.04 -0.04 0 0 -0.04 -0.04 0 0 -0.04 -0.04 0 0 -0.04 -0.04 0 0 -0.04 -0.04 0 0 -0.04 -0.04 0 0 -0.04 -0.04 0 0 -0.04 -0.04 0 0 -0.04 -0.04 0 0 -0.04 -0.04 0 0 -0.04 -0.04 0 0 -0.04 -0.04 0 0 -0.04 -0.04 0 0 -0.04 -0.04 0 0 -0.04 -0.04 0 0 -0.04 -0.04 0 0 -0.04 -0.04 0 0 -0.04 -0.04 0 0 -0.04 -0.04 0 0 -0.04 -0.04 0 0 -0.04 -0.04 0 0 -0.04 -0.04 0 0 -0.04 -0.04 0 0 -0.04 -0.04 0 0 -0.04 -0.04 0 0 -0.04 -0.04 0 0 -0.04 -0.04 0 0 -0.04 -0.04 0 0 -0.04 -0.04 0 0 -0.04 -0.04 0 0 -0.04 -0.04 0 0 -0.04 -0.04 0 0 -0.04 -0.04 0 0 -0.04 -0.04 0 0 -0.04 -0.04 0 0 -0.04 -0.04 0 0 -0.04 -0.04 0 0 -0.04 -0.04 0 0 -0.04 -0.04 0 0 -0.04 -0.04 0 0 -0.04 -0.04 0 0 -0.04 -0.04 0 0 -0.04 -0.04 0 0 -0.04 -0.04 0 0 -0.04 -0.04 0 0 -0.04 -0.04 0 0 -0.04 -0.04 0 0 -0.04 -0.04 0 0 -0.04 -0.04 0 0 -0.04 -0.04 0 0 -0.04 -0.04 0 0 -0.04 -0.04 0 0 -0.04 -0.04 0 0 -0.04 -0.04 0 0 -0.04 -0.04 0 0 -0.04 -0.04 0 0 -0.04 -0.04 0 0 -0.04 -0.04 0 0 -0.04 -0.04 0 0 -0.04 -0.04 0 0 -0.04 -0.04 0 0 -0.04 -0.04 0 0 -0.04 -0.04 0 0 -0.04 -0.04 0 0 -0.04 -0.04 0 0 -0.04 -0.04 0 0 -0.04 -0.04 0 0 -0.04 -0.04 0 0 -0.04 -0.04 0 0 -0.04 -0.04 0 0 -0.04 -0.04 0 0 -0.04 -0.04 0 0 -0.04 -0.04 0 0 -0.04 -0.04 0 0 -0.04 -0.04 0 0 -0.04 -0.04 0 0 -0.04 -0.04 0 0 -0.04 -0.04 0 0 -0.04 -0.04 0 0 -0.04 -0.04 0 0 -0.04 -0.04 0 0 -0.04 -0.04 0 0 -0.04 -0.04 0 0 -0.04 -0.04 0 0 -0.04 -0.04 0 0 -0.04 -0.04 0 0 -0.04 -0.04 0 0 -0.04 -0.04 0 0 -0.04 -0.04 0 0 -0.04 -0.04 0 0 -0.04 -0.04 0 0 -0.04 0 0 0 10.25 -11.27 0 0 16.66 3.85 0 0 -12.81z"/>
    <polygon class="fil3" points="186.67,28.28 170.02,28.28 162.33,28.28 161.05,28.28 161.05,29.56 161.05,91.06 161.05,92.35 162.33,92.35 186.67,92.35 187.96,92.35 187.96,91.06 187.96,83.38 187.96,82.1 186.67,82.1 171.3,82.1 171.3,65.44 181.29,65.44 182.57,65.44 182.57,64.16 182.57,56.47 182.57,55.19 181.29,55.19 171.3,55.19 171.3,38.53 186.67,38.53 187.96,38.53 187.96,37.25 187.96,29.56 187.96,28.28 "/>
    <polygon class="fil4" points="183.18,33.15 183.18,33.66 183.18,33.76 183.09,33.76 170.02,33.76 166.53,33.76 166.53,59.96 170.02,59.96 177.71,59.96 177.8,59.96 177.8,60.06 177.8,60.57 177.8,60.67 177.71,60.67 170.02,60.67 166.53,60.67 166.53,86.87 170.02,86.87 183.09,86.87 183.18,86.87 183.18,86.96 183.18,87.48 183.18,87.57 183.09,87.57 165.92,87.57 165.82,87.57 165.82,87.48 165.82,33.15 165.82,33.06 165.92,33.06 183.09,33.06 183.18,33.06 "/>
   </g>
   <path class="fil2" d="M213.44 84.58c-0.08,-0.02 -0.16,-0.03 -0.24,-0.05 -0.08,-0.37 -0.13,-0.75 -0.13,-1.15l0 -6.95 0 -1.28 -0.04 0 0 -0.04 -0.04 0 0 -0.04 -0.04 0 0 -0.04 -0.04 0 0 -0.04 -0.04 0 0 -0.04 -0.04 0 0 -0.04 -0.04 0 0 -0.04 -0.04 0 0 -0.04 -0.04 0 0 -0.04 -0.04 0 0 -0.04 -0.04 0 0 -0.04 -0.04 0 0 -0.04 -0.04 0 0 -0.04 -0.04 0 0 -0.04 -0.04 0 0 -0.04 -0.04 0 0 -0.04 -0.04 0 0 -0.04 -0.04 0 0 -0.04 -0.04 0 0 -0.04 -0.04 0 0 -0.04 -0.04 0 0 -0.04 -0.04 0 0 -0.04 -0.04 0 0 -0.04 -0.04 0 0 -0.04 -0.04 0 0 -0.04 -0.04 0 0 -0.04 -0.04 0 0 -0.04 -0.04 0 0 -0.04 -0.04 0 0 -0.04 -0.04 0 0 -0.04 -0.04 0 0 -0.04 -0.04 0 0 -0.04 -0.04 0 0 -0.04 -0.04 0 0 -0.04 -0.04 0 0 -0.04 -0.04 0 0 -0.04 -0.04 0 0 -0.04 -0.04 0 0 -0.04 -0.04 0 0 -0.04 -0.04 0 0 -0.04 -0.04 0 0 -0.04 -0.04 0 0 -0.04 -0.04 0 0 -0.04 -0.04 0 0 -0.04 -0.04 0 0 -0.04 -0.04 0 0 -0.04 -0.04 0 0 -0.04 -0.04 0 0 -0.04 -0.04 0 0 -0.04 -0.04 0 0 -0.04 -0.04 0 0 -0.04 -0.04 0 0 -0.04 -0.04 0 0 -0.04 -0.04 0 0 -0.04 -0.04 0 0 -0.04 -0.04 0 0 -0.04 -0.04 0 0 -0.04 -0.04 0 0 -0.04 -0.04 0 0 -0.04 -0.04 0 0 -0.04 -0.04 0 0 -0.04 -0.04 0 0 -0.04 -0.04 0 0 -0.04 -0.04 0 0 -0.04 -0.04 0 0 -0.04 -0.04 0 0 -0.04 -0.04 0 0 -0.04 -0.04 0 0 -0.04 -0.04 0 0 -0.04 -0.04 0 0 -0.04 -0.04 0 0 -0.04 -0.04 0 0 -0.04 -0.04 0 0 -0.04 -0.04 0 0 -0.04 -0.04 0 0 -0.04 -0.04 0 0 -0.04 -0.04 0 0 -0.04 -0.04 0 0 -0.04 -0.04 0 0 -0.04 -0.04 0 0 -0.04 -0.04 0 0 -0.04 -0.04 0 0 -0.04 -0.04 0 0 -0.04 -0.04 0 0 -0.04 -0.04 0 0 -0.04 -0.04 0 0 -0.04 -0.04 0 0 -0.04 -0.04 0 0 -0.04 -0.04 0 0 -0.04 -0.04 0 0 -0.04 -0.04 0 0 -0.04 -0.04 0 0 -0.04 -0.04 0 0 -0.04 -0.04 0 0 -0.04 -0.04 0 0 -0.04 -0.04 0 0 -0.04 -0.04 0 0 -0.04 -0.04 0 0 -0.04 -0.04 0 0 -0.04 -0.04 0 0 -0.04 -0.04 0 0 -0.04 0 1.28 0 6.95c0,2.52 1.83,4.61 4.22,5.04zm15.6 -45.39c-0.01,-0.01 -0.03,-0.02 -0.04,-0.04 -0.01,-0.01 -0.03,-0.02 -0.04,-0.04 -0.01,-0.01 -0.02,-0.03 -0.04,-0.04 -0.01,-0.01 -0.02,-0.03 -0.04,-0.04 -0.01,-0.01 -0.03,-0.03 -0.04,-0.04 -0.01,-0.01 -0.02,-0.03 -0.04,-0.04 -0.01,-0.01 -0.02,-0.03 -0.04,-0.04 -0.01,-0.01 -0.02,-0.03 -0.04,-0.04 -0.01,-0.01 -0.02,-0.02 -0.04,-0.04 -0.01,-0.01 -0.02,-0.03 -0.04,-0.04 -0.01,-0.01 -0.03,-0.03 -0.04,-0.04 -0.01,-0.01 -0.03,-0.02 -0.04,-0.04 -0.01,-0.01 -0.02,-0.02 -0.04,-0.04 -0.01,-0.01 -0.02,-0.03 -0.04,-0.04 -0.01,-0.01 -0.03,-0.02 -0.04,-0.04 -0.01,-0.01 -0.03,-0.02 -0.04,-0.04 -0.01,-0.01 -0.03,-0.03 -0.04,-0.04 -0.01,-0.01 -0.03,-0.03 -0.04,-0.04 -0.01,-0.01 -0.03,-0.02 -0.04,-0.04 -0.01,-0.01 -0.02,-0.02 -0.04,-0.04 -0.01,-0.01 -0.02,-0.03 -0.04,-0.04 -0.01,-0.01 -0.03,-0.02 -0.04,-0.04 -0.01,-0.01 -0.03,-0.03 -0.04,-0.04 -0.01,-0.01 -0.02,-0.02 -0.04,-0.04 -0.01,-0.01 -0.02,-0.03 -0.04,-0.04 -0.01,-0.01 -0.02,-0.02 -0.04,-0.04 -0.01,-0.01 -0.03,-0.02 -0.04,-0.04 -0.01,-0.01 -0.02,-0.03 -0.04,-0.04 -0.01,-0.01 -0.03,-0.03 -0.04,-0.04 -0.01,-0.01 -0.02,-0.03 -0.04,-0.04 -0.01,-0.01 -0.02,-0.03 -0.04,-0.04 -0.01,-0.01 -0.02,-0.03 -0.04,-0.04 -0.01,-0.01 -0.03,-0.02 -0.04,-0.04 -0.01,-0.01 -0.03,-0.02 -0.04,-0.04 -0.01,-0.01 -0.03,-0.03 -0.04,-0.04 -0.01,-0.01 -0.03,-0.03 -0.04,-0.04 -0.01,-0.01 -0.02,-0.02 -0.04,-0.04 -0.01,-0.01 -0.02,-0.03 -0.04,-0.04 -0.01,-0.01 -0.03,-0.02 -0.04,-0.04 -0.01,-0.01 -0.03,-0.02 -0.04,-0.04 -0.01,-0.01 -0.03,-0.02 -0.04,-0.04 -0.01,-0.01 -0.02,-0.03 -0.04,-0.04 -0.01,-0.01 -0.03,-0.02 -0.04,-0.04 -0.01,-0.01 -0.03,-0.02 -0.04,-0.04 -0.01,-0.01 -0.02,-0.02 -0.04,-0.04 -0.01,-0.01 -0.02,-0.03 -0.04,-0.04 -0.01,-0.01 -0.03,-0.02 -0.04,-0.04 -0.01,-0.01 -0.02,-0.02 -0.04,-0.04 -0.01,-0.01 -0.02,-0.03 -0.04,-0.04 -0.01,-0.01 -0.03,-0.02 -0.04,-0.04 -0.01,-0.01 -0.03,-0.03 -0.04,-0.04 -0.01,-0.01 -0.02,-0.03 -0.04,-0.04 -0.01,-0.01 -0.03,-0.03 -0.04,-0.04 -0.01,-0.01 -0.03,-0.03 -0.04,-0.04 -0.01,-0.01 -0.02,-0.03 -0.04,-0.04 -0.01,-0.01 -0.02,-0.03 -0.04,-0.04 -0.01,-0.01 -0.03,-0.03 -0.04,-0.04 -0.01,-0.01 -0.03,-0.02 -0.04,-0.04 -0.01,-0.01 -0.02,-0.02 -0.04,-0.04 -0.01,-0.01 -0.03,-0.03 -0.04,-0.04 -0.01,-0.01 -0.03,-0.02 -0.04,-0.04 -0.01,-0.01 -0.02,-0.02 -0.04,-0.04 -0.01,-0.01 -0.02,-0.03 -0.04,-0.04 -0.01,-0.01 -0.02,-0.02 -0.04,-0.04 -0.01,-0.01 -0.02,-0.02 -0.04,-0.04 -0.01,-0.01 -0.03,-0.03 -0.04,-0.04 -0.01,-0.01 -0.03,-0.02 -0.04,-0.04 -0.01,-0.01 -0.03,-0.03 -0.04,-0.04 -0.01,-0.01 -0.02,-0.03 -0.04,-0.04 -0.01,-0.01 -0.02,-0.03 -0.04,-0.04 -0.01,-0.01 -0.03,-0.03 -0.04,-0.04 -0.01,-0.01 -0.03,-0.03 -0.04,-0.04 -0.01,-0.01 -0.02,-0.02 -0.04,-0.04 -0.01,-0.01 -0.03,-0.03 -0.04,-0.04 -0.01,-0.01 -0.03,-0.02 -0.04,-0.04 -0.01,-0.01 -0.02,-0.02 -0.04,-0.04 -0.01,-0.01 -0.02,-0.03 -0.04,-0.04 -0.01,-0.01 -0.03,-0.03 -0.04,-0.04 -0.01,-0.01 -0.03,-0.02 -0.04,-0.04 -0.01,-0.01 -0.02,-0.03 -0.04,-0.04 -0.01,-0.01 -0.02,-0.03 -0.04,-0.04 -0.01,-0.01 -0.03,-0.02 -0.04,-0.04 -0.01,-0.01 -0.03,-0.03 -0.04,-0.04 -0.01,-0.01 -0.03,-0.03 -0.04,-0.04 -0.01,-0.01 -0.03,-0.03 -0.04,-0.04 -0.01,-0.01 -0.02,-0.02 -0.04,-0.04 -0.01,-0.01 -0.02,-0.02 -0.04,-0.04 -0.01,-0.01 -0.02,-0.02 -0.04,-0.04 -0.01,-0.01 -0.03,-0.02 -0.04,-0.04 -0.01,-0.01 -0.03,-0.03 -0.04,-0.04 -0.01,-0.01 -0.03,-0.03 -0.04,-0.04 -0.01,-0.01 -0.03,-0.02 -0.04,-0.04 -0.01,-0.01 -0.02,-0.02 -0.04,-0.04 -0.01,-0.01 -0.02,-0.03 -0.04,-0.04 -0.01,-0.01 -0.03,-0.03 -0.04,-0.04 -0.01,-0.01 -0.03,-0.03 -0.04,-0.04 -0.01,-0.01 -0.02,-0.03 -0.04,-0.04 -0.01,-0.01 -0.02,-0.03 -0.04,-0.04 -0.01,-0.01 -0.03,-0.02 -0.04,-0.04 -0.01,-0.01 -0.03,-0.02 -0.04,-0.04 2.77,2.78 4.49,6.62 4.49,10.85l0 6.95 0 1.28 -1.28 0 -7.69 0 -1.24 0 0 0.04 0.04 0 0 0.04 0.04 0 0 0.04 0.04 0 0 0.04 0.04 0 0 0.04 0.04 0 0 0.04 0.04 0 0 0.04 0.04 0 0 0.04 0.04 0 0 0.04 0.04 0 0 0.04 0.04 0 0 0.04 0.04 0 0 0.04 0.04 0 0 0.04 0.04 0 0 0.04 0.04 0 0 0.04 0.04 0 0 0.04 0.04 0 0 0.04 0.04 0 0 0.04 0.04 0 0 0.04 0.04 0 0 0.04 0.04 0 0 0.04 0.04 0 0 0.04 0.04 0 0 0.04 0.04 0 0 0.04 0.04 0 0 0.04 0.04 0 0 0.04 0.04 0 0 0.04 0.04 0 0 0.04 0.04 0 0 0.04 0.04 0 0 0.04 0.04 0 0 0.04 0.04 0 0 0.04 0.04 0 0 0.04 0.04 0 0 0.04 0.04 0 0 0.04 0.04 0 0 0.04 0.04 0 0 0.04 0.04 0 0 0.04 0.04 0 0 0.04 0.04 0 0 0.04 0.04 0 0 0.04 0.04 0 0 0.04 0.04 0 0 0.04 0.04 0 0 0.04 0.04 0 0 0.04 0.04 0 0 0.04 0.04 0 0 0.04 0.04 0 0 0.04 0.04 0 0 0.04 0.04 0 0 0.04 0.04 0 0 0.04 0.04 0 0 0.04 0.04 0 0 0.04 0.04 0 0 0.04 0.04 0 0 0.04 0.04 0 0 0.04 0.04 0 0 0.04 0.04 0 0 0.04 0.04 0 0 0.04 0.04 0 0 0.04 0.04 0 0 0.04 0.04 0 0 0.04 0.04 0 0 0.04 0.04 0 0 0.04 0.04 0 0 0.04 0.04 0 0 0.04 0.04 0 0 0.04 0.04 0 0 0.04 0.04 0 0 0.04 0.04 0 0 0.04 0.04 0 0 0.04 0.04 0 0 0.04 0.04 0 0 0.04 0.04 0 0 0.04 0.04 0 0 0.04 0.04 0 0 0.04 0.04 0 0 0.04 0.04 0 0 0.04 0.04 0 0 0.04 0.04 0 0 0.04 0.04 0 0 0.04 0.04 0 0 0.04 0.04 0 0 0.04 0.04 0 0 0.04 0.04 0 0 0.04 0.04 0 0 0.04 0.04 0 0 0.04 0.04 0 0 0.04 0.04 0 0 0.04 0.04 0 0 0.04 0.04 0 0 0.04 0.04 0 0 0.04 0.04 0 0 0.04 0.04 0 0 0.04 0.04 0 0 0.04 0.04 0 0 0.04 0.04 0 0 0.04 0.04 0 0 0.04 0.04 0 0 0.04 0.04 0 0 0.04 0.04 0 0 0.04 1.28 0 7.69 0 1.28 0 0 -1.28 0 -6.95c0,-4.25 -1.73,-8.1 -4.53,-10.89zm-14.8 15.15c-0.75,-0.92 -1.17,-2.07 -1.17,-3.26l0 -1.01c0,-2.83 2.3,-5.12 5.12,-5.12 0.4,0 0.78,0.05 1.15,0.13 -0.52,-2.27 -2.56,-3.98 -4.99,-3.98 -2.83,0 -5.12,2.3 -5.12,5.13l0 1.01c0,1.19 0.41,2.34 1.17,3.26l15.82 19.21c2.26,2.75 3.51,6.22 3.51,9.77l0 0.06c0,8.48 -6.9,15.38 -15.37,15.38 -4.23,0 -8.06,-1.72 -10.85,-4.49 0.01,0.01 0.03,0.02 0.04,0.04 0.01,0.01 0.02,0.03 0.04,0.04 0.01,0.01 0.02,0.03 0.04,0.04 0.01,0.01 0.03,0.02 0.04,0.04 0.01,0.01 0.02,0.02 0.04,0.04 0.01,0.01 0.02,0.03 0.04,0.04 0.01,0.01 0.02,0.03 0.04,0.04 0.01,0.01 0.03,0.02 0.04,0.04 0.01,0.01 0.03,0.02 0.04,0.04 0.01,0.01 0.03,0.03 0.04,0.04 0.01,0.01 0.03,0.02 0.04,0.04 0.01,0.01 0.03,0.03 0.04,0.04 0.01,0.01 0.02,0.03 0.04,0.04 0.01,0.01 0.02,0.03 0.04,0.04l0.04 0.04c0.01,0.01 0.03,0.03 0.04,0.04 0.01,0.01 0.03,0.03 0.04,0.04 0.01,0.01 0.03,0.02 0.04,0.04 0.01,0.01 0.03,0.03 0.04,0.04 0.01,0.01 0.02,0.03 0.04,0.04 0.01,0.01 0.02,0.02 0.04,0.04 0.01,0.01 0.03,0.02 0.04,0.04 0.01,0.01 0.02,0.03 0.04,0.04 0.01,0.01 0.02,0.03 0.04,0.04 0.01,0.01 0.03,0.03 0.04,0.04 0.01,0.01 0.03,0.03 0.04,0.04 0.01,0.01 0.02,0.03 0.04,0.04 0.01,0.01 0.03,0.03 0.04,0.04 0.01,0.01 0.03,0.03 0.04,0.04 0.01,0.01 0.03,0.02 0.04,0.04 0.01,0.01 0.02,0.03 0.04,0.04 0.01,0.01 0.02,0.03 0.04,0.04 0.01,0.01 0.03,0.03 0.04,0.04 0.01,0.01 0.03,0.03 0.04,0.04 0.01,0.01 0.03,0.03 0.04,0.04 0.01,0.01 0.03,0.02 0.04,0.04 0.01,0.01 0.02,0.02 0.04,0.04 0.01,0.01 0.02,0.03 0.04,0.04 0.01,0.01 0.02,0.02 0.04,0.04 0.01,0.01 0.03,0.02 0.04,0.04 0.01,0.01 0.03,0.03 0.04,0.04 0.01,0.01 0.03,0.03 0.04,0.04 0.01,0.01 0.02,0.02 0.04,0.04 0.01,0.01 0.02,0.03 0.04,0.04 0.01,0.01 0.02,0.03 0.04,0.04 0.01,0.01 0.03,0.03 0.04,0.04 0.01,0.01 0.03,0.02 0.04,0.04 0.01,0.01 0.03,0.03 0.04,0.04 0.01,0.01 0.02,0.03 0.04,0.04 0.01,0.01 0.03,0.03 0.04,0.04 0.01,0.01 0.02,0.03 0.04,0.04 0.01,0.01 0.03,0.03 0.04,0.04 0.01,0.01 0.03,0.02 0.04,0.04 0.01,0.01 0.03,0.02 0.04,0.04 0.01,0.01 0.02,0.03 0.04,0.04 0.01,0.01 0.02,0.03 0.04,0.04 0.01,0.01 0.03,0.03 0.04,0.04l0.04 0.04c0.01,0.01 0.03,0.03 0.04,0.04 0.01,0.01 0.02,0.02 0.04,0.04 0.01,0.01 0.03,0.02 0.04,0.04 0.01,0.01 0.02,0.03 0.04,0.04 0.01,0.01 0.02,0.03 0.04,0.04 0.01,0.01 0.03,0.02 0.04,0.04 0.01,0.01 0.03,0.02 0.04,0.04 0.01,0.01 0.02,0.03 0.04,0.04 0.01,0.01 0.03,0.02 0.04,0.04 0.01,0.01 0.03,0.03 0.04,0.04 0.01,0.01 0.02,0.03 0.04,0.04 0.01,0.01 0.02,0.02 0.04,0.04 0.01,0.01 0.03,0.02 0.04,0.04 0.01,0.01 0.02,0.03 0.04,0.04 0.01,0.01 0.02,0.03 0.04,0.04 0.01,0.01 0.03,0.03 0.04,0.04 0.01,0.01 0.02,0.03 0.04,0.04 0.01,0.01 0.02,0.03 0.04,0.04 0.01,0.01 0.03,0.03 0.04,0.04 0.01,0.01 0.03,0.02 0.04,0.04 0.01,0.01 0.02,0.02 0.04,0.04 0.01,0.01 0.02,0.03 0.04,0.04 0.01,0.01 0.02,0.02 0.04,0.04 0.01,0.01 0.03,0.02 0.04,0.04 0.01,0.01 0.03,0.03 0.04,0.04 0.01,0.01 0.03,0.02 0.04,0.04 0.01,0.01 0.03,0.03 0.04,0.04 0.01,0.01 0.02,0.03 0.04,0.04 0.01,0.01 0.03,0.03 0.04,0.04 0.01,0.01 0.03,0.02 0.04,0.04 0.01,0.01 0.03,0.03 0.04,0.04 0.01,0.01 0.03,0.03 0.04,0.04 0.01,0.01 0.03,0.03 0.04,0.04 0.01,0.01 0.02,0.03 0.04,0.04 0.01,0.01 0.02,0.03 0.04,0.04 0.01,0.01 0.02,0.03 0.04,0.04 0.01,0.01 0.02,0.02 0.04,0.04 0.01,0.01 0.02,0.02 0.04,0.04 0.01,0.01 0.02,0.03 0.04,0.04 0.01,0.01 0.02,0.03 0.04,0.04 0.01,0.01 0.03,0.02 0.04,0.04 0.01,0.01 0.02,0.03 0.04,0.04 2.78,2.8 6.63,4.53 10.88,4.53 8.48,0 15.37,-6.9 15.37,-15.38l0 -0.06c0,-3.56 -1.24,-7.03 -3.51,-9.78l-15.82 -19.21z"/>
   <path class="fil3" d="M211.78 28.28c-8.48,0 -15.37,6.9 -15.37,15.38l0 0.06c0,3.56 1.25,7.04 3.51,9.79l15.81 19.17c0.76,0.92 1.17,2.07 1.17,3.26l0 1.04c0,2.83 -2.3,5.13 -5.13,5.13 -2.83,0 -5.13,-2.3 -5.13,-5.13l0 -6.95 0 -1.28 -1.28 0 -7.69 0 -1.28 0 0 1.28 0 6.95c0,8.48 6.9,15.38 15.37,15.38 8.48,0 15.37,-6.9 15.37,-15.38l0 -0.06c0,-3.56 -1.25,-7.03 -3.51,-9.77l-15.82 -19.21c-0.75,-0.91 -1.17,-2.07 -1.17,-3.26l0 -1.01c0,-2.83 2.3,-5.13 5.13,-5.13 2.83,0 5.13,2.3 5.13,5.13l0 6.95 0 1.28 1.28 0 7.69 0 1.28 0 0 -1.28 0 -6.95c0,-8.48 -6.9,-15.38 -15.37,-15.38z"/>
   <path class="fil4" d="M222.39 47.02l0 0.1 -0.1 0 -0.51 0 -0.1 0 0 -0.1 0 -3.36c0,-5.46 -4.44,-9.9 -9.9,-9.9 -5.17,0 -9.51,4.04 -9.87,9.2 -0.02,0.27 -0.05,0.76 -0.05,0.99 -0,0 -0.01,0.2 0.03,0.9 0.22,2.45 1.02,4.39 2.45,5.94l15.82 19.21c1.47,1.79 2.22,4.09 2.22,6.83l0 0.06 0 0.01 0 0.06c0,0.05 0,0.1 -0,0.15l0 0.08 0 -0c-0.12,5.74 -4.83,10.37 -10.6,10.37 -5.85,0 -10.6,-4.76 -10.6,-10.6l0 -3.36 0 -0.1 0.1 0 0.51 0 0.1 0 0 0.1 0 3.36c0,5.46 4.44,9.9 9.9,9.9 5.46,0 9.9,-4.44 9.9,-9.9l0 -1.04c0,-0.14 -0.01,-0.27 -0.01,-0.4l-0 -0.04c-0.12,-1.9 -0.98,-3.92 -2.45,-5.69l-15.81 -19.17c-1.17,-1.42 -1.86,-3.21 -2.15,-5.61l-0.01 -0.11 0 0c-0.05,-0.4 -0.07,-0.8 -0.07,-1.19l0 -0.06c0,-5.85 4.76,-10.6 10.6,-10.6 5.85,0 10.6,4.75 10.6,10.6l0 3.36z"/>
  </g>
 </g>
</svg>
