<?xml version="1.0" encoding="UTF-8"?>
<!DOCTYPE svg PUBLIC "-//W3C//DTD SVG 1.1//EN" "http://www.w3.org/Graphics/SVG/1.1/DTD/svg11.dtd">
<!-- Creator: CorelDRAW -->
<svg xmlns="http://www.w3.org/2000/svg" xml:space="preserve" width="83.3023mm" height="42.0659mm" version="1.1" style="shape-rendering:geometricPrecision; text-rendering:geometricPrecision; image-rendering:optimizeQuality; fill-rule:evenodd; clip-rule:evenodd"
viewBox="0 0 163.13 82.37"
 xmlns:xlink="http://www.w3.org/1999/xlink"
 xmlns:xodm="http://www.corel.com/coreldraw/odm/2003">
 <defs>
  <style type="text/css">
   <![CDATA[
    .fil0 {fill:#528297}
    .fil3 {fill:#D5838F;fill-rule:nonzero}
    .fil2 {fill:#85AECB;fill-rule:nonzero}
    .fil1 {fill:#528297;fill-rule:nonzero}
   ]]>
  </style>
 </defs>
 <g id="Camada_x0020_1">
  <metadata id="CorelCorpID_0Corel-Layer"/>
  <g id="_2746204998640">
   <g>
    <rect class="fil0" x="127.97" y="6.41" width="29.81" height="1.36"/>
    <rect class="fil0" x="-0" y="6.41" width="29.32" height="1.36"/>
    <path class="fil1" d="M39.86 14.29c3.76,0 5.9,-1.92 5.9,-4.75 0,-3.16 -2.69,-3.71 -4.39,-4.04 -2.67,-0.51 -3.39,-0.69 -3.39,-1.16 0,-0.41 0.59,-0.69 1.67,-0.69 1.43,0 3.1,0.63 3.96,1.1l1.61 -2.92c-0.86,-0.78 -2.92,-1.82 -5.39,-1.82 -3.63,0 -5.9,2.06 -5.9,4.8 0,2.76 2.29,3.59 4.39,4 1.73,0.33 3.25,0.47 3.25,1.14 0,0.39 -0.49,0.69 -1.61,0.69 -1.78,0 -3.76,-0.82 -4.76,-1.43l-1.51 3.24c1.06,0.8 3.47,1.84 6.16,1.84zm18.91 -0.08l3.63 -5.59 0 5.18 4.69 0 0 -13.41 -4.39 0 -3.94 6.59 -3.94 -6.59 -4.39 0 0 13.41 4.69 0 0 -5.18 3.63 5.59zm11.99 -0.41l5.18 0 0.65 -1.61 5.8 0 0.65 1.61 5.18 0 -6 -13.41 -5.47 0 -6 13.41zm7.33 -5.29l1.39 -3.49 0.04 0 1.39 3.49 -2.82 0zm26.01 5.67c2.06,0 3.55,-0.86 4.1,-1.51l-1.67 -3.08c-0.27,0.31 -1,0.71 -2.06,0.71 -0.73,0 -1.71,-0.18 -2.45,-0.96 2.47,0 4.82,-1.04 4.82,-4.08 0,-2.67 -1.8,-4.88 -5.08,-4.88l-9.45 0 0 13.41 4.69 0 0 -3.98c2.67,3.16 4.55,4.37 7.1,4.37zm-7.1 -7.65l0 -2.45 3.84 0c0.84,0 1.33,0.57 1.33,1.22 0,0.65 -0.49,1.22 -1.33,1.22l-3.84 0zm18.05 7.27l4.49 0 0 -9.33 4.55 0 0 -4.08 -13.59 0 0 4.08 4.55 0 0 9.33z"/>
   </g>
   <path class="fil2" d="M14.21 70.55c-0.07,-0.01 -0.13,-0.03 -0.2,-0.04 -0.07,-0.31 -0.11,-0.63 -0.11,-0.96l0 -5.8 0 -1.07 -0.03 0 0 -0.03 -0.03 0 0 -0.03 -0.03 0 0 -0.03 -0.03 0 0 -0.03 -0.03 0 0 -0.03 -0.03 0 0 -0.03 -0.03 0 0 -0.03 -0.03 0 0 -0.03 -0.03 0 0 -0.03 -0.03 0 0 -0.03 -0.03 0 0 -0.03 -0.03 0 0 -0.03 -0.03 0 0 -0.03 -0.03 0 0 -0.03 -0.03 0 0 -0.03 -0.03 0 0 -0.03 -0.03 0 0 -0.03 -0.03 0 0 -0.03 -0.03 0 0 -0.03 -0.03 0 0 -0.03 -0.03 0 0 -0.03 -0.03 0 0 -0.03 -0.03 0 0 -0.03 -0.03 0 0 -0.03 -0.03 0 0 -0.03 -0.03 0 0 -0.03 -0.03 0 0 -0.03 -0.03 0 0 -0.03 -0.03 0 0 -0.03 -0.03 0 0 -0.03 -0.03 0 0 -0.03 -0.03 0 0 -0.03 -0.03 0 0 -0.03 -0.03 0 0 -0.03 -0.03 0 0 -0.03 -0.03 0 0 -0.03 -0.03 0 0 -0.03 -0.03 0 0 -0.03 -0.03 0 0 -0.03 -0.03 0 0 -0.03 -0.03 0 0 -0.03 -0.03 0 0 -0.03 -0.03 0 0 -0.03 -0.03 0 0 -0.03 -0.03 0 0 -0.03 -0.03 0 0 -0.03 -0.03 0 0 -0.03 -0.03 0 0 -0.03 -0.03 0 0 -0.03 -0.03 0 0 -0.03 -0.03 0 0 -0.03 -0.03 0 0 -0.03 -0.03 0 0 -0.03 -0.03 0 0 -0.03 -0.03 0 0 -0.03 -0.03 0 0 -0.03 -0.03 0 0 -0.03 -0.03 0 0 -0.03 -0.03 0 0 -0.03 -0.03 0 0 -0.03 -0.03 0 0 -0.03 -0.03 0 0 -0.03 -0.03 0 0 -0.03 -0.03 0 0 -0.03 -0.03 0 0 -0.03 -0.03 0 0 -0.03 -0.03 0 0 -0.03 -0.03 0 0 -0.03 -0.03 0 0 -0.03 -0.03 0 0 -0.03 -0.03 0 0 -0.03 -0.03 0 0 -0.03 -0.03 0 0 -0.03 -0.03 0 0 -0.03 -0.03 0 0 -0.03 -0.03 0 0 -0.03 -0.03 0 0 -0.03 -0.03 0 0 -0.03 -0.03 0 0 -0.03 -0.03 0 0 -0.03 -0.03 0 0 -0.03 -0.03 0 0 -0.03 -0.03 0 0 -0.03 -0.03 0 0 -0.03 -0.03 0 0 -0.03 -0.03 0 0 -0.03 -0.03 0 0 -0.03 -0.03 0 0 -0.03 -0.03 0 0 -0.03 -0.03 0 0 -0.03 -0.03 0 0 -0.03 -0.03 0 0 -0.03 -0.03 0 0 -0.03 -0.03 0 0 -0.03 -0.03 0 0 -0.03 -0.03 0 0 -0.03 -0.03 0 0 -0.03 -0.03 0 0 -0.03 -0.03 0 0 -0.03 -0.03 0 0 -0.03 -0.03 0 0 -0.03 0 1.07 0 5.8c0,2.1 1.52,3.84 3.52,4.2zm132.13 0c-0.07,-0.01 -0.13,-0.03 -0.2,-0.04 -0.07,-0.31 -0.11,-0.63 -0.11,-0.96l0 -5.8 0 -1.07 -0.03 0 0 -0.03 -0.03 0 0 -0.03 -0.03 0 0 -0.03 -0.03 0 0 -0.03 -0.03 0 0 -0.03 -0.03 0 0 -0.03 -0.03 0 0 -0.03 -0.03 0 0 -0.03 -0.03 0 0 -0.03 -0.03 0 0 -0.03 -0.03 0 0 -0.03 -0.03 0 0 -0.03 -0.03 0 0 -0.03 -0.03 0 0 -0.03 -0.03 0 0 -0.03 -0.03 0 0 -0.03 -0.03 0 0 -0.03 -0.03 0 0 -0.03 -0.03 0 0 -0.03 -0.03 0 0 -0.03 -0.03 0 0 -0.03 -0.03 0 0 -0.03 -0.03 0 0 -0.03 -0.03 0 0 -0.03 -0.03 0 0 -0.03 -0.03 0 0 -0.03 -0.03 0 0 -0.03 -0.03 0 0 -0.03 -0.03 0 0 -0.03 -0.03 0 0 -0.03 -0.03 0 0 -0.03 -0.03 0 0 -0.03 -0.03 0 0 -0.03 -0.03 0 0 -0.03 -0.03 0 0 -0.03 -0.03 0 0 -0.03 -0.03 0 0 -0.03 -0.03 0 0 -0.03 -0.03 0 0 -0.03 -0.03 0 0 -0.03 -0.03 0 0 -0.03 -0.03 0 0 -0.03 -0.03 0 0 -0.03 -0.03 0 0 -0.03 -0.03 0 0 -0.03 -0.03 0 0 -0.03 -0.03 0 0 -0.03 -0.03 0 0 -0.03 -0.03 0 0 -0.03 -0.03 0 0 -0.03 -0.03 0 0 -0.03 -0.03 0 0 -0.03 -0.03 0 0 -0.03 -0.03 0 0 -0.03 -0.03 0 0 -0.03 -0.03 0 0 -0.03 -0.03 0 0 -0.03 -0.03 0 0 -0.03 -0.03 0 0 -0.03 -0.03 0 0 -0.03 -0.03 0 0 -0.03 -0.03 0 0 -0.03 -0.03 0 0 -0.03 -0.03 0 0 -0.03 -0.03 0 0 -0.03 -0.03 0 0 -0.03 -0.03 0 0 -0.03 -0.03 0 0 -0.03 -0.03 0 0 -0.03 -0.03 0 0 -0.03 -0.03 0 0 -0.03 -0.03 0 0 -0.03 -0.03 0 0 -0.03 -0.03 0 0 -0.03 -0.03 0 0 -0.03 -0.03 0 0 -0.03 -0.03 0 0 -0.03 -0.03 0 0 -0.03 -0.03 0 0 -0.03 -0.03 0 0 -0.03 -0.03 0 0 -0.03 -0.03 0 0 -0.03 -0.03 0 0 -0.03 -0.03 0 0 -0.03 -0.03 0 0 -0.03 -0.03 0 0 -0.03 -0.03 0 0 -0.03 -0.03 0 0 -0.03 -0.03 0 0 -0.03 -0.03 0 0 -0.03 -0.03 0 0 -0.03 -0.03 0 0 -0.03 -0.03 0 0 -0.03 -0.03 0 0 -0.03 -0.03 0 0 -0.03 -0.03 0 0 -0.03 -0.03 0 0 -0.03 -0.03 0 0 -0.03 -0.03 0 0 -0.03 -0.03 0 0 -0.03 -0.03 0 0 -0.03 0 1.07 0 5.8c0,2.1 1.52,3.84 3.52,4.2zm13.01 -37.86c-0.01,-0.01 -0.02,-0.02 -0.03,-0.03 -0.01,-0.01 -0.02,-0.02 -0.03,-0.03 -0.01,-0.01 -0.02,-0.02 -0.03,-0.03 -0.01,-0.01 -0.02,-0.02 -0.03,-0.03 -0.01,-0.01 -0.02,-0.02 -0.03,-0.03 -0.01,-0.01 -0.02,-0.02 -0.03,-0.03 -0.01,-0.01 -0.02,-0.02 -0.03,-0.03 -0.01,-0.01 -0.02,-0.02 -0.03,-0.03 -0.01,-0.01 -0.02,-0.02 -0.03,-0.03 -0.01,-0.01 -0.02,-0.02 -0.03,-0.03 -0.01,-0.01 -0.02,-0.02 -0.03,-0.03 -0.01,-0.01 -0.02,-0.02 -0.03,-0.03 -0.01,-0.01 -0.02,-0.02 -0.03,-0.03 -0.01,-0.01 -0.02,-0.02 -0.03,-0.03 -0.01,-0.01 -0.02,-0.02 -0.03,-0.03 -0.01,-0.01 -0.02,-0.02 -0.03,-0.03 -0.01,-0.01 -0.02,-0.02 -0.03,-0.03 -0.01,-0.01 -0.02,-0.02 -0.03,-0.03 -0.01,-0.01 -0.02,-0.02 -0.03,-0.03 -0.01,-0.01 -0.02,-0.02 -0.03,-0.03 -0.01,-0.01 -0.02,-0.02 -0.03,-0.03 -0.01,-0.01 -0.02,-0.02 -0.03,-0.03 -0.01,-0.01 -0.02,-0.02 -0.03,-0.03 -0.01,-0.01 -0.02,-0.02 -0.03,-0.03 -0.01,-0.01 -0.02,-0.02 -0.03,-0.03 -0.01,-0.01 -0.02,-0.02 -0.03,-0.03 -0.01,-0.01 -0.02,-0.02 -0.03,-0.03 -0.01,-0.01 -0.02,-0.02 -0.03,-0.03 -0.01,-0.01 -0.02,-0.02 -0.03,-0.03 -0.01,-0.01 -0.02,-0.02 -0.03,-0.03 -0.01,-0.01 -0.02,-0.02 -0.03,-0.03 -0.01,-0.01 -0.02,-0.02 -0.03,-0.03 -0.01,-0.01 -0.02,-0.02 -0.03,-0.03 -0.01,-0.01 -0.02,-0.02 -0.03,-0.03 -0.01,-0.01 -0.02,-0.02 -0.03,-0.03 -0.01,-0.01 -0.02,-0.02 -0.03,-0.03 -0.01,-0.01 -0.02,-0.02 -0.03,-0.03 -0.01,-0.01 -0.02,-0.02 -0.03,-0.03 -0.01,-0.01 -0.02,-0.02 -0.03,-0.03 -0.01,-0.01 -0.02,-0.02 -0.03,-0.03 -0.01,-0.01 -0.02,-0.02 -0.03,-0.03 -0.01,-0.01 -0.02,-0.02 -0.03,-0.03 -0.01,-0.01 -0.02,-0.02 -0.03,-0.03 -0.01,-0.01 -0.02,-0.02 -0.03,-0.03 -0.01,-0.01 -0.02,-0.02 -0.03,-0.03 -0.01,-0.01 -0.02,-0.02 -0.03,-0.03 -0.01,-0.01 -0.02,-0.02 -0.03,-0.03 -0.01,-0.01 -0.02,-0.02 -0.03,-0.03 -0.01,-0.01 -0.02,-0.02 -0.03,-0.03 -0.01,-0.01 -0.02,-0.02 -0.03,-0.03 -0.01,-0.01 -0.02,-0.02 -0.03,-0.03 -0.01,-0.01 -0.02,-0.02 -0.03,-0.03 -0.01,-0.01 -0.02,-0.02 -0.03,-0.03 -0.01,-0.01 -0.02,-0.02 -0.03,-0.03 -0.01,-0.01 -0.02,-0.02 -0.03,-0.03 -0.01,-0.01 -0.02,-0.02 -0.03,-0.03 -0.01,-0.01 -0.02,-0.02 -0.03,-0.03 -0.01,-0.01 -0.02,-0.02 -0.03,-0.03 -0.01,-0.01 -0.02,-0.02 -0.03,-0.03 -0.01,-0.01 -0.02,-0.02 -0.03,-0.03 -0.01,-0.01 -0.02,-0.02 -0.03,-0.03 -0.01,-0.01 -0.02,-0.02 -0.03,-0.03 -0.01,-0.01 -0.02,-0.02 -0.03,-0.03 -0.01,-0.01 -0.02,-0.02 -0.03,-0.03 -0.01,-0.01 -0.02,-0.02 -0.03,-0.03 -0.01,-0.01 -0.02,-0.02 -0.03,-0.03 -0.01,-0.01 -0.02,-0.02 -0.03,-0.03 -0.01,-0.01 -0.02,-0.02 -0.03,-0.03 -0.01,-0.01 -0.02,-0.02 -0.03,-0.03 -0.01,-0.01 -0.02,-0.02 -0.03,-0.03 -0.01,-0.01 -0.02,-0.02 -0.03,-0.03 -0.01,-0.01 -0.02,-0.02 -0.03,-0.03 -0.01,-0.01 -0.02,-0.02 -0.03,-0.03 -0.01,-0.01 -0.02,-0.02 -0.03,-0.03 -0.01,-0.01 -0.02,-0.02 -0.03,-0.03 -0.01,-0.01 -0.02,-0.02 -0.03,-0.03 -0.01,-0.01 -0.02,-0.02 -0.03,-0.03 -0.01,-0.01 -0.02,-0.02 -0.03,-0.03 -0.01,-0.01 -0.02,-0.02 -0.03,-0.03 -0.01,-0.01 -0.02,-0.02 -0.03,-0.03 -0.01,-0.01 -0.02,-0.02 -0.03,-0.03 -0.01,-0.01 -0.02,-0.02 -0.03,-0.03 -0.01,-0.01 -0.02,-0.02 -0.03,-0.03 -0.01,-0.01 -0.02,-0.02 -0.03,-0.03 -0.01,-0.01 -0.02,-0.02 -0.03,-0.03 -0.01,-0.01 -0.02,-0.02 -0.03,-0.03 -0.01,-0.01 -0.02,-0.02 -0.03,-0.03 -0.01,-0.01 -0.02,-0.02 -0.03,-0.03 -0.01,-0.01 -0.02,-0.02 -0.03,-0.03 -0.01,-0.01 -0.02,-0.02 -0.03,-0.03 -0.01,-0.01 -0.02,-0.02 -0.03,-0.03 -0.01,-0.01 -0.02,-0.02 -0.03,-0.03 -0.01,-0.01 -0.02,-0.02 -0.03,-0.03 -0.01,-0.01 -0.02,-0.02 -0.03,-0.03 -0.01,-0.01 -0.02,-0.02 -0.03,-0.03 -0.01,-0.01 -0.02,-0.02 -0.03,-0.03 -0.01,-0.01 -0.02,-0.02 -0.03,-0.03 -0.01,-0.01 -0.02,-0.02 -0.03,-0.03 -0.01,-0.01 -0.02,-0.02 -0.03,-0.03 -0.01,-0.01 -0.02,-0.02 -0.03,-0.03 2.31,2.32 3.75,5.52 3.75,9.05l0 5.8 0 1.07 -1.07 0 -6.41 0 -1.04 0 0 0.03 0.03 0 0 0.03 0.03 0 0 0.03 0.03 0 0 0.03 0.03 0 0 0.03 0.03 0 0 0.03 0.03 0 0 0.03 0.03 0 0 0.03 0.03 0 0 0.03 0.03 0 0 0.03 0.03 0 0 0.03 0.03 0 0 0.03 0.03 0 0 0.03 0.03 0 0 0.03 0.03 0 0 0.03 0.03 0 0 0.03 0.03 0 0 0.03 0.03 0 0 0.03 0.03 0 0 0.03 0.03 0 0 0.03 0.03 0 0 0.03 0.03 0 0 0.03 0.03 0 0 0.03 0.03 0 0 0.03 0.03 0 0 0.03 0.03 0 0 0.03 0.03 0 0 0.03 0.03 0 0 0.03 0.03 0 0 0.03 0.03 0 0 0.03 0.03 0 0 0.03 0.03 0 0 0.03 0.03 0 0 0.03 0.03 0 0 0.03 0.03 0 0 0.03 0.03 0 0 0.03 0.03 0 0 0.03 0.03 0 0 0.03 0.03 0 0 0.03 0.03 0 0 0.03 0.03 0 0 0.03 0.03 0 0 0.03 0.03 0 0 0.03 0.03 0 0 0.03 0.03 0 0 0.03 0.03 0 0 0.03 0.03 0 0 0.03 0.03 0 0 0.03 0.03 0 0 0.03 0.03 0 0 0.03 0.03 0 0 0.03 0.03 0 0 0.03 0.03 0 0 0.03 0.03 0 0 0.03 0.03 0 0 0.03 0.03 0 0 0.03 0.03 0 0 0.03 0.03 0 0 0.03 0.03 0 0 0.03 0.03 0 0 0.03 0.03 0 0 0.03 0.03 0 0 0.03 0.03 0 0 0.03 0.03 0 0 0.03 0.03 0 0 0.03 0.03 0 0 0.03 0.03 0 0 0.03 0.03 0 0 0.03 0.03 0 0 0.03 0.03 0 0 0.03 0.03 0 0 0.03 0.03 0 0 0.03 0.03 0 0 0.03 0.03 0 0 0.03 0.03 0 0 0.03 0.03 0 0 0.03 0.03 0 0 0.03 0.03 0 0 0.03 0.03 0 0 0.03 0.03 0 0 0.03 0.03 0 0 0.03 0.03 0 0 0.03 0.03 0 0 0.03 0.03 0 0 0.03 0.03 0 0 0.03 0.03 0 0 0.03 0.03 0 0 0.03 0.03 0 0 0.03 0.03 0 0 0.03 0.03 0 0 0.03 0.03 0 0 0.03 0.03 0 0 0.03 0.03 0 0 0.03 0.03 0 0 0.03 0.03 0 0 0.03 0.03 0 0 0.03 0.03 0 0 0.03 0.03 0 0 0.03 0.03 0 0 0.03 0.03 0 0 0.03 0.03 0 0 0.03 1.07 0 6.41 0 1.07 0 0 -1.07 0 -5.8c0,-3.54 -1.45,-6.76 -3.78,-9.08zm-12.35 12.64c-0.63,-0.76 -0.98,-1.73 -0.98,-2.72l0 -0.84c0,-2.36 1.92,-4.27 4.27,-4.27 0.33,0 0.65,0.04 0.96,0.11 -0.43,-1.9 -2.13,-3.32 -4.16,-3.32 -2.36,0 -4.27,1.92 -4.27,4.28l0 0.84c0,0.99 0.35,1.95 0.98,2.72l13.2 16.02c1.89,2.29 2.93,5.18 2.93,8.15l0 0.05c0,7.07 -5.75,12.83 -12.82,12.83 -3.53,0 -6.73,-1.43 -9.05,-3.74 0.01,0.01 0.02,0.02 0.03,0.03 0.01,0.01 0.02,0.02 0.03,0.03 0.01,0.01 0.02,0.02 0.03,0.03 0.01,0.01 0.02,0.02 0.03,0.03 0.01,0.01 0.02,0.02 0.03,0.03 0.01,0.01 0.02,0.02 0.03,0.03 0.01,0.01 0.02,0.02 0.03,0.03 0.01,0.01 0.02,0.02 0.03,0.03 0.01,0.01 0.02,0.02 0.03,0.03 0.01,0.01 0.02,0.02 0.03,0.03 0.01,0.01 0.02,0.02 0.03,0.03 0.01,0.01 0.02,0.02 0.03,0.03 0.01,0.01 0.02,0.02 0.03,0.03 0.01,0.01 0.02,0.02 0.03,0.03l0.03 0.03c0.01,0.01 0.02,0.02 0.03,0.03 0.01,0.01 0.02,0.02 0.03,0.03 0.01,0.01 0.02,0.02 0.03,0.03 0.01,0.01 0.02,0.02 0.03,0.03 0.01,0.01 0.02,0.02 0.03,0.03 0.01,0.01 0.02,0.02 0.03,0.03 0.01,0.01 0.02,0.02 0.03,0.03 0.01,0.01 0.02,0.02 0.03,0.03 0.01,0.01 0.02,0.02 0.03,0.03 0.01,0.01 0.02,0.02 0.03,0.03 0.01,0.01 0.02,0.02 0.03,0.03 0.01,0.01 0.02,0.02 0.03,0.03 0.01,0.01 0.02,0.02 0.03,0.03 0.01,0.01 0.02,0.02 0.03,0.03 0.01,0.01 0.02,0.02 0.03,0.03 0.01,0.01 0.02,0.02 0.03,0.03 0.01,0.01 0.02,0.02 0.03,0.03 0.01,0.01 0.02,0.02 0.03,0.03 0.01,0.01 0.02,0.02 0.03,0.03 0.01,0.01 0.02,0.02 0.03,0.03 0.01,0.01 0.02,0.02 0.03,0.03 0.01,0.01 0.02,0.02 0.03,0.03 0.01,0.01 0.02,0.02 0.03,0.03 0.01,0.01 0.02,0.02 0.03,0.03 0.01,0.01 0.02,0.02 0.03,0.03 0.01,0.01 0.02,0.02 0.03,0.03 0.01,0.01 0.02,0.02 0.03,0.03 0.01,0.01 0.02,0.02 0.03,0.03 0.01,0.01 0.02,0.02 0.03,0.03 0.01,0.01 0.02,0.02 0.03,0.03 0.01,0.01 0.02,0.02 0.03,0.03 0.01,0.01 0.02,0.02 0.03,0.03 0.01,0.01 0.02,0.02 0.03,0.03 0.01,0.01 0.02,0.02 0.03,0.03 0.01,0.01 0.02,0.02 0.03,0.03 0.01,0.01 0.02,0.02 0.03,0.03 0.01,0.01 0.02,0.02 0.03,0.03 0.01,0.01 0.02,0.02 0.03,0.03 0.01,0.01 0.02,0.02 0.03,0.03 0.01,0.01 0.02,0.02 0.03,0.03 0.01,0.01 0.02,0.02 0.03,0.03 0.01,0.01 0.02,0.02 0.03,0.03l0.03 0.03c0.01,0.01 0.02,0.02 0.03,0.03 0.01,0.01 0.02,0.02 0.03,0.03 0.01,0.01 0.02,0.02 0.03,0.03 0.01,0.01 0.02,0.02 0.03,0.03 0.01,0.01 0.02,0.02 0.03,0.03 0.01,0.01 0.02,0.02 0.03,0.03 0.01,0.01 0.02,0.02 0.03,0.03 0.01,0.01 0.02,0.02 0.03,0.03 0.01,0.01 0.02,0.02 0.03,0.03 0.01,0.01 0.02,0.02 0.03,0.03 0.01,0.01 0.02,0.02 0.03,0.03 0.01,0.01 0.02,0.02 0.03,0.03 0.01,0.01 0.02,0.02 0.03,0.03 0.01,0.01 0.02,0.02 0.03,0.03 0.01,0.01 0.02,0.02 0.03,0.03 0.01,0.01 0.02,0.02 0.03,0.03 0.01,0.01 0.02,0.02 0.03,0.03 0.01,0.01 0.02,0.02 0.03,0.03 0.01,0.01 0.02,0.02 0.03,0.03 0.01,0.01 0.02,0.02 0.03,0.03 0.01,0.01 0.02,0.02 0.03,0.03 0.01,0.01 0.02,0.02 0.03,0.03 0.01,0.01 0.02,0.02 0.03,0.03 0.01,0.01 0.02,0.02 0.03,0.03 0.01,0.01 0.02,0.02 0.03,0.03 0.01,0.01 0.02,0.02 0.03,0.03 0.01,0.01 0.02,0.02 0.03,0.03 0.01,0.01 0.02,0.02 0.03,0.03 0.01,0.01 0.02,0.02 0.03,0.03 0.01,0.01 0.02,0.02 0.03,0.03 0.01,0.01 0.02,0.02 0.03,0.03 0.01,0.01 0.02,0.02 0.03,0.03 0.01,0.01 0.02,0.02 0.03,0.03 0.01,0.01 0.02,0.02 0.03,0.03 0.01,0.01 0.02,0.02 0.03,0.03 0.01,0.01 0.02,0.02 0.03,0.03 0.01,0.01 0.02,0.02 0.03,0.03 0.01,0.01 0.02,0.02 0.03,0.03 0.01,0.01 0.02,0.02 0.03,0.03 0.01,0.01 0.02,0.02 0.03,0.03 0.01,0.01 0.02,0.02 0.03,0.03 0.01,0.01 0.02,0.02 0.03,0.03 2.32,2.33 5.53,3.78 9.08,3.78 7.07,0 12.82,-5.75 12.82,-12.82l0 -0.05c0,-2.97 -1.04,-5.86 -2.93,-8.15l-13.2 -16.02zm-36.68 -11.04l-7.48 0 -1.04 0 0 0.03 0.03 0 0 0.03 0.03 0 0 0.03 0.03 0 0 0.03 0.03 0 0 0.03 0.03 0 0 0.03 0.03 0 0 0.03 0.03 0 0 0.03 0.03 0 0 0.03 0.03 0 0 0.03 0.03 0 0 0.03 0.03 0 0 0.03 0.03 0 0 0.03 0.03 0 0 0.03 0.03 0 0 0.03 0.03 0 0 0.03 0.03 0 0 0.03 0.03 0 0 0.03 0.03 0 0 0.03 0.03 0 0 0.03 0.03 0 0 0.03 0.03 0 0 0.03 0.03 0 0 0.03 0.03 0 0 0.03 0.03 0 0 0.03 0.03 0 0 0.03 0.03 0 0 0.03 0.03 0 0 0.03 0.03 0 0 0.03 0.03 0 0 0.03 0.03 0 0 0.03 0.03 0 0 0.03 0.03 0 0 0.03 0.03 0 0 0.03 0.03 0 0 0.03 0.03 0 0 0.03 0.03 0 0 0.03 0.03 0 0 0.03 0.03 0 0 0.03 0.03 0 0 0.03 0.03 0 0 0.03 0.03 0 0 0.03 0.03 0 0 0.03 0.03 0 0 0.03 0.03 0 0 0.03 0.03 0 0 0.03 0.03 0 0 0.03 0.03 0 0 0.03 0.03 0 0 0.03 0.03 0 0 0.03 0.03 0 0 0.03 0.03 0 0 0.03 0.03 0 0 0.03 0.03 0 0 0.03 0.03 0 0 0.03 0.03 0 0 0.03 0.03 0 0 0.03 0.03 0 0 0.03 0.03 0 0 0.03 0.03 0 0 0.03 0.03 0 0 0.03 0.03 0 0 0.03 0.03 0 0 0.03 0.03 0 0 0.03 0.03 0 0 0.03 0.03 0 0 0.03 0.03 0 0 0.03 0.03 0 0 0.03 0.03 0 0 0.03 0.03 0 0 0.03 0.03 0 0 0.03 0.03 0 0 0.03 0.03 0 0 0.03 0.03 0 0 0.03 0.03 0 0 0.03 0.03 0 0 0.03 0.03 0 0 0.03 0.03 0 0 0.03 0.03 0 0 0.03 0.03 0 0 0.03 0.03 0 0 0.03 0.03 0 0 0.03 0.03 0 0 0.03 0.03 0 0 0.03 0.03 0 0 0.03 0.03 0 0 0.03 0.03 0 0 0.03 0.03 0 0 0.03 0.03 0 0 0.03 0.03 0 0 0.03 0.03 0 0 0.03 0.03 0 0 0.03 0.03 0 0 0.03 0.03 0 0 0.03 0.03 0 0 0.03 0.03 0 0 0.03 0.03 0 0 0.03 0.03 0 0 0.03 0.03 0 0 0.03 0.03 0 0 0.03 0.03 0 0 0.03 1.07 0 4.27 0 0 -3.21zm20.28 -5.34l0 -0.03 -0.03 0 0 -0.03 -0.03 0 0 -0.03 -0.03 0 0 -0.03 -0.03 0 0 -0.03 -0.03 0 0 -0.03 -0.03 0 0 -0.03 -0.03 0 0 -0.03 -0.03 0 0 -0.03 -0.03 0 0 -0.03 -0.03 0 0 -0.03 -0.03 0 0 -0.03 -0.03 0 0 -0.03 -0.03 0 0 -0.03 -0.03 0 0 -0.03 -0.03 0 0 -0.03 -0.03 0 0 -0.03 -0.03 0 0 -0.03 -0.03 0 0 -0.03 -0.03 0 0 -0.03 -0.03 0 0 -0.03 -0.03 0 0 -0.03 -0.03 0 0 -0.03 -0.03 0 0 -0.03 -0.03 0 0 -0.03 -0.03 0 0 -0.03 -0.03 0 0 -0.03 -0.03 0 0 -0.03 -0.03 0 0 -0.03 -0.03 0 0 -0.03 -0.03 0 0 -0.03 -0.03 0 0 -0.03 -0.03 0 0 -0.03 -0.03 0 0 -0.03 -0.03 0 0 -0.03 -0.03 0 0 -0.03 -0.03 0 0 -0.03 -0.03 0 0 -0.03 -0.03 0 0 -0.03 -0.03 0 0 -0.03 -0.03 0 0 -0.03 -0.03 0 0 -0.03 -0.03 0 0 -0.03 -0.03 0 0 -0.03 -0.03 0 0 -0.03 -0.03 0 0 -0.03 -0.03 0 0 -0.03 -0.03 0 0 -0.03 -0.03 0 0 -0.03 -0.03 0 0 -0.03 -0.03 0 0 -0.03 -0.03 0 0 -0.03 -0.03 0 0 -0.03 -0.03 0 0 -0.03 -0.03 0 0 -0.03 -0.03 0 0 -0.03 -0.03 0 0 -0.03 -0.03 0 0 -0.03 -0.03 0 0 -0.03 -0.03 0 0 -0.03 -0.03 0 0 -0.03 -0.03 0 0 -0.03 -0.03 0 0 -0.03 -0.03 0 0 -0.03 -0.03 0 0 -0.03 -0.03 0 0 -0.03 -0.03 0 0 -0.03 -0.03 0 0 -0.03 -0.03 0 0 -0.03 -0.03 0 0 -0.03 -0.03 0 0 -0.03 -0.03 0 0 -0.03 -0.03 0 0 -0.03 -0.03 0 0 -0.03 -0.03 0 0 -0.03 -0.03 0 0 -0.03 -0.03 0 0 -0.03 -0.03 0 0 -0.03 -0.03 0 0 -0.03 -0.03 0 0 -0.03 -0.03 0 0 -0.03 -0.03 0 0 -0.03 -0.03 0 0 -0.03 -0.03 0 0 -0.03 -0.03 0 0 -0.03 -0.03 0 0 -0.03 -0.03 0 0 -0.03 -0.03 0 0 -0.03 -0.03 0 0 -0.03 -0.03 0 0 -0.03 -0.03 0 0 -0.03 -0.03 0 0 -0.03 -0.03 0 0 -0.03 -0.03 0 0 -0.03 -0.03 0 0 -0.03 -0.03 0 0 -0.03 -0.03 0 0 -0.03 -0.03 0 0 -0.03 -0.03 0 0 -0.03 -0.03 0 0 -0.03 -0.03 0 0 -0.03 0 1.07 0 6.41 0 1.07 -1.07 0 -1.6 0 -5.88 0 0 43.82 0 1.07 -1.07 0 -6.41 0 -1.04 0 0 0.03 0.03 0 0 0.03 0.03 0 0 0.03 0.03 0 0 0.03 0.03 0 0 0.03 0.03 0 0 0.03 0.03 0 0 0.03 0.03 0 0 0.03 0.03 0 0 0.03 0.03 0 0 0.03 0.03 0 0 0.03 0.03 0 0 0.03 0.03 0 0 0.03 0.03 0 0 0.03 0.03 0 0 0.03 0.03 0 0 0.03 0.03 0 0 0.03 0.03 0 0 0.03 0.03 0 0 0.03 0.03 0 0 0.03 0.03 0 0 0.03 0.03 0 0 0.03 0.03 0 0 0.03 0.03 0 0 0.03 0.03 0 0 0.03 0.03 0 0 0.03 0.03 0 0 0.03 0.03 0 0 0.03 0.03 0 0 0.03 0.03 0 0 0.03 0.03 0 0 0.03 0.03 0 0 0.03 0.03 0 0 0.03 0.03 0 0 0.03 0.03 0 0 0.03 0.03 0 0 0.03 0.03 0 0 0.03 0.03 0 0 0.03 0.03 0 0 0.03 0.03 0 0 0.03 0.03 0 0 0.03 0.03 0 0 0.03 0.03 0 0 0.03 0.03 0 0 0.03 0.03 0 0 0.03 0.03 0 0 0.03 0.03 0 0 0.03 0.03 0 0 0.03 0.03 0 0 0.03 0.03 0 0 0.03 0.03 0 0 0.03 0.03 0 0 0.03 0.03 0 0 0.03 0.03 0 0 0.03 0.03 0 0 0.03 0.03 0 0 0.03 0.03 0 0 0.03 0.03 0 0 0.03 0.03 0 0 0.03 0.03 0 0 0.03 0.03 0 0 0.03 0.03 0 0 0.03 0.03 0 0 0.03 0.03 0 0 0.03 0.03 0 0 0.03 0.03 0 0 0.03 0.03 0 0 0.03 0.03 0 0 0.03 0.03 0 0 0.03 0.03 0 0 0.03 0.03 0 0 0.03 0.03 0 0 0.03 0.03 0 0 0.03 0.03 0 0 0.03 0.03 0 0 0.03 0.03 0 0 0.03 0.03 0 0 0.03 0.03 0 0 0.03 0.03 0 0 0.03 0.03 0 0 0.03 0.03 0 0 0.03 0.03 0 0 0.03 0.03 0 0 0.03 0.03 0 0 0.03 0.03 0 0 0.03 0.03 0 0 0.03 0.03 0 0 0.03 0.03 0 0 0.03 0.03 0 0 0.03 0.03 0 0 0.03 0.03 0 0 0.03 0.03 0 0 0.03 0.03 0 0 0.03 0.03 0 0 0.03 0.03 0 0 0.03 0.03 0 0 0.03 0.03 0 0 0.03 0.03 0 0 0.03 0.03 0 0 0.03 0.03 0 0 0.03 0.03 0 0 0.03 1.07 0 6.41 0 1.07 0 0 -1.07 0 -43.82 5.88 0 1.6 0 1.07 0 0 -1.07 0 -6.41 0 -1.07 -0.03 0zm-36.52 22.41l-0.03 0 0 -0.03 -0.03 0 0 -0.03 -0.03 0 0 -0.03 -0.03 0 0 -0.03 -0.03 0 0 -0.03 -0.03 0 0 -0.03 -0.03 0 0 -0.03 -0.03 0 0 -0.03 -0.03 0 0 -0.03 -0.03 0 0 -0.03 -0.03 0 0 -0.03 -0.03 0 0 -0.03 -0.03 0 0 -0.03 -0.03 0 0 -0.03 -0.03 0 0 -0.03 -0.03 0 0 -0.03 -0.03 0 0 -0.03 -0.03 0 0 -0.03 -0.03 0 0 -0.03 -0.03 0 0 -0.03 -0.03 0 0 -0.03 -0.03 0 0 -0.03 -0.03 0 0 -0.03 -0.03 0 0 -0.03 -0.03 0 0 -0.03 -0.03 0 0 -0.03 -0.03 0 0 -0.03 -0.03 0 0 -0.03 -0.03 0 0 -0.03 -0.03 0 0 -0.03 -0.03 0 0 -0.03 -0.03 0 0 -0.03 -0.03 0 0 -0.03 -0.03 0 0 -0.03 -0.03 0 0 -0.03 -0.03 0 0 -0.03 -0.03 0 0 -0.03 -0.03 0 0 -0.03 -0.03 0 0 -0.03 -0.03 0 0 -0.03 -0.03 0 0 -0.03 -0.03 0 0 -0.03 -0.03 0 0 -0.03 -0.03 0 0 -0.03 -0.03 0 0 -0.03 -0.03 0 0 -0.03 -0.03 0 0 -0.03 -0.03 0 0 -0.03 -0.03 0 0 -0.03 -0.03 0 0 -0.03 -0.03 0 0 -0.03 -0.03 0 0 -0.03 -0.03 0 0 -0.03 -0.03 0 0 -0.03 -0.03 0 0 -0.03 -0.03 0 0 -0.03 -0.03 0 0 -0.03 -0.03 0 0 -0.03 -0.03 0 0 -0.03 -0.03 0 0 -0.03 -0.03 0 0 -0.03 -0.03 0 0 -0.03 -0.03 0 0 -0.03 -0.03 0 0 -0.03 -0.03 0 0 -0.03 -0.03 0 0 -0.03 -0.03 0 0 -0.03 -0.03 0 0 -0.03 -0.03 0 0 -0.03 -0.03 0 0 -0.03 -0.03 0 0 -0.03 -0.03 0 0 -0.03 -0.03 0 0 -0.03 -0.03 0 0 -0.03 -0.03 0 0 -0.03 -0.03 0 0 -0.03 -0.03 0 0 -0.03 -0.03 0 0 -0.03 -0.03 0 0 -0.03 -0.03 0 0 -0.03 -0.03 0 0 -0.03 -0.03 0 0 -0.03 -0.03 0 0 -0.03 -0.03 0 0 -0.03 -0.03 0 0 -0.03 -0.03 0 0 -0.03 -0.03 0 0 -0.03 -0.03 0 0 -0.03 -0.03 0 0 -0.03 -0.03 0 0 -0.03 -0.03 0 0 -0.03 -0.03 0 0 -0.03 -0.03 0 0 -0.03 -0.03 0 0 -0.03 -0.03 0 0 -0.03 -0.03 0 0 -0.03 -0.03 0 0 -0.03 -0.03 0 0 -0.03 -0.03 0 0 -0.03 -0.03 0 0 -0.03 0 8.55 -9.4 0 0 22.44 -8.52 0 0 0.03 0.03 0 0 0.03 0.03 0 0 0.03 0.03 0 0 0.03 0.03 0 0 0.03 0.03 0 0 0.03 0.03 0 0 0.03 0.03 0 0 0.03 0.03 0 0 0.03 0.03 0 0 0.03 0.03 0 0 0.03 0.03 0 0 0.03 0.03 0 0 0.03 0.03 0 0 0.03 0.03 0 0 0.03 0.03 0 0 0.03 0.03 0 0 0.03 0.03 0 0 0.03 0.03 0 0 0.03 0.03 0 0 0.03 0.03 0 0 0.03 0.03 0 0 0.03 0.03 0 0 0.03 0.03 0 0 0.03 0.03 0 0 0.03 0.03 0 0 0.03 0.03 0 0 0.03 0.03 0 0 0.03 0.03 0 0 0.03 0.03 0 0 0.03 0.03 0 0 0.03 0.03 0 0 0.03 0.03 0 0 0.03 0.03 0 0 0.03 0.03 0 0 0.03 0.03 0 0 0.03 0.03 0 0 0.03 0.03 0 0 0.03 0.03 0 0 0.03 0.03 0 0 0.03 0.03 0 0 0.03 0.03 0 0 0.03 0.03 0 0 0.03 0.03 0 0 0.03 0.03 0 0 0.03 0.03 0 0 0.03 0.03 0 0 0.03 0.03 0 0 0.03 0.03 0 0 0.03 0.03 0 0 0.03 0.03 0 0 0.03 0.03 0 0 0.03 0.03 0 0 0.03 0.03 0 0 0.03 0.03 0 0 0.03 0.03 0 0 0.03 0.03 0 0 0.03 0.03 0 0 0.03 0.03 0 0 0.03 0.03 0 0 0.03 0.03 0 0 0.03 0.03 0 0 0.03 0.03 0 0 0.03 0.03 0 0 0.03 0.03 0 0 0.03 0.03 0 0 0.03 0.03 0 0 0.03 0.03 0 0 0.03 0.03 0 0 0.03 0.03 0 0 0.03 0.03 0 0 0.03 0.03 0 0 0.03 0.03 0 0 0.03 0.03 0 0 0.03 0.03 0 0 0.03 0.03 0 0 0.03 0.03 0 0 0.03 0.03 0 0 0.03 0.03 0 0 0.03 0.03 0 0 0.03 0.03 0 0 0.03 0.03 0 0 0.03 0.03 0 0 0.03 0.03 0 0 0.03 0.03 0 0 0.03 0.03 0 0 0.03 0.03 0 0 0.03 0.03 0 0 0.03 0.03 0 0 0.03 0.03 0 0 0.03 0.03 0 0 0.03 0.03 0 0 0.03 0.03 0 0 0.03 0.03 0 0 0.03 0.03 0 0 0.03 0.03 0 0 0.03 0.03 0 0 0.03 0.03 0 0 0.03 0.03 0 0 0.03 0.03 0 0 0.03 0.03 0 0 0.03 8.55 0 0 -22.44 9.41 0 0 -8.55 -0.03 0 0 -0.03zm4.49 -22.41l0 -0.03 -0.03 0 0 -0.03 -0.03 0 0 -0.03 -0.03 0 0 -0.03 -0.03 0 0 -0.03 -0.03 0 0 -0.03 -0.03 0 0 -0.03 -0.03 0 0 -0.03 -0.03 0 0 -0.03 -0.03 0 0 -0.03 -0.03 0 0 -0.03 -0.03 0 0 -0.03 -0.03 0 0 -0.03 -0.03 0 0 -0.03 -0.03 0 0 -0.03 -0.03 0 0 -0.03 -0.03 0 0 -0.03 -0.03 0 0 -0.03 -0.03 0 0 -0.03 -0.03 0 0 -0.03 -0.03 0 0 -0.03 -0.03 0 0 -0.03 -0.03 0 0 -0.03 -0.03 0 0 -0.03 -0.03 0 0 -0.03 -0.03 0 0 -0.03 -0.03 0 0 -0.03 -0.03 0 0 -0.03 -0.03 0 0 -0.03 -0.03 0 0 -0.03 -0.03 0 0 -0.03 -0.03 0 0 -0.03 -0.03 0 0 -0.03 -0.03 0 0 -0.03 -0.03 0 0 -0.03 -0.03 0 0 -0.03 -0.03 0 0 -0.03 -0.03 0 0 -0.03 -0.03 0 0 -0.03 -0.03 0 0 -0.03 -0.03 0 0 -0.03 -0.03 0 0 -0.03 -0.03 0 0 -0.03 -0.03 0 0 -0.03 -0.03 0 0 -0.03 -0.03 0 0 -0.03 -0.03 0 0 -0.03 -0.03 0 0 -0.03 -0.03 0 0 -0.03 -0.03 0 0 -0.03 -0.03 0 0 -0.03 -0.03 0 0 -0.03 -0.03 0 0 -0.03 -0.03 0 0 -0.03 -0.03 0 0 -0.03 -0.03 0 0 -0.03 -0.03 0 0 -0.03 -0.03 0 0 -0.03 -0.03 0 0 -0.03 -0.03 0 0 -0.03 -0.03 0 0 -0.03 -0.03 0 0 -0.03 -0.03 0 0 -0.03 -0.03 0 0 -0.03 -0.03 0 0 -0.03 -0.03 0 0 -0.03 -0.03 0 0 -0.03 -0.03 0 0 -0.03 -0.03 0 0 -0.03 -0.03 0 0 -0.03 -0.03 0 0 -0.03 -0.03 0 0 -0.03 -0.03 0 0 -0.03 -0.03 0 0 -0.03 -0.03 0 0 -0.03 -0.03 0 0 -0.03 -0.03 0 0 -0.03 -0.03 0 0 -0.03 -0.03 0 0 -0.03 -0.03 0 0 -0.03 -0.03 0 0 -0.03 -0.03 0 0 -0.03 -0.03 0 0 -0.03 -0.03 0 0 -0.03 -0.03 0 0 -0.03 -0.03 0 0 -0.03 -0.03 0 0 -0.03 -0.03 0 0 -0.03 -0.03 0 0 -0.03 -0.03 0 0 -0.03 -0.03 0 0 -0.03 -0.03 0 0 -0.03 -0.03 0 0 -0.03 -0.03 0 0 -0.03 -0.03 0 0 -0.03 -0.03 0 0 -0.03 -0.03 0 0 -0.03 -0.03 0 0 -0.03 -0.03 0 0 -0.03 -0.03 0 0 -0.03 -0.03 0 0 -0.03 0 8.55 -13.89 0 0 13.89 3.21 0 0 -10.69 13.89 0 0 -8.55 -0.03 0zm-49.24 41.56c-0.07,-0.31 -0.11,-0.62 -0.11,-0.95l0 -27.79c0,-2.36 1.92,-4.27 4.28,-4.27 0.33,0 0.65,0.04 0.95,0.11 -0.44,-1.9 -2.14,-3.32 -4.16,-3.32 -2.36,0 -4.27,1.92 -4.27,4.28l0 27.79c0,2.03 1.42,3.72 3.32,4.16zm13.21 -37.82c-0.01,-0.01 -0.02,-0.02 -0.03,-0.03 -0.01,-0.01 -0.02,-0.02 -0.03,-0.03 -0.01,-0.01 -0.02,-0.02 -0.03,-0.03l-0.03 -0.03c-0.01,-0.01 -0.02,-0.02 -0.03,-0.03 -0.01,-0.01 -0.02,-0.02 -0.03,-0.03 -0.01,-0.01 -0.02,-0.02 -0.03,-0.03 -0.01,-0.01 -0.02,-0.02 -0.03,-0.03 -0.01,-0.01 -0.02,-0.02 -0.03,-0.03 -0.01,-0.01 -0.02,-0.02 -0.03,-0.03 -0.01,-0.01 -0.02,-0.02 -0.03,-0.03 -0.01,-0.01 -0.02,-0.02 -0.03,-0.03 -0.01,-0.01 -0.02,-0.02 -0.03,-0.03 -0.01,-0.01 -0.02,-0.02 -0.03,-0.03 -0.01,-0.01 -0.02,-0.02 -0.03,-0.03 -0.01,-0.01 -0.02,-0.02 -0.03,-0.03 -0.01,-0.01 -0.02,-0.02 -0.03,-0.03 -0.01,-0.01 -0.02,-0.02 -0.03,-0.03 -0.01,-0.01 -0.02,-0.02 -0.03,-0.03 -0.01,-0.01 -0.02,-0.02 -0.03,-0.03 -0.01,-0.01 -0.02,-0.02 -0.03,-0.03 -0.01,-0.01 -0.02,-0.02 -0.03,-0.03 -0.01,-0.01 -0.02,-0.02 -0.03,-0.03 -0.01,-0.01 -0.02,-0.02 -0.03,-0.03 -0.01,-0.01 -0.02,-0.02 -0.03,-0.03 -0.01,-0.01 -0.02,-0.02 -0.03,-0.03 -0.01,-0.01 -0.02,-0.02 -0.03,-0.03 -0.01,-0.01 -0.02,-0.02 -0.03,-0.03 -0.01,-0.01 -0.02,-0.02 -0.03,-0.03 -0.01,-0.01 -0.02,-0.02 -0.03,-0.03 -0.01,-0.01 -0.02,-0.02 -0.03,-0.03 -0.01,-0.01 -0.02,-0.02 -0.03,-0.03 -0.01,-0.01 -0.02,-0.02 -0.03,-0.03 -0.01,-0.01 -0.02,-0.02 -0.03,-0.03 -0.01,-0.01 -0.02,-0.02 -0.03,-0.03 -0.01,-0.01 -0.02,-0.02 -0.03,-0.03 -0.01,-0.01 -0.02,-0.02 -0.03,-0.03 -0.01,-0.01 -0.02,-0.02 -0.03,-0.03 -0.01,-0.01 -0.02,-0.02 -0.03,-0.03 -0.01,-0.01 -0.02,-0.02 -0.03,-0.03 -0.01,-0.01 -0.02,-0.02 -0.03,-0.03 -0.01,-0.01 -0.02,-0.02 -0.03,-0.03 -0.01,-0.01 -0.02,-0.02 -0.03,-0.03 -0.01,-0.01 -0.02,-0.02 -0.03,-0.03 -0.01,-0.01 -0.02,-0.02 -0.03,-0.03 -0.01,-0.01 -0.02,-0.02 -0.03,-0.03 -0.01,-0.01 -0.02,-0.02 -0.03,-0.03 -0.01,-0.01 -0.02,-0.02 -0.03,-0.03 -0.01,-0.01 -0.02,-0.02 -0.03,-0.03 -0.01,-0.01 -0.02,-0.02 -0.03,-0.03 -0.01,-0.01 -0.02,-0.02 -0.03,-0.03 -0.01,-0.01 -0.02,-0.02 -0.03,-0.03 -0.01,-0.01 -0.02,-0.02 -0.03,-0.03 -0.01,-0.01 -0.02,-0.02 -0.03,-0.03 -0.01,-0.01 -0.02,-0.02 -0.03,-0.03 -0.01,-0.01 -0.02,-0.02 -0.03,-0.03 -0.01,-0.01 -0.02,-0.02 -0.03,-0.03 -0.01,-0.01 -0.02,-0.02 -0.03,-0.03 -0.01,-0.01 -0.02,-0.02 -0.03,-0.03 -0.01,-0.01 -0.02,-0.02 -0.03,-0.03 -0.01,-0.01 -0.02,-0.02 -0.03,-0.03 -0.01,-0.01 -0.02,-0.02 -0.03,-0.03 -0.01,-0.01 -0.02,-0.02 -0.03,-0.03 -0.01,-0.01 -0.02,-0.02 -0.03,-0.03 -0.01,-0.01 -0.02,-0.02 -0.03,-0.03 -0.01,-0.01 -0.02,-0.02 -0.03,-0.03 -0.01,-0.01 -0.02,-0.02 -0.03,-0.03 -0.01,-0.01 -0.02,-0.02 -0.03,-0.03 -0.01,-0.01 -0.02,-0.02 -0.03,-0.03 -0.01,-0.01 -0.02,-0.02 -0.03,-0.03 -0.01,-0.01 -0.02,-0.02 -0.03,-0.03 -0.01,-0.01 -0.02,-0.02 -0.03,-0.03 -0.01,-0.01 -0.02,-0.02 -0.03,-0.03 -0.01,-0.01 -0.02,-0.02 -0.03,-0.03 -0.01,-0.01 -0.02,-0.02 -0.03,-0.03 -0.01,-0.01 -0.02,-0.02 -0.03,-0.03 -0.01,-0.01 -0.02,-0.02 -0.03,-0.03 -0.01,-0.01 -0.02,-0.02 -0.03,-0.03 -0.01,-0.01 -0.02,-0.02 -0.03,-0.03 -0.01,-0.01 -0.02,-0.02 -0.03,-0.03 -0.01,-0.01 -0.02,-0.02 -0.03,-0.03 -0.01,-0.01 -0.02,-0.02 -0.03,-0.03 -0.01,-0.01 -0.02,-0.02 -0.03,-0.03 -0.01,-0.01 -0.02,-0.02 -0.03,-0.03 -0.01,-0.01 -0.02,-0.02 -0.03,-0.03 -0.01,-0.01 -0.02,-0.02 -0.03,-0.03 -0.01,-0.01 -0.02,-0.02 -0.03,-0.03 -0.01,-0.01 -0.02,-0.02 -0.03,-0.03 -0.01,-0.01 -0.02,-0.02 -0.03,-0.03 -0.01,-0.01 -0.02,-0.02 -0.03,-0.03 -0.01,-0.01 -0.02,-0.02 -0.03,-0.03 -0.01,-0.01 -0.02,-0.02 -0.03,-0.03 -0.01,-0.01 -0.02,-0.02 -0.03,-0.03 -0.01,-0.01 -0.02,-0.02 -0.03,-0.03 -0.01,-0.01 -0.02,-0.02 -0.03,-0.03 -0.01,-0.01 -0.02,-0.02 -0.03,-0.03 -0.01,-0.01 -0.02,-0.02 -0.03,-0.03 -0.01,-0.01 -0.02,-0.02 -0.03,-0.03 -0.01,-0.01 -0.02,-0.02 -0.03,-0.03 -0.01,-0.01 -0.02,-0.02 -0.03,-0.03l-0 0c2.31,2.32 3.75,5.52 3.75,9.05l0 27.79c0,7.07 -5.75,12.82 -12.82,12.82 -3.53,0 -6.73,-1.43 -9.05,-3.74 0.01,0.01 0.02,0.02 0.03,0.03 0.01,0.01 0.02,0.02 0.03,0.03 0.01,0.01 0.02,0.02 0.03,0.03 0.01,0.01 0.02,0.02 0.03,0.03 0.01,0.01 0.02,0.02 0.03,0.03 0.01,0.01 0.02,0.02 0.03,0.03 0.01,0.01 0.02,0.02 0.03,0.03 0.01,0.01 0.02,0.02 0.03,0.03 0.01,0.01 0.02,0.02 0.03,0.03 0.01,0.01 0.02,0.02 0.03,0.03 0.01,0.01 0.02,0.02 0.03,0.03 0.01,0.01 0.02,0.02 0.03,0.03 0.01,0.01 0.02,0.02 0.03,0.03 0.01,0.01 0.02,0.02 0.03,0.03l0.03 0.03c0.01,0.01 0.02,0.02 0.03,0.03 0.01,0.01 0.02,0.02 0.03,0.03 0.01,0.01 0.02,0.02 0.03,0.03 0.01,0.01 0.02,0.02 0.03,0.03 0.01,0.01 0.02,0.02 0.03,0.03 0.01,0.01 0.02,0.02 0.03,0.03 0.01,0.01 0.02,0.02 0.03,0.03 0.01,0.01 0.02,0.02 0.03,0.03 0.01,0.01 0.02,0.02 0.03,0.03 0.01,0.01 0.02,0.02 0.03,0.03 0.01,0.01 0.02,0.02 0.03,0.03 0.01,0.01 0.02,0.02 0.03,0.03 0.01,0.01 0.02,0.02 0.03,0.03 0.01,0.01 0.02,0.02 0.03,0.03 0.01,0.01 0.02,0.02 0.03,0.03 0.01,0.01 0.02,0.02 0.03,0.03 0.01,0.01 0.02,0.02 0.03,0.03 0.01,0.01 0.02,0.02 0.03,0.03 0.01,0.01 0.02,0.02 0.03,0.03 0.01,0.01 0.02,0.02 0.03,0.03 0.01,0.01 0.02,0.02 0.03,0.03 0.01,0.01 0.02,0.02 0.03,0.03 0.01,0.01 0.02,0.02 0.03,0.03 0.01,0.01 0.02,0.02 0.03,0.03 0.01,0.01 0.02,0.02 0.03,0.03 0.01,0.01 0.02,0.02 0.03,0.03 0.01,0.01 0.02,0.02 0.03,0.03 0.01,0.01 0.02,0.02 0.03,0.03 0.01,0.01 0.02,0.02 0.03,0.03 0.01,0.01 0.02,0.02 0.03,0.03 0.01,0.01 0.02,0.02 0.03,0.03 0.01,0.01 0.02,0.02 0.03,0.03 0.01,0.01 0.02,0.02 0.03,0.03 0.01,0.01 0.02,0.02 0.03,0.03 0.01,0.01 0.02,0.02 0.03,0.03 0.01,0.01 0.02,0.02 0.03,0.03 0.01,0.01 0.02,0.02 0.03,0.03 0.01,0.01 0.02,0.02 0.03,0.03 0.01,0.01 0.02,0.02 0.03,0.03 0.01,0.01 0.02,0.02 0.03,0.03 0.01,0.01 0.02,0.02 0.03,0.03 0.01,0.01 0.02,0.02 0.03,0.03 0.01,0.01 0.02,0.02 0.03,0.03 0.01,0.01 0.02,0.02 0.03,0.03 0.01,0.01 0.02,0.02 0.03,0.03 0.01,0.01 0.02,0.02 0.03,0.03 0.01,0.01 0.02,0.02 0.03,0.03 0.01,0.01 0.02,0.02 0.03,0.03 0.01,0.01 0.02,0.02 0.03,0.03 0.01,0.01 0.02,0.02 0.03,0.03 0.01,0.01 0.02,0.02 0.03,0.03 0.01,0.01 0.02,0.02 0.03,0.03 0.01,0.01 0.02,0.02 0.03,0.03 0.01,0.01 0.02,0.02 0.03,0.03 0.01,0.01 0.02,0.02 0.03,0.03 0.01,0.01 0.02,0.02 0.03,0.03 0.01,0.01 0.02,0.02 0.03,0.03 0.01,0.01 0.02,0.02 0.03,0.03 0.01,0.01 0.02,0.02 0.03,0.03 0.01,0.01 0.02,0.02 0.03,0.03 0.01,0.01 0.02,0.02 0.03,0.03 0.01,0.01 0.02,0.02 0.03,0.03 0.01,0.01 0.02,0.02 0.03,0.03 0.01,0.01 0.02,0.02 0.03,0.03 0.01,0.01 0.02,0.02 0.03,0.03 0.01,0.01 0.02,0.02 0.03,0.03 0.01,0.01 0.02,0.02 0.03,0.03 0.01,0.01 0.02,0.02 0.03,0.03 0.01,0.01 0.02,0.02 0.03,0.03 0.01,0.01 0.02,0.02 0.03,0.03 0.01,0.01 0.02,0.02 0.03,0.03 0.01,0.01 0.02,0.02 0.03,0.03 0.01,0.01 0.02,0.02 0.03,0.03 0.01,0.01 0.02,0.02 0.03,0.03 0.01,0.01 0.02,0.02 0.03,0.03 0.01,0.01 0.02,0.02 0.03,0.03 0.01,0.01 0.02,0.02 0.03,0.03 0.01,0.01 0.02,0.02 0.03,0.03 0.01,0.01 0.02,0.02 0.03,0.03 0.01,0.01 0.02,0.02 0.03,0.03 0.01,0.01 0.02,0.02 0.03,0.03 0.01,0.01 0.02,0.02 0.03,0.03 0.01,0.01 0.02,0.02 0.03,0.03 0.01,0.01 0.02,0.02 0.03,0.03 0.01,0.01 0.02,0.02 0.03,0.03 2.32,2.33 5.54,3.78 9.08,3.78 7.07,0 12.82,-5.75 12.82,-12.82l0 -27.79c0,-3.54 -1.45,-6.76 -3.78,-9.08zm-35.32 0c-0.01,-0.01 -0.02,-0.02 -0.03,-0.03 -0.01,-0.01 -0.02,-0.02 -0.03,-0.03 -0.01,-0.01 -0.02,-0.02 -0.03,-0.03 -0.01,-0.01 -0.02,-0.02 -0.03,-0.03 -0.01,-0.01 -0.02,-0.02 -0.03,-0.03 -0.01,-0.01 -0.02,-0.02 -0.03,-0.03 -0.01,-0.01 -0.02,-0.02 -0.03,-0.03 -0.01,-0.01 -0.02,-0.02 -0.03,-0.03 -0.01,-0.01 -0.02,-0.02 -0.03,-0.03 -0.01,-0.01 -0.02,-0.02 -0.03,-0.03 -0.01,-0.01 -0.02,-0.02 -0.03,-0.03 -0.01,-0.01 -0.02,-0.02 -0.03,-0.03 -0.01,-0.01 -0.02,-0.02 -0.03,-0.03 -0.01,-0.01 -0.02,-0.02 -0.03,-0.03 -0.01,-0.01 -0.02,-0.02 -0.03,-0.03 -0.01,-0.01 -0.02,-0.02 -0.03,-0.03 -0.01,-0.01 -0.02,-0.02 -0.03,-0.03 -0.01,-0.01 -0.02,-0.02 -0.03,-0.03 -0.01,-0.01 -0.02,-0.02 -0.03,-0.03 -0.01,-0.01 -0.02,-0.02 -0.03,-0.03 -0.01,-0.01 -0.02,-0.02 -0.03,-0.03 -0.01,-0.01 -0.02,-0.02 -0.03,-0.03 -0.01,-0.01 -0.02,-0.02 -0.03,-0.03 -0.01,-0.01 -0.02,-0.02 -0.03,-0.03 -0.01,-0.01 -0.02,-0.02 -0.03,-0.03 -0.01,-0.01 -0.02,-0.02 -0.03,-0.03 -0.01,-0.01 -0.02,-0.02 -0.03,-0.03 -0.01,-0.01 -0.02,-0.02 -0.03,-0.03 -0.01,-0.01 -0.02,-0.02 -0.03,-0.03 -0.01,-0.01 -0.02,-0.02 -0.03,-0.03 -0.01,-0.01 -0.02,-0.02 -0.03,-0.03 -0.01,-0.01 -0.02,-0.02 -0.03,-0.03 -0.01,-0.01 -0.02,-0.02 -0.03,-0.03 -0.01,-0.01 -0.02,-0.02 -0.03,-0.03 -0.01,-0.01 -0.02,-0.02 -0.03,-0.03 -0.01,-0.01 -0.02,-0.02 -0.03,-0.03 -0.01,-0.01 -0.02,-0.02 -0.03,-0.03 -0.01,-0.01 -0.02,-0.02 -0.03,-0.03 -0.01,-0.01 -0.02,-0.02 -0.03,-0.03 -0.01,-0.01 -0.02,-0.02 -0.03,-0.03 -0.01,-0.01 -0.02,-0.02 -0.03,-0.03 -0.01,-0.01 -0.02,-0.02 -0.03,-0.03 -0.01,-0.01 -0.02,-0.02 -0.03,-0.03 -0.01,-0.01 -0.02,-0.02 -0.03,-0.03 -0.01,-0.01 -0.02,-0.02 -0.03,-0.03 -0.01,-0.01 -0.02,-0.02 -0.03,-0.03 -0.01,-0.01 -0.02,-0.02 -0.03,-0.03 -0.01,-0.01 -0.02,-0.02 -0.03,-0.03 -0.01,-0.01 -0.02,-0.02 -0.03,-0.03 -0.01,-0.01 -0.02,-0.02 -0.03,-0.03 -0.01,-0.01 -0.02,-0.02 -0.03,-0.03 -0.01,-0.01 -0.02,-0.02 -0.03,-0.03 -0.01,-0.01 -0.02,-0.02 -0.03,-0.03 -0.01,-0.01 -0.02,-0.02 -0.03,-0.03 -0.01,-0.01 -0.02,-0.02 -0.03,-0.03 -0.01,-0.01 -0.02,-0.02 -0.03,-0.03 -0.01,-0.01 -0.02,-0.02 -0.03,-0.03 -0.01,-0.01 -0.02,-0.02 -0.03,-0.03 -0.01,-0.01 -0.02,-0.02 -0.03,-0.03 -0.01,-0.01 -0.02,-0.02 -0.03,-0.03 -0.01,-0.01 -0.02,-0.02 -0.03,-0.03 -0.01,-0.01 -0.02,-0.02 -0.03,-0.03 -0.01,-0.01 -0.02,-0.02 -0.03,-0.03 -0.01,-0.01 -0.02,-0.02 -0.03,-0.03 -0.01,-0.01 -0.02,-0.02 -0.03,-0.03 -0.01,-0.01 -0.02,-0.02 -0.03,-0.03 -0.01,-0.01 -0.02,-0.02 -0.03,-0.03 -0.01,-0.01 -0.02,-0.02 -0.03,-0.03 -0.01,-0.01 -0.02,-0.02 -0.03,-0.03 -0.01,-0.01 -0.02,-0.02 -0.03,-0.03 -0.01,-0.01 -0.02,-0.02 -0.03,-0.03 -0.01,-0.01 -0.02,-0.02 -0.03,-0.03 -0.01,-0.01 -0.02,-0.02 -0.03,-0.03 -0.01,-0.01 -0.02,-0.02 -0.03,-0.03 -0.01,-0.01 -0.02,-0.02 -0.03,-0.03 -0.01,-0.01 -0.02,-0.02 -0.03,-0.03 -0.01,-0.01 -0.02,-0.02 -0.03,-0.03 -0.01,-0.01 -0.02,-0.02 -0.03,-0.03 -0.01,-0.01 -0.02,-0.02 -0.03,-0.03 -0.01,-0.01 -0.02,-0.02 -0.03,-0.03 -0.01,-0.01 -0.02,-0.02 -0.03,-0.03 -0.01,-0.01 -0.02,-0.02 -0.03,-0.03 -0.01,-0.01 -0.02,-0.02 -0.03,-0.03 -0.01,-0.01 -0.02,-0.02 -0.03,-0.03 -0.01,-0.01 -0.02,-0.02 -0.03,-0.03 -0.01,-0.01 -0.02,-0.02 -0.03,-0.03 -0.01,-0.01 -0.02,-0.02 -0.03,-0.03 -0.01,-0.01 -0.02,-0.02 -0.03,-0.03 -0.01,-0.01 -0.02,-0.02 -0.03,-0.03 -0.01,-0.01 -0.02,-0.02 -0.03,-0.03 -0.01,-0.01 -0.02,-0.02 -0.03,-0.03 -0.01,-0.01 -0.02,-0.02 -0.03,-0.03 -0.01,-0.01 -0.02,-0.02 -0.03,-0.03 -0.01,-0.01 -0.02,-0.02 -0.03,-0.03 -0.01,-0.01 -0.02,-0.02 -0.03,-0.03 -0.01,-0.01 -0.02,-0.02 -0.03,-0.03 -0.01,-0.01 -0.02,-0.02 -0.03,-0.03 -0.01,-0.01 -0.02,-0.02 -0.03,-0.03 -0.01,-0.01 -0.02,-0.02 -0.03,-0.03 -0.01,-0.01 -0.02,-0.02 -0.03,-0.03 2.31,2.32 3.75,5.52 3.75,9.05l0 5.8 0 1.07 -1.07 0 -6.41 0 -1.04 0 0 0.03 0.03 0 0 0.03 0.03 0 0 0.03 0.03 0 0 0.03 0.03 0 0 0.03 0.03 0 0 0.03 0.03 0 0 0.03 0.03 0 0 0.03 0.03 0 0 0.03 0.03 0 0 0.03 0.03 0 0 0.03 0.03 0 0 0.03 0.03 0 0 0.03 0.03 0 0 0.03 0.03 0 0 0.03 0.03 0 0 0.03 0.03 0 0 0.03 0.03 0 0 0.03 0.03 0 0 0.03 0.03 0 0 0.03 0.03 0 0 0.03 0.03 0 0 0.03 0.03 0 0 0.03 0.03 0 0 0.03 0.03 0 0 0.03 0.03 0 0 0.03 0.03 0 0 0.03 0.03 0 0 0.03 0.03 0 0 0.03 0.03 0 0 0.03 0.03 0 0 0.03 0.03 0 0 0.03 0.03 0 0 0.03 0.03 0 0 0.03 0.03 0 0 0.03 0.03 0 0 0.03 0.03 0 0 0.03 0.03 0 0 0.03 0.03 0 0 0.03 0.03 0 0 0.03 0.03 0 0 0.03 0.03 0 0 0.03 0.03 0 0 0.03 0.03 0 0 0.03 0.03 0 0 0.03 0.03 0 0 0.03 0.03 0 0 0.03 0.03 0 0 0.03 0.03 0 0 0.03 0.03 0 0 0.03 0.03 0 0 0.03 0.03 0 0 0.03 0.03 0 0 0.03 0.03 0 0 0.03 0.03 0 0 0.03 0.03 0 0 0.03 0.03 0 0 0.03 0.03 0 0 0.03 0.03 0 0 0.03 0.03 0 0 0.03 0.03 0 0 0.03 0.03 0 0 0.03 0.03 0 0 0.03 0.03 0 0 0.03 0.03 0 0 0.03 0.03 0 0 0.03 0.03 0 0 0.03 0.03 0 0 0.03 0.03 0 0 0.03 0.03 0 0 0.03 0.03 0 0 0.03 0.03 0 0 0.03 0.03 0 0 0.03 0.03 0 0 0.03 0.03 0 0 0.03 0.03 0 0 0.03 0.03 0 0 0.03 0.03 0 0 0.03 0.03 0 0 0.03 0.03 0 0 0.03 0.03 0 0 0.03 0.03 0 0 0.03 0.03 0 0 0.03 0.03 0 0 0.03 0.03 0 0 0.03 0.03 0 0 0.03 0.03 0 0 0.03 0.03 0 0 0.03 0.03 0 0 0.03 0.03 0 0 0.03 0.03 0 0 0.03 0.03 0 0 0.03 0.03 0 0 0.03 0.03 0 0 0.03 0.03 0 0 0.03 0.03 0 0 0.03 0.03 0 0 0.03 0.03 0 0 0.03 0.03 0 0 0.03 0.03 0 0 0.03 0.03 0 0 0.03 1.07 0 6.41 0 1.07 0 0 -1.07 0 -5.8c0,-3.54 -1.45,-6.76 -3.78,-9.08zm-12.35 12.64c-0.63,-0.76 -0.98,-1.73 -0.98,-2.72l0 -0.84c0,-2.36 1.92,-4.27 4.27,-4.27 0.33,0 0.65,0.04 0.96,0.11 -0.43,-1.9 -2.13,-3.32 -4.16,-3.32 -2.36,0 -4.27,1.92 -4.27,4.28l0 0.84c0,0.99 0.35,1.95 0.98,2.72l13.2 16.02c1.89,2.29 2.93,5.18 2.93,8.15l0 0.05c0,7.07 -5.75,12.83 -12.82,12.83 -3.53,0 -6.73,-1.43 -9.05,-3.74 0.01,0.01 0.02,0.02 0.03,0.03 0.01,0.01 0.02,0.02 0.03,0.03 0.01,0.01 0.02,0.02 0.03,0.03 0.01,0.01 0.02,0.02 0.03,0.03 0.01,0.01 0.02,0.02 0.03,0.03 0.01,0.01 0.02,0.02 0.03,0.03 0.01,0.01 0.02,0.02 0.03,0.03 0.01,0.01 0.02,0.02 0.03,0.03 0.01,0.01 0.02,0.02 0.03,0.03 0.01,0.01 0.02,0.02 0.03,0.03 0.01,0.01 0.02,0.02 0.03,0.03 0.01,0.01 0.02,0.02 0.03,0.03 0.01,0.01 0.02,0.02 0.03,0.03 0.01,0.01 0.02,0.02 0.03,0.03l0.03 0.03c0.01,0.01 0.02,0.02 0.03,0.03 0.01,0.01 0.02,0.02 0.03,0.03 0.01,0.01 0.02,0.02 0.03,0.03 0.01,0.01 0.02,0.02 0.03,0.03 0.01,0.01 0.02,0.02 0.03,0.03 0.01,0.01 0.02,0.02 0.03,0.03 0.01,0.01 0.02,0.02 0.03,0.03 0.01,0.01 0.02,0.02 0.03,0.03 0.01,0.01 0.02,0.02 0.03,0.03 0.01,0.01 0.02,0.02 0.03,0.03 0.01,0.01 0.02,0.02 0.03,0.03 0.01,0.01 0.02,0.02 0.03,0.03 0.01,0.01 0.02,0.02 0.03,0.03 0.01,0.01 0.02,0.02 0.03,0.03 0.01,0.01 0.02,0.02 0.03,0.03 0.01,0.01 0.02,0.02 0.03,0.03 0.01,0.01 0.02,0.02 0.03,0.03 0.01,0.01 0.02,0.02 0.03,0.03 0.01,0.01 0.02,0.02 0.03,0.03 0.01,0.01 0.02,0.02 0.03,0.03 0.01,0.01 0.02,0.02 0.03,0.03 0.01,0.01 0.02,0.02 0.03,0.03 0.01,0.01 0.02,0.02 0.03,0.03 0.01,0.01 0.02,0.02 0.03,0.03 0.01,0.01 0.02,0.02 0.03,0.03 0.01,0.01 0.02,0.02 0.03,0.03 0.01,0.01 0.02,0.02 0.03,0.03 0.01,0.01 0.02,0.02 0.03,0.03 0.01,0.01 0.02,0.02 0.03,0.03 0.01,0.01 0.02,0.02 0.03,0.03 0.01,0.01 0.02,0.02 0.03,0.03 0.01,0.01 0.02,0.02 0.03,0.03 0.01,0.01 0.02,0.02 0.03,0.03 0.01,0.01 0.02,0.02 0.03,0.03 0.01,0.01 0.02,0.02 0.03,0.03 0.01,0.01 0.02,0.02 0.03,0.03 0.01,0.01 0.02,0.02 0.03,0.03 0.01,0.01 0.02,0.02 0.03,0.03 0.01,0.01 0.02,0.02 0.03,0.03 0.01,0.01 0.02,0.02 0.03,0.03 0.01,0.01 0.02,0.02 0.03,0.03 0.01,0.01 0.02,0.02 0.03,0.03l0.03 0.03c0.01,0.01 0.02,0.02 0.03,0.03 0.01,0.01 0.02,0.02 0.03,0.03 0.01,0.01 0.02,0.02 0.03,0.03 0.01,0.01 0.02,0.02 0.03,0.03 0.01,0.01 0.02,0.02 0.03,0.03 0.01,0.01 0.02,0.02 0.03,0.03 0.01,0.01 0.02,0.02 0.03,0.03 0.01,0.01 0.02,0.02 0.03,0.03 0.01,0.01 0.02,0.02 0.03,0.03 0.01,0.01 0.02,0.02 0.03,0.03 0.01,0.01 0.02,0.02 0.03,0.03 0.01,0.01 0.02,0.02 0.03,0.03 0.01,0.01 0.02,0.02 0.03,0.03 0.01,0.01 0.02,0.02 0.03,0.03 0.01,0.01 0.02,0.02 0.03,0.03 0.01,0.01 0.02,0.02 0.03,0.03 0.01,0.01 0.02,0.02 0.03,0.03 0.01,0.01 0.02,0.02 0.03,0.03 0.01,0.01 0.02,0.02 0.03,0.03 0.01,0.01 0.02,0.02 0.03,0.03 0.01,0.01 0.02,0.02 0.03,0.03 0.01,0.01 0.02,0.02 0.03,0.03 0.01,0.01 0.02,0.02 0.03,0.03 0.01,0.01 0.02,0.02 0.03,0.03 0.01,0.01 0.02,0.02 0.03,0.03 0.01,0.01 0.02,0.02 0.03,0.03 0.01,0.01 0.02,0.02 0.03,0.03 0.01,0.01 0.02,0.02 0.03,0.03 0.01,0.01 0.02,0.02 0.03,0.03 0.01,0.01 0.02,0.02 0.03,0.03 0.01,0.01 0.02,0.02 0.03,0.03 0.01,0.01 0.02,0.02 0.03,0.03 0.01,0.01 0.02,0.02 0.03,0.03 0.01,0.01 0.02,0.02 0.03,0.03 0.01,0.01 0.02,0.02 0.03,0.03 0.01,0.01 0.02,0.02 0.03,0.03 0.01,0.01 0.02,0.02 0.03,0.03 0.01,0.01 0.02,0.02 0.03,0.03 0.01,0.01 0.02,0.02 0.03,0.03 0.01,0.01 0.02,0.02 0.03,0.03 0.01,0.01 0.02,0.02 0.03,0.03 0.01,0.01 0.02,0.02 0.03,0.03 2.32,2.33 5.53,3.78 9.08,3.78 7.07,0 12.82,-5.75 12.82,-12.82l0 -0.05c0,-2.97 -1.04,-5.86 -2.93,-8.15l-13.2 -16.02z"/>
   <path class="fil3" d="M12.82 23.59c-7.07,0 -12.82,5.75 -12.82,12.83l0 0.05c0,2.97 1.04,5.87 2.93,8.16l13.19 15.99c0.63,0.76 0.98,1.73 0.98,2.72l0 0.87c0,2.36 -1.92,4.28 -4.28,4.28 -2.36,0 -4.28,-1.92 -4.28,-4.28l0 -5.8 0 -1.07 -1.07 0 -6.41 0 -1.07 0 0 1.07 0 5.8c0,7.07 5.75,12.83 12.82,12.83 7.07,0 12.82,-5.75 12.82,-12.83l0 -0.05c0,-2.97 -1.04,-5.86 -2.93,-8.15l-13.2 -16.03c-0.63,-0.76 -0.98,-1.73 -0.98,-2.72l0 -0.84c0,-2.36 1.92,-4.28 4.28,-4.28 2.36,0 4.28,1.92 4.28,4.28l0 5.8 0 1.07 1.07 0 6.41 0 1.07 0 0 -1.07 0 -5.8c0,-7.07 -5.75,-12.83 -12.82,-12.83zm8.84 15.63l0 0.08 -0.08 0 -0.43 0 -0.08 0 0 -0.08 0 -2.81c0,-4.55 -3.7,-8.25 -8.25,-8.25 -4.32,0 -7.93,3.37 -8.23,7.67 -0.02,0.23 -0.04,0.64 -0.04,0.83 -0,0 -0.01,0.17 0.03,0.75 0.19,2.04 0.85,3.66 2.04,4.95l13.2 16.02c1.23,1.49 1.85,3.41 1.85,5.7l0 0.05 0 0.01 0 0.05c0,0.04 0,0.08 -0,0.13l0 0.07 0 -0c-0.1,4.79 -4.03,8.65 -8.84,8.65 -4.88,0 -8.84,-3.97 -8.84,-8.84l0 -2.81 0 -0.08 0.08 0 0.43 0 0.08 0 0 0.08 0 2.81c0,4.55 3.7,8.26 8.25,8.26 4.55,0 8.25,-3.7 8.25,-8.26l0 -0.87c0,-0.11 -0,-0.23 -0.01,-0.34l-0 -0.04c-0.1,-1.58 -0.82,-3.27 -2.04,-4.74l-13.19 -15.99c-0.98,-1.19 -1.55,-2.67 -1.79,-4.68l-0.01 -0.09 0 0c-0.04,-0.33 -0.06,-0.67 -0.06,-0.99l0 -0.05c0,-4.88 3.97,-8.84 8.84,-8.84 4.88,0 8.84,3.97 8.84,8.84l0 2.81zm26.48 -15.63c-7.07,0 -12.82,5.75 -12.82,12.83l0 27.79c0,7.07 5.75,12.83 12.82,12.83 7.07,0 12.82,-5.75 12.82,-12.83l0 -27.79c0,-7.07 -5.75,-12.83 -12.82,-12.83zm4.28 40.61c0,2.36 -1.92,4.28 -4.28,4.28 -2.36,0 -4.27,-1.92 -4.27,-4.28l0 -27.79c0,-2.36 1.92,-4.28 4.27,-4.28 2.36,0 4.28,1.92 4.28,4.28l0 27.79zm4.57 0c0,4.88 -3.97,8.84 -8.84,8.84 -4.88,0 -8.84,-3.97 -8.84,-8.84l0 -27.79c0,-4.88 3.97,-8.84 8.84,-8.84 4.88,0 8.84,3.97 8.84,8.84l0 27.79zm-8.84 -36.04c-4.55,0 -8.25,3.7 -8.25,8.26l0 27.79c0,4.55 3.7,8.25 8.25,8.25 4.55,0 8.26,-3.7 8.26,-8.25l0 -27.79c0,-4.55 -3.7,-8.26 -8.26,-8.26zm44.04 -4.57l-20.3 0 -1.07 0 0 1.07 0 51.3 0 1.07 1.07 0 6.41 0 1.07 0 0 -1.07 0 -21.37 8.34 0 1.07 0 0 -1.07 0 -6.41 0 -1.07 -1.07 0 -8.34 0 0 -13.89 12.82 0 1.07 0 0 -1.07 0 -6.41 0 -1.07 -1.07 0zm-2.91 4.06l0 0.43 0 0.08 -0.08 0 -10.9 0 -2.91 0 0 21.85 2.91 0 6.41 0 0.08 0 0 0.08 0 0.43 0 0.08 -0.08 0 -6.41 0 -2.91 0 0 22.36 0 0.08 -0.08 0 -0.43 0 -0.08 0 0 -0.08 0 -45.31 0 -0.08 0.08 0 14.32 0 0.08 0 0 0.08zm34.94 -4.06l-23.51 0 -1.07 0 0 1.07 0 6.41 0 1.07 1.07 0 7.48 0 0 43.82 0 1.07 1.07 0 6.41 0 1.07 0 0 -1.07 0 -43.82 5.88 0 1.6 0 1.07 0 0 -1.07 0 -6.41 0 -1.07 -1.07 0zm-2.91 4.06l0 0.43 0 0.08 -0.08 0 -5.56 0 -2.91 0 0 44.81 0 0.08 -0.08 0 -0.43 0 -0.08 0 0 -0.08 0 -44.81 -2.91 0 -5.56 0 -0.08 0 0 -0.08 0 -0.43 0 -0.08 0.08 0 17.53 0 0.08 0 0 0.08zm23.65 -4.06c-7.07,0 -12.82,5.75 -12.82,12.83l0 0.05c0,2.97 1.04,5.87 2.93,8.16l13.19 15.99c0.63,0.76 0.98,1.73 0.98,2.72l0 0.87c0,2.36 -1.92,4.28 -4.28,4.28 -2.36,0 -4.28,-1.92 -4.28,-4.28l0 -5.8 0 -1.07 -1.07 0 -6.41 0 -1.07 0 0 1.07 0 5.8c0,7.07 5.75,12.83 12.82,12.83 7.07,0 12.82,-5.75 12.82,-12.83l0 -0.05c0,-2.97 -1.04,-5.86 -2.93,-8.15l-13.2 -16.03c-0.63,-0.76 -0.98,-1.73 -0.98,-2.72l0 -0.84c0,-2.36 1.92,-4.28 4.28,-4.28 2.36,0 4.28,1.92 4.28,4.28l0 5.8 0 1.07 1.07 0 6.41 0 1.07 0 0 -1.07 0 -5.8c0,-7.07 -5.75,-12.83 -12.82,-12.83zm8.84 15.63l0 0.08 -0.08 0 -0.43 0 -0.08 0 0 -0.08 0 -2.81c0,-4.55 -3.7,-8.25 -8.25,-8.25 -4.32,0 -7.93,3.37 -8.24,7.67 -0.02,0.23 -0.04,0.64 -0.04,0.83 -0,0 -0.01,0.17 0.03,0.75 0.19,2.04 0.85,3.66 2.04,4.95l13.2 16.02c1.23,1.49 1.85,3.41 1.85,5.7l0 0.05 0 0.01 0 0.05c0,0.04 0,0.08 -0,0.13l0 0.07 0 -0c-0.1,4.79 -4.03,8.65 -8.84,8.65 -4.88,0 -8.84,-3.97 -8.84,-8.84l0 -2.81 0 -0.08 0.08 0 0.43 0 0.08 0 0 0.08 0 2.81c0,4.55 3.7,8.26 8.25,8.26 4.55,0 8.25,-3.7 8.25,-8.26l0 -0.87c0,-0.11 -0.01,-0.23 -0.01,-0.34l-0 -0.04c-0.1,-1.58 -0.82,-3.27 -2.04,-4.74l-13.19 -15.99c-0.98,-1.19 -1.55,-2.67 -1.79,-4.68l-0.01 -0.09 0 0c-0.04,-0.33 -0.06,-0.67 -0.06,-0.99l0 -0.05c0,-4.88 3.97,-8.84 8.84,-8.84 4.88,0 8.84,3.97 8.84,8.84l0 2.81z"/>
  </g>
 </g>
</svg>
